<?xml version="1.0" encoding="UTF-8"?>
<!DOCTYPE svg PUBLIC "-//W3C//DTD SVG 1.1//EN" "http://www.w3.org/Graphics/SVG/1.1/DTD/svg11.dtd">
<svg xmlns="http://www.w3.org/2000/svg" version="1.1" width="980px" height="980px" style="shape-rendering:geometricPrecision; text-rendering:geometricPrecision; image-rendering:optimizeQuality; fill-rule:evenodd; clip-rule:evenodd" xmlns:xlink="http://www.w3.org/1999/xlink">
<g><path style="opacity:1" fill="#020202" d="M 458.5,-0.5 C 479.167,-0.5 499.833,-0.5 520.5,-0.5C 651.657,9.91706 761.99,62.9171 851.5,158.5C 851.427,160.027 852.094,161.027 853.5,161.5C 855.5,162.833 857.167,164.5 858.5,166.5C 858.738,168.404 859.738,169.738 861.5,170.5C 862.833,171.167 863.833,172.167 864.5,173.5C 864.427,175.027 865.094,176.027 866.5,176.5C 867.833,177.167 868.833,178.167 869.5,179.5C 869.427,181.027 870.094,182.027 871.5,182.5C 872.167,182.5 872.5,182.833 872.5,183.5C 872.738,185.404 873.738,186.738 875.5,187.5C 878.185,190.19 880.518,193.19 882.5,196.5C 882.427,198.027 883.094,199.027 884.5,199.5C 885.167,199.5 885.5,199.833 885.5,200.5C 885.427,202.027 886.094,203.027 887.5,203.5C 887.738,205.404 888.738,206.738 890.5,207.5C 890.427,209.027 891.094,210.027 892.5,210.5C 892.427,212.027 893.094,213.027 894.5,213.5C 897.66,217.148 900.327,221.148 902.5,225.5C 902.427,227.027 903.094,228.027 904.5,228.5C 905.89,229.899 906.89,231.566 907.5,233.5C 907.427,235.027 908.094,236.027 909.5,236.5C 910.338,236.842 910.672,237.508 910.5,238.5C 910.427,240.027 911.094,241.027 912.5,241.5C 934.294,277.767 950.628,316.434 961.5,357.5C 961.41,360.152 962.076,362.485 963.5,364.5C 971.861,395.333 977.194,426.666 979.5,458.5C 979.5,479.167 979.5,499.833 979.5,520.5C 966.039,674.963 897.373,798.13 773.5,890C 697.445,942.965 613.111,972.798 520.5,979.5C 499.833,979.5 479.167,979.5 458.5,979.5C 426.666,977.194 395.332,971.861 364.5,963.5C 362.485,962.076 360.152,961.41 357.5,961.5C 354.659,961.44 351.993,960.774 349.5,959.5C 347.898,957.926 345.898,957.259 343.5,957.5C 310.17,947.508 278.504,933.841 248.5,916.5C 248.027,915.094 247.027,914.427 245.5,914.5C 241.164,912.668 237.164,910.335 233.5,907.5C 233.027,906.094 232.027,905.427 230.5,905.5C 229.508,905.672 228.842,905.338 228.5,904.5C 228.027,903.094 227.027,902.427 225.5,902.5C 225.027,901.094 224.027,900.427 222.5,900.5C 222.027,899.094 221.027,898.427 219.5,898.5C 217.973,898.573 216.973,897.906 216.5,896.5C 216.027,895.094 215.027,894.427 213.5,894.5C 213.027,893.094 212.027,892.427 210.5,892.5C 210.027,891.094 209.027,890.427 207.5,890.5C 204.437,888.975 201.77,886.975 199.5,884.5C 199.027,883.094 198.027,882.427 196.5,882.5C 195.833,882.5 195.5,882.167 195.5,881.5C 195.027,880.094 194.027,879.427 192.5,879.5C 188.854,877.183 185.52,874.516 182.5,871.5C 182.027,870.094 181.027,869.427 179.5,869.5C 178.167,868.833 177.167,867.833 176.5,866.5C 176.027,865.094 175.027,864.427 173.5,864.5C 171.833,863.5 170.5,862.167 169.5,860.5C 168.738,858.738 167.404,857.738 165.5,857.5C 163.833,856.5 162.5,855.167 161.5,853.5C 160.415,851.413 158.749,850.08 156.5,849.5C 122.569,818.593 93.9028,783.593 70.5,744.5C 70.7148,742.821 70.0481,741.821 68.5,741.5C 68.1667,740.833 67.8333,740.167 67.5,739.5C 67.7148,737.821 67.0481,736.821 65.5,736.5C 64.8333,735.167 64.1667,733.833 63.5,732.5C 63.7148,730.821 63.0481,729.821 61.5,729.5C 25.4449,664.34 4.77824,594.674 -0.5,520.5C -0.5,499.5 -0.5,478.5 -0.5,457.5C 2.03332,424.634 7.69998,392.301 16.5,360.5C 17.9238,358.485 18.5905,356.152 18.5,353.5C 29.2715,313.829 45.2715,276.496 66.5,241.5C 67.9063,241.027 68.573,240.027 68.5,238.5C 68.3284,237.508 68.6618,236.842 69.5,236.5C 70.9063,236.027 71.573,235.027 71.5,233.5C 71.3284,232.508 71.6618,231.842 72.5,231.5C 73.9063,231.027 74.573,230.027 74.5,228.5C 75.9063,228.027 76.573,227.027 76.5,225.5C 77.9063,225.027 78.573,224.027 78.5,222.5C 79.7589,218.975 81.7589,215.975 84.5,213.5C 85.9063,213.027 86.573,212.027 86.5,210.5C 87.9063,210.027 88.573,209.027 88.5,207.5C 90.2624,206.738 91.2624,205.404 91.5,203.5C 92.9063,203.027 93.573,202.027 93.5,200.5C 94.1237,198.246 95.457,196.579 97.5,195.5C 98.9063,195.027 99.573,194.027 99.5,192.5C 99.5,191.833 99.8333,191.5 100.5,191.5C 101.906,191.027 102.573,190.027 102.5,188.5C 102.5,187.833 102.833,187.5 103.5,187.5C 105.262,186.738 106.262,185.404 106.5,183.5C 106.5,182.833 106.833,182.5 107.5,182.5C 109.262,181.738 110.262,180.404 110.5,178.5C 110.833,177.5 111.5,176.833 112.5,176.5C 113.906,176.027 114.573,175.027 114.5,173.5C 115.167,172.167 116.167,171.167 117.5,170.5C 119.262,169.738 120.262,168.404 120.5,166.5C 121.5,164.833 122.833,163.5 124.5,162.5C 126.587,161.415 127.92,159.749 128.5,157.5C 136.167,149.167 144.167,141.167 152.5,133.5C 156.1,131.57 159.1,128.903 161.5,125.5C 162.167,124.167 163.167,123.167 164.5,122.5C 167.089,121.581 169.089,119.914 170.5,117.5C 170.5,116.833 170.833,116.5 171.5,116.5C 173.749,115.92 175.415,114.587 176.5,112.5C 176.5,111.833 176.833,111.5 177.5,111.5C 179.749,110.92 181.415,109.587 182.5,107.5C 182.5,106.833 182.833,106.5 183.5,106.5C 185.404,106.262 186.738,105.262 187.5,103.5C 188.579,101.457 190.246,100.124 192.5,99.5C 194.404,99.2624 195.738,98.2624 196.5,96.5C 198.86,94.1468 201.527,92.1468 204.5,90.5C 206.027,90.573 207.027,89.9063 207.5,88.5C 209.027,88.573 210.027,87.9063 210.5,86.5C 214.976,82.4254 219.976,79.0921 225.5,76.5C 227.027,76.573 228.027,75.9063 228.5,74.5C 229.899,73.1103 231.566,72.1103 233.5,71.5C 235.027,71.573 236.027,70.9063 236.5,69.5C 236.842,68.6618 237.508,68.3284 238.5,68.5C 240.027,68.573 241.027,67.9063 241.5,66.5C 244.678,63.7417 248.345,61.7417 252.5,60.5C 254.027,60.573 255.027,59.9063 255.5,58.5C 318.883,24.0712 386.55,4.40451 458.5,-0.5 Z"/></g>
<g><path style="opacity:1" fill="#787878" d="M 255.5,58.5 C 255.027,59.9063 254.027,60.573 252.5,60.5C 252.973,59.0937 253.973,58.427 255.5,58.5 Z"/></g>
<g><path style="opacity:1" fill="#808080" d="M 241.5,66.5 C 241.027,67.9063 240.027,68.573 238.5,68.5C 238.973,67.0937 239.973,66.427 241.5,66.5 Z"/></g>
<g><path style="opacity:1" fill="#7f7f7f" d="M 236.5,69.5 C 236.027,70.9063 235.027,71.573 233.5,71.5C 233.973,70.0937 234.973,69.427 236.5,69.5 Z"/></g>
<g><path style="opacity:1" fill="#7a7a7a" d="M 228.5,74.5 C 228.027,75.9063 227.027,76.573 225.5,76.5C 225.973,75.0937 226.973,74.427 228.5,74.5 Z"/></g>
<g><path style="opacity:1" fill="#9ad9ea" d="M 463.5,79.5 C 605.681,74.6964 721.848,126.696 812,235.5C 896.701,348.355 920.034,473.022 882,609.5C 836.491,745.675 745.658,836.509 609.5,882C 482.345,917.973 364.011,899.306 254.5,826C 148.974,748.826 90.8075,644.659 80,513.5C 75.4998,372.2 127.333,256.7 235.5,167C 302.593,115.127 378.593,85.9607 463.5,79.5 Z"/></g>
<g><path style="opacity:1" fill="#777777" d="M 210.5,86.5 C 210.027,87.9063 209.027,88.573 207.5,88.5C 207.973,87.0937 208.973,86.427 210.5,86.5 Z"/></g>
<g><path style="opacity:1" fill="#8c8c8c" d="M 207.5,88.5 C 207.027,89.9063 206.027,90.573 204.5,90.5C 204.973,89.0937 205.973,88.427 207.5,88.5 Z"/></g>
<g><path style="opacity:1" fill="#818181" d="M 196.5,96.5 C 195.738,98.2624 194.404,99.2624 192.5,99.5C 193.262,97.7376 194.596,96.7376 196.5,96.5 Z"/></g>
<g><path style="opacity:1" fill="#797979" d="M 187.5,103.5 C 186.738,105.262 185.404,106.262 183.5,106.5C 184.262,104.738 185.596,103.738 187.5,103.5 Z"/></g>
<g><path style="opacity:1" fill="#5c5c5c" d="M 182.5,107.5 C 181.415,109.587 179.749,110.92 177.5,111.5C 178.585,109.413 180.251,108.08 182.5,107.5 Z"/></g>
<g><path style="opacity:1" fill="#585858" d="M 176.5,112.5 C 175.415,114.587 173.749,115.92 171.5,116.5C 172.585,114.413 174.251,113.08 176.5,112.5 Z"/></g>
<g><path style="opacity:1" fill="#676767" d="M 170.5,117.5 C 169.089,119.914 167.089,121.581 164.5,122.5C 165.911,120.086 167.911,118.419 170.5,117.5 Z"/></g>
<g><path style="opacity:1" fill="#5a5a5a" d="M 161.5,125.5 C 159.1,128.903 156.1,131.57 152.5,133.5C 154.9,130.097 157.9,127.43 161.5,125.5 Z"/></g>
<g><path style="opacity:1" fill="#000000" d="M 478.5,146.5 C 502.05,143.028 523.383,148.195 542.5,162C 563.729,182.411 570.563,206.911 563,235.5C 554.167,261.332 536.333,276.832 509.5,282C 485.683,286.808 464.016,282.141 444.5,268C 425.393,250.353 417.559,228.52 421,202.5C 428.542,171.79 447.709,153.123 478.5,146.5 Z"/></g>
<g><path style="opacity:1" fill="#989898" d="M 851.5,158.5 C 852.906,158.973 853.573,159.973 853.5,161.5C 852.094,161.027 851.427,160.027 851.5,158.5 Z"/></g>
<g><path style="opacity:1" fill="#949494" d="M 128.5,157.5 C 127.92,159.749 126.587,161.415 124.5,162.5C 125.08,160.251 126.413,158.585 128.5,157.5 Z"/></g>
<g><path style="opacity:1" fill="#8b8b8b" d="M 120.5,166.5 C 120.262,168.404 119.262,169.738 117.5,170.5C 117.738,168.596 118.738,167.262 120.5,166.5 Z"/></g>
<g><path style="opacity:1" fill="#939393" d="M 858.5,166.5 C 860.262,167.262 861.262,168.596 861.5,170.5C 859.738,169.738 858.738,168.404 858.5,166.5 Z"/></g>
<g><path style="opacity:1" fill="#8a8a8a" d="M 114.5,173.5 C 114.573,175.027 113.906,176.027 112.5,176.5C 112.427,174.973 113.094,173.973 114.5,173.5 Z"/></g>
<g><path style="opacity:1" fill="#868686" d="M 864.5,173.5 C 865.906,173.973 866.573,174.973 866.5,176.5C 865.094,176.027 864.427,175.027 864.5,173.5 Z"/></g>
<g><path style="opacity:1" fill="#797979" d="M 110.5,178.5 C 110.262,180.404 109.262,181.738 107.5,182.5C 107.738,180.596 108.738,179.262 110.5,178.5 Z"/></g>
<g><path style="opacity:1" fill="#979797" d="M 869.5,179.5 C 870.906,179.973 871.573,180.973 871.5,182.5C 870.094,182.027 869.427,181.027 869.5,179.5 Z"/></g>
<g><path style="opacity:1" fill="#7b7b7b" d="M 106.5,183.5 C 106.262,185.404 105.262,186.738 103.5,187.5C 103.738,185.596 104.738,184.262 106.5,183.5 Z"/></g>
<g><path style="opacity:1" fill="#797979" d="M 872.5,183.5 C 874.262,184.262 875.262,185.596 875.5,187.5C 873.738,186.738 872.738,185.404 872.5,183.5 Z"/></g>
<g><path style="opacity:1" fill="#7c7c7c" d="M 102.5,188.5 C 102.573,190.027 101.906,191.027 100.5,191.5C 100.427,189.973 101.094,188.973 102.5,188.5 Z"/></g>
<g><path style="opacity:1" fill="#787878" d="M 99.5,192.5 C 99.573,194.027 98.9063,195.027 97.5,195.5C 97.427,193.973 98.0937,192.973 99.5,192.5 Z"/></g>
<g><path style="opacity:1" fill="#7c7c7c" d="M 882.5,196.5 C 883.906,196.973 884.573,197.973 884.5,199.5C 883.094,199.027 882.427,198.027 882.5,196.5 Z"/></g>
<g><path style="opacity:1" fill="#868686" d="M 93.5,200.5 C 93.573,202.027 92.9063,203.027 91.5,203.5C 91.427,201.973 92.0937,200.973 93.5,200.5 Z"/></g>
<g><path style="opacity:1" fill="#868686" d="M 885.5,200.5 C 886.906,200.973 887.573,201.973 887.5,203.5C 886.094,203.027 885.427,202.027 885.5,200.5 Z"/></g>
<g><path style="opacity:1" fill="#787878" d="M 91.5,203.5 C 91.2624,205.404 90.2624,206.738 88.5,207.5C 88.7376,205.596 89.7376,204.262 91.5,203.5 Z"/></g>
<g><path style="opacity:1" fill="#797979" d="M 887.5,203.5 C 889.262,204.262 890.262,205.596 890.5,207.5C 888.738,206.738 887.738,205.404 887.5,203.5 Z"/></g>
<g><path style="opacity:1" fill="#888888" d="M 88.5,207.5 C 88.573,209.027 87.9063,210.027 86.5,210.5C 86.427,208.973 87.0937,207.973 88.5,207.5 Z"/></g>
<g><path style="opacity:1" fill="#8f8f8f" d="M 890.5,207.5 C 891.906,207.973 892.573,208.973 892.5,210.5C 891.094,210.027 890.427,209.027 890.5,207.5 Z"/></g>
<g><path style="opacity:1" fill="#7c7c7c" d="M 86.5,210.5 C 86.573,212.027 85.9063,213.027 84.5,213.5C 84.427,211.973 85.0937,210.973 86.5,210.5 Z"/></g>
<g><path style="opacity:1" fill="#7b7b7b" d="M 892.5,210.5 C 893.906,210.973 894.573,211.973 894.5,213.5C 893.094,213.027 892.427,212.027 892.5,210.5 Z"/></g>
<g><path style="opacity:1" fill="#7e7e7e" d="M 78.5,222.5 C 78.573,224.027 77.9063,225.027 76.5,225.5C 76.427,223.973 77.0937,222.973 78.5,222.5 Z"/></g>
<g><path style="opacity:1" fill="#888888" d="M 76.5,225.5 C 76.573,227.027 75.9063,228.027 74.5,228.5C 74.427,226.973 75.0937,225.973 76.5,225.5 Z"/></g>
<g><path style="opacity:1" fill="#969696" d="M 902.5,225.5 C 903.906,225.973 904.573,226.973 904.5,228.5C 903.094,228.027 902.427,227.027 902.5,225.5 Z"/></g>
<g><path style="opacity:1" fill="#a4a4a5" d="M 74.5,228.5 C 74.573,230.027 73.9063,231.027 72.5,231.5C 72.427,229.973 73.0937,228.973 74.5,228.5 Z"/></g>
<g><path style="opacity:1" fill="#949494" d="M 71.5,233.5 C 71.573,235.027 70.9063,236.027 69.5,236.5C 69.427,234.973 70.0937,233.973 71.5,233.5 Z"/></g>
<g><path style="opacity:1" fill="#9b9b9b" d="M 907.5,233.5 C 908.906,233.973 909.573,234.973 909.5,236.5C 908.094,236.027 907.427,235.027 907.5,233.5 Z"/></g>
<g><path style="opacity:1" fill="#969696" d="M 68.5,238.5 C 68.573,240.027 67.9063,241.027 66.5,241.5C 66.427,239.973 67.0937,238.973 68.5,238.5 Z"/></g>
<g><path style="opacity:1" fill="#9c9c9c" d="M 910.5,238.5 C 911.906,238.973 912.573,239.973 912.5,241.5C 911.094,241.027 910.427,240.027 910.5,238.5 Z"/></g>
<g><path style="opacity:1" fill="#000000" d="M 564.5,703.5 C 578.99,704.496 593.657,704.829 608.5,704.5C 608.176,711.354 608.509,718.021 609.5,724.5C 609.5,743.167 609.5,761.833 609.5,780.5C 530.498,780.429 451.498,780.763 372.5,781.5C 372.5,755.833 372.5,730.167 372.5,704.5C 390.5,704.5 408.5,704.5 426.5,704.5C 426.742,640.828 426.409,577.161 425.5,513.5C 425.5,481.833 425.5,450.167 425.5,418.5C 408.167,418.5 390.833,418.5 373.5,418.5C 373.5,391.833 373.5,365.167 373.5,338.5C 436.5,338.16 499.5,337.826 562.5,337.5C 562.734,459.503 563.401,581.503 564.5,703.5 Z"/></g>
<g><path style="opacity:1" fill="#757575" d="M 18.5,353.5 C 18.5905,356.152 17.9238,358.485 16.5,360.5C 16.4095,357.848 17.0762,355.515 18.5,353.5 Z"/></g>
<g><path style="opacity:1" fill="#6e6e6e" d="M 961.5,357.5 C 962.924,359.515 963.59,361.848 963.5,364.5C 962.076,362.485 961.41,360.152 961.5,357.5 Z"/></g>
<g><path style="opacity:1" fill="#b5b5b5" d="M 373.5,418.5 C 390.833,418.5 408.167,418.5 425.5,418.5C 425.5,450.167 425.5,481.833 425.5,513.5C 424.502,482.338 424.168,451.004 424.5,419.5C 407.325,419.83 390.325,419.497 373.5,418.5 Z"/></g>
<g><path style="opacity:1" fill="#424242" d="M 564.5,703.5 C 579.5,703.5 594.5,703.5 609.5,703.5C 609.5,710.5 609.5,717.5 609.5,724.5C 608.509,718.021 608.176,711.354 608.5,704.5C 593.657,704.829 578.99,704.496 564.5,703.5 Z"/></g>
<g><path style="opacity:1" fill="#7b7b7b" d="M 61.5,729.5 C 63.0481,729.821 63.7148,730.821 63.5,732.5C 62.5987,731.71 61.9321,730.71 61.5,729.5 Z"/></g>
<g><path style="opacity:1" fill="#7d7d7d" d="M 65.5,736.5 C 67.0481,736.821 67.7148,737.821 67.5,739.5C 66.5987,738.71 65.9321,737.71 65.5,736.5 Z"/></g>
<g><path style="opacity:1" fill="#7d7d7d" d="M 68.5,741.5 C 70.0481,741.821 70.7148,742.821 70.5,744.5C 69.5987,743.71 68.9321,742.71 68.5,741.5 Z"/></g>
<g><path style="opacity:1" fill="#979797" d="M 156.5,849.5 C 158.749,850.08 160.415,851.413 161.5,853.5C 159.251,852.92 157.585,851.587 156.5,849.5 Z"/></g>
<g><path style="opacity:1" fill="#878787" d="M 165.5,857.5 C 167.404,857.738 168.738,858.738 169.5,860.5C 167.596,860.262 166.262,859.262 165.5,857.5 Z"/></g>
<g><path style="opacity:1" fill="#969696" d="M 173.5,864.5 C 175.027,864.427 176.027,865.094 176.5,866.5C 174.973,866.573 173.973,865.906 173.5,864.5 Z"/></g>
<g><path style="opacity:1" fill="#a0a0a0" d="M 179.5,869.5 C 181.027,869.427 182.027,870.094 182.5,871.5C 180.973,871.573 179.973,870.906 179.5,869.5 Z"/></g>
<g><path style="opacity:1" fill="#828282" d="M 192.5,879.5 C 194.027,879.427 195.027,880.094 195.5,881.5C 193.973,881.573 192.973,880.906 192.5,879.5 Z"/></g>
<g><path style="opacity:1" fill="#7f7f7f" d="M 196.5,882.5 C 198.027,882.427 199.027,883.094 199.5,884.5C 197.973,884.573 196.973,883.906 196.5,882.5 Z"/></g>
<g><path style="opacity:1" fill="#959595" d="M 207.5,890.5 C 209.027,890.427 210.027,891.094 210.5,892.5C 208.973,892.573 207.973,891.906 207.5,890.5 Z"/></g>
<g><path style="opacity:1" fill="#8a8a8a" d="M 210.5,892.5 C 212.027,892.427 213.027,893.094 213.5,894.5C 211.973,894.573 210.973,893.906 210.5,892.5 Z"/></g>
<g><path style="opacity:1" fill="#7e7e7e" d="M 213.5,894.5 C 215.027,894.427 216.027,895.094 216.5,896.5C 214.973,896.573 213.973,895.906 213.5,894.5 Z"/></g>
<g><path style="opacity:1" fill="#828282" d="M 219.5,898.5 C 221.027,898.427 222.027,899.094 222.5,900.5C 220.973,900.573 219.973,899.906 219.5,898.5 Z"/></g>
<g><path style="opacity:1" fill="#909090" d="M 222.5,900.5 C 224.027,900.427 225.027,901.094 225.5,902.5C 223.973,902.573 222.973,901.906 222.5,900.5 Z"/></g>
<g><path style="opacity:1" fill="#989898" d="M 225.5,902.5 C 227.027,902.427 228.027,903.094 228.5,904.5C 226.973,904.573 225.973,903.906 225.5,902.5 Z"/></g>
<g><path style="opacity:1" fill="#868686" d="M 230.5,905.5 C 232.027,905.427 233.027,906.094 233.5,907.5C 231.973,907.573 230.973,906.906 230.5,905.5 Z"/></g>
<g><path style="opacity:1" fill="#949494" d="M 245.5,914.5 C 247.027,914.427 248.027,915.094 248.5,916.5C 246.973,916.573 245.973,915.906 245.5,914.5 Z"/></g>
<g><path style="opacity:1" fill="#777777" d="M 343.5,957.5 C 345.898,957.259 347.898,957.926 349.5,959.5C 347.214,959.405 345.214,958.738 343.5,957.5 Z"/></g>
<g><path style="opacity:1" fill="#727272" d="M 357.5,961.5 C 360.152,961.41 362.485,962.076 364.5,963.5C 361.848,963.59 359.515,962.924 357.5,961.5 Z"/></g>
</svg>
