<?xml version="1.0" encoding="UTF-8"?>
<!DOCTYPE svg PUBLIC "-//W3C//DTD SVG 1.1//EN" "http://www.w3.org/Graphics/SVG/1.1/DTD/svg11.dtd">
<svg xmlns="http://www.w3.org/2000/svg" version="1.1" width="69px" height="70px" style="shape-rendering:geometricPrecision; text-rendering:geometricPrecision; image-rendering:optimizeQuality; fill-rule:evenodd; clip-rule:evenodd" xmlns:xlink="http://www.w3.org/1999/xlink">
<g><path style="opacity:0.761" fill="#e46d83" d="M 25.5,-0.5 C 31.1667,-0.5 36.8333,-0.5 42.5,-0.5C 42.5,-0.166667 42.5,0.166667 42.5,0.5C 37.1563,0.333983 31.8229,0.500649 26.5,1C 23.6473,2.43011 20.6473,3.26344 17.5,3.5C 20.0791,1.97475 22.7458,0.641417 25.5,-0.5 Z"/></g>
<g><path style="opacity:1" fill="#e44564" d="M 42.5,0.5 C 44.7916,2.26708 47.4582,3.26708 50.5,3.5C 53.8908,4.5293 56.5574,6.5293 58.5,9.5C 59.7376,12.7377 61.7376,15.4044 64.5,17.5C 66.1002,19.7026 67.4335,22.036 68.5,24.5C 68.5,30.8333 68.5,37.1667 68.5,43.5C 67.8333,43.5 67.5,43.8333 67.5,44.5C 65.7868,45.6354 65.1201,47.302 65.5,49.5C 62.8943,56.4385 58.2276,61.4385 51.5,64.5C 49.847,64.6596 48.5137,65.3263 47.5,66.5C 40.6219,68.1586 33.6219,68.8253 26.5,68.5C 13.1165,65.4508 4.1165,57.4508 -0.5,44.5C -0.5,37.8333 -0.5,31.1667 -0.5,24.5C 0.983589,20.8677 2.98359,17.5344 5.5,14.5C 8.83333,11.8333 11.8333,8.83333 14.5,5.5C 14.9731,4.09368 15.9731,3.42702 17.5,3.5C 20.6473,3.26344 23.6473,2.43011 26.5,1C 31.8229,0.500649 37.1563,0.333983 42.5,0.5 Z"/></g>
<g><path style="opacity:0.584" fill="#e58092" d="M 42.5,0.5 C 45.5418,0.732915 48.2084,1.73292 50.5,3.5C 47.4582,3.26708 44.7916,2.26708 42.5,0.5 Z"/></g>
<g><path style="opacity:0.8" fill="#e47186" d="M 14.5,5.5 C 11.8333,8.83333 8.83333,11.8333 5.5,14.5C 7.5,10.5 10.5,7.5 14.5,5.5 Z"/></g>
<g><path style="opacity:1" fill="#fdf6f8" d="M 17.5,11.5 C 23.1314,16.6303 28.6314,21.9637 34,27.5C 39.3333,22.1667 44.6667,16.8333 50,11.5C 52.9349,13.727 54.9349,16.3936 56,19.5C 50.9849,24.3481 46.1515,29.3481 41.5,34.5C 46.5,39.8333 51.5,45.1667 56.5,50.5C 54.6692,53.8736 52.0025,55.707 48.5,56C 43.6667,51.1667 38.8333,46.3333 34,41.5C 29.1667,46.3333 24.3333,51.1667 19.5,56C 16.3578,55.9122 13.8578,54.4122 12,51.5C 11.3333,50.8333 11.3333,50.1667 12,49.5C 17.0151,44.6519 21.8485,39.6519 26.5,34.5C 21.5,29.1667 16.5,23.8333 11.5,18.5C 13.5227,16.1472 15.5227,13.8138 17.5,11.5 Z"/></g>
<g><path style="opacity:1" fill="#e7778a" d="M 58.5,9.5 C 61.4707,11.4426 63.4707,14.1092 64.5,17.5C 61.7376,15.4044 59.7376,12.7377 58.5,9.5 Z"/></g>
<g><path style="opacity:0.588" fill="#ea92a0" d="M 67.5,44.5 C 67.5979,46.5529 66.9313,48.2196 65.5,49.5C 65.1201,47.302 65.7868,45.6354 67.5,44.5 Z"/></g>
<g><path style="opacity:0.208" fill="#e999a7" d="M 51.5,64.5 C 50.713,66.1042 49.3797,66.7709 47.5,66.5C 48.5137,65.3263 49.847,64.6596 51.5,64.5 Z"/></g>
<g><path style="opacity:0.651" fill="#e4788c" d="M 47.5,66.5 C 45.6287,67.7972 43.6287,68.7972 41.5,69.5C 36.5,69.5 31.5,69.5 26.5,69.5C 26.5,69.1667 26.5,68.8333 26.5,68.5C 33.6219,68.8253 40.6219,68.1586 47.5,66.5 Z"/></g>
</svg>
