<?xml version="1.0" encoding="UTF-8"?>
<!DOCTYPE svg PUBLIC "-//W3C//DTD SVG 1.1//EN" "http://www.w3.org/Graphics/SVG/1.1/DTD/svg11.dtd">
<svg xmlns="http://www.w3.org/2000/svg" version="1.1" width="432px" height="432px" style="shape-rendering:geometricPrecision; text-rendering:geometricPrecision; image-rendering:optimizeQuality; fill-rule:evenodd; clip-rule:evenodd" xmlns:xlink="http://www.w3.org/1999/xlink">
<g><path style="opacity:1" fill="#0e0e0e" d="M 228.5,1.5 C 234.97,2.69561 241.637,3.36227 248.5,3.5C 256.825,4.16398 264.825,5.83065 272.5,8.5C 274.515,9.92381 276.848,10.5905 279.5,10.5C 299.315,16.2432 317.649,24.9098 334.5,36.5C 336.092,40.4981 338.759,42.4981 342.5,42.5C 350.721,47.7129 358.388,53.7129 365.5,60.5C 367.167,62.8333 369.167,64.8333 371.5,66.5C 374.739,69.9829 377.739,73.6496 380.5,77.5C 380.427,79.0269 381.094,80.0269 382.5,80.5C 385.5,83.8333 388.5,87.1667 391.5,90.5C 392.5,92.5 393.5,94.5 394.5,96.5C 394.427,98.0269 395.094,99.0269 396.5,99.5C 396.427,101.027 397.094,102.027 398.5,102.5C 399.338,102.842 399.672,103.508 399.5,104.5C 399.427,106.027 400.094,107.027 401.5,107.5C 402.674,108.514 403.34,109.847 403.5,111.5C 403.427,113.027 404.094,114.027 405.5,114.5C 410.985,123.94 415.319,133.94 418.5,144.5C 418.528,147.916 419.528,150.916 421.5,153.5C 422.407,160.132 424.073,166.466 426.5,172.5C 428.471,180.002 429.471,187.669 429.5,195.5C 429.666,212.181 429.333,228.848 428.5,245.5C 423.096,285.621 407.429,320.954 381.5,351.5C 380.094,351.973 379.427,352.973 379.5,354.5C 378.167,356.5 376.5,358.167 374.5,359.5C 373.094,359.973 372.427,360.973 372.5,362.5C 371.833,363.833 370.833,364.833 369.5,365.5C 367.883,364.962 366.216,364.629 364.5,364.5C 364.629,366.216 364.962,367.883 365.5,369.5C 360.833,373.833 356.167,378.167 351.5,382.5C 329.617,399.697 305.284,412.363 278.5,420.5C 275.848,420.41 273.515,421.076 271.5,422.5C 270.432,423.434 269.099,423.768 267.5,423.5C 264.219,423.42 261.219,424.087 258.5,425.5C 234.274,430.881 209.941,431.548 185.5,427.5C 182.091,426.097 178.425,425.43 174.5,425.5C 172.379,425.675 170.379,425.341 168.5,424.5C 166.562,422.837 164.228,422.171 161.5,422.5C 161.167,422.5 160.833,422.5 160.5,422.5C 157.619,420.32 154.286,419.32 150.5,419.5C 149.01,417.72 147.01,417.054 144.5,417.5C 132.836,413.833 121.836,408.833 111.5,402.5C 111.027,401.094 110.027,400.427 108.5,400.5C 107.508,400.672 106.842,400.338 106.5,399.5C 106.027,398.094 105.027,397.427 103.5,397.5C 103.027,396.094 102.027,395.427 100.5,395.5C 96.9754,394.241 93.9754,392.241 91.5,389.5C 91.0269,388.094 90.0269,387.427 88.5,387.5C 81.8792,382.881 75.5459,377.881 69.5,372.5C 68.5,370.833 67.1667,369.5 65.5,368.5C 63.8333,366.167 61.8333,364.167 59.5,362.5C 58.5,361.167 57.5,359.833 56.5,358.5C 56.5,356.5 55.5,355.5 53.5,355.5C 52.5,354.167 51.5,352.833 50.5,351.5C 50.573,349.973 49.9063,348.973 48.5,348.5C 24.6425,319.43 9.9758,286.097 4.5,248.5C 4.55031,242.611 3.88364,236.944 2.5,231.5C 0.32679,209.228 1.99346,187.228 7.5,165.5C 9.16276,163.562 9.82943,161.228 9.5,158.5C 9.43255,157.041 9.76589,155.708 10.5,154.5C 11.3094,153.531 12.3094,152.698 13.5,152C 12.6634,150.989 12.33,149.822 12.5,148.5C 15.0874,148.12 15.754,146.953 14.5,145C 14.6107,143.278 15.1107,143.112 16,144.5C 16.8256,141.207 17.3256,137.874 17.5,134.5C 21.5458,123.406 26.8791,113.073 33.5,103.5C 34.9063,103.027 35.573,102.027 35.5,100.5C 40.0166,91.9834 45.6832,84.3167 52.5,77.5C 54.2624,76.7377 55.2624,75.4044 55.5,73.5C 56.8333,71.8333 58.1667,70.1667 59.5,68.5C 60.1667,68.1667 60.8333,67.8333 61.5,67.5C 64.1667,65.5 66.5,63.1667 68.5,60.5C 69.8333,58.5 71.5,56.8333 73.5,55.5C 75.7488,54.9202 77.4154,53.5869 78.5,51.5C 83.3076,46.0236 88.9742,41.6903 95.5,38.5C 98.9216,39.7922 100.922,38.4588 101.5,34.5C 104.494,32.0002 107.827,30.0002 111.5,28.5C 113.027,28.573 114.027,27.9063 114.5,26.5C 120.401,22.7176 126.734,19.7176 133.5,17.5C 135.939,16.9475 138.273,16.9475 140.5,17.5C 141.5,17 142.5,16.5 143.5,16C 142.402,15.2303 142.402,14.397 143.5,13.5C 145.297,12.2702 147.297,11.6036 149.5,11.5C 152.228,11.8294 154.562,11.1628 156.5,9.5C 159.228,9.82943 161.562,9.16276 163.5,7.5C 163.833,7.5 164.167,7.5 164.5,7.5C 167.428,7.43487 170.095,6.7682 172.5,5.5C 176.267,4.20532 180.267,3.53866 184.5,3.5C 190.699,3.34843 196.699,2.68177 202.5,1.5C 211.295,0.211504 219.962,0.211504 228.5,1.5 Z"/></g>
<g><path style="opacity:1" fill="#b5b5b5" d="M 228.5,1.5 C 235.396,1.29447 242.063,1.96114 248.5,3.5C 241.637,3.36227 234.97,2.69561 228.5,1.5 Z"/></g>
<g><path style="opacity:1" fill="#949494" d="M 202.5,1.5 C 196.699,2.68177 190.699,3.34843 184.5,3.5C 190.261,1.94306 196.261,1.27639 202.5,1.5 Z"/></g>
<g><path style="opacity:1" fill="#a6a6a6" d="M 172.5,5.5 C 170.095,6.7682 167.428,7.43487 164.5,7.5C 166.838,5.96046 169.505,5.29379 172.5,5.5 Z"/></g>
<g><path style="opacity:1" fill="#909090" d="M 163.5,7.5 C 161.562,9.16276 159.228,9.82943 156.5,9.5C 158.515,8.07619 160.848,7.40953 163.5,7.5 Z"/></g>
<g><path style="opacity:1" fill="#d5d5d5" d="M 272.5,8.5 C 275.152,8.40953 277.485,9.07619 279.5,10.5C 276.848,10.5905 274.515,9.92381 272.5,8.5 Z"/></g>
<g><path style="opacity:1" fill="#8c8c8c" d="M 156.5,9.5 C 154.562,11.1628 152.228,11.8294 149.5,11.5C 151.599,10.3882 153.933,9.72148 156.5,9.5 Z"/></g>
<g><path style="opacity:1" fill="#595959" d="M 143.5,13.5 C 142.402,14.397 142.402,15.2303 143.5,16C 142.5,16.5 141.5,17 140.5,17.5C 138.273,16.9475 135.939,16.9475 133.5,17.5C 136.54,15.6541 139.873,14.3208 143.5,13.5 Z"/></g>
<g><path style="opacity:1" fill="#eee3b1" d="M 186.5,409.5 C 178.403,407.009 170.07,405.009 161.5,403.5C 99.3175,384.155 56.1509,344.155 32,283.5C 5.50911,199.627 24.0091,127.46 87.5,67C 151.755,15.5225 222.088,5.52247 298.5,37C 370.531,73.5879 408.531,132.421 412.5,213.5C 410.404,289.017 377.404,346.517 313.5,386C 273.791,408.011 231.458,415.844 186.5,409.5 Z"/></g>
<g><path style="opacity:1" fill="#a5a5a5" d="M 114.5,26.5 C 114.027,27.9063 113.027,28.573 111.5,28.5C 111.973,27.0937 112.973,26.427 114.5,26.5 Z"/></g>
<g><path style="opacity:1" fill="#4a4a4a" d="M 101.5,34.5 C 100.922,38.4588 98.9216,39.7922 95.5,38.5C 96.8021,36.1782 98.8021,34.8449 101.5,34.5 Z"/></g>
<g><path style="opacity:1" fill="#505050" d="M 334.5,36.5 C 337.563,38.0252 340.23,40.0252 342.5,42.5C 338.759,42.4981 336.092,40.4981 334.5,36.5 Z"/></g>
<g><path style="opacity:1" fill="#868686" d="M 78.5,51.5 C 77.4154,53.5869 75.7488,54.9202 73.5,55.5C 74.5846,53.4131 76.2512,52.0798 78.5,51.5 Z"/></g>
<g><path style="opacity:1" fill="#fdfefd" d="M 365.5,59.5 C 366.833,60.1667 366.833,60.1667 365.5,59.5 Z"/></g>
<g><path style="opacity:1" fill="#b1b1b1" d="M 68.5,60.5 C 66.5,63.1667 64.1667,65.5 61.5,67.5C 62.8333,64.1667 65.1667,61.8333 68.5,60.5 Z"/></g>
<g><path style="opacity:1" fill="#060606" d="M 214.5,64.5 C 217.785,64.2693 220.285,65.6026 222,68.5C 222.667,79.5 222.667,90.5 222,101.5C 221.06,104.442 219.06,105.775 216,105.5C 213.966,105.646 212.299,104.98 211,103.5C 210.333,91.5 210.333,79.5 211,67.5C 212.145,66.3636 213.312,65.3636 214.5,64.5 Z"/></g>
<g><path style="opacity:1" fill="#fdfefd" d="M 371.5,65.5 C 372.833,66.1667 372.833,66.1667 371.5,65.5 Z"/></g>
<g><path style="opacity:1" fill="#fdfefd" d="M 59.5,68.5 C 58.8333,67.1667 58.8333,67.1667 59.5,68.5 Z"/></g>
<g><path style="opacity:1" fill="#919191" d="M 55.5,73.5 C 55.2624,75.4044 54.2624,76.7377 52.5,77.5C 52.7376,75.5956 53.7376,74.2623 55.5,73.5 Z"/></g>
<g><path style="opacity:1" fill="#aaaaaa" d="M 380.5,77.5 C 381.906,77.9731 382.573,78.9731 382.5,80.5C 381.094,80.0269 380.427,79.0269 380.5,77.5 Z"/></g>
<g><path style="opacity:1" fill="#0a0a0a" d="M 150.5,81.5 C 153.505,81.253 156.005,82.253 158,84.5C 162.601,93.425 167.601,102.092 173,110.5C 173.832,115.52 171.665,118.52 166.5,119.5C 164.617,119.124 163.117,118.124 162,116.5C 157.333,108.5 152.667,100.5 148,92.5C 145.592,88.0337 146.425,84.367 150.5,81.5 Z"/></g>
<g><path style="opacity:1" fill="#0a0a0a" d="M 277.5,81.5 C 284.314,81.49 286.814,84.8233 285,91.5C 280,100.167 275,108.833 270,117.5C 262.736,120.865 259.402,118.531 260,110.5C 265.342,100.473 271.175,90.8067 277.5,81.5 Z"/></g>
<g><path style="opacity:1" fill="#fdfefd" d="M 391.5,89.5 C 392.833,90.1667 392.833,90.1667 391.5,89.5 Z"/></g>
<g><path style="opacity:1" fill="#b2b2b2" d="M 394.5,96.5 C 395.906,96.9731 396.573,97.9731 396.5,99.5C 395.094,99.0269 394.427,98.0269 394.5,96.5 Z"/></g>
<g><path style="opacity:1" fill="#bbbbbb" d="M 396.5,99.5 C 397.906,99.9731 398.573,100.973 398.5,102.5C 397.094,102.027 396.427,101.027 396.5,99.5 Z"/></g>
<g><path style="opacity:1" fill="#9e9e9e" d="M 35.5,100.5 C 35.573,102.027 34.9063,103.027 33.5,103.5C 33.427,101.973 34.0937,100.973 35.5,100.5 Z"/></g>
<g><path style="opacity:1" fill="#b0b0b0" d="M 399.5,104.5 C 400.906,104.973 401.573,105.973 401.5,107.5C 400.094,107.027 399.427,106.027 399.5,104.5 Z"/></g>
<g><path style="opacity:1" fill="#b8b8b8" d="M 403.5,111.5 C 404.906,111.973 405.573,112.973 405.5,114.5C 404.094,114.027 403.427,113.027 403.5,111.5 Z"/></g>
<g><path style="opacity:1" fill="#0e0e0e" d="M 257.5,289.5 C 256.505,300.321 256.172,311.321 256.5,322.5C 229.5,322.5 202.5,322.5 175.5,322.5C 175.667,309.829 175.5,297.162 175,284.5C 174.802,282.618 174.302,280.952 173.5,279.5C 172.702,274.94 171.202,270.606 169,266.5C 160.95,256.785 153.284,246.785 146,236.5C 127.317,197.761 133.483,163.594 164.5,134C 195.678,111.25 228.011,109.583 261.5,129C 293.305,153.754 303.472,185.588 292,224.5C 289.446,231.276 286.113,237.609 282,243.5C 276.291,249.54 270.957,255.874 266,262.5C 260.845,270.796 258.012,279.796 257.5,289.5 Z"/></g>
<g><path style="opacity:1" fill="#fff200" d="M 228.5,128.5 C 236.837,130.324 244.837,133.324 252.5,137.5C 252.973,138.906 253.973,139.573 255.5,139.5C 256.262,141.262 257.596,142.262 259.5,142.5C 259.5,143.167 259.833,143.5 260.5,143.5C 262.167,145.833 264.167,147.833 266.5,149.5C 270.168,154.007 273.668,158.673 277,163.5C 279.299,169.571 281.465,175.571 283.5,181.5C 284.263,189.142 284.597,196.809 284.5,204.5C 284.5,204.833 284.5,205.167 284.5,205.5C 283.343,208.273 282.676,211.273 282.5,214.5C 278.623,227.265 271.956,238.265 262.5,247.5C 261.094,247.973 260.427,248.973 260.5,250.5C 258.738,251.262 257.738,252.596 257.5,254.5C 256.094,254.973 255.427,255.973 255.5,257.5C 254.662,257.842 254.328,258.508 254.5,259.5C 253.094,259.973 252.427,260.973 252.5,262.5C 250.935,264.509 249.935,266.843 249.5,269.5C 248.262,271.214 247.595,273.214 247.5,275.5C 246.566,276.568 246.232,277.901 246.5,279.5C 245.691,281.292 245.191,283.292 245,285.5C 244.5,293.827 244.334,302.16 244.5,310.5C 225.5,310.5 206.5,310.5 187.5,310.5C 187.666,301.161 187.5,291.827 187,282.5C 186.802,280.618 186.302,278.952 185.5,277.5C 185.5,277.167 185.5,276.833 185.5,276.5C 185.405,274.214 184.738,272.214 183.5,270.5C 182.624,266.418 180.957,262.751 178.5,259.5C 178.573,257.973 177.906,256.973 176.5,256.5C 176.573,254.973 175.906,253.973 174.5,253.5C 174.573,251.973 173.906,250.973 172.5,250.5C 172.5,249.833 172.167,249.5 171.5,249.5C 170.92,247.251 169.587,245.585 167.5,244.5C 166.833,243.167 165.833,242.167 164.5,241.5C 164.167,240.5 163.5,239.833 162.5,239.5C 162.262,237.596 161.262,236.262 159.5,235.5C 159.573,233.973 158.906,232.973 157.5,232.5C 155.128,227.098 152.795,221.765 150.5,216.5C 150.279,213.933 149.612,211.599 148.5,209.5C 144.596,176.812 156.596,151.978 184.5,135C 188.468,133.962 192.135,132.462 195.5,130.5C 206.402,127.928 217.402,127.261 228.5,128.5 Z"/></g>
<g><path style="opacity:1" fill="#b7b7b7" d="M 228.5,128.5 C 217.402,127.261 206.402,127.928 195.5,130.5C 206.314,126.334 217.314,125.668 228.5,128.5 Z"/></g>
<g><path style="opacity:1" fill="#080808" d="M 323.5,128.5 C 332.818,128.655 334.818,132.488 329.5,140C 320.833,145 312.167,150 303.5,155C 295.405,154.814 293.405,151.147 297.5,144C 306.395,139.059 315.062,133.892 323.5,128.5 Z"/></g>
<g><path style="opacity:1" fill="#090909" d="M 103.5,128.5 C 105.199,128.34 106.866,128.506 108.5,129C 118.418,134.206 127.918,140.04 137,146.5C 137.602,152.226 135.102,155.059 129.5,155C 120.002,149.752 110.669,144.252 101.5,138.5C 99.8097,134.631 100.476,131.298 103.5,128.5 Z"/></g>
<g><path style="opacity:1" fill="#9c9c9c" d="M 252.5,137.5 C 254.027,137.427 255.027,138.094 255.5,139.5C 253.973,139.573 252.973,138.906 252.5,137.5 Z"/></g>
<g><path style="opacity:1" fill="#979797" d="M 255.5,139.5 C 257.404,139.738 258.738,140.738 259.5,142.5C 257.596,142.262 256.262,141.262 255.5,139.5 Z"/></g>
<g><path style="opacity:1" fill="#5f5f5f" d="M 17.5,134.5 C 17.3256,137.874 16.8256,141.207 16,144.5C 15.1107,143.112 14.6107,143.278 14.5,145C 15.754,146.953 15.0874,148.12 12.5,148.5C 13.6463,143.562 15.313,138.895 17.5,134.5 Z"/></g>
<g><path style="opacity:1" fill="#969696" d="M 260.5,143.5 C 263.5,144.5 265.5,146.5 266.5,149.5C 264.167,147.833 262.167,145.833 260.5,143.5 Z"/></g>
<g><path style="opacity:1" fill="#8a8a8a" d="M 418.5,144.5 C 420.072,147.215 421.072,150.215 421.5,153.5C 419.528,150.916 418.528,147.916 418.5,144.5 Z"/></g>
<g><path style="opacity:1" fill="#838383" d="M 12.5,148.5 C 12.33,149.822 12.6634,150.989 13.5,152C 12.3094,152.698 11.3094,153.531 10.5,154.5C 10.595,152.214 11.2616,150.214 12.5,148.5 Z"/></g>
<g><path style="opacity:1" fill="#9c9c9c" d="M 421.5,153.5 C 423.924,159.526 425.591,165.859 426.5,172.5C 424.073,166.466 422.407,160.132 421.5,153.5 Z"/></g>
<g><path style="opacity:1" fill="#a6a6a6" d="M 9.5,158.5 C 9.82943,161.228 9.16276,163.562 7.5,165.5C 7.40953,162.848 8.07619,160.515 9.5,158.5 Z"/></g>
<g><path style="opacity:1" fill="#070707" d="M 85.5,192.5 C 97.5046,192.333 109.505,192.5 121.5,193C 125.53,196.957 125.197,200.623 120.5,204C 109.167,204.667 97.8333,204.667 86.5,204C 82.92,200.442 82.5866,196.609 85.5,192.5 Z"/></g>
<g><path style="opacity:1" fill="#060606" d="M 311.5,192.5 C 323.171,192.333 334.838,192.5 346.5,193C 350.619,197.073 350.285,200.74 345.5,204C 334.5,204.667 323.5,204.667 312.5,204C 307.636,200.526 307.303,196.693 311.5,192.5 Z"/></g>
<g><path style="opacity:1" fill="#c5c5c5" d="M 283.5,181.5 C 285.025,185.728 285.692,190.228 285.5,195C 285.498,198.352 285.165,201.518 284.5,204.5C 284.597,196.809 284.263,189.142 283.5,181.5 Z"/></g>
<g><path style="opacity:1" fill="#d2d2d2" d="M 284.5,205.5 C 284.785,208.829 284.118,211.829 282.5,214.5C 282.676,211.273 283.343,208.273 284.5,205.5 Z"/></g>
<g><path style="opacity:1" fill="#808080" d="M 148.5,209.5 C 149.612,211.599 150.279,213.933 150.5,216.5C 148.837,214.562 148.171,212.228 148.5,209.5 Z"/></g>
<g><path style="opacity:1" fill="#939393" d="M 157.5,232.5 C 158.906,232.973 159.573,233.973 159.5,235.5C 158.094,235.027 157.427,234.027 157.5,232.5 Z"/></g>
<g><path style="opacity:1" fill="#929292" d="M 159.5,235.5 C 161.262,236.262 162.262,237.596 162.5,239.5C 160.738,238.738 159.738,237.404 159.5,235.5 Z"/></g>
<g><path style="opacity:1" fill="#c9c9c9" d="M 2.5,231.5 C 3.88364,236.944 4.55031,242.611 4.5,248.5C 2.98792,243.071 2.32126,237.404 2.5,231.5 Z"/></g>
<g><path style="opacity:1" fill="#070707" d="M 128.5,241.5 C 136.489,241.319 138.822,244.819 135.5,252C 126.833,257 118.167,262 109.5,267C 102,268.833 99.1667,266 101,258.5C 110.074,252.574 119.241,246.907 128.5,241.5 Z"/></g>
<g><path style="opacity:1" fill="#070707" d="M 298.5,241.5 C 300.527,241.338 302.527,241.505 304.5,242C 313.167,247 321.833,252 330.5,257C 334.081,264.423 331.748,267.756 323.5,267C 315.328,262.08 306.995,257.413 298.5,253C 294.567,249.124 294.567,245.29 298.5,241.5 Z"/></g>
<g><path style="opacity:1" fill="#9b9b9b" d="M 164.5,241.5 C 165.833,242.167 166.833,243.167 167.5,244.5C 165.5,244.5 164.5,243.5 164.5,241.5 Z"/></g>
<g><path style="opacity:1" fill="#a9a9a9" d="M 429.5,195.5 C 430.166,202.158 430.5,208.992 430.5,216C 430.689,226.047 430.022,235.88 428.5,245.5C 429.333,228.848 429.666,212.181 429.5,195.5 Z"/></g>
<g><path style="opacity:1" fill="#a7a7a7" d="M 167.5,244.5 C 169.587,245.585 170.92,247.251 171.5,249.5C 169.413,248.415 168.08,246.749 167.5,244.5 Z"/></g>
<g><path style="opacity:1" fill="#9a9a9a" d="M 262.5,247.5 C 262.573,249.027 261.906,250.027 260.5,250.5C 260.427,248.973 261.094,247.973 262.5,247.5 Z"/></g>
<g><path style="opacity:1" fill="#969696" d="M 172.5,250.5 C 173.906,250.973 174.573,251.973 174.5,253.5C 173.094,253.027 172.427,252.027 172.5,250.5 Z"/></g>
<g><path style="opacity:1" fill="#9e9e9e" d="M 257.5,254.5 C 257.573,256.027 256.906,257.027 255.5,257.5C 255.427,255.973 256.094,254.973 257.5,254.5 Z"/></g>
<g><path style="opacity:1" fill="#a9a9a9" d="M 176.5,256.5 C 177.906,256.973 178.573,257.973 178.5,259.5C 177.094,259.027 176.427,258.027 176.5,256.5 Z"/></g>
<g><path style="opacity:1" fill="#b5b5b5" d="M 254.5,259.5 C 254.573,261.027 253.906,262.027 252.5,262.5C 252.427,260.973 253.094,259.973 254.5,259.5 Z"/></g>
<g><path style="opacity:1" fill="#959595" d="M 249.5,269.5 C 249.741,271.898 249.074,273.898 247.5,275.5C 247.595,273.214 248.262,271.214 249.5,269.5 Z"/></g>
<g><path style="opacity:1" fill="#9e9e9e" d="M 183.5,270.5 C 184.738,272.214 185.405,274.214 185.5,276.5C 183.926,274.898 183.259,272.898 183.5,270.5 Z"/></g>
<g><path style="opacity:1" fill="#838383" d="M 185.5,277.5 C 186.302,278.952 186.802,280.618 187,282.5C 187.5,291.827 187.666,301.161 187.5,310.5C 186.688,299.659 186.021,288.659 185.5,277.5 Z"/></g>
<g><path style="opacity:1" fill="#dedede" d="M 246.5,279.5 C 246.061,290 245.395,300.333 244.5,310.5C 244.334,302.16 244.5,293.827 245,285.5C 245.191,283.292 245.691,281.292 246.5,279.5 Z"/></g>
<g><path style="opacity:1" fill="#d9d9d9" d="M 173.5,279.5 C 174.302,280.952 174.802,282.618 175,284.5C 175.5,297.162 175.667,309.829 175.5,322.5C 202.5,322.5 229.5,322.5 256.5,322.5C 256.172,311.321 256.505,300.321 257.5,289.5C 257.5,300.833 257.5,312.167 257.5,323.5C 229.833,323.5 202.167,323.5 174.5,323.5C 174.727,308.812 174.394,294.145 173.5,279.5 Z"/></g>
<g><path style="opacity:1" fill="#060606" d="M 178.5,332.5 C 203.502,332.333 228.502,332.5 253.5,333C 256.343,336.619 256.01,339.952 252.5,343C 227.833,343.667 203.167,343.667 178.5,343C 174.552,339.422 174.552,335.922 178.5,332.5 Z"/></g>
<g><path style="opacity:1" fill="#cecece" d="M 48.5,348.5 C 49.9063,348.973 50.573,349.973 50.5,351.5C 49.0937,351.027 48.427,350.027 48.5,348.5 Z"/></g>
<g><path style="opacity:1" fill="#c5c5c5" d="M 381.5,351.5 C 381.573,353.027 380.906,354.027 379.5,354.5C 379.427,352.973 380.094,351.973 381.5,351.5 Z"/></g>
<g><path style="opacity:1" fill="#060606" d="M 193.5,353.5 C 208.504,353.333 223.504,353.5 238.5,354C 242.566,357.745 242.233,361.078 237.5,364C 222.833,364.667 208.167,364.667 193.5,364C 189.565,360.504 189.565,357.004 193.5,353.5 Z"/></g>
<g><path style="opacity:1" fill="#b5b5b5" d="M 53.5,355.5 C 55.5,355.5 56.5,356.5 56.5,358.5C 55.1667,357.833 54.1667,356.833 53.5,355.5 Z"/></g>
<g><path style="opacity:1" fill="#cbcbcb" d="M 374.5,359.5 C 374.573,361.027 373.906,362.027 372.5,362.5C 372.427,360.973 373.094,359.973 374.5,359.5 Z"/></g>
<g><path style="opacity:1" fill="#fdfefd" d="M 59.5,362.5 C 58.8333,363.167 58.8333,363.167 59.5,362.5 Z"/></g>
<g><path style="opacity:1" fill="#4b4b4b" d="M 369.5,365.5 C 368.5,367.167 367.167,368.5 365.5,369.5C 364.962,367.883 364.629,366.216 364.5,364.5C 366.216,364.629 367.883,364.962 369.5,365.5 Z"/></g>
<g><path style="opacity:1" fill="#fdfefd" d="M 65.5,368.5 C 64.8333,369.167 64.8333,369.167 65.5,368.5 Z"/></g>
<g><path style="opacity:1" fill="#fdfefd" d="M 69.5,372.5 C 68.8333,373.167 68.8333,373.167 69.5,372.5 Z"/></g>
<g><path style="opacity:1" fill="#fdfefd" d="M 351.5,382.5 C 352.833,383.167 352.833,383.167 351.5,382.5 Z"/></g>
<g><path style="opacity:1" fill="#b0b0b0" d="M 88.5,387.5 C 90.0269,387.427 91.0269,388.094 91.5,389.5C 89.9731,389.573 88.9731,388.906 88.5,387.5 Z"/></g>
<g><path style="opacity:1" fill="#949494" d="M 100.5,395.5 C 102.027,395.427 103.027,396.094 103.5,397.5C 101.973,397.573 100.973,396.906 100.5,395.5 Z"/></g>
<g><path style="opacity:1" fill="#b3b3b3" d="M 103.5,397.5 C 105.027,397.427 106.027,398.094 106.5,399.5C 104.973,399.573 103.973,398.906 103.5,397.5 Z"/></g>
<g><path style="opacity:1" fill="#c1c1c1" d="M 108.5,400.5 C 110.027,400.427 111.027,401.094 111.5,402.5C 109.973,402.573 108.973,401.906 108.5,400.5 Z"/></g>
<g><path style="opacity:1" fill="#c2c2c2" d="M 161.5,403.5 C 170.07,405.009 178.403,407.009 186.5,409.5C 177.812,408.5 169.478,406.5 161.5,403.5 Z"/></g>
<g><path style="opacity:1" fill="#7d7d7d" d="M 144.5,417.5 C 147.01,417.054 149.01,417.72 150.5,419.5C 148.214,419.405 146.214,418.738 144.5,417.5 Z"/></g>
<g><path style="opacity:1" fill="#878787" d="M 150.5,419.5 C 154.286,419.32 157.619,420.32 160.5,422.5C 156.952,421.87 153.619,420.87 150.5,419.5 Z"/></g>
<g><path style="opacity:1" fill="#dbdbdb" d="M 278.5,420.5 C 276.485,421.924 274.152,422.59 271.5,422.5C 273.515,421.076 275.848,420.41 278.5,420.5 Z"/></g>
<g><path style="opacity:1" fill="#848484" d="M 161.5,422.5 C 164.228,422.171 166.562,422.837 168.5,424.5C 165.933,424.279 163.599,423.612 161.5,422.5 Z"/></g>
<g><path style="opacity:1" fill="#cfcfcf" d="M 267.5,423.5 C 264.781,424.913 261.781,425.58 258.5,425.5C 261.219,424.087 264.219,423.42 267.5,423.5 Z"/></g>
<g><path style="opacity:1" fill="#acacac" d="M 174.5,425.5 C 178.425,425.43 182.091,426.097 185.5,427.5C 181.575,427.57 177.909,426.903 174.5,425.5 Z"/></g>
</svg>
