<?xml version="1.0" encoding="UTF-8"?>
<!DOCTYPE svg PUBLIC "-//W3C//DTD SVG 1.1//EN" "http://www.w3.org/Graphics/SVG/1.1/DTD/svg11.dtd">
<svg xmlns="http://www.w3.org/2000/svg" version="1.1" width="494px" height="493px" style="shape-rendering:geometricPrecision; text-rendering:geometricPrecision; image-rendering:optimizeQuality; fill-rule:evenodd; clip-rule:evenodd" xmlns:xlink="http://www.w3.org/1999/xlink">
<g><path style="opacity:1" fill="#030303" d="M 260.5,0.5 C 355.311,9.06491 424.977,55.0649 469.5,138.5C 479.774,161.432 486.941,185.432 491,210.5C 491.744,218.328 492.577,225.995 493.5,233.5C 493.5,241.167 493.5,248.833 493.5,256.5C 486.944,344.813 446.278,412.313 371.5,459C 336.831,478.41 299.831,489.577 260.5,492.5C 250.167,492.5 239.833,492.5 229.5,492.5C 215.854,491.074 202.187,489.074 188.5,486.5C 172.423,481.251 156.423,475.584 140.5,469.5C 44.1656,417.216 -2.33438,335.883 1,225.5C 13.1892,129.056 63.0225,60.0564 150.5,18.5C 162.636,14.6768 174.636,10.6768 186.5,6.5C 197.84,4.80829 209.173,2.97496 220.5,1C 233.829,0.500104 247.163,0.333437 260.5,0.5 Z"/></g>
<g><path style="opacity:0.851" fill="#6b8d9f" d="M 219.5,-0.5 C 233.167,-0.5 246.833,-0.5 260.5,-0.5C 260.5,-0.166667 260.5,0.166667 260.5,0.5C 247.163,0.333437 233.829,0.500104 220.5,1C 209.173,2.97496 197.84,4.80829 186.5,6.5C 192.429,4.27513 198.596,2.60846 205,1.5C 205.333,1.83333 205.667,2.16667 206,2.5C 210.558,1.294 215.058,0.294005 219.5,-0.5 Z"/></g>
<g><path style="opacity:0.922" fill="#75a2bc" d="M 186.5,6.5 C 174.636,10.6768 162.636,14.6768 150.5,18.5C 161.717,12.3808 173.717,8.38084 186.5,6.5 Z"/></g>
<g><path style="opacity:1" fill="#e1e1e1" d="M 266.5,28.5 C 269.713,28.19 272.713,28.5233 275.5,29.5C 274.833,29.5 274.5,29.8333 274.5,30.5C 271.615,30.8064 268.948,30.4731 266.5,29.5C 266.5,29.1667 266.5,28.8333 266.5,28.5 Z"/></g>
<g><path style="opacity:1" fill="#7092be" d="M 227.5,29.5 C 228.833,29.5 230.167,29.5 231.5,29.5C 241.833,29.5 252.167,29.5 262.5,29.5C 263.833,29.5 265.167,29.5 266.5,29.5C 268.948,30.4731 271.615,30.8064 274.5,30.5C 274.833,30.5 275.167,30.5 275.5,30.5C 280.948,32.0203 286.614,33.0203 292.5,33.5C 292.833,33.5 293.167,33.5 293.5,33.5C 306.793,36.9814 319.793,41.3148 332.5,46.5C 332.833,46.5 333.167,46.5 333.5,46.5C 373.074,64.6067 405.074,91.6067 429.5,127.5C 429.5,127.833 429.5,128.167 429.5,128.5C 439.761,144.975 448.095,162.309 454.5,180.5C 454.5,180.833 454.5,181.167 454.5,181.5C 457.809,193.379 460.475,205.379 462.5,217.5C 462.5,217.833 462.5,218.167 462.5,218.5C 462.963,221.482 463.296,224.482 463.5,227.5C 463.5,227.833 463.5,228.167 463.5,228.5C 463.785,243.536 463.451,258.536 462.5,273.5C 462.5,273.833 462.5,274.167 462.5,274.5C 461.045,281.777 459.712,289.11 458.5,296.5C 458.5,296.833 458.5,297.167 458.5,297.5C 456.721,301.594 455.388,305.927 454.5,310.5C 454.5,310.833 454.5,311.167 454.5,311.5C 452.796,314.939 451.462,318.605 450.5,322.5C 450.5,322.833 450.5,323.167 450.5,323.5C 442.92,341.994 433.253,359.327 421.5,375.5C 421.5,375.833 421.5,376.167 421.5,376.5C 405.339,397.332 386.339,414.998 364.5,429.5C 364.167,429.5 363.833,429.5 363.5,429.5C 335.146,446.923 304.479,457.923 271.5,462.5C 270.5,462.5 269.5,462.5 268.5,462.5C 254.167,463.833 239.833,463.833 225.5,462.5C 224.5,462.5 223.5,462.5 222.5,462.5C 152.205,452.357 98.0385,417.357 60,357.5C 54.012,346.35 48.512,335.016 43.5,323.5C 43.5,323.167 43.5,322.833 43.5,322.5C 40.1168,312.882 37.1168,303.216 34.5,293.5C 34.5,293.167 34.5,292.833 34.5,292.5C 33.1665,283.499 31.8331,274.499 30.5,265.5C 30.5,264.833 30.5,264.167 30.5,263.5C 30.5,251.833 30.5,240.167 30.5,228.5C 30.5,227.833 30.5,227.167 30.5,226.5C 30.7678,224.901 30.4345,223.568 29.5,222.5C 29.5,222.167 29.5,221.833 29.5,221.5C 31.0481,221.179 31.7148,220.179 31.5,218.5C 31.5,218.167 31.5,217.833 31.5,217.5C 32.7753,211.914 33.7753,206.247 34.5,200.5C 34.5,200.167 34.5,199.833 34.5,199.5C 39.2757,179.17 46.609,159.836 56.5,141.5C 56.5,141.167 56.5,140.833 56.5,140.5C 62.8003,131.19 69.1337,121.856 75.5,112.5C 80.4278,106.397 85.5945,100.397 91,94.5C 98.03,88.3005 104.863,81.9672 111.5,75.5C 111.833,75.5 112.167,75.5 112.5,75.5C 133.349,59.241 156.349,46.9077 181.5,38.5C 181.833,38.5 182.167,38.5 182.5,38.5C 194.431,34.9949 206.431,32.3282 218.5,30.5C 218.833,30.5 219.167,30.5 219.5,30.5C 222.385,30.8064 225.052,30.4731 227.5,29.5 Z"/></g>
<g><path style="opacity:0.816" fill="#75adcc" d="M 260.5,0.5 C 260.5,0.166667 260.5,-0.166667 260.5,-0.5C 265.167,-0.5 269.833,-0.5 274.5,-0.5C 359.056,10.8984 422.556,53.5651 465,127.5C 467.054,130.941 468.554,134.608 469.5,138.5C 424.977,55.0649 355.311,9.06491 260.5,0.5 Z"/></g>
<g><path style="opacity:1" fill="#dedede" d="M 266.5,28.5 C 264.901,28.2322 263.568,28.5655 262.5,29.5C 252.167,29.5 241.833,29.5 231.5,29.5C 230.167,28.1667 228.833,28.1667 227.5,29.5C 225.052,30.4731 222.385,30.8064 219.5,30.5C 219.167,29.1667 218.833,29.1667 218.5,30.5C 206.431,32.3282 194.431,34.9949 182.5,38.5C 183.36,36.3862 185.027,35.2195 187.5,35C 213.561,27.7395 239.894,25.5729 266.5,28.5 Z"/></g>
<g><path style="opacity:1" fill="#efefef" d="M 275.5,29.5 C 280.189,29.9479 284.855,30.6145 289.5,31.5C 291.03,31.6399 292.03,32.3065 292.5,33.5C 286.614,33.0203 280.948,32.0203 275.5,30.5C 275.5,30.1667 275.5,29.8333 275.5,29.5 Z"/></g>
<g><path style="opacity:1" fill="#e9e9e9" d="M 293.5,33.5 C 293.5,33.1667 293.5,32.8333 293.5,32.5C 307.43,35.2551 320.763,39.5884 333.5,45.5C 332.833,45.5 332.5,45.8333 332.5,46.5C 319.793,41.3148 306.793,36.9814 293.5,33.5 Z"/></g>
<g><path style="opacity:1" fill="#e6e6e6" d="M 333.5,45.5 C 374.399,62.7344 406.732,90.0677 430.5,127.5C 430.167,127.5 429.833,127.5 429.5,127.5C 405.074,91.6067 373.074,64.6067 333.5,46.5C 333.5,46.1667 333.5,45.8333 333.5,45.5 Z"/></g>
<g><path style="opacity:0.205" fill="#000000" d="M 53.5,59.5 C 54.5,59.5 55.5,59.5 56.5,59.5C 56.5,60.5 56.5,61.5 56.5,62.5C 55.5,62.5 54.5,62.5 53.5,62.5C 53.5,61.5 53.5,60.5 53.5,59.5 Z"/></g>
<g><path style="opacity:1" fill="#e4e4e4" d="M 181.5,37.5 C 181.5,37.8333 181.5,38.1667 181.5,38.5C 156.349,46.9077 133.349,59.241 112.5,75.5C 112.5,74.8333 112.167,74.5 111.5,74.5C 132.193,57.4832 155.526,45.1499 181.5,37.5 Z"/></g>
<g><path style="opacity:1" fill="#bebcbd" d="M 397.5,99.5 C 393.724,96.7715 389.724,94.2715 385.5,92C 381.93,90.6905 378.263,89.8572 374.5,89.5C 291.001,88.3343 207.334,88.1677 123.5,89C 121.26,89.977 118.927,90.477 116.5,90.5C 118.148,89.0735 120.148,88.2401 122.5,88C 128.472,87.1697 134.472,86.6697 140.5,86.5C 216.136,87.3701 291.802,87.5368 367.5,87C 374.417,87.0837 381.084,88.417 387.5,91C 391.462,93.1399 394.796,95.9733 397.5,99.5 Z"/></g>
<g><path style="opacity:1" fill="#d4d3d3" d="M 116.5,90.5 C 104.741,95.5963 96.7408,104.263 92.5,116.5C 92.1667,116.5 91.8333,116.5 91.5,116.5C 95.1094,103.225 103.443,94.5584 116.5,90.5 Z"/></g>
<g><path style="opacity:1" fill="#e7e7e7" d="M 111.5,74.5 C 111.5,74.8333 111.5,75.1667 111.5,75.5C 104.863,81.9672 98.03,88.3005 91,94.5C 85.5945,100.397 80.4278,106.397 75.5,112.5C 75.5,111.833 75.1667,111.5 74.5,111.5C 85.1667,97.5 97.5,85.1667 111.5,74.5 Z"/></g>
<g><path style="opacity:1" fill="#272223" d="M 374.5,89.5 C 378.263,89.8572 381.93,90.6905 385.5,92C 389.724,94.2715 393.724,96.7715 397.5,99.5C 400.266,104.045 403.266,108.378 406.5,112.5C 406.884,116.586 407.717,120.586 409,124.5C 409.667,206.5 409.667,288.5 409,370.5C 407.43,381.305 402.93,390.638 395.5,398.5C 388.303,403.457 380.303,406.457 371.5,407.5C 289.5,407.5 207.5,407.5 125.5,407.5C 108.603,404.264 97.2699,394.598 91.5,378.5C 90.5106,292.522 90.1773,206.522 90.5,120.5C 91.4345,119.432 91.7678,118.099 91.5,116.5C 91.8333,116.5 92.1667,116.5 92.5,116.5C 94.5203,119.938 96.0203,123.604 97,127.5C 97.1681,148.671 97.6681,169.671 98.5,190.5C 129.833,190.5 161.167,190.5 192.5,190.5C 193.664,158.336 193.831,126.003 193,93.5C 181.725,94.8223 170.225,95.4889 158.5,95.5C 147.167,95.3333 135.833,95.1667 124.5,95C 125.842,92.1084 128.175,90.7751 131.5,91C 131.167,90.6667 130.833,90.3333 130.5,90C 211.833,89.5 293.166,89.3333 374.5,89.5 Z"/></g>
<g><path style="opacity:1" fill="#b4b2b3" d="M 298.5,97.5 C 265.996,97.1684 233.662,97.5018 201.5,98.5C 201.5,128.833 201.5,159.167 201.5,189.5C 201.5,189.833 201.5,190.167 201.5,190.5C 200.502,159.338 200.168,128.004 200.5,96.5C 233.338,96.1684 266.004,96.5017 298.5,97.5 Z"/></g>
<g><path style="opacity:1" fill="#99d9e9" d="M 201.5,98.5 C 233.5,98.5 265.5,98.5 297.5,98.5C 297.5,128.833 297.5,159.167 297.5,189.5C 265.5,189.5 233.5,189.5 201.5,189.5C 201.5,159.167 201.5,128.833 201.5,98.5 Z"/></g>
<g><path style="opacity:1" fill="#dcdbdb" d="M 201.5,98.5 C 233.662,97.5018 265.996,97.1684 298.5,97.5C 298.5,128.5 298.5,159.5 298.5,190.5C 266.167,190.5 233.833,190.5 201.5,190.5C 201.5,190.167 201.5,189.833 201.5,189.5C 233.5,189.5 265.5,189.5 297.5,189.5C 297.5,159.167 297.5,128.833 297.5,98.5C 265.5,98.5 233.5,98.5 201.5,98.5 Z"/></g>
<g><path style="opacity:1" fill="#ebebeb" d="M 374.5,97.5 C 377.542,97.7329 380.208,98.7329 382.5,100.5C 379.834,100.067 377.168,99.567 374.5,99C 352.503,98.5 330.503,98.3334 308.5,98.5C 308.5,128.833 308.5,159.167 308.5,189.5C 308.167,189.5 307.833,189.5 307.5,189.5C 307.5,158.833 307.5,128.167 307.5,97.5C 329.833,97.5 352.167,97.5 374.5,97.5 Z"/></g>
<g><path style="opacity:1" fill="#99d9e9" d="M 382.5,100.5 C 387.697,102.427 391.697,105.761 394.5,110.5C 395.993,114.822 397.493,119.156 399,123.5C 399.5,145.497 399.667,167.497 399.5,189.5C 369.167,189.5 338.833,189.5 308.5,189.5C 308.5,159.167 308.5,128.833 308.5,98.5C 330.503,98.3334 352.503,98.5 374.5,99C 377.168,99.567 379.834,100.067 382.5,100.5 Z"/></g>
<g><path style="opacity:1" fill="#2c2829" d="M 374.5,89.5 C 293.166,89.3333 211.833,89.5 130.5,90C 130.833,90.3333 131.167,90.6667 131.5,91C 128.175,90.7751 125.842,92.1084 124.5,95C 135.833,95.1667 147.167,95.3333 158.5,95.5C 170.225,95.4889 181.725,94.8223 193,93.5C 193.831,126.003 193.664,158.336 192.5,190.5C 192.5,159.167 192.5,127.833 192.5,96.5C 169.498,96.3334 146.498,96.5 123.5,97C 111.333,101.167 103.167,109.333 99,121.5C 98.5,144.498 98.3334,167.498 98.5,190.5C 97.6681,169.671 97.1681,148.671 97,127.5C 96.0203,123.604 94.5203,119.938 92.5,116.5C 96.7408,104.263 104.741,95.5963 116.5,90.5C 118.927,90.477 121.26,89.977 123.5,89C 207.334,88.1677 291.001,88.3343 374.5,89.5 Z"/></g>
<g><path style="opacity:1" fill="#d5d5d5" d="M 397.5,99.5 C 402.202,102.545 405.202,106.878 406.5,112.5C 403.266,108.378 400.266,104.045 397.5,99.5 Z"/></g>
<g><path style="opacity:1" fill="#b1b0b1" d="M 273.5,114.5 C 273.5,114.833 273.5,115.167 273.5,115.5C 258.163,115.333 242.83,115.5 227.5,116C 226.956,116.717 226.289,117.217 225.5,117.5C 225.414,116.504 225.748,115.671 226.5,115C 242.163,114.5 257.83,114.333 273.5,114.5 Z"/></g>
<g><path style="opacity:1" fill="#282325" d="M 273.5,115.5 C 277.5,118.167 277.5,120.833 273.5,123.5C 258.163,123.667 242.83,123.5 227.5,123C 225.845,121.556 225.178,119.722 225.5,117.5C 226.289,117.217 226.956,116.717 227.5,116C 242.83,115.5 258.163,115.333 273.5,115.5 Z"/></g>
<g><path style="opacity:1" fill="#939293" d="M 374.5,97.5 C 352.167,97.5 329.833,97.5 307.5,97.5C 307.5,128.167 307.5,158.833 307.5,189.5C 307.5,189.833 307.5,190.167 307.5,190.5C 306.502,159.338 306.168,128.004 306.5,96.5C 329.339,96.1692 352.006,96.5025 374.5,97.5 Z"/></g>
<g><path style="opacity:1" fill="#e5e5e5" d="M 74.5,111.5 C 75.1667,111.5 75.5,111.833 75.5,112.5C 69.1337,121.856 62.8003,131.19 56.5,140.5C 56.1667,140.5 55.8333,140.5 55.5,140.5C 60.6612,130.017 66.9945,120.35 74.5,111.5 Z"/></g>
<g><path style="opacity:1" fill="#cac9ca" d="M 365.5,127.5 C 365.859,125.234 365.192,123.401 363.5,122C 355.5,121.333 347.5,121.333 339.5,122C 338.299,122.903 337.465,124.069 337,125.5C 336.819,128.695 336.319,131.695 335.5,134.5C 335.21,130.064 335.71,125.73 337,121.5C 337.75,120.874 338.584,120.374 339.5,120C 347.833,119.333 356.167,119.333 364.5,120C 367.889,122.322 368.223,124.822 365.5,127.5 Z"/></g>
<g><path style="opacity:1" fill="#b2b2b2" d="M 225.5,117.5 C 225.178,119.722 225.845,121.556 227.5,123C 242.83,123.5 258.163,123.667 273.5,123.5C 258.676,124.496 243.676,124.829 228.5,124.5C 224.67,123.311 223.67,120.978 225.5,117.5 Z"/></g>
<g><path style="opacity:1" fill="#f0f0f0" d="M 273.5,115.5 C 273.5,115.167 273.5,114.833 273.5,114.5C 276.286,114.956 277.619,116.623 277.5,119.5C 277.594,121.912 276.594,123.745 274.5,125C 258.994,125.828 243.661,125.661 228.5,124.5C 243.676,124.829 258.676,124.496 273.5,123.5C 277.5,120.833 277.5,118.167 273.5,115.5 Z"/></g>
<g><path style="opacity:1" fill="#d2d0d0" d="M 365.5,127.5 C 365.389,128.117 365.056,128.617 364.5,129C 358.175,129.5 351.842,129.666 345.5,129.5C 345.489,131.547 345.156,133.547 344.5,135.5C 344.747,136.713 345.414,137.38 346.5,137.5C 345.828,138.267 344.995,138.934 344,139.5C 343.211,135.909 343.378,132.409 344.5,129C 351.548,128.761 358.548,128.261 365.5,127.5 Z"/></g>
<g><path style="opacity:1" fill="#d1d1d1" d="M 406.5,112.5 C 408.714,114.995 409.881,117.995 410,121.5C 410.667,205.833 410.667,290.167 410,374.5C 408.51,380.484 406.177,386.151 403,391.5C 401.264,394.739 398.764,397.073 395.5,398.5C 402.93,390.638 407.43,381.305 409,370.5C 409.667,288.5 409.667,206.5 409,124.5C 407.717,120.586 406.884,116.586 406.5,112.5 Z"/></g>
<g><path style="opacity:1" fill="#b7b7b7" d="M 90.5,120.5 C 90.1773,206.522 90.5106,292.522 91.5,378.5C 90.056,374.872 89.056,371.039 88.5,367C 88.5216,287.842 88.5216,208.676 88.5,129.5C 89.0894,126.36 89.7561,123.36 90.5,120.5 Z"/></g>
<g><path style="opacity:1" fill="#cecdcd" d="M 227.5,146.5 C 242.837,146.667 258.17,146.5 273.5,146C 275.396,144.192 275.896,142.025 275,139.5C 258.5,138.174 242,138.174 225.5,139.5C 225.414,138.504 225.748,137.671 226.5,137C 242.5,136.333 258.5,136.333 274.5,137C 275.416,137.374 276.25,137.874 277,138.5C 277.667,140.833 277.667,143.167 277,145.5C 276.25,146.126 275.416,146.626 274.5,147C 258.661,147.828 242.995,147.661 227.5,146.5 Z"/></g>
<g><path style="opacity:1" fill="#d7d6d6" d="M 365.5,144.5 C 360.337,139.089 354.004,136.756 346.5,137.5C 347.531,136.751 348.698,136.085 350,135.5C 351.525,135.888 353.192,135.888 355,135.5C 359.897,137.009 363.397,140.009 365.5,144.5 Z"/></g>
<g><path style="opacity:1" fill="#282325" d="M 227.5,146.5 C 225.832,144.521 225.166,142.188 225.5,139.5C 242,138.174 258.5,138.174 275,139.5C 275.896,142.025 275.396,144.192 273.5,146C 258.17,146.5 242.837,146.667 227.5,146.5 Z"/></g>
<g><path style="opacity:1" fill="#d5d4d4" d="M 334.5,141.5 C 333.079,147.113 335.079,149.28 340.5,148C 341.471,146.519 342.804,145.685 344.5,145.5C 341.467,150.902 337.633,151.569 333,147.5C 332.059,145.011 332.559,143.011 334.5,141.5 Z"/></g>
<g><path style="opacity:1" fill="#282325" d="M 365.5,127.5 C 358.548,128.261 351.548,128.761 344.5,129C 343.378,132.409 343.211,135.909 344,139.5C 344.995,138.934 345.828,138.267 346.5,137.5C 354.004,136.756 360.337,139.089 365.5,144.5C 367.811,152.886 366.478,160.552 361.5,167.5C 355.8,170.051 349.8,171.051 343.5,170.5C 339.592,169.723 336.592,167.723 334.5,164.5C 333.565,161.887 333.398,159.221 334,156.5C 338.298,155.079 340.965,156.746 342,161.5C 346.303,166.424 350.97,166.758 356,162.5C 358.835,157.657 359.168,152.657 357,147.5C 353.198,143.22 349.031,142.553 344.5,145.5C 342.804,145.685 341.471,146.519 340.5,148C 335.079,149.28 333.079,147.113 334.5,141.5C 334.674,139.139 335.007,136.806 335.5,134.5C 336.319,131.695 336.819,128.695 337,125.5C 337.465,124.069 338.299,122.903 339.5,122C 347.5,121.333 355.5,121.333 363.5,122C 365.192,123.401 365.859,125.234 365.5,127.5 Z"/></g>
<g><path style="opacity:1" fill="#cecdcd" d="M 365.5,144.5 C 367.486,146.925 368.819,149.758 369.5,153C 368.996,157.483 367.496,161.649 365,165.5C 364.184,166.823 363.017,167.489 361.5,167.5C 366.478,160.552 367.811,152.886 365.5,144.5 Z"/></g>
<g><path style="opacity:0.392" fill="#6da9cc" d="M 469.5,138.5 C 471.136,139.749 472.303,141.416 473,143.5C 483.016,166.366 489.849,190.033 493.5,214.5C 493.5,220.833 493.5,227.167 493.5,233.5C 492.577,225.995 491.744,218.328 491,210.5C 486.941,185.432 479.774,161.432 469.5,138.5 Z"/></g>
<g><path style="opacity:1" fill="#d1d0d1" d="M 226.5,161.5 C 242.837,161.333 259.17,161.5 275.5,162C 278.592,166.118 277.925,169.451 273.5,172C 257.795,172.466 242.295,172.633 227,172.5C 223.948,168.896 223.782,165.229 226.5,161.5 Z"/></g>
<g><path style="opacity:1" fill="#cccccc" d="M 334.5,164.5 C 331.856,162.484 331.023,159.817 332,156.5C 333.337,154.996 335.004,153.996 337,153.5C 340.4,156.113 343.233,159.28 345.5,163C 352.416,164.755 356.416,162.088 357.5,155C 357.01,151.855 355.843,149.022 354,146.5C 350.943,145.549 347.777,145.216 344.5,145.5C 349.031,142.553 353.198,143.22 357,147.5C 359.168,152.657 358.835,157.657 356,162.5C 350.97,166.758 346.303,166.424 342,161.5C 340.965,156.746 338.298,155.079 334,156.5C 333.398,159.221 333.565,161.887 334.5,164.5 Z"/></g>
<g><path style="opacity:1" fill="#262123" d="M 227.5,162.5 C 243.17,162.333 258.837,162.5 274.5,163C 277.167,165.333 277.167,167.667 274.5,170C 258.833,170.667 243.167,170.667 227.5,170C 224.914,167.506 224.914,165.006 227.5,162.5 Z"/></g>
<g><path style="opacity:1" fill="#c6c6c6" d="M 361.5,167.5 C 360.209,169.619 358.375,171.285 356,172.5C 353.873,172.038 351.54,172.038 349,172.5C 346.705,172.453 344.871,171.787 343.5,170.5C 349.8,171.051 355.8,170.051 361.5,167.5 Z"/></g>
<g><path style="opacity:1" fill="#e0e0e0" d="M 430.5,127.5 C 453.919,162.483 465.585,201.15 465.5,243.5C 465.333,250.5 465.167,257.5 465,264.5C 465.07,267.992 464.237,270.992 462.5,273.5C 463.451,258.536 463.785,243.536 463.5,228.5C 464.833,228.167 464.833,227.833 463.5,227.5C 463.296,224.482 462.963,221.482 462.5,218.5C 463.833,218.167 463.833,217.833 462.5,217.5C 460.475,205.379 457.809,193.379 454.5,181.5C 455.833,181.167 455.833,180.833 454.5,180.5C 448.095,162.309 439.761,144.975 429.5,128.5C 430.167,128.5 430.5,128.167 430.5,127.5 Z"/></g>
<g><path style="opacity:1" fill="#dcdcdc" d="M 55.5,140.5 C 55.5,141.167 55.8333,141.5 56.5,141.5C 46.609,159.836 39.2757,179.17 34.5,199.5C 33.1667,199.833 33.1667,200.167 34.5,200.5C 33.7753,206.247 32.7753,211.914 31.5,217.5C 30.1667,217.833 30.1667,218.167 31.5,218.5C 31.7148,220.179 31.0481,221.179 29.5,221.5C 32.1841,192.452 40.8507,165.452 55.5,140.5 Z"/></g>
<g><path style="opacity:1" fill="#d5d5d5" d="M 192.5,190.5 C 161.167,190.5 129.833,190.5 98.5,190.5C 98.3334,167.498 98.5,144.498 99,121.5C 103.167,109.333 111.333,101.167 123.5,97C 146.498,96.5 169.498,96.3334 192.5,96.5C 192.5,127.833 192.5,159.167 192.5,190.5 Z"/></g>
<g><path style="opacity:1" fill="#99d9e9" d="M 125.5,98.5 C 147.5,98.5 169.5,98.5 191.5,98.5C 191.5,128.833 191.5,159.167 191.5,189.5C 161.167,189.5 130.833,189.5 100.5,189.5C 100.827,169.257 100.493,149.091 99.5,129C 101.229,112.78 109.896,102.614 125.5,98.5 Z"/></g>
<g><path style="opacity:1" fill="#d0d0d0" d="M 137.5,154.5 C 137.241,158.24 137.574,161.906 138.5,165.5C 141.435,166.898 144.102,166.565 146.5,164.5C 145.043,168.049 142.377,169.216 138.5,168C 134.997,163.709 134.664,159.209 137.5,154.5 Z"/></g>
<g><path style="opacity:1" fill="#8f8c8d" d="M 149.5,147.5 C 149.59,150.152 148.924,152.485 147.5,154.5C 147.41,151.848 148.076,149.515 149.5,147.5 Z"/></g>
<g><path style="opacity:1" fill="#d2d2d2" d="M 159.5,129.5 C 157.225,134.278 154.725,138.945 152,143.5C 150.602,150.765 148.769,157.765 146.5,164.5C 146.342,161.098 146.676,157.764 147.5,154.5C 148.924,152.485 149.59,150.152 149.5,147.5C 150.785,140.267 154.118,134.267 159.5,129.5 Z"/></g>
<g><path style="opacity:1" fill="#d7d6d6" d="M 129.5,118.5 C 129.178,120.722 129.845,122.556 131.5,124C 138.826,124.5 146.159,124.666 153.5,124.5C 149.497,131.175 145.497,137.841 141.5,144.5C 143.289,138.089 146.289,132.256 150.5,127C 143.754,126.879 137.087,126.212 130.5,125C 128.392,122.984 128.058,120.817 129.5,118.5 Z"/></g>
<g><path style="opacity:1" fill="#282325" d="M 132.5,117.5 C 142.506,117.334 152.506,117.5 162.5,118C 163.576,119.726 163.743,121.559 163,123.5C 161.558,125.391 160.391,127.391 159.5,129.5C 154.118,134.267 150.785,140.267 149.5,147.5C 148.076,149.515 147.41,151.848 147.5,154.5C 146.676,157.764 146.342,161.098 146.5,164.5C 144.102,166.565 141.435,166.898 138.5,165.5C 137.574,161.906 137.241,158.24 137.5,154.5C 139.009,151.322 140.342,147.989 141.5,144.5C 145.497,137.841 149.497,131.175 153.5,124.5C 146.679,123.671 139.679,123.171 132.5,123C 131.248,121.172 131.248,119.339 132.5,117.5 Z"/></g>
<g><path style="opacity:1" fill="#454343" d="M 130.5,117.5 C 131.167,117.5 131.833,117.5 132.5,117.5C 131.248,119.339 131.248,121.172 132.5,123C 139.679,123.171 146.679,123.671 153.5,124.5C 146.159,124.666 138.826,124.5 131.5,124C 129.845,122.556 129.178,120.722 129.5,118.5C 130.167,118.5 130.5,118.167 130.5,117.5 Z"/></g>
<g><path style="opacity:1" fill="#c1c0c1" d="M 159.5,129.5 C 160.391,127.391 161.558,125.391 163,123.5C 163.743,121.559 163.576,119.726 162.5,118C 152.506,117.5 142.506,117.334 132.5,117.5C 131.833,117.5 131.167,117.5 130.5,117.5C 131.263,116.732 132.263,116.232 133.5,116C 143.561,115.105 153.561,115.438 163.5,117C 166.231,122.212 164.898,126.379 159.5,129.5 Z"/></g>
<g><path style="opacity:1" fill="#c3c1c2" d="M 394.5,110.5 C 398.472,114.213 400.638,118.88 401,124.5C 401.5,146.497 401.667,168.497 401.5,190.5C 370.167,190.5 338.833,190.5 307.5,190.5C 307.5,190.167 307.5,189.833 307.5,189.5C 307.833,189.5 308.167,189.5 308.5,189.5C 338.833,189.5 369.167,189.5 399.5,189.5C 399.667,167.497 399.5,145.497 399,123.5C 397.493,119.156 395.993,114.822 394.5,110.5 Z"/></g>
<g><path style="opacity:0.776" fill="#76accb" d="M 150.5,18.5 C 63.0225,60.0564 13.1892,129.056 1,225.5C -2.33438,335.883 44.1656,417.216 140.5,469.5C 82.0239,441.576 40.5239,397.576 16,337.5C 7.79595,315.022 2.29595,292.022 -0.5,268.5C -0.5,253.833 -0.5,239.167 -0.5,224.5C 11.0499,131.217 58.7165,63.3835 142.5,21C 145.096,19.8644 147.763,19.031 150.5,18.5 Z"/></g>
<g><path style="opacity:1" fill="#99d8e9" d="M 297.5,199.5 C 297.5,231.833 297.5,264.167 297.5,296.5C 265.5,296.5 233.5,296.5 201.5,296.5C 201.5,264.167 201.5,231.833 201.5,199.5C 233.5,199.5 265.5,199.5 297.5,199.5 Z"/></g>
<g><path style="opacity:1" fill="#b1b0b0" d="M 298.5,199.5 C 298.167,199.5 297.833,199.5 297.5,199.5C 265.5,199.5 233.5,199.5 201.5,199.5C 201.5,231.833 201.5,264.167 201.5,296.5C 201.5,296.833 201.5,297.167 201.5,297.5C 200.502,264.671 200.168,231.671 200.5,198.5C 233.338,198.168 266.004,198.502 298.5,199.5 Z"/></g>
<g><path style="opacity:1" fill="#d7d7d7" d="M 243.5,224.5 C 252.292,221.515 259.458,223.848 265,231.5C 265.483,232.448 265.649,233.448 265.5,234.5C 260.466,226.319 253.132,222.986 243.5,224.5 Z"/></g>
<g><path style="opacity:1" fill="#8e8b8d" d="M 400.5,297.5 C 400.832,264.662 400.498,231.996 399.5,199.5C 369.167,199.5 338.833,199.5 308.5,199.5C 307.502,231.996 307.168,264.662 307.5,297.5C 306.502,264.671 306.168,231.671 306.5,198.5C 338.167,198.5 369.833,198.5 401.5,198.5C 401.832,231.671 401.498,264.671 400.5,297.5 Z"/></g>
<g><path style="opacity:1" fill="#eeeeee" d="M 29.5,222.5 C 30.4345,223.568 30.7678,224.901 30.5,226.5C 29.1667,227.167 29.1667,227.833 30.5,228.5C 30.5,240.167 30.5,251.833 30.5,263.5C 29.1667,264.167 29.1667,264.833 30.5,265.5C 31.8331,274.499 33.1665,283.499 34.5,292.5C 34.1667,292.5 33.8333,292.5 33.5,292.5C 31.2505,284.005 29.7505,275.338 29,266.5C 28.1999,251.789 28.3666,237.122 29.5,222.5 Z"/></g>
<g><path style="opacity:1" fill="#272224" d="M 243.5,224.5 C 253.132,222.986 260.466,226.319 265.5,234.5C 266.532,242.472 266.698,250.472 266,258.5C 263.087,271.877 254.92,277.044 241.5,274C 236.477,271.785 234.144,267.952 234.5,262.5C 236.068,261.527 237.735,261.36 239.5,262C 245.616,272.044 251.449,271.877 257,261.5C 257.818,258.773 257.652,256.106 256.5,253.5C 252.276,256.197 247.609,257.197 242.5,256.5C 235.804,253.63 232.471,248.463 232.5,241C 232.766,233.234 236.433,227.734 243.5,224.5 Z"/></g>
<g><path style="opacity:1" fill="#cecdcd" d="M 245.5,230.5 C 255.442,230.624 259.275,235.624 257,245.5C 251.581,253.41 246.248,253.41 241,245.5C 240.333,242.167 240.333,238.833 241,235.5C 242.707,233.963 244.207,232.296 245.5,230.5 Z"/></g>
<g><path style="opacity:1" fill="#99d9e9" d="M 245.5,232.5 C 255.5,233.298 258.334,238.298 254,247.5C 249.708,251.309 246.042,250.642 243,245.5C 241.842,240.693 242.676,236.36 245.5,232.5 Z"/></g>
<g><path style="opacity:1" fill="#cccbcb" d="M 234.5,262.5 C 234.97,261.307 235.97,260.64 237.5,260.5C 238.5,260.667 239.5,260.833 240.5,261C 242.394,262.775 244.061,264.775 245.5,267C 253.374,267.452 256.874,263.619 256,255.5C 251.443,258.85 246.943,259.183 242.5,256.5C 247.609,257.197 252.276,256.197 256.5,253.5C 257.652,256.106 257.818,258.773 257,261.5C 251.449,271.877 245.616,272.044 239.5,262C 237.735,261.36 236.068,261.527 234.5,262.5 Z"/></g>
<g><path style="opacity:1" fill="#cacaca" d="M 265.5,234.5 C 266.927,236.148 267.76,238.148 268,240.5C 269.545,250.286 268.212,259.619 264,268.5C 257.628,275.957 249.795,278.124 240.5,275C 234.523,272.516 232.523,268.349 234.5,262.5C 234.144,267.952 236.477,271.785 241.5,274C 254.92,277.044 263.087,271.877 266,258.5C 266.698,250.472 266.532,242.472 265.5,234.5 Z"/></g>
<g><path style="opacity:1" fill="#e5e5e5" d="M 462.5,274.5 C 462.833,274.5 463.167,274.5 463.5,274.5C 462.958,282.41 461.625,290.077 459.5,297.5C 459.5,296.833 459.167,296.5 458.5,296.5C 459.712,289.11 461.045,281.777 462.5,274.5 Z"/></g>
<g><path style="opacity:1" fill="#cfcece" d="M 98.5,198.5 C 129.833,198.5 161.167,198.5 192.5,198.5C 192.5,231.5 192.5,264.5 192.5,297.5C 161.167,297.5 129.833,297.5 98.5,297.5C 98.5,264.5 98.5,231.5 98.5,198.5 Z"/></g>
<g><path style="opacity:1" fill="#99d9e9" d="M 100.5,199.5 C 130.833,199.5 161.167,199.5 191.5,199.5C 191.5,231.833 191.5,264.167 191.5,296.5C 160.832,296.667 130.165,296.5 99.5,296C 100.478,264.183 100.812,232.016 100.5,199.5 Z"/></g>
<g><path style="opacity:1" fill="#cccbcb" d="M 154.5,225.5 C 156.349,240.548 157.015,255.715 156.5,271C 155.408,278.628 151.575,280.462 145,276.5C 143.733,264.856 143.233,253.189 143.5,241.5C 141.929,243.415 139.929,244.415 137.5,244.5C 139.658,242.007 142.324,240.34 145.5,239.5C 145.333,251.171 145.5,262.838 146,274.5C 149.074,278.689 151.74,278.355 154,273.5C 154.5,257.503 154.667,241.503 154.5,225.5 Z"/></g>
<g><path style="opacity:1" fill="#292426" d="M 154.5,225.5 C 154.667,241.503 154.5,257.503 154,273.5C 151.74,278.355 149.074,278.689 146,274.5C 145.5,262.838 145.333,251.171 145.5,239.5C 142.324,240.34 139.658,242.007 137.5,244.5C 135.181,245.167 132.847,245.334 130.5,245C 129.424,243.274 129.257,241.441 130,239.5C 138.085,236.552 144.252,231.385 148.5,224C 150.84,223.252 152.84,223.752 154.5,225.5 Z"/></g>
<g><path style="opacity:1" fill="#cecdcd" d="M 297.5,199.5 C 297.833,199.5 298.167,199.5 298.5,199.5C 298.5,232.167 298.5,264.833 298.5,297.5C 266.167,297.5 233.833,297.5 201.5,297.5C 201.5,297.167 201.5,296.833 201.5,296.5C 233.5,296.5 265.5,296.5 297.5,296.5C 297.5,264.167 297.5,231.833 297.5,199.5 Z"/></g>
<g><path style="opacity:1" fill="#dbdbdb" d="M 308.5,199.5 C 308.5,231.833 308.5,264.167 308.5,296.5C 338.833,296.5 369.167,296.5 399.5,296.5C 399.5,264.167 399.5,231.833 399.5,199.5C 400.498,231.996 400.832,264.662 400.5,297.5C 369.5,297.5 338.5,297.5 307.5,297.5C 307.168,264.662 307.502,231.996 308.5,199.5 Z"/></g>
<g><path style="opacity:1" fill="#9ad9ea" d="M 308.5,199.5 C 338.833,199.5 369.167,199.5 399.5,199.5C 399.5,231.833 399.5,264.167 399.5,296.5C 369.167,296.5 338.833,296.5 308.5,296.5C 308.5,264.167 308.5,231.833 308.5,199.5 Z"/></g>
<g><path style="opacity:1" fill="#c5c4c4" d="M 331.5,266.5 C 347.837,266.333 364.17,266.5 380.5,267C 383.333,270.663 383,273.996 379.5,277C 364.167,277.667 348.833,277.667 333.5,277C 329.788,275.368 328.621,272.535 330,268.5C 330.717,267.956 331.217,267.289 331.5,266.5 Z"/></g>
<g><path style="opacity:1" fill="#292325" d="M 332.5,267.5 C 348.17,267.333 363.837,267.5 379.5,268C 382.167,270.333 382.167,272.667 379.5,275C 363.833,275.667 348.167,275.667 332.5,275C 329.914,272.506 329.914,270.006 332.5,267.5 Z"/></g>
<g><path style="opacity:1" fill="#c1c1c1" d="M 331.5,242.5 C 347.837,242.333 364.17,242.5 380.5,243C 383.676,247.442 382.842,250.942 378,253.5C 363.39,252.214 349.057,252.214 335,253.5C 329.195,251.358 328.028,247.691 331.5,242.5 Z"/></g>
<g><path style="opacity:1" fill="#3e3d3d" d="M 332.5,244.5 C 332.261,246.467 332.594,248.301 333.5,250C 348.496,250.5 363.496,250.667 378.5,250.5C 363.339,251.661 348.006,251.828 332.5,251C 329.866,248.707 329.866,246.54 332.5,244.5 Z"/></g>
<g><path style="opacity:1" fill="#211e1f" d="M 378.5,250.5 C 363.496,250.667 348.496,250.5 333.5,250C 332.594,248.301 332.261,246.467 332.5,244.5C 347.995,243.339 363.661,243.172 379.5,244C 382.402,246.864 382.068,249.031 378.5,250.5 Z"/></g>
<g><path style="opacity:1" fill="#908d8f" d="M 379.5,227.5 C 380.167,227.5 380.833,227.5 381.5,227.5C 381.389,228.117 381.056,228.617 380.5,229C 364.837,229.5 349.17,229.667 333.5,229.5C 333.5,229.167 333.5,228.833 333.5,228.5C 349.009,228.83 364.342,228.496 379.5,227.5 Z"/></g>
<g><path style="opacity:1" fill="#241f21" d="M 379.5,227.5 C 364.342,228.496 349.009,228.83 333.5,228.5C 332.5,228.167 331.833,227.5 331.5,226.5C 331.706,224.451 332.539,224.117 334,225.5C 334.49,224.207 334.657,222.873 334.5,221.5C 349.167,221.5 363.833,221.5 378.5,221.5C 378.67,222.822 378.337,223.989 377.5,225C 378.381,225.708 379.047,226.542 379.5,227.5 Z"/></g>
<g><path style="opacity:1" fill="#cccccc" d="M 381.5,227.5 C 381.896,224.956 381.229,222.789 379.5,221C 363.833,220.333 348.167,220.333 332.5,221C 330.447,222.678 330.113,224.511 331.5,226.5C 331.833,227.5 332.5,228.167 333.5,228.5C 333.5,228.833 333.5,229.167 333.5,229.5C 329.746,228.172 328.579,225.506 330,221.5C 330.5,221 331,220.5 331.5,220C 347.833,219.333 364.167,219.333 380.5,220C 382.646,222.357 382.979,224.857 381.5,227.5 Z"/></g>
<g><path style="opacity:1" fill="#423f40" d="M 381.5,227.5 C 380.833,227.5 380.167,227.5 379.5,227.5C 379.047,226.542 378.381,225.708 377.5,225C 378.337,223.989 378.67,222.822 378.5,221.5C 363.833,221.5 349.167,221.5 334.5,221.5C 334.657,222.873 334.49,224.207 334,225.5C 332.539,224.117 331.706,224.451 331.5,226.5C 330.113,224.511 330.447,222.678 332.5,221C 348.167,220.333 363.833,220.333 379.5,221C 381.229,222.789 381.896,224.956 381.5,227.5 Z"/></g>
<g><path style="opacity:1" fill="#99d9e9" d="M 108.5,389.5 C 105.634,387.454 103.467,384.787 102,381.5C 100.872,379.655 100.372,377.655 100.5,375.5C 100.792,352.708 100.459,330.208 99.5,308C 130.165,307.5 160.832,307.333 191.5,307.5C 191.667,337.835 191.5,368.168 191,398.5C 170.706,398.641 150.206,398.475 129.5,398C 126.086,397.703 122.753,397.036 119.5,396C 115.778,393.81 112.111,391.644 108.5,389.5 Z"/></g>
<g><path style="opacity:1" fill="#aeadae" d="M 298.5,306.5 C 265.996,306.168 233.662,306.502 201.5,307.5C 201.5,337.5 201.5,367.5 201.5,397.5C 201.5,398.167 201.5,398.833 201.5,399.5C 200.502,368.338 200.168,337.004 200.5,305.5C 233.338,305.168 266.004,305.502 298.5,306.5 Z"/></g>
<g><path style="opacity:1" fill="#99d9e9" d="M 201.5,307.5 C 233.5,307.5 265.5,307.5 297.5,307.5C 297.829,337.74 297.495,367.907 296.5,398C 264.762,398.825 233.095,398.658 201.5,397.5C 201.5,367.5 201.5,337.5 201.5,307.5 Z"/></g>
<g><path style="opacity:1" fill="#99d9e9" d="M 393.5,386.5 C 389.861,392.449 384.527,396.115 377.5,397.5C 354.516,398.412 331.516,398.746 308.5,398.5C 308.5,368.167 308.5,337.833 308.5,307.5C 338.833,307.5 369.167,307.5 399.5,307.5C 399.667,329.169 399.5,350.836 399,372.5C 397.973,377.544 396.139,382.21 393.5,386.5 Z"/></g>
<g><path style="opacity:1" fill="#d3d3d3" d="M 318.5,305.5 C 346.074,305.172 373.574,305.505 401,306.5C 401.667,327.833 401.667,349.167 401,370.5C 399.798,373.774 398.798,377.107 398,380.5C 397.208,383.106 395.708,385.106 393.5,386.5C 396.139,382.21 397.973,377.544 399,372.5C 399.5,350.836 399.667,329.169 399.5,307.5C 369.167,307.5 338.833,307.5 308.5,307.5C 308.5,337.833 308.5,368.167 308.5,398.5C 331.516,398.746 354.516,398.412 377.5,397.5C 376.737,398.268 375.737,398.768 374.5,399C 352.169,399.5 329.836,399.667 307.5,399.5C 307.5,368.5 307.5,337.5 307.5,306.5C 311.371,306.815 315.038,306.482 318.5,305.5 Z"/></g>
<g><path style="opacity:1" fill="#e9e9e9" d="M 458.5,297.5 C 458.833,297.5 459.167,297.5 459.5,297.5C 459.481,302.663 457.814,306.997 454.5,310.5C 455.388,305.927 456.721,301.594 458.5,297.5 Z"/></g>
<g><path style="opacity:1" fill="#ebebeb" d="M 33.5,293.5 C 33.8333,293.5 34.1667,293.5 34.5,293.5C 37.1168,303.216 40.1168,312.882 43.5,322.5C 42.8333,322.5 42.5,322.833 42.5,323.5C 38.5856,313.858 35.5856,303.858 33.5,293.5 Z"/></g>
<g><path style="opacity:1" fill="#d4d3d4" d="M 108.5,389.5 C 112.111,391.644 115.778,393.81 119.5,396C 122.753,397.036 126.086,397.703 129.5,398C 150.206,398.475 170.706,398.641 191,398.5C 191.5,368.168 191.667,337.835 191.5,307.5C 160.832,307.333 130.165,307.5 99.5,308C 100.459,330.208 100.792,352.708 100.5,375.5C 99.7321,374.737 99.2321,373.737 99,372.5C 98.5,350.169 98.3334,327.836 98.5,305.5C 129.833,305.5 161.167,305.5 192.5,305.5C 192.5,336.833 192.5,368.167 192.5,399.5C 169.498,399.667 146.498,399.5 123.5,399C 117.453,397.32 112.453,394.153 108.5,389.5 Z"/></g>
<g><path style="opacity:1" fill="#dedede" d="M 201.5,307.5 C 233.662,306.502 265.996,306.168 298.5,306.5C 298.5,337.5 298.5,368.5 298.5,399.5C 266.167,399.5 233.833,399.5 201.5,399.5C 201.5,398.833 201.5,398.167 201.5,397.5C 233.095,398.658 264.762,398.825 296.5,398C 297.495,367.907 297.829,337.74 297.5,307.5C 265.5,307.5 233.5,307.5 201.5,307.5 Z"/></g>
<g><path style="opacity:1" fill="#888586" d="M 318.5,305.5 C 315.038,306.482 311.371,306.815 307.5,306.5C 307.5,337.5 307.5,368.5 307.5,399.5C 306.502,368.338 306.168,337.004 306.5,305.5C 310.5,305.5 314.5,305.5 318.5,305.5 Z"/></g>
<g><path style="opacity:1" fill="#eaeaea" d="M 454.5,311.5 C 454.833,311.5 455.167,311.5 455.5,311.5C 454.94,313.801 454.44,316.134 454,318.5C 453.502,320.544 452.335,321.878 450.5,322.5C 451.462,318.605 452.796,314.939 454.5,311.5 Z"/></g>
<g><path style="opacity:1" fill="#c9c9c9" d="M 121.5,321.5 C 137.503,321.333 153.503,321.5 169.5,322C 173.367,325.418 173.367,328.751 169.5,332C 153.5,332.667 137.5,332.667 121.5,332C 117.552,328.422 117.552,324.922 121.5,321.5 Z"/></g>
<g><path style="opacity:1" fill="#2a2527" d="M 122.5,322.5 C 137.837,322.333 153.17,322.5 168.5,323C 170.648,325.075 170.982,327.408 169.5,330C 153.5,330.667 137.5,330.667 121.5,330C 120.083,327.257 120.416,324.757 122.5,322.5 Z"/></g>
<g><path style="opacity:1" fill="#cacaca" d="M 328.5,323.5 C 344.503,323.333 360.503,323.5 376.5,324C 379.091,327.297 379.091,330.631 376.5,334C 360.833,334.667 345.167,334.667 329.5,334C 327.09,333.242 326.09,331.575 326.5,329C 326.395,326.822 327.061,324.988 328.5,323.5 Z"/></g>
<g><path style="opacity:1" fill="#cacaca" d="M 268.5,335.5 C 259.133,326.533 249.466,326.2 239.5,334.5C 240.254,331.909 241.921,330.076 244.5,329C 253.135,325.043 260.968,326.209 268,332.5C 268.483,333.448 268.649,334.448 268.5,335.5 Z"/></g>
<g><path style="opacity:1" fill="#252223" d="M 329.5,324.5 C 344.837,324.333 360.17,324.5 375.5,325C 377.725,327.025 378.059,329.358 376.5,332C 360.833,332.667 345.167,332.667 329.5,332C 326.914,329.506 326.914,327.006 329.5,324.5 Z"/></g>
<g><path style="opacity:1" fill="#cdcdcd" d="M 239.5,334.5 C 237.583,338.392 238.417,341.392 242,343.5C 242.772,343.355 243.439,343.022 244,342.5C 245.809,335.518 249.975,333.185 256.5,335.5C 250.178,334.579 246.344,337.245 245,343.5C 240.373,345.559 237.54,344.059 236.5,339C 236.915,336.974 237.915,335.474 239.5,334.5 Z"/></g>
<g><path style="opacity:1" fill="#c6c6c6" d="M 170.5,351.5 C 170.739,349.533 170.406,347.699 169.5,346C 153.837,345.5 138.17,345.333 122.5,345.5C 122.5,345.167 122.5,344.833 122.5,344.5C 137.661,343.339 152.994,343.172 168.5,344C 172.469,346.031 173.135,348.531 170.5,351.5 Z"/></g>
<g><path style="opacity:1" fill="#262223" d="M 122.5,345.5 C 138.17,345.333 153.837,345.5 169.5,346C 170.406,347.699 170.739,349.533 170.5,351.5C 170.5,351.833 170.5,352.167 170.5,352.5C 154.544,353.636 138.544,353.803 122.5,353C 119.86,350.379 119.86,347.879 122.5,345.5 Z"/></g>
<g><path style="opacity:1" fill="#292325" d="M 327.5,353.5 C 327.5,351.833 327.5,350.167 327.5,348.5C 343.759,347.349 360.093,347.183 376.5,348C 377.982,350.592 377.648,352.925 375.5,355C 360.167,355.667 344.833,355.667 329.5,355C 328.956,354.283 328.289,353.783 327.5,353.5 Z"/></g>
<g><path style="opacity:1" fill="#282526" d="M 268.5,335.5 C 269.623,341.499 267.957,346.499 263.5,350.5C 264.605,352.611 266.271,353.945 268.5,354.5C 269.167,356.167 269.833,357.833 270.5,359.5C 271.836,367.663 268.836,373.497 261.5,377C 253.029,380.2 245.695,378.7 239.5,372.5C 238.149,370.608 237.482,368.442 237.5,366C 239.621,360.183 242.288,360.017 245.5,365.5C 247.949,372.779 252.615,374.445 259.5,370.5C 263.841,365.309 263.507,360.643 258.5,356.5C 258.082,355.778 257.416,355.278 256.5,355C 253.5,354.667 250.5,354.333 247.5,354C 246.167,352.333 246.167,350.667 247.5,349C 250.167,348.667 252.833,348.333 255.5,348C 260.641,345.106 261.641,341.272 258.5,336.5C 258.158,335.662 257.492,335.328 256.5,335.5C 249.975,333.185 245.809,335.518 244,342.5C 243.439,343.022 242.772,343.355 242,343.5C 238.417,341.392 237.583,338.392 239.5,334.5C 249.466,326.2 259.133,326.533 268.5,335.5 Z"/></g>
<g><path style="opacity:1" fill="#d5d4d5" d="M 268.5,335.5 C 269.641,338.64 269.808,341.973 269,345.5C 268.654,347.848 267.487,349.681 265.5,351C 267.063,351.759 268.063,352.926 268.5,354.5C 266.271,353.945 264.605,352.611 263.5,350.5C 267.957,346.499 269.623,341.499 268.5,335.5 Z"/></g>
<g><path style="opacity:1" fill="#cbcacb" d="M 258.5,336.5 C 261.641,341.272 260.641,345.106 255.5,348C 252.833,348.333 250.167,348.667 247.5,349C 246.167,350.667 246.167,352.333 247.5,354C 250.5,354.333 253.5,354.667 256.5,355C 257.416,355.278 258.082,355.778 258.5,356.5C 254.818,356.665 251.152,356.499 247.5,356C 244.303,353.633 243.969,350.966 246.5,348C 250.725,348.02 254.558,346.853 258,344.5C 259.656,341.947 259.823,339.281 258.5,336.5 Z"/></g>
<g><path style="opacity:1" fill="#e6e6e6" d="M 450.5,323.5 C 450.833,323.5 451.167,323.5 451.5,323.5C 444.652,342.875 434.985,360.541 422.5,376.5C 422.5,375.833 422.167,375.5 421.5,375.5C 433.253,359.327 442.92,341.994 450.5,323.5 Z"/></g>
<g><path style="opacity:1" fill="#d2d2d2" d="M 122.5,344.5 C 122.5,344.833 122.5,345.167 122.5,345.5C 119.86,347.879 119.86,350.379 122.5,353C 138.544,353.803 154.544,353.636 170.5,352.5C 170.389,353.117 170.056,353.617 169.5,354C 153.5,354.667 137.5,354.667 121.5,354C 118.222,351.712 117.722,348.879 120,345.5C 120.671,344.748 121.504,344.414 122.5,344.5 Z"/></g>
<g><path style="opacity:1" fill="#cccbcc" d="M 327.5,353.5 C 328.289,353.783 328.956,354.283 329.5,355C 344.833,355.667 360.167,355.667 375.5,355C 377.648,352.925 377.982,350.592 376.5,348C 360.093,347.183 343.759,347.349 327.5,348.5C 327.414,347.504 327.748,346.671 328.5,346C 344.5,345.333 360.5,345.333 376.5,346C 379.091,349.369 379.091,352.703 376.5,356C 360.5,356.667 344.5,356.667 328.5,356C 327.748,355.329 327.414,354.496 327.5,353.5 Z"/></g>
<g><path style="opacity:1" fill="#dadada" d="M 245.5,365.5 C 242.288,360.017 239.621,360.183 237.5,366C 237.482,368.442 238.149,370.608 239.5,372.5C 235.748,370.286 234.581,366.953 236,362.5C 238.243,360.718 240.743,360.218 243.5,361C 245.037,362.11 245.703,363.61 245.5,365.5 Z"/></g>
<g><path style="opacity:1" fill="#cecece" d="M 121.5,368.5 C 137.503,368.333 153.503,368.5 169.5,369C 173.5,372.333 173.5,375.667 169.5,379C 153.5,379.667 137.5,379.667 121.5,379C 117.605,375.511 117.605,372.011 121.5,368.5 Z"/></g>
<g><path style="opacity:1" fill="#282325" d="M 122.5,369.5 C 137.837,369.333 153.17,369.5 168.5,370C 170.648,372.075 170.982,374.408 169.5,377C 153.5,377.667 137.5,377.667 121.5,377C 120.083,374.257 120.416,371.757 122.5,369.5 Z"/></g>
<g><path style="opacity:1" fill="#c4c3c4" d="M 328.5,370.5 C 344.837,370.333 361.17,370.5 377.5,371C 378.451,374.057 378.784,377.223 378.5,380.5C 361.487,380.833 344.487,380.499 327.5,379.5C 325.992,376.231 326.325,373.231 328.5,370.5 Z"/></g>
<g><path style="opacity:1" fill="#242122" d="M 329.5,371.5 C 344.837,371.333 360.17,371.5 375.5,372C 377.648,374.075 377.982,376.408 376.5,379C 360.833,379.667 345.167,379.667 329.5,379C 326.914,376.506 326.914,374.006 329.5,371.5 Z"/></g>
<g><path style="opacity:1" fill="#e1e1e1" d="M 42.5,323.5 C 42.8333,323.5 43.1667,323.5 43.5,323.5C 48.512,335.016 54.012,346.35 60,357.5C 98.0385,417.357 152.205,452.357 222.5,462.5C 223.209,463.404 224.209,463.737 225.5,463.5C 226.492,463.328 227.158,463.662 227.5,464.5C 141.992,453.8 81.1584,409.467 45,331.5C 44.0594,328.846 43.2261,326.179 42.5,323.5 Z"/></g>
<g><path style="opacity:1" fill="#d8d7d8" d="M 270.5,359.5 C 273.203,369.247 269.536,376.08 259.5,380C 253.936,381.01 248.602,380.343 243.5,378C 241.254,376.743 239.921,374.91 239.5,372.5C 245.695,378.7 253.029,380.2 261.5,377C 268.836,373.497 271.836,367.663 270.5,359.5 Z"/></g>
<g><path style="opacity:1" fill="#dad9da" d="M 91.5,378.5 C 97.2699,394.598 108.603,404.264 125.5,407.5C 125.5,407.833 125.5,408.167 125.5,408.5C 109.642,406.478 98.475,398.144 92,383.5C 91.5065,381.866 91.3398,380.199 91.5,378.5 Z"/></g>
<g><path style="opacity:1" fill="#cccbcb" d="M 395.5,398.5 C 389.292,405.74 381.292,409.073 371.5,408.5C 371.5,408.167 371.5,407.833 371.5,407.5C 380.303,406.457 388.303,403.457 395.5,398.5 Z"/></g>
<g><path style="opacity:1" fill="#a29fa0" d="M 125.5,408.5 C 125.5,408.167 125.5,407.833 125.5,407.5C 207.5,407.5 289.5,407.5 371.5,407.5C 371.5,407.833 371.5,408.167 371.5,408.5C 289.918,408.502 207.918,408.502 125.5,408.5 Z"/></g>
<g><path style="opacity:1" fill="#e5e5e5" d="M 421.5,376.5 C 421.833,376.5 422.167,376.5 422.5,376.5C 406.64,398.364 387.307,416.364 364.5,430.5C 364.5,430.167 364.5,429.833 364.5,429.5C 386.339,414.998 405.339,397.332 421.5,376.5 Z"/></g>
<g><path style="opacity:1" fill="#eaeaea" d="M 363.5,429.5 C 363.5,430.167 363.833,430.5 364.5,430.5C 336.276,448.8 305.276,459.8 271.5,463.5C 271.5,463.167 271.5,462.833 271.5,462.5C 304.479,457.923 335.146,446.923 363.5,429.5 Z"/></g>
<g><path style="opacity:1" fill="#dddddd" d="M 225.5,463.5 C 225.5,463.167 225.5,462.833 225.5,462.5C 239.833,463.833 254.167,463.833 268.5,462.5C 268.5,462.833 268.5,463.167 268.5,463.5C 254.875,465.648 241.208,465.981 227.5,464.5C 227.158,463.662 226.492,463.328 225.5,463.5 Z"/></g>
<g><path style="opacity:0.349" fill="#70accf" d="M 493.5,256.5 C 493.5,263.5 493.5,270.5 493.5,277.5C 482.594,350.508 447.261,408.341 387.5,451C 354.919,472.804 319.253,486.638 280.5,492.5C 273.833,492.5 267.167,492.5 260.5,492.5C 299.831,489.577 336.831,478.41 371.5,459C 446.278,412.313 486.944,344.813 493.5,256.5 Z"/></g>
<g><path style="opacity:0.341" fill="#6eadd2" d="M 140.5,469.5 C 156.423,475.584 172.423,481.251 188.5,486.5C 171.403,483.581 155.403,477.914 140.5,469.5 Z"/></g>
<g><path style="opacity:0.196" fill="#67a8cd" d="M 188.5,486.5 C 202.187,489.074 215.854,491.074 229.5,492.5C 224.167,492.5 218.833,492.5 213.5,492.5C 204.965,491.39 196.632,489.39 188.5,486.5 Z"/></g>
</svg>
