<?xml version="1.0" encoding="UTF-8"?>
<!DOCTYPE svg PUBLIC "-//W3C//DTD SVG 1.1//EN" "http://www.w3.org/Graphics/SVG/1.1/DTD/svg11.dtd">
<svg xmlns="http://www.w3.org/2000/svg" version="1.1" width="69px" height="70px" style="shape-rendering:geometricPrecision; text-rendering:geometricPrecision; image-rendering:optimizeQuality; fill-rule:evenodd; clip-rule:evenodd" xmlns:xlink="http://www.w3.org/1999/xlink">
<g><path style="opacity:0.999" fill="#040404" d="M 65.5,21.5 C 65.5,21.8333 65.5,22.1667 65.5,22.5C 66.7652,29.5379 66.7652,35.2046 65.5,39.5C 65.7913,33.6973 65.1246,28.0306 63.5,22.5C 63.4088,20.3023 64.0755,19.9689 65.5,21.5 Z"/></g>
<g><path style="opacity:0.804" fill="#2b2b2b" d="M 30.5,-0.5 C 32.8333,-0.5 35.1667,-0.5 37.5,-0.5C 50.6495,1.98345 59.9828,9.31678 65.5,21.5C 64.0755,19.9689 63.4088,20.3023 63.5,22.5C 55.0948,7.0686 42.0948,0.901931 24.5,4C 4.1005,13.307 -2.06617,28.4737 6,49.5C 14.2355,62.6972 26.0688,67.8639 41.5,65C 54.1948,60.8083 62.1948,52.3083 65.5,39.5C 66.7652,35.2046 66.7652,29.5379 65.5,22.5C 66.6515,24.7791 67.6515,27.1124 68.5,29.5C 68.5,32.8333 68.5,36.1667 68.5,39.5C 64.7146,56.2856 54.3813,66.2856 37.5,69.5C 35.1667,69.5 32.8333,69.5 30.5,69.5C 14.4749,66.4752 4.14161,57.1419 -0.5,41.5C -0.5,36.8333 -0.5,32.1667 -0.5,27.5C 4.14161,11.8581 14.4749,2.52477 30.5,-0.5 Z"/></g>
<g><path style="opacity:1" fill="#f1f1f1" d="M 63.5,22.5 C 65.1246,28.0306 65.7913,33.6973 65.5,39.5C 62.1948,52.3083 54.1948,60.8083 41.5,65C 26.0688,67.8639 14.2355,62.6972 6,49.5C -2.06617,28.4737 4.1005,13.307 24.5,4C 42.0948,0.901931 55.0948,7.0686 63.5,22.5 Z"/></g>
<g><path style="opacity:1" fill="#181818" d="M 29.5,9.5 C 32.5,9.5 35.5,9.5 38.5,9.5C 37.3433,14.0753 39.0099,16.7419 43.5,17.5C 47.2263,13.3995 50.7263,13.7329 54,18.5C 54.6667,19.5 54.6667,20.5 54,21.5C 51.2138,23.6921 50.7138,26.3588 52.5,29.5C 59.1983,29.216 61.1983,32.216 58.5,38.5C 56.2906,39.1062 54.124,39.7728 52,40.5C 52.3333,44.1667 52.6667,47.8333 53,51.5C 49.8765,55.4336 46.7099,55.4336 43.5,51.5C 39.0099,52.2581 37.3433,54.9247 38.5,59.5C 35.4816,59.6646 32.4816,59.498 29.5,59C 29.088,55.6177 27.4213,53.1177 24.5,51.5C 19.769,55.9023 16.1023,55.069 13.5,49C 14.5,47.3333 15.5,45.6667 16.5,44C 15.8524,42.5603 15.5191,41.0603 15.5,39.5C 13.4727,39.6621 11.4727,39.4955 9.5,39C 8.16667,36 8.16667,33 9.5,30C 11.4727,29.5045 13.4727,29.3379 15.5,29.5C 17.2862,26.3588 16.7862,23.6921 14,21.5C 14.0465,17.9346 15.8798,15.6012 19.5,14.5C 21.4741,15.7041 23.4741,16.5375 25.5,17C 27.8148,15.0537 29.1481,12.5537 29.5,9.5 Z"/></g>
<g><path style="opacity:1" fill="#797979" d="M 30.5,11.5 C 32.5,11.5 34.5,11.5 36.5,11.5C 36.5,13.5 36.5,15.5 36.5,17.5C 38.7867,17.7239 40.9534,18.3906 43,19.5C 44.4341,19.0696 45.6008,18.2362 46.5,17C 49.1249,16.2765 50.7916,17.2765 51.5,20C 50.7113,21.6255 49.7113,23.1255 48.5,24.5C 49.6094,26.3853 50.4427,28.3853 51,30.5C 53.0408,31.4231 55.2075,31.7564 57.5,31.5C 57.5,33.5 57.5,35.5 57.5,37.5C 55.1667,37.5 52.8333,37.5 50.5,37.5C 50.2437,39.9372 49.5771,42.2706 48.5,44.5C 52.6207,47.6052 52.454,50.2719 48,52.5C 46.3333,51.5 44.6667,50.5 43,49.5C 40.9534,50.6094 38.7867,51.2761 36.5,51.5C 36.5,53.5 36.5,55.5 36.5,57.5C 34.5,57.5 32.5,57.5 30.5,57.5C 30.5,55.5 30.5,53.5 30.5,51.5C 28.2133,51.2761 26.0466,50.6094 24,49.5C 22.2998,50.9266 20.4665,51.76 18.5,52C 17.3128,50.9805 16.3128,49.8139 15.5,48.5C 18.878,45.6425 19.378,42.3091 17,38.5C 14.9592,37.5769 12.7925,37.2436 10.5,37.5C 10.5,35.5 10.5,33.5 10.5,31.5C 12.7925,31.7564 14.9592,31.4231 17,30.5C 17.2326,28.2199 18.066,26.2199 19.5,24.5C 18.3523,22.8513 17.019,21.3513 15.5,20C 16.5,19 17.5,18 18.5,17C 20.4665,17.24 22.2998,18.0734 24,19.5C 26.0466,18.3906 28.2133,17.7239 30.5,17.5C 30.5,15.5 30.5,13.5 30.5,11.5 Z"/></g>
<g><path style="opacity:1" fill="#1b1b1b" d="M 30.5,22.5 C 42.5404,23.0238 47.0404,29.0238 44,40.5C 35.9916,48.9937 28.9916,48.327 23,38.5C 21.2695,31.0934 23.7695,25.7601 30.5,22.5 Z"/></g>
<g><path style="opacity:1" fill="#f6f6f6" d="M 29.5,25.5 C 38.9467,24.1189 43.4467,28.1189 43,37.5C 40.1849,43.1691 35.6849,45.0024 29.5,43C 24.8451,40.1034 23.3451,35.9367 25,30.5C 26.025,28.313 27.525,26.6464 29.5,25.5 Z"/></g>
</svg>
