<?xml version="1.0" encoding="UTF-8"?>
<!DOCTYPE svg PUBLIC "-//W3C//DTD SVG 1.1//EN" "http://www.w3.org/Graphics/SVG/1.1/DTD/svg11.dtd">
<svg xmlns="http://www.w3.org/2000/svg" version="1.1" width="500px" height="500px" style="shape-rendering:geometricPrecision; text-rendering:geometricPrecision; image-rendering:optimizeQuality; fill-rule:evenodd; clip-rule:evenodd" xmlns:xlink="http://www.w3.org/1999/xlink">
<g><path style="opacity:1" fill="#fdda77" d="M 226.5,-0.5 C 241.5,-0.5 256.5,-0.5 271.5,-0.5C 373.2,12.36 444.033,66.0266 484,160.5C 489.894,176.409 494.06,192.742 496.5,209.5C 496.444,214.731 497.111,219.731 498.5,224.5C 498.5,225.167 498.833,225.5 499.5,225.5C 499.5,241.5 499.5,257.5 499.5,273.5C 486.606,369.816 436.272,438.65 348.5,480C 323.967,490.133 298.634,496.633 272.5,499.5C 257.167,499.5 241.833,499.5 226.5,499.5C 137.316,488.343 70.8159,443.676 27,365.5C 12.3768,335.986 3.21011,304.986 -0.5,272.5C -0.5,257.5 -0.5,242.5 -0.5,227.5C 10.9288,133.258 58.9288,64.7581 143.5,22C 170.147,10.2574 197.814,2.75745 226.5,-0.5 Z"/></g>
<g><path style="opacity:1" fill="#443d32" d="M 88.5,116.5 C 195.834,116.333 303.167,116.5 410.5,117C 411,117.5 411.5,118 412,118.5C 412.667,194.833 412.667,271.167 412,347.5C 411.25,348.126 410.416,348.626 409.5,349C 367.835,349.5 326.168,349.667 284.5,349.5C 284.5,357.167 284.5,364.833 284.5,372.5C 299.837,372.333 315.17,372.5 330.5,373C 333.978,375.706 334.311,378.706 331.5,382C 276.833,382.667 222.167,382.667 167.5,382C 164.689,378.706 165.022,375.706 168.5,373C 183.83,372.5 199.163,372.333 214.5,372.5C 214.5,364.833 214.5,357.167 214.5,349.5C 172.499,349.667 130.499,349.5 88.5,349C 88,348.5 87.5,348 87,347.5C 86.3333,271.167 86.3333,194.833 87,118.5C 87.7172,117.956 88.2172,117.289 88.5,116.5 Z"/></g>
<g><path style="opacity:1" fill="#e3f1fc" d="M 386.5,126.5 C 386.5,197.167 386.5,267.833 386.5,338.5C 380.167,338.5 373.833,338.5 367.5,338.5C 367.832,281.998 367.499,225.664 366.5,169.5C 365.71,168.206 364.71,167.039 363.5,166C 343.167,165.333 322.833,165.333 302.5,166C 301.29,167.039 300.29,168.206 299.5,169.5C 298.501,225.664 298.168,281.998 298.5,338.5C 293.5,338.5 288.5,338.5 283.5,338.5C 283.667,296.499 283.5,254.499 283,212.5C 282.167,211.667 281.333,210.833 280.5,210C 259.833,209.333 239.167,209.333 218.5,210C 217.333,210.5 216.5,211.333 216,212.5C 215.5,254.832 215.333,297.165 215.5,339.5C 210.167,339.5 204.833,339.5 199.5,339.5C 199.667,311.165 199.5,282.831 199,254.5C 198.5,254 198,253.5 197.5,253C 176.5,252.333 155.5,252.333 134.5,253C 133.177,253.816 132.511,254.983 132.5,256.5C 131.502,283.662 131.169,310.995 131.5,338.5C 119.833,338.5 108.167,338.5 96.5,338.5C 96.5,267.833 96.5,197.167 96.5,126.5C 193.167,126.5 289.833,126.5 386.5,126.5 Z"/></g>
<g><path style="opacity:1" fill="#bbc8d1" d="M 386.5,126.5 C 391.833,126.5 397.167,126.5 402.5,126.5C 402.5,197.167 402.5,267.833 402.5,338.5C 397.167,338.5 391.833,338.5 386.5,338.5C 386.5,267.833 386.5,197.167 386.5,126.5 Z"/></g>
<g><path style="opacity:1" fill="#c5ced4" d="M 299.5,169.5 C 299.5,226.167 299.5,282.833 299.5,339.5C 293.974,339.821 288.64,339.488 283.5,338.5C 288.5,338.5 293.5,338.5 298.5,338.5C 298.168,281.998 298.501,225.664 299.5,169.5 Z"/></g>
<g><path style="opacity:1" fill="#b0b8ba" d="M 366.5,169.5 C 367.499,225.664 367.832,281.998 367.5,338.5C 373.833,338.5 380.167,338.5 386.5,338.5C 391.833,338.5 397.167,338.5 402.5,338.5C 390.678,339.495 378.678,339.828 366.5,339.5C 366.5,282.833 366.5,226.167 366.5,169.5 Z"/></g>
<g><path style="opacity:1" fill="#fdf39b" d="M 309.5,176.5 C 317.5,176.5 325.5,176.5 333.5,176.5C 333.5,230.5 333.5,284.5 333.5,338.5C 325.5,338.5 317.5,338.5 309.5,338.5C 309.5,284.5 309.5,230.5 309.5,176.5 Z"/></g>
<g><path style="opacity:1" fill="#d2ca82" d="M 309.5,176.5 C 324.991,175.504 340.658,175.17 356.5,175.5C 356.5,229.833 356.5,284.167 356.5,338.5C 348.833,338.5 341.167,338.5 333.5,338.5C 333.5,284.5 333.5,230.5 333.5,176.5C 325.5,176.5 317.5,176.5 309.5,176.5 Z"/></g>
<g><path style="opacity:0.91" fill="#feebb7" d="M 496.5,209.5 C 497.889,214.269 498.556,219.269 498.5,224.5C 497.111,219.731 496.444,214.731 496.5,209.5 Z"/></g>
<g><path style="opacity:1" fill="#9a7f55" d="M 226.5,219.5 C 226.5,259.167 226.5,298.833 226.5,338.5C 234.167,338.5 241.833,338.5 249.5,338.5C 257.167,338.5 264.833,338.5 272.5,338.5C 272.5,298.833 272.5,259.167 272.5,219.5C 273.499,259.33 273.832,299.33 273.5,339.5C 257.5,339.5 241.5,339.5 225.5,339.5C 225.168,299.33 225.501,259.33 226.5,219.5 Z"/></g>
<g><path style="opacity:1" fill="#d2a96b" d="M 249.5,219.5 C 257.167,219.5 264.833,219.5 272.5,219.5C 272.5,259.167 272.5,298.833 272.5,338.5C 264.833,338.5 257.167,338.5 249.5,338.5C 249.5,298.833 249.5,259.167 249.5,219.5 Z"/></g>
<g><path style="opacity:1" fill="#fecc7f" d="M 226.5,219.5 C 234.167,219.5 241.833,219.5 249.5,219.5C 249.5,259.167 249.5,298.833 249.5,338.5C 241.833,338.5 234.167,338.5 226.5,338.5C 226.5,298.833 226.5,259.167 226.5,219.5 Z"/></g>
<g><path style="opacity:1" fill="#a4a9aa" d="M 132.5,256.5 C 132.5,284.167 132.5,311.833 132.5,339.5C 120.322,339.828 108.322,339.495 96.5,338.5C 108.167,338.5 119.833,338.5 131.5,338.5C 131.169,310.995 131.502,283.662 132.5,256.5 Z"/></g>
<g><path style="opacity:1" fill="#feccbb" d="M 165.5,262.5 C 165.5,287.833 165.5,313.167 165.5,338.5C 157.833,338.5 150.167,338.5 142.5,338.5C 142.5,313.167 142.5,287.833 142.5,262.5C 150.167,262.5 157.833,262.5 165.5,262.5 Z"/></g>
<g><path style="opacity:1" fill="#d2a99a" d="M 165.5,262.5 C 173.5,262.5 181.5,262.5 189.5,262.5C 189.5,287.833 189.5,313.167 189.5,338.5C 181.5,338.5 173.5,338.5 165.5,338.5C 165.5,313.167 165.5,287.833 165.5,262.5 Z"/></g>
<g><path style="opacity:1" fill="#f2f2f1" d="M 224.5,349.5 C 241.167,349.5 257.833,349.5 274.5,349.5C 274.5,357.167 274.5,364.833 274.5,372.5C 257.833,372.5 241.167,372.5 224.5,372.5C 224.5,364.833 224.5,357.167 224.5,349.5 Z"/></g>
</svg>
