<?xml version="1.0" encoding="UTF-8"?>
<!DOCTYPE svg PUBLIC "-//W3C//DTD SVG 1.1//EN" "http://www.w3.org/Graphics/SVG/1.1/DTD/svg11.dtd">
<svg xmlns="http://www.w3.org/2000/svg" version="1.1" width="459px" height="459px" style="shape-rendering:geometricPrecision; text-rendering:geometricPrecision; image-rendering:optimizeQuality; fill-rule:evenodd; clip-rule:evenodd" xmlns:xlink="http://www.w3.org/1999/xlink">
<g><path style="opacity:1" fill="#99d8e9" d="M 211.5,4.5 C 222.961,5.79968 234.295,5.79968 245.5,4.5C 249.215,4.42305 252.881,4.75638 256.5,5.5C 256.611,6.11742 256.944,6.61742 257.5,7C 263.178,8.00434 268.845,8.67101 274.5,9C 273.944,8.61742 273.611,8.11742 273.5,7.5C 275.415,7.21552 277.081,7.54885 278.5,8.5C 277.325,8.28099 276.325,8.61432 275.5,9.5C 278.088,10.7183 280.755,11.2183 283.5,11C 282.619,10.2917 281.953,9.45837 281.5,8.5C 283.403,8.79586 285.07,9.46253 286.5,10.5C 284.295,10.8459 284.128,11.5126 286,12.5C 294.072,14.355 302.239,17.0216 310.5,20.5C 311.298,20.0431 311.631,19.3764 311.5,18.5C 312.791,18.2627 313.791,18.596 314.5,19.5C 313.624,19.3691 312.957,19.7025 312.5,20.5C 314.012,21.8625 315.512,22.1958 317,21.5C 318.524,24.4281 320.024,24.7615 321.5,22.5C 322.492,22.3284 323.158,22.6618 323.5,23.5C 322.227,24.0768 322.227,24.7435 323.5,25.5C 337.822,32.4727 350.988,40.4727 363,49.5C 363.333,49.1667 363.667,48.8333 364,48.5C 366.536,52.1904 370.036,54.5237 374.5,55.5C 375.5,56.1667 376.5,56.8333 377.5,57.5C 378.072,59.2554 378.906,60.9221 380,62.5C 382.946,65.4459 385.946,68.4459 389,71.5C 389.383,70.944 389.883,70.6107 390.5,70.5C 391.694,74.5321 394.194,77.5321 398,79.5C 403.599,86.6349 408.932,93.9683 414,101.5C 414.75,102.126 415.584,102.626 416.5,103C 416.167,103.333 415.833,103.667 415.5,104C 417.196,105.176 418.862,106.343 420.5,107.5C 421.338,107.842 421.672,108.508 421.5,109.5C 420.761,109.369 420.094,109.536 419.5,110C 421.679,110.442 422.345,111.442 421.5,113C 422.833,114.333 424.167,115.667 425.5,117C 425.167,117.333 424.833,117.667 424.5,118C 426.436,122.553 429.102,126.553 432.5,130C 431.765,132.885 432.765,135.218 435.5,137C 434.366,138.016 434.699,138.683 436.5,139C 435.366,140.016 435.699,140.683 437.5,141C 437.167,141.333 436.833,141.667 436.5,142C 437.748,146.435 439.748,150.435 442.5,154C 442.167,154.333 441.833,154.667 441.5,155C 442.095,158.084 443.428,160.751 445.5,163C 444.185,164.395 444.519,165.395 446.5,166C 445.075,167.714 445.408,169.047 447.5,170C 447.167,170.333 446.833,170.667 446.5,171C 446.955,173.312 447.955,175.312 449.5,177C 448.978,177.561 448.645,178.228 448.5,179C 450.122,186.282 451.788,193.116 453.5,199.5C 452.861,200.097 452.528,200.93 452.5,202C 453.049,207.51 453.715,213.01 454.5,218.5C 455.484,215.572 455.817,212.572 455.5,209.5C 456.833,223.167 456.833,236.833 455.5,250.5C 455.813,247.753 455.48,245.086 454.5,242.5C 453.192,246.315 453.192,249.981 454.5,253.5C 454.5,254.167 454.5,254.833 454.5,255.5C 452.494,262.146 450.828,269.146 449.5,276.5C 449.608,277.442 449.941,278.275 450.5,279C 449.344,284.662 447.344,290.329 444.5,296C 435.674,325.812 421.174,352.646 401,376.5C 400.308,377.437 400.475,378.103 401.5,378.5C 401.167,379.5 400.5,380.167 399.5,380.5C 397.606,381.048 395.94,382.048 394.5,383.5C 371.002,408.83 343.668,427.496 312.5,439.5C 311.33,440.694 311.663,441.361 313.5,441.5C 312.791,442.404 311.791,442.737 310.5,442.5C 310.631,441.761 310.464,441.094 310,440.5C 301.372,443.867 292.539,446.701 283.5,449C 282.429,449.852 281.429,450.685 280.5,451.5C 275.525,450.23 270.858,450.897 266.5,453.5C 265.903,452.861 265.07,452.528 264,452.5C 259.992,452.89 256.159,453.723 252.5,455C 254.473,455.495 256.473,455.662 258.5,455.5C 255.713,456.477 252.713,456.81 249.5,456.5C 249.918,455.778 250.584,455.278 251.5,455C 247.833,454.333 244.167,454.333 240.5,455C 239.944,455.383 239.611,455.883 239.5,456.5C 228.346,455 217.179,454.667 206,455.5C 205.5,455 205,454.5 204.5,454C 195.929,452.886 187.429,451.386 179,449.5C 178.235,449.57 177.735,449.903 177.5,450.5C 175.784,450.371 174.117,450.038 172.5,449.5C 172.38,448.414 171.713,447.747 170.5,447.5C 148.562,442.076 128.728,433.409 111,421.5C 110.536,422.094 110.369,422.761 110.5,423.5C 109.508,423.672 108.842,423.338 108.5,422.5C 107.522,419.522 105.522,417.522 102.5,416.5C 101.537,416.97 101.537,417.637 102.5,418.5C 99.883,417.214 97.5496,415.547 95.5,413.5C 85.2191,404.555 75.2191,395.222 65.5,385.5C 47.063,364.492 32.7297,342.326 22.5,319C 21.9689,317.282 21.3023,317.115 20.5,318.5C 19.6618,318.158 19.3284,317.492 19.5,316.5C 20.3764,316.631 21.0431,316.298 21.5,315.5C 13.8443,297.211 8.84429,278.211 6.5,258.5C 6.41456,256.667 5.7479,255.334 4.5,254.5C 4.5,254.167 4.5,253.833 4.5,253.5C 5.38715,249.652 5.72049,245.819 5.5,242C 4.9558,241.283 4.28913,240.783 3.5,240.5C 3.5,233.167 3.5,225.833 3.5,218.5C 4.22158,218.918 4.72158,219.584 5,220.5C 5.30127,214.48 5.80127,208.48 6.5,202.5C 6.48046,201.274 6.14713,200.274 5.5,199.5C 5.5,198.833 5.5,198.167 5.5,197.5C 6.11742,197.389 6.61742,197.056 7,196.5C 8.12642,193.277 8.29309,190.111 7.5,187C 9.55405,184.198 10.3874,181.031 10,177.5C 9.61742,178.056 9.11742,178.389 8.5,178.5C 8.56513,175.572 9.2318,172.905 10.5,170.5C 11.1667,170.5 11.5,170.167 11.5,169.5C 12.4972,169.53 13.1639,169.03 13.5,168C 15.9098,159.103 18.9098,150.436 22.5,142C 21.9056,141.536 21.2389,141.369 20.5,141.5C 20.3284,140.508 20.6618,139.842 21.5,139.5C 21.56,140.043 21.8933,140.376 22.5,140.5C 27.9863,129.125 33.9863,118.292 40.5,108C 40.1667,107.667 39.8333,107.333 39.5,107C 42.3276,103.606 45.3276,100.273 48.5,97C 48.1667,96.6667 47.8333,96.3333 47.5,96C 50.6626,94.5202 52.496,92.0202 53,88.5C 55.1238,87.3783 56.9571,85.8783 58.5,84C 57.944,83.6174 57.6107,83.1174 57.5,82.5C 62.4262,79.0793 66.9262,75.0793 71,70.5C 71.6917,69.5632 71.525,68.8966 70.5,68.5C 70.5,66.5 71.5,65.5 73.5,65.5C 72.0313,67.1053 72.3646,67.6053 74.5,67C 95.2532,47.4592 117.42,32.9592 141,23.5C 142.78,22.4063 144.614,21.4063 146.5,20.5C 146.043,19.7025 145.376,19.3691 144.5,19.5C 145.93,18.4625 147.597,17.7959 149.5,17.5C 149.783,18.2891 150.283,18.9558 151,19.5C 153.698,18.7202 156.031,17.3869 158,15.5C 159.587,16.727 160.921,16.3937 162,14.5C 162.333,14.8333 162.667,15.1667 163,15.5C 174.071,12.5296 184.905,9.52955 195.5,6.5C 195.833,6.5 196.167,6.5 196.5,6.5C 197.097,7.13863 197.93,7.47196 199,7.5C 202.812,6.85413 206.646,6.35413 210.5,6C 211.056,5.61742 211.389,5.11742 211.5,4.5 Z"/></g>
<g><path style="opacity:1" fill="#99bfd6" d="M 244.5,3.5 C 244.5,4.16667 244.833,4.5 245.5,4.5C 234.295,5.79968 222.961,5.79968 211.5,4.5C 209.167,4.5 206.833,4.5 204.5,4.5C 217.653,2.46401 230.986,2.13068 244.5,3.5 Z"/></g>
<g><path style="opacity:1" fill="#bbc5ca" d="M 244.5,3.5 C 252.757,3.53204 260.757,4.53204 268.5,6.5C 264.481,6.3542 260.481,6.02087 256.5,5.5C 252.881,4.75638 249.215,4.42305 245.5,4.5C 244.833,4.5 244.5,4.16667 244.5,3.5 Z"/></g>
<g><path style="opacity:1" fill="#a5bcc9" d="M 204.5,4.5 C 201.997,5.37051 199.33,6.03718 196.5,6.5C 196.167,6.5 195.833,6.5 195.5,6.5C 192.236,7.32423 188.902,7.65757 185.5,7.5C 191.556,5.54729 197.889,4.54729 204.5,4.5 Z"/></g>
<g><path style="opacity:1" fill="#79b3d4" d="M 204.5,4.5 C 206.833,4.5 209.167,4.5 211.5,4.5C 211.389,5.11742 211.056,5.61742 210.5,6C 206.646,6.35413 202.812,6.85413 199,7.5C 197.93,7.47196 197.097,7.13863 196.5,6.5C 199.33,6.03718 201.997,5.37051 204.5,4.5 Z"/></g>
<g><path style="opacity:1" fill="#82b5d2" d="M 256.5,5.5 C 260.481,6.02087 264.481,6.3542 268.5,6.5C 270.415,6.21552 272.081,6.54885 273.5,7.5C 273.611,8.11742 273.944,8.61742 274.5,9C 268.845,8.67101 263.178,8.00434 257.5,7C 256.944,6.61742 256.611,6.11742 256.5,5.5 Z"/></g>
<g><path style="opacity:1" fill="#81b3d0" d="M 278.5,8.5 C 279.5,8.5 280.5,8.5 281.5,8.5C 281.953,9.45837 282.619,10.2917 283.5,11C 280.755,11.2183 278.088,10.7183 275.5,9.5C 276.325,8.61432 277.325,8.28099 278.5,8.5 Z"/></g>
<g><path style="opacity:1" fill="#8db7cf" d="M 195.5,6.5 C 184.905,9.52955 174.071,12.5296 163,15.5C 162.667,15.1667 162.333,14.8333 162,14.5C 160.921,16.3937 159.587,16.727 158,15.5C 156.031,17.3869 153.698,18.7202 151,19.5C 150.283,18.9558 149.783,18.2891 149.5,17.5C 160.979,12.6279 172.979,9.29453 185.5,7.5C 188.902,7.65757 192.236,7.32423 195.5,6.5 Z"/></g>
<g><path style="opacity:1" fill="#92b8cf" d="M 286.5,10.5 C 295.303,11.9911 303.637,14.6577 311.5,18.5C 311.631,19.3764 311.298,20.0431 310.5,20.5C 302.239,17.0216 294.072,14.355 286,12.5C 284.128,11.5126 284.295,10.8459 286.5,10.5 Z"/></g>
<g><path style="opacity:1" fill="#8fb8cf" d="M 314.5,19.5 C 317.018,20.2638 319.351,21.2638 321.5,22.5C 320.024,24.7615 318.524,24.4281 317,21.5C 315.512,22.1958 314.012,21.8625 312.5,20.5C 312.957,19.7025 313.624,19.3691 314.5,19.5 Z"/></g>
<g><path style="opacity:1" fill="#c4cacf" d="M 328.5,25.5 C 330.027,25.427 331.027,26.0937 331.5,27.5C 329.973,27.573 328.973,26.9063 328.5,25.5 Z"/></g>
<g><path style="opacity:1" fill="#91b8cf" d="M 323.5,23.5 C 325.284,23.8925 326.95,24.5592 328.5,25.5C 328.973,26.9063 329.973,27.573 331.5,27.5C 347.377,34.5962 361.711,43.9296 374.5,55.5C 370.036,54.5237 366.536,52.1904 364,48.5C 363.667,48.8333 363.333,49.1667 363,49.5C 350.988,40.4727 337.822,32.4727 323.5,25.5C 322.227,24.7435 322.227,24.0768 323.5,23.5 Z"/></g>
<g><path style="opacity:1" fill="#8fb7ce" d="M 144.5,19.5 C 145.376,19.3691 146.043,19.7025 146.5,20.5C 144.614,21.4063 142.78,22.4063 141,23.5C 117.42,32.9592 95.2532,47.4592 74.5,67C 72.3646,67.6053 72.0313,67.1053 73.5,65.5C 93.9706,45.3869 117.637,30.0535 144.5,19.5 Z"/></g>
<g><path style="opacity:1" fill="#96b9ce" d="M 377.5,57.5 C 382.167,61.5 386.5,65.8333 390.5,70.5C 389.883,70.6107 389.383,70.944 389,71.5C 385.946,68.4459 382.946,65.4459 380,62.5C 378.906,60.9221 378.072,59.2554 377.5,57.5 Z"/></g>
<g><path style="opacity:1" fill="#97bacf" d="M 70.5,68.5 C 71.525,68.8966 71.6917,69.5632 71,70.5C 66.9262,75.0793 62.4262,79.0793 57.5,82.5C 60.0941,78.728 62.9274,75.0613 66,71.5C 67.6147,70.6138 69.1147,69.6138 70.5,68.5 Z"/></g>
<g><path style="opacity:1" fill="#94b8cd" d="M 390.5,70.5 C 402.655,81.1755 412.655,93.5089 420.5,107.5C 418.862,106.343 417.196,105.176 415.5,104C 415.833,103.667 416.167,103.333 416.5,103C 415.584,102.626 414.75,102.126 414,101.5C 408.932,93.9683 403.599,86.6349 398,79.5C 394.194,77.5321 391.694,74.5321 390.5,70.5 Z"/></g>
<g><path style="opacity:1" fill="#7eabc9" d="M 276.5,93.5 C 276.5,93.8333 276.5,94.1667 276.5,94.5C 274.435,94.5172 272.435,94.8505 270.5,95.5C 271.903,93.0324 273.903,92.3657 276.5,93.5 Z"/></g>
<g><path style="opacity:1" fill="#c65c5c" d="M 276.5,94.5 C 282.275,93.7745 287.608,94.9412 292.5,98C 312.093,114.381 331.593,130.881 351,147.5C 357,156.5 357,165.5 351,174.5C 348.015,177.162 345.515,180.162 343.5,183.5C 338.167,189.5 332.833,195.5 327.5,201.5C 320.167,195.5 312.833,189.5 305.5,183.5C 291.54,171.51 277.54,159.51 263.5,147.5C 256.023,141.261 248.357,135.261 240.5,129.5C 250.186,117.819 260.186,106.486 270.5,95.5C 272.435,94.8505 274.435,94.5172 276.5,94.5 Z"/></g>
<g><path style="opacity:1" fill="#95b9cf" d="M 57.5,82.5 C 57.6107,83.1174 57.944,83.6174 58.5,84C 56.9571,85.8783 55.1238,87.3783 53,88.5C 52.496,92.0202 50.6626,94.5202 47.5,96C 47.8333,96.3333 48.1667,96.6667 48.5,97C 45.3276,100.273 42.3276,103.606 39.5,107C 39.8333,107.333 40.1667,107.667 40.5,108C 33.9863,118.292 27.9863,129.125 22.5,140.5C 21.8933,140.376 21.56,140.043 21.5,139.5C 29.7371,118.004 41.7371,99.0037 57.5,82.5 Z"/></g>
<g><path style="opacity:1" fill="#df995e" d="M 240.5,129.5 C 248.357,135.261 256.023,141.261 263.5,147.5C 228.796,186.211 195.129,225.877 162.5,266.5C 155.48,266.502 148.48,266.835 141.5,267.5C 138.455,264.453 135.122,261.787 131.5,259.5C 131.5,259.167 131.5,258.833 131.5,258.5C 142.071,246.352 152.405,234.018 162.5,221.5C 188.875,191.127 214.875,160.46 240.5,129.5 Z"/></g>
<g><path style="opacity:1" fill="#83a8c5" d="M 343.5,183.5 C 345.515,180.162 348.015,177.162 351,174.5C 357,165.5 357,156.5 351,147.5C 331.593,130.881 312.093,114.381 292.5,98C 287.608,94.9412 282.275,93.7745 276.5,94.5C 276.5,94.1667 276.5,93.8333 276.5,93.5C 277.312,92.0069 278.645,91.3402 280.5,91.5C 285.205,91.9262 289.538,93.4262 293.5,96C 312.353,112.354 331.353,128.521 350.5,144.5C 356.547,150.867 358.714,158.201 357,166.5C 354.384,173.768 349.884,179.435 343.5,183.5 Z"/></g>
<g><path style="opacity:1" fill="#8bb7d1" d="M 20.5,141.5 C 21.2389,141.369 21.9056,141.536 22.5,142C 18.9098,150.436 15.9098,159.103 13.5,168C 13.1639,169.03 12.4972,169.53 11.5,169.5C 12.9099,165.603 13.9099,161.603 14.5,157.5C 15.5361,151.715 17.5361,146.382 20.5,141.5 Z"/></g>
<g><path style="opacity:1" fill="#f4ce87" d="M 263.5,147.5 C 277.54,159.51 291.54,171.51 305.5,183.5C 271.79,223.208 238.457,263.208 205.5,303.5C 193.833,304.167 182.167,304.833 170.5,305.5C 168.833,305.5 167.167,305.5 165.5,305.5C 165.813,301.958 165.479,298.625 164.5,295.5C 163.635,287.184 162.968,278.851 162.5,270.5C 162.5,269.167 162.5,267.833 162.5,266.5C 195.129,225.877 228.796,186.211 263.5,147.5 Z"/></g>
<g><path style="opacity:1" fill="#92b7cd" d="M 421.5,109.5 C 441.16,139.476 452.493,172.476 455.5,208.5C 454.525,205.689 453.858,202.689 453.5,199.5C 451.788,193.116 450.122,186.282 448.5,179C 448.645,178.228 448.978,177.561 449.5,177C 447.955,175.312 446.955,173.312 446.5,171C 446.833,170.667 447.167,170.333 447.5,170C 445.408,169.047 445.075,167.714 446.5,166C 444.519,165.395 444.185,164.395 445.5,163C 443.428,160.751 442.095,158.084 441.5,155C 441.833,154.667 442.167,154.333 442.5,154C 439.748,150.435 437.748,146.435 436.5,142C 436.833,141.667 437.167,141.333 437.5,141C 435.699,140.683 435.366,140.016 436.5,139C 434.699,138.683 434.366,138.016 435.5,137C 432.765,135.218 431.765,132.885 432.5,130C 429.102,126.553 426.436,122.553 424.5,118C 424.833,117.667 425.167,117.333 425.5,117C 424.167,115.667 422.833,114.333 421.5,113C 422.345,111.442 421.679,110.442 419.5,110C 420.094,109.536 420.761,109.369 421.5,109.5 Z"/></g>
<g><path style="opacity:1" fill="#acbfca" d="M 14.5,157.5 C 13.9099,161.603 12.9099,165.603 11.5,169.5C 11.5,170.167 11.1667,170.5 10.5,170.5C 11.0569,165.835 12.3902,161.502 14.5,157.5 Z"/></g>
<g><path style="opacity:1" fill="#81afc9" d="M 270.5,95.5 C 260.186,106.486 250.186,117.819 240.5,129.5C 214.875,160.46 188.875,191.127 162.5,221.5C 162.389,220.883 162.056,220.383 161.5,220C 196.042,179.793 230.209,139.293 264,98.5C 265.955,97.5467 267.622,96.2134 269,94.5C 269.383,95.056 269.883,95.3893 270.5,95.5 Z"/></g>
<g><path style="opacity:1" fill="#df995e" d="M 305.5,183.5 C 312.833,189.5 320.167,195.5 327.5,201.5C 302.167,231.833 276.833,262.167 251.5,292.5C 241.531,303.976 231.698,315.642 222,327.5C 220.549,329.464 218.716,330.797 216.5,331.5C 213.761,328.616 210.761,325.949 207.5,323.5C 206.759,316.812 206.093,310.146 205.5,303.5C 238.457,263.208 271.79,223.208 305.5,183.5 Z"/></g>
<g><path style="opacity:1" fill="#83b5d2" d="M 5.5,197.5 C 5.5,196.167 5.5,194.833 5.5,193.5C 5.6253,188.206 6.6253,183.206 8.5,178.5C 9.11742,178.389 9.61742,178.056 10,177.5C 10.3874,181.031 9.55405,184.198 7.5,187C 8.29309,190.111 8.12642,193.277 7,196.5C 6.61742,197.056 6.11742,197.389 5.5,197.5 Z"/></g>
<g><path style="opacity:1" fill="#adbec8" d="M 5.5,193.5 C 5.5,194.833 5.5,196.167 5.5,197.5C 5.5,198.167 5.5,198.833 5.5,199.5C 5.01044,202.655 4.34378,205.655 3.5,208.5C 3.44435,203.269 4.11101,198.269 5.5,193.5 Z"/></g>
<g><path style="opacity:1" fill="#79b3d4" d="M 5.5,199.5 C 6.14713,200.274 6.48046,201.274 6.5,202.5C 5.80127,208.48 5.30127,214.48 5,220.5C 4.72158,219.584 4.22158,218.918 3.5,218.5C 3.5,215.5 3.5,212.5 3.5,209.5C 3.5,209.167 3.5,208.833 3.5,208.5C 4.34378,205.655 5.01044,202.655 5.5,199.5 Z"/></g>
<g><path style="opacity:1" fill="#78b3d4" d="M 453.5,199.5 C 453.858,202.689 454.525,205.689 455.5,208.5C 455.5,208.833 455.5,209.167 455.5,209.5C 455.817,212.572 455.484,215.572 454.5,218.5C 453.715,213.01 453.049,207.51 452.5,202C 452.528,200.93 452.861,200.097 453.5,199.5 Z"/></g>
<g><path style="opacity:1" fill="#aab9c2" d="M 3.5,209.5 C 3.5,212.5 3.5,215.5 3.5,218.5C 3.5,225.833 3.5,233.167 3.5,240.5C 3.37176,244.881 3.70509,249.215 4.5,253.5C 4.5,253.833 4.5,254.167 4.5,254.5C 4.5,256.167 4.5,257.833 4.5,259.5C 2.95841,250.051 2.29174,240.384 2.5,230.5C 2.50035,223.325 2.83368,216.325 3.5,209.5 Z"/></g>
<g><path style="opacity:1" fill="#7ab3d3" d="M 455.5,250.5 C 455.5,250.833 455.5,251.167 455.5,251.5C 454.662,251.842 454.328,252.508 454.5,253.5C 453.192,249.981 453.192,246.315 454.5,242.5C 455.48,245.086 455.813,247.753 455.5,250.5 Z"/></g>
<g><path style="opacity:1" fill="#79b3d4" d="M 3.5,240.5 C 4.28913,240.783 4.9558,241.283 5.5,242C 5.72049,245.819 5.38715,249.652 4.5,253.5C 3.70509,249.215 3.37176,244.881 3.5,240.5 Z"/></g>
<g><path style="opacity:1" fill="#82b0c9" d="M 343.5,183.5 C 343.611,184.117 343.944,184.617 344.5,185C 316,218.833 287.5,252.667 259,286.5C 256.894,289.118 254.394,291.118 251.5,292.5C 276.833,262.167 302.167,231.833 327.5,201.5C 332.833,195.5 338.167,189.5 343.5,183.5 Z"/></g>
<g><path style="opacity:1" fill="#80b0cb" d="M 162.5,221.5 C 152.405,234.018 142.071,246.352 131.5,258.5C 130.662,258.842 130.328,259.508 130.5,260.5C 130.167,260.5 129.833,260.5 129.5,260.5C 129.351,259.448 129.517,258.448 130,257.5C 138.71,247.792 147.043,237.792 155,227.5C 157.106,224.882 159.606,222.882 162.5,221.5 Z"/></g>
<g><path style="opacity:1" fill="#b3bfc5" d="M 455.5,251.5 C 455.698,256.75 455.031,261.75 453.5,266.5C 453.552,262.802 453.886,259.135 454.5,255.5C 454.5,254.833 454.5,254.167 454.5,253.5C 454.328,252.508 454.662,251.842 455.5,251.5 Z"/></g>
<g><path style="opacity:1" fill="#fdfdfd" d="M 131.5,259.5 C 135.122,261.787 138.455,264.453 141.5,267.5C 147.987,268.078 154.653,268.078 161.5,267.5C 161.263,268.791 161.596,269.791 162.5,270.5C 162.968,278.851 163.635,287.184 164.5,295.5C 164.5,299.167 164.5,302.833 164.5,306.5C 166.735,306.795 168.735,306.461 170.5,305.5C 182.167,304.833 193.833,304.167 205.5,303.5C 206.093,310.146 206.759,316.812 207.5,323.5C 210.761,325.949 213.761,328.616 216.5,331.5C 215.833,332.167 215.167,332.833 214.5,333.5C 193.568,339.365 172.568,345.032 151.5,350.5C 142.726,342.606 133.726,334.94 124.5,327.5C 123.435,320.464 123.769,313.464 125.5,306.5C 126.889,301.731 127.556,296.731 127.5,291.5C 127.523,285.288 128.19,279.288 129.5,273.5C 130.801,269.057 131.468,264.391 131.5,259.5 Z"/></g>
<g><path style="opacity:1" fill="#6897b2" d="M 129.5,260.5 C 129.833,260.5 130.167,260.5 130.5,260.5C 129.92,264.81 129.586,269.143 129.5,273.5C 128.19,279.288 127.523,285.288 127.5,291.5C 126.111,296.269 125.444,301.269 125.5,306.5C 123.769,313.464 123.435,320.464 124.5,327.5C 123.883,327.611 123.383,327.944 123,328.5C 121.649,339.163 120.482,349.829 119.5,360.5C 130.296,357.284 140.962,353.95 151.5,350.5C 172.568,345.032 193.568,339.365 214.5,333.5C 215.492,333.328 216.158,333.662 216.5,334.5C 214.889,336.641 213.389,338.974 212,341.5C 210.887,342.305 209.721,342.972 208.5,343.5C 184.041,349.424 160.041,356.424 136.5,364.5C 127.999,367.499 119.332,369.999 110.5,372C 109.852,368.642 109.519,365.309 109.5,362C 110.117,359.723 110.784,357.556 111.5,355.5C 112.384,352.977 113.218,350.31 114,347.5C 115.018,335.841 115.851,324.174 116.5,312.5C 117.197,297.922 118.697,283.255 121,268.5C 123.677,265.657 126.51,262.99 129.5,260.5 Z"/></g>
<g><path style="opacity:1" fill="#90b9d0" d="M 4.5,254.5 C 5.7479,255.334 6.41456,256.667 6.5,258.5C 8.84429,278.211 13.8443,297.211 21.5,315.5C 21.0431,316.298 20.3764,316.631 19.5,316.5C 11.5514,298.377 6.55137,279.377 4.5,259.5C 4.5,257.833 4.5,256.167 4.5,254.5 Z"/></g>
<g><path style="opacity:1" fill="#f8e6d3" d="M 162.5,266.5 C 162.5,267.833 162.5,269.167 162.5,270.5C 161.596,269.791 161.263,268.791 161.5,267.5C 154.653,268.078 147.987,268.078 141.5,267.5C 148.48,266.835 155.48,266.502 162.5,266.5 Z"/></g>
<g><path style="opacity:1" fill="#c6d7e1" d="M 131.5,258.5 C 131.5,258.833 131.5,259.167 131.5,259.5C 131.468,264.391 130.801,269.057 129.5,273.5C 129.586,269.143 129.92,264.81 130.5,260.5C 130.328,259.508 130.662,258.842 131.5,258.5 Z"/></g>
<g><path style="opacity:1" fill="#94b9cf" d="M 454.5,255.5 C 453.886,259.135 453.552,262.802 453.5,266.5C 446.896,309.029 429.563,346.362 401.5,378.5C 400.475,378.103 400.308,377.437 401,376.5C 421.174,352.646 435.674,325.812 444.5,296C 447.344,290.329 449.344,284.662 450.5,279C 449.941,278.275 449.608,277.442 449.5,276.5C 450.828,269.146 452.494,262.146 454.5,255.5 Z"/></g>
<g><path style="opacity:1" fill="#fae7c5" d="M 164.5,295.5 C 165.479,298.625 165.813,301.958 165.5,305.5C 167.167,305.5 168.833,305.5 170.5,305.5C 168.735,306.461 166.735,306.795 164.5,306.5C 164.5,302.833 164.5,299.167 164.5,295.5 Z"/></g>
<g><path style="opacity:1" fill="#b9ceda" d="M 127.5,291.5 C 127.556,296.731 126.889,301.731 125.5,306.5C 125.444,301.269 126.111,296.269 127.5,291.5 Z"/></g>
<g><path style="opacity:1" fill="#82b0ca" d="M 251.5,292.5 C 251.611,293.117 251.944,293.617 252.5,294C 240.977,308.017 228.977,321.517 216.5,334.5C 216.158,333.662 215.492,333.328 214.5,333.5C 215.167,332.833 215.833,332.167 216.5,331.5C 218.716,330.797 220.549,329.464 222,327.5C 231.698,315.642 241.531,303.976 251.5,292.5 Z"/></g>
<g><path style="opacity:1" fill="#505f75" d="M 124.5,327.5 C 133.726,334.94 142.726,342.606 151.5,350.5C 140.962,353.95 130.296,357.284 119.5,360.5C 120.482,349.829 121.649,339.163 123,328.5C 123.383,327.944 123.883,327.611 124.5,327.5 Z"/></g>
<g><path style="opacity:1" fill="#6fa6c4" d="M 116.5,312.5 C 115.851,324.174 115.018,335.841 114,347.5C 113.218,350.31 112.384,352.977 111.5,355.5C 111.978,345.714 112.978,336.214 114.5,327C 114.355,326.228 114.022,325.561 113.5,325C 114.643,320.765 115.643,316.599 116.5,312.5 Z"/></g>
<g><path style="opacity:1" fill="#73adcc" d="M 208.5,343.5 C 205.709,344.719 202.876,346.052 200,347.5C 199.667,347.167 199.333,346.833 199,346.5C 178.417,353.354 157.584,359.354 136.5,364.5C 160.041,356.424 184.041,349.424 208.5,343.5 Z"/></g>
<g><path style="opacity:1" fill="#94b9ce" d="M 95.5,413.5 C 61.214,389.209 36.214,357.542 20.5,318.5C 21.3023,317.115 21.9689,317.282 22.5,319C 32.7297,342.326 47.063,364.492 65.5,385.5C 75.2191,395.222 85.2191,404.555 95.5,413.5 Z"/></g>
<g><path style="opacity:1" fill="#96bacf" d="M 399.5,380.5 C 394.408,387.097 388.741,393.263 382.5,399C 362.089,417.214 339.089,431.38 313.5,441.5C 311.663,441.361 311.33,440.694 312.5,439.5C 343.668,427.496 371.002,408.83 394.5,383.5C 395.94,382.048 397.606,381.048 399.5,380.5 Z"/></g>
<g><path style="opacity:1" fill="#91b9d0" d="M 108.5,422.5 C 106.147,421.66 104.147,420.326 102.5,418.5C 101.537,417.637 101.537,416.97 102.5,416.5C 105.522,417.522 107.522,419.522 108.5,422.5 Z"/></g>
<g><path style="opacity:1" fill="#8fb7ce" d="M 172.5,449.5 C 171.833,449.5 171.167,449.5 170.5,449.5C 148.723,444.604 128.723,435.937 110.5,423.5C 110.369,422.761 110.536,422.094 111,421.5C 128.728,433.409 148.562,442.076 170.5,447.5C 171.713,447.747 172.38,448.414 172.5,449.5 Z"/></g>
<g><path style="opacity:1" fill="#93b9d0" d="M 310.5,442.5 C 300.971,446.72 290.971,449.72 280.5,451.5C 281.429,450.685 282.429,449.852 283.5,449C 292.539,446.701 301.372,443.867 310,440.5C 310.464,441.094 310.631,441.761 310.5,442.5 Z"/></g>
<g><path style="opacity:1" fill="#b4c0c6" d="M 170.5,449.5 C 171.167,449.5 171.833,449.5 172.5,449.5C 174.117,450.038 175.784,450.371 177.5,450.5C 177.5,450.833 177.5,451.167 177.5,451.5C 174.848,451.59 172.515,450.924 170.5,449.5 Z"/></g>
<g><path style="opacity:1" fill="#a5c1d2" d="M 280.5,451.5 C 274.124,453.678 267.457,455.011 260.5,455.5C 262.302,454.542 264.302,453.875 266.5,453.5C 270.858,450.897 275.525,450.23 280.5,451.5 Z"/></g>
<g><path style="opacity:1" fill="#91b7cd" d="M 239.5,456.5 C 242.833,456.5 246.167,456.5 249.5,456.5C 225.228,458.928 201.228,457.262 177.5,451.5C 177.5,451.167 177.5,450.833 177.5,450.5C 177.735,449.903 178.235,449.57 179,449.5C 187.429,451.386 195.929,452.886 204.5,454C 205,454.5 205.5,455 206,455.5C 217.179,454.667 228.346,455 239.5,456.5 Z"/></g>
<g><path style="opacity:1" fill="#7bb3d3" d="M 266.5,453.5 C 264.302,453.875 262.302,454.542 260.5,455.5C 259.833,455.5 259.167,455.5 258.5,455.5C 256.473,455.662 254.473,455.495 252.5,455C 256.159,453.723 259.992,452.89 264,452.5C 265.07,452.528 265.903,452.861 266.5,453.5 Z"/></g>
<g><path style="opacity:1" fill="#78b3d3" d="M 249.5,456.5 C 246.167,456.5 242.833,456.5 239.5,456.5C 239.611,455.883 239.944,455.383 240.5,455C 244.167,454.333 247.833,454.333 251.5,455C 250.584,455.278 249.918,455.778 249.5,456.5 Z"/></g>
</svg>
