<?xml version="1.0" encoding="UTF-8"?>
<!DOCTYPE svg PUBLIC "-//W3C//DTD SVG 1.1//EN" "http://www.w3.org/Graphics/SVG/1.1/DTD/svg11.dtd">
<svg xmlns="http://www.w3.org/2000/svg" version="1.1" width="980px" height="980px" style="shape-rendering:geometricPrecision; text-rendering:geometricPrecision; image-rendering:optimizeQuality; fill-rule:evenodd; clip-rule:evenodd" xmlns:xlink="http://www.w3.org/1999/xlink">
<g><path style="opacity:1" fill="#ef5549" d="M 458.5,-0.5 C 479.167,-0.5 499.833,-0.5 520.5,-0.5C 537.944,0.956877 555.277,3.29021 572.5,6.5C 577.572,8.24637 582.905,9.24637 588.5,9.5C 599.279,12.6107 610.279,15.2773 621.5,17.5C 623.515,18.9238 625.848,19.5905 628.5,19.5C 634.499,22.2762 640.833,24.2762 647.5,25.5C 656.869,29.7375 666.536,33.4042 676.5,36.5C 677.78,37.9313 679.447,38.5979 681.5,38.5C 684.088,40.6246 687.088,41.9579 690.5,42.5C 702.182,49.0079 714.182,55.0079 726.5,60.5C 728.336,62.588 730.669,63.9213 733.5,64.5C 737.995,68.2513 742.995,71.2513 748.5,73.5C 756.148,79.3266 764.148,84.6599 772.5,89.5C 774.296,91.9 776.63,93.5667 779.5,94.5C 780.262,96.2624 781.596,97.2624 783.5,97.5C 784.262,99.2624 785.596,100.262 787.5,100.5C 791.917,105.253 796.917,109.253 802.5,112.5C 807.199,117.2 812.199,121.534 817.5,125.5C 823.223,132.225 829.556,138.225 836.5,143.5C 841.441,150.11 847.108,156.11 853.5,161.5C 857.466,166.801 861.8,171.801 866.5,176.5C 869.747,182.083 873.747,187.083 878.5,191.5C 878.738,193.404 879.738,194.738 881.5,195.5C 881.738,197.404 882.738,198.738 884.5,199.5C 885.433,202.37 887.1,204.704 889.5,206.5C 894.34,214.852 899.673,222.852 905.5,230.5C 907.749,236.005 910.749,241.005 914.5,245.5C 915.41,248.992 917.076,251.992 919.5,254.5C 924.659,266.151 930.325,277.484 936.5,288.5C 937.932,293.478 939.932,298.144 942.5,302.5C 943.263,306.137 944.597,309.47 946.5,312.5C 951.327,327.647 956.327,342.647 961.5,357.5C 962.898,365.76 964.898,373.76 967.5,381.5C 967.42,384.781 968.087,387.781 969.5,390.5C 970.646,400.382 972.313,410.048 974.5,419.5C 974.527,425.051 975.194,430.384 976.5,435.5C 977.652,443.15 978.652,450.817 979.5,458.5C 979.5,479.167 979.5,499.833 979.5,520.5C 978.652,528.183 977.652,535.85 976.5,543.5C 975.194,548.616 974.527,553.949 974.5,559.5C 972.313,568.952 970.646,578.618 969.5,588.5C 968.087,591.219 967.42,594.219 967.5,597.5C 964.898,605.24 962.898,613.24 961.5,621.5C 956.327,636.353 951.327,651.353 946.5,666.5C 944.597,669.53 943.263,672.863 942.5,676.5C 939.932,680.856 937.932,685.522 936.5,690.5C 930.325,701.516 924.659,712.849 919.5,724.5C 917.076,727.008 915.41,730.008 914.5,733.5C 912.75,734.659 911.75,736.326 911.5,738.5C 909,741.494 907,744.827 905.5,748.5C 899.673,756.148 894.34,764.148 889.5,772.5C 887.1,774.296 885.433,776.63 884.5,779.5C 882.738,780.262 881.738,781.596 881.5,783.5C 877.078,787.587 873.411,792.254 870.5,797.5C 868.413,798.585 867.08,800.251 866.5,802.5C 863.757,804.239 861.757,806.573 860.5,809.5C 857.427,811.569 855.094,814.236 853.5,817.5C 844.167,826.167 835.167,835.167 826.5,844.5C 823.167,847.167 820.167,850.167 817.5,853.5C 814.236,855.094 811.569,857.427 809.5,860.5C 806.573,861.757 804.239,863.757 802.5,866.5C 800.251,867.08 798.585,868.413 797.5,870.5C 792.254,873.411 787.587,877.078 783.5,881.5C 781.596,881.738 780.262,882.738 779.5,884.5C 776.63,885.433 774.296,887.1 772.5,889.5C 764.148,894.34 756.148,899.673 748.5,905.5C 742.995,907.749 737.995,910.749 733.5,914.5C 730.008,915.41 727.008,917.076 724.5,919.5C 712.849,924.659 701.516,930.325 690.5,936.5C 685.522,937.932 680.856,939.932 676.5,942.5C 672.863,943.263 669.53,944.597 666.5,946.5C 659.873,948.262 653.539,950.595 647.5,953.5C 640.833,954.724 634.499,956.724 628.5,959.5C 625.848,959.41 623.515,960.076 621.5,961.5C 610.279,963.723 599.279,966.389 588.5,969.5C 580.929,970.204 573.596,971.538 566.5,973.5C 551.246,976.158 535.912,978.158 520.5,979.5C 499.833,979.5 479.167,979.5 458.5,979.5C 450.817,978.652 443.15,977.652 435.5,976.5C 430.384,975.194 425.051,974.527 419.5,974.5C 407.001,971.935 394.334,969.602 381.5,967.5C 375.094,965.232 368.427,963.565 361.5,962.5C 359.901,962.768 358.568,962.434 357.5,961.5C 354.495,959.723 351.162,958.723 347.5,958.5C 336.045,954.125 324.379,950.125 312.5,946.5C 311.22,945.069 309.553,944.402 307.5,944.5C 306.22,943.069 304.553,942.402 302.5,942.5C 300.574,940.707 298.241,939.707 295.5,939.5C 293.574,937.707 291.241,936.707 288.5,936.5C 277.484,930.325 266.151,924.659 254.5,919.5C 251.992,917.076 248.992,915.41 245.5,914.5C 244.341,912.75 242.674,911.75 240.5,911.5C 237.506,909 234.173,907 230.5,905.5C 222.852,899.673 214.852,894.34 206.5,889.5C 204.704,887.1 202.37,885.433 199.5,884.5C 198.738,882.738 197.404,881.738 195.5,881.5C 191.413,877.078 186.746,873.411 181.5,870.5C 180.415,868.413 178.749,867.08 176.5,866.5C 174.761,863.757 172.427,861.757 169.5,860.5C 167.431,857.427 164.764,855.094 161.5,853.5C 155.777,846.775 149.444,840.775 142.5,835.5C 137.559,828.89 131.892,822.89 125.5,817.5C 121.534,812.199 117.2,807.199 112.5,802.5C 107.874,795.874 102.874,789.54 97.5,783.5C 97.2624,781.596 96.2624,780.262 94.5,779.5C 93.5667,776.63 91.9,774.296 89.5,772.5C 84.6599,764.148 79.3266,756.148 73.5,748.5C 71.2513,742.995 68.2513,737.995 64.5,733.5C 57.4183,719.003 50.085,704.669 42.5,690.5C 41.0684,685.522 39.0684,680.856 36.5,676.5C 35.7365,672.863 34.4032,669.53 32.5,666.5C 27.6732,651.353 22.6732,636.353 17.5,621.5C 15.2773,610.279 12.6107,599.279 9.5,588.5C 8.35379,578.618 6.68713,568.952 4.5,559.5C 3.53178,557.393 3.19845,555.059 3.5,552.5C 3.41382,545.963 2.74716,539.63 1.5,533.5C 0.833333,529.167 0.166667,524.833 -0.5,520.5C -0.5,499.833 -0.5,479.167 -0.5,458.5C 0.166667,454.167 0.833333,449.833 1.5,445.5C 2.74716,439.37 3.41382,433.037 3.5,426.5C 3.19845,423.941 3.53178,421.607 4.5,419.5C 5.89548,415.409 6.56214,411.076 6.5,406.5C 8.24637,401.428 9.24637,396.095 9.5,390.5C 12.6107,379.721 15.2773,368.721 17.5,357.5C 18.9238,355.485 19.5905,353.152 19.5,350.5C 22.2762,344.501 24.2762,338.167 25.5,331.5C 28.4045,325.461 30.7379,319.127 32.5,312.5C 34.4032,309.47 35.7365,306.137 36.5,302.5C 39.0684,298.144 41.0684,293.478 42.5,288.5C 50.085,274.331 57.4183,259.997 64.5,245.5C 68.2513,241.005 71.2513,236.005 73.5,230.5C 77.2809,226.376 80.2809,221.709 82.5,216.5C 87.2349,211.368 91.2349,205.701 94.5,199.5C 96.2624,198.738 97.2624,197.404 97.5,195.5C 99.2624,194.738 100.262,193.404 100.5,191.5C 105.253,187.083 109.253,182.083 112.5,176.5C 117.2,171.801 121.534,166.801 125.5,161.5C 131.892,156.11 137.559,150.11 142.5,143.5C 142.5,142.833 142.833,142.5 143.5,142.5C 150.11,137.559 156.11,131.892 161.5,125.5C 166.801,121.534 171.801,117.2 176.5,112.5C 182.083,109.253 187.083,105.253 191.5,100.5C 193.404,100.262 194.738,99.2624 195.5,97.5C 197.404,97.2624 198.738,96.2624 199.5,94.5C 202.37,93.5667 204.704,91.9 206.5,89.5C 210.392,87.9379 213.725,85.6046 216.5,82.5C 221.709,80.2809 226.376,77.2809 230.5,73.5C 236.005,71.2513 241.005,68.2513 245.5,64.5C 259.997,57.4183 274.331,50.085 288.5,42.5C 293.478,41.0684 298.144,39.0684 302.5,36.5C 306.137,35.7365 309.47,34.4032 312.5,32.5C 320.126,30.4047 327.459,27.738 334.5,24.5C 342.436,22.7411 350.102,20.4078 357.5,17.5C 365.76,16.1016 373.76,14.1016 381.5,11.5C 384.781,11.5797 387.781,10.913 390.5,9.5C 396.095,9.24637 401.428,8.24637 406.5,6.5C 411.076,6.56214 415.409,5.89548 419.5,4.5C 425.051,4.47295 430.384,3.80629 435.5,2.5C 443.15,1.3476 450.817,0.347605 458.5,-0.5 Z"/></g>
<g><path style="opacity:1" fill="#737373" d="M 435.5,2.5 C 430.384,3.80629 425.051,4.47295 419.5,4.5C 424.598,3.04269 429.931,2.37603 435.5,2.5 Z"/></g>
<g><path style="opacity:1" fill="#727272" d="M 419.5,4.5 C 415.409,5.89548 411.076,6.56214 406.5,6.5C 410.591,5.10452 414.924,4.43786 419.5,4.5 Z"/></g>
<g><path style="opacity:1" fill="#6d6d6d" d="M 406.5,6.5 C 401.428,8.24637 396.095,9.24637 390.5,9.5C 395.572,7.75363 400.905,6.75363 406.5,6.5 Z"/></g>
<g><path style="opacity:1" fill="#777777" d="M 572.5,6.5 C 578.095,6.75363 583.428,7.75363 588.5,9.5C 582.905,9.24637 577.572,8.24637 572.5,6.5 Z"/></g>
<g><path style="opacity:1" fill="#666666" d="M 390.5,9.5 C 387.781,10.913 384.781,11.5797 381.5,11.5C 384.219,10.087 387.219,9.42032 390.5,9.5 Z"/></g>
<g><path style="opacity:1" fill="#7a7a7a" d="M 588.5,9.5 C 599.869,11.0931 610.869,13.7597 621.5,17.5C 610.279,15.2773 599.279,12.6107 588.5,9.5 Z"/></g>
<g><path style="opacity:1" fill="#5f5f60" d="M 381.5,11.5 C 373.76,14.1016 365.76,16.1016 357.5,17.5C 365.164,14.584 373.164,12.584 381.5,11.5 Z"/></g>
<g><path style="opacity:1" fill="#939393" d="M 621.5,17.5 C 624.152,17.4095 626.485,18.0762 628.5,19.5C 625.848,19.5905 623.515,18.9238 621.5,17.5 Z"/></g>
<g><path style="opacity:1" fill="#5b5b5c" d="M 357.5,17.5 C 350.102,20.4078 342.436,22.7411 334.5,24.5C 341.777,21.1879 349.444,18.8545 357.5,17.5 Z"/></g>
<g><path style="opacity:1" fill="#808080" d="M 628.5,19.5 C 635.167,20.7238 641.501,22.7238 647.5,25.5C 640.833,24.2762 634.499,22.2762 628.5,19.5 Z"/></g>
<g><path style="opacity:1" fill="#5d5d5d" d="M 334.5,24.5 C 327.459,27.738 320.126,30.4047 312.5,32.5C 319.387,28.8683 326.721,26.2017 334.5,24.5 Z"/></g>
<g><path style="opacity:1" fill="#7a7a7a" d="M 647.5,25.5 C 657.62,28.2031 667.286,31.8697 676.5,36.5C 666.536,33.4042 656.869,29.7375 647.5,25.5 Z"/></g>
<g><path style="opacity:1" fill="#797a7a" d="M 312.5,32.5 C 309.47,34.4032 306.137,35.7365 302.5,36.5C 305.37,34.2057 308.703,32.8723 312.5,32.5 Z"/></g>
<g><path style="opacity:1" fill="#737373" d="M 676.5,36.5 C 678.553,36.4021 680.22,37.0687 681.5,38.5C 679.447,38.5979 677.78,37.9313 676.5,36.5 Z"/></g>
<g><path style="opacity:1" fill="#7a7a7a" d="M 302.5,36.5 C 298.144,39.0684 293.478,41.0684 288.5,42.5C 292.691,39.5422 297.358,37.5422 302.5,36.5 Z"/></g>
<g><path style="opacity:1" fill="#6c6c6c" d="M 681.5,38.5 C 684.912,39.0421 687.912,40.3754 690.5,42.5C 687.088,41.9579 684.088,40.6246 681.5,38.5 Z"/></g>
<g><path style="opacity:1" fill="#6a6b6b" d="M 288.5,42.5 C 274.331,50.085 259.997,57.4183 245.5,64.5C 259.086,55.8727 273.42,48.5394 288.5,42.5 Z"/></g>
<g><path style="opacity:1" fill="#676767" d="M 690.5,42.5 C 703.086,47.4594 715.086,53.4594 726.5,60.5C 714.182,55.0079 702.182,49.0079 690.5,42.5 Z"/></g>
<g><path style="opacity:1" fill="#7a7b7b" d="M 726.5,60.5 C 729.331,61.0787 731.664,62.412 733.5,64.5C 730.669,63.9213 728.336,62.588 726.5,60.5 Z"/></g>
<g><path style="opacity:1" fill="#717171" d="M 245.5,64.5 C 241.005,68.2513 236.005,71.2513 230.5,73.5C 234.995,69.7487 239.995,66.7487 245.5,64.5 Z"/></g>
<g><path style="opacity:1" fill="#757575" d="M 733.5,64.5 C 739.005,66.7487 744.005,69.7487 748.5,73.5C 742.995,71.2513 737.995,68.2513 733.5,64.5 Z"/></g>
<g><path style="opacity:1" fill="#727272" d="M 230.5,73.5 C 226.376,77.2809 221.709,80.2809 216.5,82.5C 220.624,78.7191 225.291,75.7191 230.5,73.5 Z"/></g>
<g><path style="opacity:1" fill="#6d6d6d" d="M 748.5,73.5 C 757.196,77.844 765.196,83.1773 772.5,89.5C 764.148,84.6599 756.148,79.3266 748.5,73.5 Z"/></g>
<g><path style="opacity:1" fill="#616161" d="M 216.5,82.5 C 213.725,85.6046 210.392,87.9379 206.5,89.5C 209.275,86.3954 212.608,84.0621 216.5,82.5 Z"/></g>
<g><path style="opacity:1" fill="#767777" d="M 772.5,89.5 C 775.37,90.4333 777.704,92.1 779.5,94.5C 776.63,93.5667 774.296,91.9 772.5,89.5 Z"/></g>
<g><path style="opacity:1" fill="#616161" d="M 206.5,89.5 C 204.704,91.9 202.37,93.5667 199.5,94.5C 201.296,92.1 203.63,90.4333 206.5,89.5 Z"/></g>
<g><path style="opacity:1" fill="#919191" d="M 779.5,94.5 C 781.404,94.7376 782.738,95.7376 783.5,97.5C 781.596,97.2624 780.262,96.2624 779.5,94.5 Z"/></g>
<g><path style="opacity:1" fill="#606060" d="M 199.5,94.5 C 198.738,96.2624 197.404,97.2624 195.5,97.5C 196.262,95.7376 197.596,94.7376 199.5,94.5 Z"/></g>
<g><path style="opacity:1" fill="#898989" d="M 783.5,97.5 C 785.404,97.7376 786.738,98.7376 787.5,100.5C 785.596,100.262 784.262,99.2624 783.5,97.5 Z"/></g>
<g><path style="opacity:1" fill="#616161" d="M 195.5,97.5 C 194.738,99.2624 193.404,100.262 191.5,100.5C 192.262,98.7376 193.596,97.7376 195.5,97.5 Z"/></g>
<g><path style="opacity:1" fill="#7a7a7a" d="M 787.5,100.5 C 793.083,103.747 798.083,107.747 802.5,112.5C 796.917,109.253 791.917,105.253 787.5,100.5 Z"/></g>
<g><path style="opacity:1" fill="#6a6a6a" d="M 191.5,100.5 C 187.083,105.253 182.083,109.253 176.5,112.5C 180.917,107.747 185.917,103.747 191.5,100.5 Z"/></g>
<g><path style="opacity:1" fill="#787878" d="M 802.5,112.5 C 808.391,115.719 813.391,120.052 817.5,125.5C 812.199,121.534 807.199,117.2 802.5,112.5 Z"/></g>
<g><path style="opacity:1" fill="#5f5f5f" d="M 176.5,112.5 C 171.801,117.2 166.801,121.534 161.5,125.5C 165.609,120.052 170.609,115.719 176.5,112.5 Z"/></g>
<g><path style="opacity:1" fill="#6b6b6b" d="M 817.5,125.5 C 824.444,130.775 830.777,136.775 836.5,143.5C 829.556,138.225 823.223,132.225 817.5,125.5 Z"/></g>
<g><path style="opacity:1" fill="#434343" d="M 161.5,125.5 C 156.11,131.892 150.11,137.559 143.5,142.5C 148.89,136.108 154.89,130.441 161.5,125.5 Z"/></g>
<g><path style="opacity:1" fill="#656565" d="M 836.5,143.5 C 842.892,148.89 848.559,154.89 853.5,161.5C 847.108,156.11 841.441,150.11 836.5,143.5 Z"/></g>
<g><path style="opacity:1" fill="#525252" d="M 142.5,143.5 C 137.559,150.11 131.892,156.11 125.5,161.5C 130.441,154.89 136.108,148.89 142.5,143.5 Z"/></g>
<g><path style="opacity:1" fill="#737373" d="M 125.5,161.5 C 121.534,166.801 117.2,171.801 112.5,176.5C 115.719,170.609 120.052,165.609 125.5,161.5 Z"/></g>
<g><path style="opacity:1" fill="#737474" d="M 853.5,161.5 C 858.948,165.609 863.281,170.609 866.5,176.5C 861.8,171.801 857.466,166.801 853.5,161.5 Z"/></g>
<g><path style="opacity:1" fill="#6c6c6c" d="M 112.5,176.5 C 109.253,182.083 105.253,187.083 100.5,191.5C 103.747,185.917 107.747,180.917 112.5,176.5 Z"/></g>
<g><path style="opacity:1" fill="#787878" d="M 866.5,176.5 C 871.253,180.917 875.253,185.917 878.5,191.5C 873.747,187.083 869.747,182.083 866.5,176.5 Z"/></g>
<g><path style="opacity:1" fill="#606060" d="M 100.5,191.5 C 100.262,193.404 99.2624,194.738 97.5,195.5C 97.7376,193.596 98.7376,192.262 100.5,191.5 Z"/></g>
<g><path style="opacity:1" fill="#606060" d="M 878.5,191.5 C 880.262,192.262 881.262,193.596 881.5,195.5C 879.738,194.738 878.738,193.404 878.5,191.5 Z"/></g>
<g><path style="opacity:1" fill="#5d5d5d" d="M 97.5,195.5 C 97.2624,197.404 96.2624,198.738 94.5,199.5C 94.7376,197.596 95.7376,196.262 97.5,195.5 Z"/></g>
<g><path style="opacity:1" fill="#5e5e5e" d="M 881.5,195.5 C 883.262,196.262 884.262,197.596 884.5,199.5C 882.738,198.738 881.738,197.404 881.5,195.5 Z"/></g>
<g><path style="opacity:1" fill="#696969" d="M 94.5,199.5 C 91.2349,205.701 87.2349,211.368 82.5,216.5C 85.7297,210.273 89.7297,204.607 94.5,199.5 Z"/></g>
<g><path style="opacity:1" fill="#717171" d="M 884.5,199.5 C 886.9,201.296 888.567,203.63 889.5,206.5C 887.1,204.704 885.433,202.37 884.5,199.5 Z"/></g>
<g><path style="opacity:1" fill="#fcfcfc" d="M 635.5,269.5 C 635.5,286.167 635.5,302.833 635.5,319.5C 666.5,319.5 697.5,319.5 728.5,319.5C 741.446,323.305 746.946,331.972 745,345.5C 742.719,354.237 737.219,359.737 728.5,362C 711.17,362.5 693.837,362.667 676.5,362.5C 676.5,363.5 676.5,364.5 676.5,365.5C 676.41,368.152 677.076,370.485 678.5,372.5C 679.664,485.097 679.831,597.764 679,710.5C 673.763,743.072 654.929,762.572 622.5,769C 529.167,769.667 435.833,769.667 342.5,769C 333.738,768.026 325.738,765.192 318.5,760.5C 318.027,759.094 317.027,758.427 315.5,758.5C 313.973,758.573 312.973,757.906 312.5,756.5C 311.738,754.738 310.404,753.738 308.5,753.5C 295.225,742.287 287.725,727.954 286,710.5C 285.333,598.5 285.333,486.5 286,374.5C 286.529,371.053 287.362,367.719 288.5,364.5C 289.043,364.44 289.376,364.107 289.5,363.5C 273.18,362.501 256.847,362.167 240.5,362.5C 236.622,362.976 233.288,361.976 230.5,359.5C 230.027,358.094 229.027,357.427 227.5,357.5C 224.532,355.147 222.365,352.147 221,348.5C 220.333,343.167 220.333,337.833 221,332.5C 221.278,331.584 221.778,330.918 222.5,330.5C 223.906,330.027 224.573,329.027 224.5,327.5C 226.167,326.5 227.5,325.167 228.5,323.5C 230.649,321.254 233.316,319.754 236.5,319C 267.498,318.5 298.498,318.333 329.5,318.5C 329.18,299.757 329.514,281.09 330.5,262.5C 331.924,260.485 332.59,258.152 332.5,255.5C 333.432,250.311 335.432,245.644 338.5,241.5C 339.906,241.027 340.573,240.027 340.5,238.5C 342.208,234.428 344.874,231.095 348.5,228.5C 351.089,227.581 353.089,225.914 354.5,223.5C 354.5,222.833 354.833,222.5 355.5,222.5C 357.027,222.573 358.027,221.906 358.5,220.5C 365.871,214.979 374.204,211.479 383.5,210C 449.5,209.333 515.5,209.333 581.5,210C 613.304,217.304 631.304,237.137 635.5,269.5 Z"/></g>
<g><path style="opacity:1" fill="#727272" d="M 889.5,206.5 C 895.823,213.804 901.156,221.804 905.5,230.5C 899.673,222.852 894.34,214.852 889.5,206.5 Z"/></g>
<g><path style="opacity:1" fill="#6a6a6a" d="M 82.5,216.5 C 80.2809,221.709 77.2809,226.376 73.5,230.5C 75.7191,225.291 78.7191,220.624 82.5,216.5 Z"/></g>
<g><path style="opacity:1" fill="#767676" d="M 358.5,220.5 C 358.027,221.906 357.027,222.573 355.5,222.5C 355.973,221.094 356.973,220.427 358.5,220.5 Z"/></g>
<g><path style="opacity:1" fill="#818181" d="M 354.5,223.5 C 353.089,225.914 351.089,227.581 348.5,228.5C 349.911,226.086 351.911,224.419 354.5,223.5 Z"/></g>
<g><path style="opacity:1" fill="#737373" d="M 73.5,230.5 C 71.2513,236.005 68.2513,241.005 64.5,245.5C 66.7487,239.995 69.7487,234.995 73.5,230.5 Z"/></g>
<g><path style="opacity:1" fill="#7c7c7c" d="M 905.5,230.5 C 909.251,234.995 912.251,239.995 914.5,245.5C 910.749,241.005 907.749,236.005 905.5,230.5 Z"/></g>
<g><path style="opacity:1" fill="#656565" d="M 340.5,238.5 C 340.573,240.027 339.906,241.027 338.5,241.5C 338.427,239.973 339.094,238.973 340.5,238.5 Z"/></g>
<g><path style="opacity:1" fill="#737373" d="M 914.5,245.5 C 916.924,248.008 918.59,251.008 919.5,254.5C 917.076,251.992 915.41,248.992 914.5,245.5 Z"/></g>
<g><path style="opacity:1" fill="#ef5448" d="M 581.5,256.5 C 581.973,257.906 582.973,258.573 584.5,258.5C 592.229,266.787 593.562,276.121 588.5,286.5C 586.738,287.262 585.738,288.596 585.5,290.5C 583.596,290.738 582.262,291.738 581.5,293.5C 578.946,294.606 576.279,295.439 573.5,296C 512.833,296.667 452.167,296.667 391.5,296C 384.299,294.307 378.965,290.14 375.5,283.5C 375.204,281.597 374.537,279.93 373.5,278.5C 372.839,265.288 378.839,257.121 391.5,254C 452.167,253.333 512.833,253.333 573.5,254C 576.279,254.561 578.946,255.394 581.5,256.5 Z"/></g>
<g><path style="opacity:1" fill="#727272" d="M 581.5,256.5 C 583.027,256.427 584.027,257.094 584.5,258.5C 582.973,258.573 581.973,257.906 581.5,256.5 Z"/></g>
<g><path style="opacity:1" fill="#707070" d="M 919.5,254.5 C 926.207,265.248 931.874,276.581 936.5,288.5C 930.325,277.484 924.659,266.151 919.5,254.5 Z"/></g>
<g><path style="opacity:1" fill="#898989" d="M 332.5,255.5 C 332.59,258.152 331.924,260.485 330.5,262.5C 330.41,259.848 331.076,257.515 332.5,255.5 Z"/></g>
<g><path style="opacity:1" fill="#6b6b6b" d="M 64.5,245.5 C 57.4183,259.997 50.085,274.331 42.5,288.5C 48.5394,273.42 55.8727,259.086 64.5,245.5 Z"/></g>
<g><path style="opacity:1" fill="#727272" d="M 373.5,278.5 C 374.537,279.93 375.204,281.597 375.5,283.5C 373.787,282.365 373.12,280.698 373.5,278.5 Z"/></g>
<g><path style="opacity:1" fill="#6d6d6d" d="M 588.5,286.5 C 588.262,288.404 587.262,289.738 585.5,290.5C 585.738,288.596 586.738,287.262 588.5,286.5 Z"/></g>
<g><path style="opacity:1" fill="#707070" d="M 585.5,290.5 C 584.738,292.262 583.404,293.262 581.5,293.5C 582.262,291.738 583.596,290.738 585.5,290.5 Z"/></g>
<g><path style="opacity:1" fill="#6c6c6c" d="M 42.5,288.5 C 41.0684,293.478 39.0684,298.144 36.5,302.5C 37.5422,297.358 39.5422,292.691 42.5,288.5 Z"/></g>
<g><path style="opacity:1" fill="#6d6d6d" d="M 936.5,288.5 C 939.458,292.691 941.458,297.358 942.5,302.5C 939.932,298.144 937.932,293.478 936.5,288.5 Z"/></g>
<g><path style="opacity:1" fill="#7e7e7e" d="M 36.5,302.5 C 35.7365,306.137 34.4032,309.47 32.5,312.5C 32.8723,308.703 34.2057,305.37 36.5,302.5 Z"/></g>
<g><path style="opacity:1" fill="#828282" d="M 942.5,302.5 C 944.794,305.37 946.128,308.703 946.5,312.5C 944.597,309.47 943.263,306.137 942.5,302.5 Z"/></g>
<g><path style="opacity:1" fill="#727272" d="M 32.5,312.5 C 30.7379,319.127 28.4045,325.461 25.5,331.5C 26.8688,324.718 29.2021,318.385 32.5,312.5 Z"/></g>
<g><path style="opacity:1" fill="#868686" d="M 635.5,269.5 C 636.496,285.658 636.83,301.991 636.5,318.5C 667.338,318.169 698.005,318.502 728.5,319.5C 697.5,319.5 666.5,319.5 635.5,319.5C 635.5,302.833 635.5,286.167 635.5,269.5 Z"/></g>
<g><path style="opacity:1" fill="#6c6c6c" d="M 946.5,312.5 C 952.872,326.949 957.872,341.949 961.5,357.5C 956.327,342.647 951.327,327.647 946.5,312.5 Z"/></g>
<g><path style="opacity:1" fill="#616161" d="M 228.5,323.5 C 227.5,325.167 226.167,326.5 224.5,327.5C 224.833,325.167 226.167,323.833 228.5,323.5 Z"/></g>
<g><path style="opacity:1" fill="#6f6f6f" d="M 224.5,327.5 C 224.573,329.027 223.906,330.027 222.5,330.5C 222.427,328.973 223.094,327.973 224.5,327.5 Z"/></g>
<g><path style="opacity:1" fill="#616161" d="M 25.5,331.5 C 24.2762,338.167 22.2762,344.501 19.5,350.5C 20.7238,343.833 22.7238,337.499 25.5,331.5 Z"/></g>
<g><path style="opacity:1" fill="#5a5a5a" d="M 19.5,350.5 C 19.5905,353.152 18.9238,355.485 17.5,357.5C 17.4095,354.848 18.0762,352.515 19.5,350.5 Z"/></g>
<g><path style="opacity:1" fill="#5c5c5c" d="M 227.5,357.5 C 229.027,357.427 230.027,358.094 230.5,359.5C 228.973,359.573 227.973,358.906 227.5,357.5 Z"/></g>
<g><path style="opacity:1" fill="#6e6f6f" d="M 17.5,357.5 C 15.2773,368.721 12.6107,379.721 9.5,390.5C 11.0931,379.131 13.7597,368.131 17.5,357.5 Z"/></g>
<g><path style="opacity:1" fill="#6f6f6f" d="M 961.5,357.5 C 964.416,365.164 966.416,373.164 967.5,381.5C 964.898,373.76 962.898,365.76 961.5,357.5 Z"/></g>
<g><path style="opacity:1" fill="#1c1c1c" d="M 240.5,362.5 C 256.847,362.167 273.18,362.501 289.5,363.5C 289.376,364.107 289.043,364.44 288.5,364.5C 272.5,363.833 256.5,363.167 240.5,362.5 Z"/></g>
<g><path style="opacity:1" fill="#ef5448" d="M 627.5,691.5 C 626.094,691.973 625.427,692.973 625.5,694.5C 622.844,697.794 620.178,701.127 617.5,704.5C 614.833,706.5 612.5,708.833 610.5,711.5C 600.518,718.223 589.518,722.723 577.5,725C 514.5,725.667 451.5,725.667 388.5,725C 379.523,723.565 370.856,720.898 362.5,717C 354.675,711.34 347.675,704.84 341.5,697.5C 341.573,695.973 340.906,694.973 339.5,694.5C 333.376,683.672 330.209,672.005 330,659.5C 329.023,577.477 329.356,495.477 331,413.5C 338.454,386.38 355.954,369.88 383.5,364C 387.167,363.667 390.833,363.333 394.5,363C 456.853,362.038 519.187,362.371 581.5,364C 608.047,370.553 625.547,386.719 634,412.5C 634.333,416.167 634.667,419.833 635,423.5C 635.667,503.833 635.667,584.167 635,664.5C 634.016,673.947 631.516,682.947 627.5,691.5 Z"/></g>
<g><path style="opacity:1" fill="#7d7d7d" d="M 676.5,365.5 C 677.924,367.515 678.59,369.848 678.5,372.5C 677.076,370.485 676.41,368.152 676.5,365.5 Z"/></g>
<g><path style="opacity:1" fill="#6b6b6b" d="M 967.5,381.5 C 968.913,384.219 969.58,387.219 969.5,390.5C 968.087,387.781 967.42,384.781 967.5,381.5 Z"/></g>
<g><path style="opacity:1" fill="#6c6c6c" d="M 9.5,390.5 C 9.24637,396.095 8.24637,401.428 6.5,406.5C 6.75363,400.905 7.75363,395.572 9.5,390.5 Z"/></g>
<g><path style="opacity:1" fill="#f6f6f6" d="M 391.5,405.5 C 404.66,404.99 413.16,410.99 417,423.5C 417.667,503.833 417.667,584.167 417,664.5C 413.749,675.462 406.416,681.462 395,682.5C 383.015,681.513 375.682,675.18 373,663.5C 372.333,583.833 372.333,504.167 373,424.5C 375.348,414.32 381.515,407.987 391.5,405.5 Z"/></g>
<g><path style="opacity:1" fill="#fcfcfc" d="M 498.5,412.5 C 498.427,414.027 499.094,415.027 500.5,415.5C 501.906,415.973 502.573,416.973 502.5,418.5C 502.41,421.152 503.076,423.485 504.5,425.5C 504.667,505.167 504.5,584.834 504,664.5C 499.122,678.692 489.289,684.192 474.5,681C 472.416,680.303 470.749,679.136 469.5,677.5C 469.027,676.094 468.027,675.427 466.5,675.5C 466.446,673.368 465.446,672.035 463.5,671.5C 462.68,669.188 461.847,666.854 461,664.5C 460.333,583.5 460.333,502.5 461,421.5C 461.513,420.473 462.013,419.473 462.5,418.5C 463.906,418.027 464.573,417.027 464.5,415.5C 465.906,415.027 466.573,414.027 466.5,412.5C 468.027,412.573 469.027,411.906 469.5,410.5C 470.749,408.864 472.416,407.697 474.5,407C 479.833,406.333 485.167,406.333 490.5,407C 493.407,408.609 496.073,410.442 498.5,412.5 Z"/></g>
<g><path style="opacity:1" fill="#f7f7f7" d="M 566.5,405.5 C 579.66,404.99 588.16,410.99 592,423.5C 592.667,503.833 592.667,584.167 592,664.5C 588.749,675.462 581.416,681.462 570,682.5C 558.46,681.625 551.126,675.625 548,664.5C 547.333,584.167 547.333,503.833 548,423.5C 550.789,413.875 556.956,407.875 566.5,405.5 Z"/></g>
<g><path style="opacity:1" fill="#747474" d="M 969.5,390.5 C 972.119,399.878 973.786,409.545 974.5,419.5C 972.313,410.048 970.646,400.382 969.5,390.5 Z"/></g>
<g><path style="opacity:1" fill="#6d6d6e" d="M 469.5,410.5 C 469.027,411.906 468.027,412.573 466.5,412.5C 466.973,411.094 467.973,410.427 469.5,410.5 Z"/></g>
<g><path style="opacity:1" fill="#575858" d="M 466.5,412.5 C 466.573,414.027 465.906,415.027 464.5,415.5C 464.427,413.973 465.094,412.973 466.5,412.5 Z"/></g>
<g><path style="opacity:1" fill="#616161" d="M 498.5,412.5 C 499.906,412.973 500.573,413.973 500.5,415.5C 499.094,415.027 498.427,414.027 498.5,412.5 Z"/></g>
<g><path style="opacity:1" fill="#797979" d="M 6.5,406.5 C 6.56214,411.076 5.89548,415.409 4.5,419.5C 4.43786,414.924 5.10452,410.591 6.5,406.5 Z"/></g>
<g><path style="opacity:1" fill="#535353" d="M 464.5,415.5 C 464.573,417.027 463.906,418.027 462.5,418.5C 462.427,416.973 463.094,415.973 464.5,415.5 Z"/></g>
<g><path style="opacity:1" fill="#838484" d="M 502.5,418.5 C 503.924,420.515 504.59,422.848 504.5,425.5C 503.076,423.485 502.41,421.152 502.5,418.5 Z"/></g>
<g><path style="opacity:1" fill="#7c7c7c" d="M 3.5,426.5 C 3.41382,433.037 2.74716,439.37 1.5,445.5C 1.33685,438.938 2.00352,432.605 3.5,426.5 Z"/></g>
<g><path style="opacity:1" fill="#747474" d="M 974.5,419.5 C 975.957,424.598 976.624,429.931 976.5,435.5C 975.194,430.384 974.527,425.051 974.5,419.5 Z"/></g>
<g><path style="opacity:1" fill="#6e6e6e" d="M 1.5,533.5 C 2.74716,539.63 3.41382,545.963 3.5,552.5C 2.00352,546.395 1.33685,540.062 1.5,533.5 Z"/></g>
<g><path style="opacity:1" fill="#737373" d="M 976.5,543.5 C 976.624,549.069 975.957,554.402 974.5,559.5C 974.527,553.949 975.194,548.616 976.5,543.5 Z"/></g>
<g><path style="opacity:1" fill="#6f6f6f" d="M 4.5,559.5 C 6.68713,568.952 8.35379,578.618 9.5,588.5C 6.88068,579.122 5.21401,569.455 4.5,559.5 Z"/></g>
<g><path style="opacity:1" fill="#737373" d="M 974.5,559.5 C 973.786,569.455 972.119,579.122 969.5,588.5C 970.646,578.618 972.313,568.952 974.5,559.5 Z"/></g>
<g><path style="opacity:1" fill="#898a8a" d="M 969.5,588.5 C 969.58,591.781 968.913,594.781 967.5,597.5C 967.42,594.219 968.087,591.219 969.5,588.5 Z"/></g>
<g><path style="opacity:1" fill="#808080" d="M 9.5,588.5 C 12.6107,599.279 15.2773,610.279 17.5,621.5C 13.7597,610.869 11.0931,599.869 9.5,588.5 Z"/></g>
<g><path style="opacity:1" fill="#828282" d="M 967.5,597.5 C 966.416,605.836 964.416,613.836 961.5,621.5C 962.898,613.24 964.898,605.24 967.5,597.5 Z"/></g>
<g><path style="opacity:1" fill="#7f7f7f" d="M 17.5,621.5 C 22.6732,636.353 27.6732,651.353 32.5,666.5C 26.1281,652.051 21.1281,637.051 17.5,621.5 Z"/></g>
<g><path style="opacity:1" fill="#828383" d="M 961.5,621.5 C 957.872,637.051 952.872,652.051 946.5,666.5C 951.327,651.353 956.327,636.353 961.5,621.5 Z"/></g>
<g><path style="opacity:1" fill="#6e6e6e" d="M 463.5,671.5 C 465.446,672.035 466.446,673.368 466.5,675.5C 465.026,674.564 464.026,673.23 463.5,671.5 Z"/></g>
<g><path style="opacity:1" fill="#7d7d7d" d="M 32.5,666.5 C 34.4032,669.53 35.7365,672.863 36.5,676.5C 34.2057,673.63 32.8723,670.297 32.5,666.5 Z"/></g>
<g><path style="opacity:1" fill="#808080" d="M 946.5,666.5 C 946.128,670.297 944.794,673.63 942.5,676.5C 943.263,672.863 944.597,669.53 946.5,666.5 Z"/></g>
<g><path style="opacity:1" fill="#606060" d="M 466.5,675.5 C 468.027,675.427 469.027,676.094 469.5,677.5C 467.973,677.573 466.973,676.906 466.5,675.5 Z"/></g>
<g><path style="opacity:1" fill="#727272" d="M 36.5,676.5 C 39.0684,680.856 41.0684,685.522 42.5,690.5C 39.5422,686.309 37.5422,681.642 36.5,676.5 Z"/></g>
<g><path style="opacity:1" fill="#757575" d="M 942.5,676.5 C 941.458,681.642 939.458,686.309 936.5,690.5C 937.932,685.522 939.932,680.856 942.5,676.5 Z"/></g>
<g><path style="opacity:1" fill="#5b5b5b" d="M 627.5,691.5 C 627.573,693.027 626.906,694.027 625.5,694.5C 625.427,692.973 626.094,691.973 627.5,691.5 Z"/></g>
<g><path style="opacity:1" fill="#6d6d6d" d="M 339.5,694.5 C 340.906,694.973 341.573,695.973 341.5,697.5C 340.094,697.027 339.427,696.027 339.5,694.5 Z"/></g>
<g><path style="opacity:1" fill="#6f6f6f" d="M 936.5,690.5 C 931.874,702.419 926.207,713.752 919.5,724.5C 924.659,712.849 930.325,701.516 936.5,690.5 Z"/></g>
<g><path style="opacity:1" fill="#8b8b8b" d="M 617.5,704.5 C 616.167,707.833 613.833,710.167 610.5,711.5C 612.5,708.833 614.833,706.5 617.5,704.5 Z"/></g>
<g><path style="opacity:1" fill="#6f6f6f" d="M 42.5,690.5 C 50.085,704.669 57.4183,719.003 64.5,733.5C 55.8727,719.914 48.5394,705.58 42.5,690.5 Z"/></g>
<g><path style="opacity:1" fill="#7f7f7f" d="M 919.5,724.5 C 918.59,727.992 916.924,730.992 914.5,733.5C 915.41,730.008 917.076,727.008 919.5,724.5 Z"/></g>
<g><path style="opacity:1" fill="#797979" d="M 914.5,733.5 C 914.25,735.674 913.25,737.341 911.5,738.5C 911.75,736.326 912.75,734.659 914.5,733.5 Z"/></g>
<g><path style="opacity:1" fill="#7a7a7a" d="M 64.5,733.5 C 68.2513,737.995 71.2513,742.995 73.5,748.5C 69.7487,744.005 66.7487,739.005 64.5,733.5 Z"/></g>
<g><path style="opacity:1" fill="#7e7e7e" d="M 911.5,738.5 C 910.502,742.505 908.502,745.839 905.5,748.5C 907,744.827 909,741.494 911.5,738.5 Z"/></g>
<g><path style="opacity:1" fill="#838383" d="M 905.5,748.5 C 901.156,757.196 895.823,765.196 889.5,772.5C 894.34,764.148 899.673,756.148 905.5,748.5 Z"/></g>
<g><path style="opacity:1" fill="#6b6b6b" d="M 308.5,753.5 C 310.404,753.738 311.738,754.738 312.5,756.5C 310.596,756.262 309.262,755.262 308.5,753.5 Z"/></g>
<g><path style="opacity:1" fill="#6d6d6d" d="M 315.5,758.5 C 317.027,758.427 318.027,759.094 318.5,760.5C 316.973,760.573 315.973,759.906 315.5,758.5 Z"/></g>
<g><path style="opacity:1" fill="#707070" d="M 73.5,748.5 C 79.3266,756.148 84.6599,764.148 89.5,772.5C 83.1773,765.196 77.844,757.196 73.5,748.5 Z"/></g>
<g><path style="opacity:1" fill="#8c8c8c" d="M 889.5,772.5 C 888.567,775.37 886.9,777.704 884.5,779.5C 885.433,776.63 887.1,774.296 889.5,772.5 Z"/></g>
<g><path style="opacity:1" fill="#7c7c7c" d="M 89.5,772.5 C 91.9,774.296 93.5667,776.63 94.5,779.5C 92.1,777.704 90.4333,775.37 89.5,772.5 Z"/></g>
<g><path style="opacity:1" fill="#959595" d="M 94.5,779.5 C 96.2624,780.262 97.2624,781.596 97.5,783.5C 95.7376,782.738 94.7376,781.404 94.5,779.5 Z"/></g>
<g><path style="opacity:1" fill="#959595" d="M 884.5,779.5 C 884.262,781.404 883.262,782.738 881.5,783.5C 881.738,781.596 882.738,780.262 884.5,779.5 Z"/></g>
<g><path style="opacity:1" fill="#808080" d="M 881.5,783.5 C 878.589,788.746 874.922,793.413 870.5,797.5C 873.411,792.254 877.078,787.587 881.5,783.5 Z"/></g>
<g><path style="opacity:1" fill="#7a7a7a" d="M 97.5,783.5 C 102.874,789.54 107.874,795.874 112.5,802.5C 106.364,797.034 101.364,790.701 97.5,783.5 Z"/></g>
<g><path style="opacity:1" fill="#7c7c7c" d="M 870.5,797.5 C 869.92,799.749 868.587,801.415 866.5,802.5C 867.08,800.251 868.413,798.585 870.5,797.5 Z"/></g>
<g><path style="opacity:1" fill="#888888" d="M 866.5,802.5 C 865.243,805.427 863.243,807.761 860.5,809.5C 861.757,806.573 863.757,804.239 866.5,802.5 Z"/></g>
<g><path style="opacity:1" fill="#7c7c7c" d="M 112.5,802.5 C 117.2,807.199 121.534,812.199 125.5,817.5C 120.052,813.391 115.719,808.391 112.5,802.5 Z"/></g>
<g><path style="opacity:1" fill="#8f8f8f" d="M 860.5,809.5 C 858.906,812.764 856.573,815.431 853.5,817.5C 855.094,814.236 857.427,811.569 860.5,809.5 Z"/></g>
<g><path style="opacity:1" fill="#717171" d="M 125.5,817.5 C 131.892,822.89 137.559,828.89 142.5,835.5C 136.108,830.11 130.441,824.11 125.5,817.5 Z"/></g>
<g><path style="opacity:1" fill="#6e6e6e" d="M 853.5,817.5 C 845.555,827.113 836.889,836.113 827.5,844.5C 827.167,844.5 826.833,844.5 826.5,844.5C 835.167,835.167 844.167,826.167 853.5,817.5 Z"/></g>
<g><path style="opacity:1" fill="#676767" d="M 142.5,835.5 C 149.444,840.775 155.777,846.775 161.5,853.5C 154.556,848.225 148.223,842.225 142.5,835.5 Z"/></g>
<g><path style="opacity:1" fill="#afafaf" d="M 826.5,844.5 C 826.833,844.5 827.167,844.5 827.5,844.5C 824.769,848.234 821.436,851.234 817.5,853.5C 820.167,850.167 823.167,847.167 826.5,844.5 Z"/></g>
<g><path style="opacity:1" fill="#6b6c6c" d="M 161.5,853.5 C 164.764,855.094 167.431,857.427 169.5,860.5C 166.236,858.906 163.569,856.573 161.5,853.5 Z"/></g>
<g><path style="opacity:1" fill="#8f8f8f" d="M 817.5,853.5 C 815.431,856.573 812.764,858.906 809.5,860.5C 811.569,857.427 814.236,855.094 817.5,853.5 Z"/></g>
<g><path style="opacity:1" fill="#6b6b6b" d="M 169.5,860.5 C 172.427,861.757 174.761,863.757 176.5,866.5C 173.573,865.243 171.239,863.243 169.5,860.5 Z"/></g>
<g><path style="opacity:1" fill="#949494" d="M 809.5,860.5 C 807.761,863.243 805.427,865.243 802.5,866.5C 804.239,863.757 806.573,861.757 809.5,860.5 Z"/></g>
<g><path style="opacity:1" fill="#606060" d="M 176.5,866.5 C 178.749,867.08 180.415,868.413 181.5,870.5C 179.251,869.92 177.585,868.587 176.5,866.5 Z"/></g>
<g><path style="opacity:1" fill="#9d9d9d" d="M 802.5,866.5 C 801.415,868.587 799.749,869.92 797.5,870.5C 798.585,868.413 800.251,867.08 802.5,866.5 Z"/></g>
<g><path style="opacity:1" fill="#959595" d="M 797.5,870.5 C 793.413,874.922 788.746,878.589 783.5,881.5C 787.587,877.078 792.254,873.411 797.5,870.5 Z"/></g>
<g><path style="opacity:1" fill="#737373" d="M 181.5,870.5 C 186.746,873.411 191.413,877.078 195.5,881.5C 190.254,878.589 185.587,874.922 181.5,870.5 Z"/></g>
<g><path style="opacity:1" fill="#616161" d="M 195.5,881.5 C 197.404,881.738 198.738,882.738 199.5,884.5C 197.596,884.262 196.262,883.262 195.5,881.5 Z"/></g>
<g><path style="opacity:1" fill="#939393" d="M 783.5,881.5 C 782.738,883.262 781.404,884.262 779.5,884.5C 780.262,882.738 781.596,881.738 783.5,881.5 Z"/></g>
<g><path style="opacity:1" fill="#737373" d="M 199.5,884.5 C 202.37,885.433 204.704,887.1 206.5,889.5C 203.63,888.567 201.296,886.9 199.5,884.5 Z"/></g>
<g><path style="opacity:1" fill="#8d8d8d" d="M 779.5,884.5 C 777.704,886.9 775.37,888.567 772.5,889.5C 774.296,887.1 776.63,885.433 779.5,884.5 Z"/></g>
<g><path style="opacity:1" fill="#848484" d="M 772.5,889.5 C 765.196,895.823 757.196,901.156 748.5,905.5C 756.148,899.673 764.148,894.34 772.5,889.5 Z"/></g>
<g><path style="opacity:1" fill="#767676" d="M 206.5,889.5 C 214.852,894.34 222.852,899.673 230.5,905.5C 221.804,901.156 213.804,895.823 206.5,889.5 Z"/></g>
<g><path style="opacity:1" fill="#7b7b7b" d="M 230.5,905.5 C 234.173,907 237.506,909 240.5,911.5C 236.495,910.502 233.161,908.502 230.5,905.5 Z"/></g>
<g><path style="opacity:1" fill="#878787" d="M 748.5,905.5 C 744.005,909.251 739.005,912.251 733.5,914.5C 737.995,910.749 742.995,907.749 748.5,905.5 Z"/></g>
<g><path style="opacity:1" fill="#737373" d="M 240.5,911.5 C 242.674,911.75 244.341,912.75 245.5,914.5C 243.326,914.25 241.659,913.25 240.5,911.5 Z"/></g>
<g><path style="opacity:1" fill="#777777" d="M 245.5,914.5 C 248.992,915.41 251.992,917.076 254.5,919.5C 251.008,918.59 248.008,916.924 245.5,914.5 Z"/></g>
<g><path style="opacity:1" fill="#7c7c7c" d="M 733.5,914.5 C 730.992,916.924 727.992,918.59 724.5,919.5C 727.008,917.076 730.008,915.41 733.5,914.5 Z"/></g>
<g><path style="opacity:1" fill="#737373" d="M 254.5,919.5 C 266.151,924.659 277.484,930.325 288.5,936.5C 276.581,931.874 265.248,926.207 254.5,919.5 Z"/></g>
<g><path style="opacity:1" fill="#707070" d="M 724.5,919.5 C 713.752,926.207 702.419,931.874 690.5,936.5C 701.516,930.325 712.849,924.659 724.5,919.5 Z"/></g>
<g><path style="opacity:1" fill="#797979" d="M 288.5,936.5 C 291.241,936.707 293.574,937.707 295.5,939.5C 292.759,939.293 290.426,938.293 288.5,936.5 Z"/></g>
<g><path style="opacity:1" fill="#707070" d="M 295.5,939.5 C 298.241,939.707 300.574,940.707 302.5,942.5C 299.759,942.293 297.426,941.293 295.5,939.5 Z"/></g>
<g><path style="opacity:1" fill="#707070" d="M 690.5,936.5 C 686.309,939.458 681.642,941.458 676.5,942.5C 680.856,939.932 685.522,937.932 690.5,936.5 Z"/></g>
<g><path style="opacity:1" fill="#808080" d="M 302.5,942.5 C 304.553,942.402 306.22,943.069 307.5,944.5C 305.447,944.598 303.78,943.931 302.5,942.5 Z"/></g>
<g><path style="opacity:1" fill="#828282" d="M 676.5,942.5 C 673.63,944.794 670.297,946.128 666.5,946.5C 669.53,944.597 672.863,943.263 676.5,942.5 Z"/></g>
<g><path style="opacity:1" fill="#818181" d="M 307.5,944.5 C 309.553,944.402 311.22,945.069 312.5,946.5C 310.447,946.598 308.78,945.931 307.5,944.5 Z"/></g>
<g><path style="opacity:1" fill="#6e6e6e" d="M 312.5,946.5 C 324.379,950.125 336.045,954.125 347.5,958.5C 335.34,955.67 323.673,951.67 312.5,946.5 Z"/></g>
<g><path style="opacity:1" fill="#8e8e8e" d="M 666.5,946.5 C 660.615,949.798 654.282,952.131 647.5,953.5C 653.539,950.595 659.873,948.262 666.5,946.5 Z"/></g>
<g><path style="opacity:1" fill="#9d9d9d" d="M 647.5,953.5 C 641.501,956.276 635.167,958.276 628.5,959.5C 634.499,956.724 640.833,954.724 647.5,953.5 Z"/></g>
<g><path style="opacity:1" fill="#5d5d5d" d="M 347.5,958.5 C 351.162,958.723 354.495,959.723 357.5,961.5C 353.838,961.277 350.505,960.277 347.5,958.5 Z"/></g>
<g><path style="opacity:1" fill="#a4a4a4" d="M 628.5,959.5 C 626.485,960.924 624.152,961.59 621.5,961.5C 623.515,960.076 625.848,959.41 628.5,959.5 Z"/></g>
<g><path style="opacity:1" fill="#6b6b6b" d="M 361.5,962.5 C 368.427,963.565 375.094,965.232 381.5,967.5C 374.497,966.749 367.83,965.083 361.5,962.5 Z"/></g>
<g><path style="opacity:1" fill="#898989" d="M 621.5,961.5 C 610.869,965.24 599.869,967.907 588.5,969.5C 599.279,966.389 610.279,963.723 621.5,961.5 Z"/></g>
<g><path style="opacity:1" fill="#727273" d="M 381.5,967.5 C 394.334,969.602 407.001,971.935 419.5,974.5C 406.48,973.427 393.813,971.094 381.5,967.5 Z"/></g>
<g><path style="opacity:1" fill="#7c7c7c" d="M 588.5,969.5 C 581.444,971.678 574.11,973.011 566.5,973.5C 573.596,971.538 580.929,970.204 588.5,969.5 Z"/></g>
<g><path style="opacity:1" fill="#757575" d="M 419.5,974.5 C 425.051,974.527 430.384,975.194 435.5,976.5C 429.931,976.624 424.598,975.957 419.5,974.5 Z"/></g>
</svg>
