<?xml version="1.0" encoding="UTF-8"?>
<!DOCTYPE svg PUBLIC "-//W3C//DTD SVG 1.1//EN" "http://www.w3.org/Graphics/SVG/1.1/DTD/svg11.dtd">
<svg xmlns="http://www.w3.org/2000/svg" version="1.1" width="474px" height="474px" style="shape-rendering:geometricPrecision; text-rendering:geometricPrecision; image-rendering:optimizeQuality; fill-rule:evenodd; clip-rule:evenodd" xmlns:xlink="http://www.w3.org/1999/xlink">
<g><path style="opacity:1" fill="#d1d1d1" d="M 290.5,10.5 C 264.707,5.6298 238.707,3.96313 212.5,5.5C 238.789,2.26547 264.789,3.93214 290.5,10.5 Z"/></g>
<g><path style="opacity:1" fill="#d7d7d7" d="M 212.5,5.5 C 207.731,6.88899 202.731,7.55565 197.5,7.5C 202.269,6.11101 207.269,5.44435 212.5,5.5 Z"/></g>
<g><path style="opacity:1" fill="#040404" d="M 290.5,10.5 C 292.838,12.0395 295.505,12.7062 298.5,12.5C 303.5,14.943 308.834,16.6096 314.5,17.5C 316.792,19.2671 319.458,20.2671 322.5,20.5C 323.492,20.3284 324.158,20.6618 324.5,21.5C 325.93,22.5375 327.597,23.2041 329.5,23.5C 331.153,23.6596 332.486,24.3263 333.5,25.5C 334.78,26.9313 336.447,27.5979 338.5,27.5C 339.492,27.3284 340.158,27.6618 340.5,28.5C 343.008,30.9236 346.008,32.5903 349.5,33.5C 350.492,33.3284 351.158,33.6618 351.5,34.5C 351.973,35.9063 352.973,36.573 354.5,36.5C 355.492,36.3284 356.158,36.6618 356.5,37.5C 356.973,38.9063 357.973,39.573 359.5,39.5C 359.821,41.0481 360.821,41.7148 362.5,41.5C 363.492,41.3284 364.158,41.6618 364.5,42.5C 364.973,43.9063 365.973,44.573 367.5,44.5C 368.262,46.2624 369.596,47.2624 371.5,47.5C 372.262,49.2624 373.596,50.2624 375.5,50.5C 377.404,50.7376 378.738,51.7376 379.5,53.5C 380.585,55.5869 382.251,56.9202 384.5,57.5C 385.5,57.8333 386.167,58.5 386.5,59.5C 387.27,61.9354 388.937,63.2687 391.5,63.5C 393.239,66.2427 395.573,68.2427 398.5,69.5C 400.766,73.4356 403.766,76.7689 407.5,79.5C 407.833,80.5 408.5,81.1667 409.5,81.5C 411.167,82.5 412.5,83.8333 413.5,85.5C 413.427,87.0269 414.094,88.0269 415.5,88.5C 416.167,88.5 416.5,88.8333 416.5,89.5C 416.738,91.4044 417.738,92.7377 419.5,93.5C 420.5,93.8333 421.167,94.5 421.5,95.5C 421.427,97.0269 422.094,98.0269 423.5,98.5C 423.427,100.027 424.094,101.027 425.5,101.5C 425.738,103.404 426.738,104.738 428.5,105.5C 428.427,107.027 429.094,108.027 430.5,108.5C 430.427,110.027 431.094,111.027 432.5,111.5C 433.338,111.842 433.672,112.508 433.5,113.5C 433.427,115.027 434.094,116.027 435.5,116.5C 435.427,118.027 436.094,119.027 437.5,119.5C 438.674,120.514 439.34,121.847 439.5,123.5C 439.5,124.167 439.5,124.833 439.5,125.5C 439.062,125.435 438.728,125.601 438.5,126C 440.015,129.666 442.349,132.5 445.5,134.5C 446.042,137.912 447.375,140.912 449.5,143.5C 450.338,143.842 450.672,144.508 450.5,145.5C 450.402,147.553 451.069,149.22 452.5,150.5C 452.402,152.553 453.069,154.22 454.5,155.5C 455.404,156.209 455.737,157.209 455.5,158.5C 455.595,160.786 456.262,162.786 457.5,164.5C 457.054,167.01 457.72,169.01 459.5,170.5C 461.04,179.531 462.706,188.531 464.5,197.5C 464.335,200.85 464.502,204.183 465,207.5C 465.232,208.737 465.732,209.737 466.5,210.5C 467.451,225.464 467.785,240.464 467.5,255.5C 464.454,289.659 454.287,321.659 437,351.5C 429.555,364.077 421.389,376.077 412.5,387.5C 404.861,395.474 397.194,403.474 389.5,411.5C 388.325,411.281 387.325,411.614 386.5,412.5C 383.8,415.173 381.133,417.84 378.5,420.5C 372.673,423.443 367.34,427.11 362.5,431.5C 360.973,431.427 359.973,432.094 359.5,433.5C 349.492,438.837 339.492,444.17 329.5,449.5C 279.055,469.25 227.388,472.917 174.5,460.5C 171.619,458.32 168.286,457.32 164.5,457.5C 163.01,455.72 161.01,455.054 158.5,455.5C 155.47,453.597 152.137,452.263 148.5,451.5C 146.771,449.273 144.438,448.273 141.5,448.5C 137.151,445.659 132.484,443.326 127.5,441.5C 125.52,438.229 122.52,436.562 118.5,436.5C 117.508,436.672 116.842,436.338 116.5,435.5C 116.027,434.094 115.027,433.427 113.5,433.5C 113.027,432.094 112.027,431.427 110.5,431.5C 110.027,430.094 109.027,429.427 107.5,429.5C 107.027,428.094 106.027,427.427 104.5,427.5C 104.027,426.094 103.027,425.427 101.5,425.5C 101.027,424.094 100.027,423.427 98.5,423.5C 97.4154,421.413 95.7488,420.08 93.5,419.5C 92.7377,417.738 91.4044,416.738 89.5,416.5C 88.5,416.167 87.8333,415.5 87.5,414.5C 86.7377,412.738 85.4044,411.738 83.5,411.5C 83.5123,408.858 82.179,407.525 79.5,407.5C 76.5,403.833 73.1667,400.5 69.5,397.5C 68.8333,396.167 67.8333,395.167 66.5,394.5C 65.1667,393.833 64.1667,392.833 63.5,391.5C 62.9202,389.251 61.5869,387.585 59.5,386.5C 58.8333,386.5 58.5,386.167 58.5,385.5C 56.8777,381.909 54.5443,378.909 51.5,376.5C 51.2624,374.596 50.2624,373.262 48.5,372.5C 48.573,370.973 47.9063,369.973 46.5,369.5C 46.573,367.973 45.9063,366.973 44.5,366.5C 40.9701,359.421 36.9701,352.754 32.5,346.5C 32.539,343.911 31.539,341.911 29.5,340.5C 28.8379,336.508 27.1713,333.175 24.5,330.5C 23.5975,326.111 21.9308,322.111 19.5,318.5C 17.7387,311.216 15.4054,304.216 12.5,297.5C 12.4159,293.163 11.4159,289.163 9.5,285.5C 9.57007,281.575 8.90341,277.909 7.5,274.5C 5.9581,254.868 5.29143,235.201 5.5,215.5C 6.66486,210.367 7.33152,205.034 7.5,199.5C 7.93004,191.131 9.5967,183.131 12.5,175.5C 14.7732,170.422 16.4398,165.089 17.5,159.5C 17.2627,158.209 17.596,157.209 18.5,156.5C 19.9313,155.22 20.5979,153.553 20.5,151.5C 22.8176,149.815 23.8176,147.481 23.5,144.5C 26.7546,139.563 29.4213,134.23 31.5,128.5C 33.5587,126.74 34.892,124.406 35.5,121.5C 37.2503,120.341 38.2503,118.674 38.5,116.5C 41.5792,113.35 43.9125,109.683 45.5,105.5C 46.9063,105.027 47.573,104.027 47.5,102.5C 49.9,100.704 51.5667,98.3702 52.5,95.5C 54.2624,94.7377 55.2624,93.4044 55.5,91.5C 57.914,90.0892 59.5806,88.0892 60.5,85.5C 60.5,84.8333 60.8333,84.5 61.5,84.5C 65.5658,81.4372 68.8991,77.7706 71.5,73.5C 71.8333,72.5 72.5,71.8333 73.5,71.5C 77.7706,68.8991 81.4372,65.5658 84.5,61.5C 87.4274,60.2427 89.7607,58.2427 91.5,55.5C 93.4044,55.2624 94.7377,54.2624 95.5,52.5C 97.4044,52.2624 98.7377,51.2624 99.5,49.5C 101.404,49.2624 102.738,48.2624 103.5,46.5C 105.027,46.573 106.027,45.9063 106.5,44.5C 108.853,43.6597 110.853,42.3264 112.5,40.5C 114.027,40.573 115.027,39.9063 115.5,38.5C 116.847,37.8288 118.014,37.8288 119,38.5C 119.513,37.4734 120.013,36.4734 120.5,35.5C 122.027,35.573 123.027,34.9063 123.5,33.5C 129.182,29.9922 135.182,26.9922 141.5,24.5C 143.698,24.8799 145.365,24.2132 146.5,22.5C 146.842,21.6618 147.508,21.3284 148.5,21.5C 150.553,21.5979 152.22,20.9313 153.5,19.5C 154.209,18.596 155.209,18.2627 156.5,18.5C 158.698,18.8799 160.365,18.2132 161.5,16.5C 162.209,15.596 163.209,15.2627 164.5,15.5C 167.228,15.8294 169.562,15.1628 171.5,13.5C 173.099,13.7678 174.432,13.4345 175.5,12.5C 179.534,12.4835 183.201,11.4835 186.5,9.5C 190.042,8.32539 193.709,7.65873 197.5,7.5C 202.731,7.55565 207.731,6.88899 212.5,5.5C 238.707,3.96313 264.707,5.6298 290.5,10.5 Z"/></g>
<g><path style="opacity:1" fill="#acacac" d="M 186.5,9.5 C 183.201,11.4835 179.534,12.4835 175.5,12.5C 178.854,10.7424 182.521,9.74241 186.5,9.5 Z"/></g>
<g><path style="opacity:1" fill="#d0d0d0" d="M 290.5,10.5 C 293.428,10.5651 296.095,11.2318 298.5,12.5C 295.505,12.7062 292.838,12.0395 290.5,10.5 Z"/></g>
<g><path style="opacity:1" fill="#cccccc" d="M 175.5,12.5 C 174.432,13.4345 173.099,13.7678 171.5,13.5C 172.665,11.8906 173.999,11.5573 175.5,12.5 Z"/></g>
<g><path style="opacity:1" fill="#d3d3d3" d="M 298.5,12.5 C 304.271,13.0681 309.605,14.7347 314.5,17.5C 308.834,16.6096 303.5,14.943 298.5,12.5 Z"/></g>
<g><path style="opacity:1" fill="#9a9a9a" d="M 171.5,13.5 C 169.562,15.1628 167.228,15.8294 164.5,15.5C 165.172,14.7326 166.005,14.0659 167,13.5C 168.299,13.9662 169.799,13.9662 171.5,13.5 Z"/></g>
<g><path style="opacity:1" fill="#878787" d="M 161.5,16.5 C 160.365,18.2132 158.698,18.8799 156.5,18.5C 157.93,17.4625 159.597,16.7959 161.5,16.5 Z"/></g>
<g><path style="opacity:1" fill="#d2d2d2" d="M 153.5,19.5 C 152.22,20.9313 150.553,21.5979 148.5,21.5C 149.78,20.0687 151.447,19.4021 153.5,19.5 Z"/></g>
<g><path style="opacity:1" fill="#d5d5d5" d="M 314.5,17.5 C 317.542,17.7329 320.208,18.7329 322.5,20.5C 319.458,20.2671 316.792,19.2671 314.5,17.5 Z"/></g>
<g><path style="opacity:1" fill="#ebebeb" d="M 324.5,21.5 C 326.698,21.1201 328.365,21.7868 329.5,23.5C 327.597,23.2041 325.93,22.5375 324.5,21.5 Z"/></g>
<g><path style="opacity:1" fill="#8a8a8a" d="M 146.5,22.5 C 145.365,24.2132 143.698,24.8799 141.5,24.5C 142.78,23.0687 144.447,22.4021 146.5,22.5 Z"/></g>
<g><path style="opacity:1" fill="#d1d1d1" d="M 333.5,25.5 C 335.553,25.4021 337.22,26.0687 338.5,27.5C 336.447,27.5979 334.78,26.9313 333.5,25.5 Z"/></g>
<g><path style="opacity:1" fill="#d9d9d9" d="M 340.5,28.5 C 343.992,29.4097 346.992,31.0764 349.5,33.5C 346.008,32.5903 343.008,30.9236 340.5,28.5 Z"/></g>
<g><path style="opacity:1" fill="#bdbdbd" d="M 123.5,33.5 C 123.027,34.9063 122.027,35.573 120.5,35.5C 120.973,34.0937 121.973,33.427 123.5,33.5 Z"/></g>
<g><path style="opacity:1" fill="#d5d5d5" d="M 351.5,34.5 C 353.027,34.427 354.027,35.0937 354.5,36.5C 352.973,36.573 351.973,35.9063 351.5,34.5 Z"/></g>
<g><path style="opacity:1" fill="#838383" d="M 120.5,35.5 C 120.013,36.4734 119.513,37.4734 119,38.5C 118.014,37.8288 116.847,37.8288 115.5,38.5C 116.659,36.7497 118.326,35.7497 120.5,35.5 Z"/></g>
<g><path style="opacity:1" fill="#e0e0e0" d="M 356.5,37.5 C 358.027,37.427 359.027,38.0937 359.5,39.5C 357.973,39.573 356.973,38.9063 356.5,37.5 Z"/></g>
<g><path style="opacity:1" fill="#b8b8b8" d="M 115.5,38.5 C 115.027,39.9063 114.027,40.573 112.5,40.5C 112.973,39.0937 113.973,38.427 115.5,38.5 Z"/></g>
<g><path style="opacity:1" fill="#949494" d="M 359.5,39.5 C 361.027,39.427 362.027,40.0937 362.5,41.5C 360.821,41.7148 359.821,41.0481 359.5,39.5 Z"/></g>
<g><path style="opacity:1" fill="#cbcbcb" d="M 112.5,40.5 C 110.853,42.3264 108.853,43.6597 106.5,44.5C 107.802,42.1782 109.802,40.8449 112.5,40.5 Z"/></g>
<g><path style="opacity:1" fill="#eaeaea" d="M 364.5,42.5 C 366.027,42.427 367.027,43.0937 367.5,44.5C 365.973,44.573 364.973,43.9063 364.5,42.5 Z"/></g>
<g><path style="opacity:1" fill="#dcdcdc" d="M 367.5,44.5 C 369.404,44.7376 370.738,45.7376 371.5,47.5C 369.596,47.2624 368.262,46.2624 367.5,44.5 Z"/></g>
<g><path style="opacity:1" fill="#b7b7b7" d="M 106.5,44.5 C 106.027,45.9063 105.027,46.573 103.5,46.5C 103.973,45.0937 104.973,44.427 106.5,44.5 Z"/></g>
<g><path style="opacity:1" fill="#bababa" d="M 103.5,46.5 C 102.738,48.2624 101.404,49.2624 99.5,49.5C 100.262,47.7376 101.596,46.7376 103.5,46.5 Z"/></g>
<g><path style="opacity:1" fill="#d4d4d4" d="M 371.5,47.5 C 373.404,47.7376 374.738,48.7376 375.5,50.5C 373.596,50.2624 372.262,49.2624 371.5,47.5 Z"/></g>
<g><path style="opacity:1" fill="#99d8e9" d="M 277.5,52.5 C 280.167,52.8333 282.833,53.1667 285.5,53.5C 287.888,54.3485 290.221,55.3485 292.5,56.5C 296.952,58.5412 301.618,60.2079 306.5,61.5C 348.414,77.4122 380.08,105.079 401.5,144.5C 408.114,158.376 414.114,172.376 419.5,186.5C 419.5,186.833 419.5,187.167 419.5,187.5C 423.969,209.939 425.635,232.606 424.5,255.5C 423.935,267.422 421.935,279.089 418.5,290.5C 415.708,293.835 414.041,297.835 413.5,302.5C 389.092,364.732 344.426,404.232 279.5,421C 269.914,423.084 260.248,424.584 250.5,425.5C 223.305,425.9 196.638,421.9 170.5,413.5C 119.072,393.572 82.5721,358.239 61,307.5C 58.178,300.199 55.678,292.866 53.5,285.5C 52.4511,279.317 51.1177,273.317 49.5,267.5C 49.5,265.5 49.5,263.5 49.5,261.5C 45.4263,224.178 51.2596,188.511 67,154.5C 72.686,143.78 78.8527,133.447 85.5,123.5C 85.5,122.833 85.8333,122.5 86.5,122.5C 95.1048,112.558 104.105,102.892 113.5,93.5C 117.572,91.7924 120.905,89.1257 123.5,85.5C 170.028,52.7924 221.362,41.7924 277.5,52.5 Z"/></g>
<g><path style="opacity:1" fill="#ababab" d="M 99.5,49.5 C 98.7377,51.2624 97.4044,52.2624 95.5,52.5C 96.2623,50.7376 97.5956,49.7376 99.5,49.5 Z"/></g>
<g><path style="opacity:1" fill="#dcdcdc" d="M 277.5,51.5 C 277.5,51.8333 277.5,52.1667 277.5,52.5C 221.362,41.7924 170.028,52.7924 123.5,85.5C 155.838,60.2709 192.671,47.6042 234,47.5C 248.661,47.2289 263.161,48.5622 277.5,51.5 Z"/></g>
<g><path style="opacity:1" fill="#545454" d="M 277.5,52.5 C 277.5,52.1667 277.5,51.8333 277.5,51.5C 280.495,51.2938 283.162,51.9605 285.5,53.5C 282.833,53.1667 280.167,52.8333 277.5,52.5 Z"/></g>
<g><path style="opacity:1" fill="#adadad" d="M 95.5,52.5 C 94.7377,54.2624 93.4044,55.2624 91.5,55.5C 92.2623,53.7376 93.5956,52.7376 95.5,52.5 Z"/></g>
<g><path style="opacity:1" fill="#d3d3d3" d="M 379.5,53.5 C 381.749,54.0798 383.415,55.4131 384.5,57.5C 382.251,56.9202 380.585,55.5869 379.5,53.5 Z"/></g>
<g><path style="opacity:1" fill="#dfdfdf" d="M 292.5,56.5 C 297.669,56.999 302.336,58.6657 306.5,61.5C 301.618,60.2079 296.952,58.5412 292.5,56.5 Z"/></g>
<g><path style="opacity:1" fill="#a5a5a5" d="M 91.5,55.5 C 89.7607,58.2427 87.4274,60.2427 84.5,61.5C 86.2393,58.7573 88.5726,56.7573 91.5,55.5 Z"/></g>
<g><path style="opacity:1" fill="#999999" d="M 386.5,59.5 C 388.749,60.0798 390.415,61.4131 391.5,63.5C 388.937,63.2687 387.27,61.9354 386.5,59.5 Z"/></g>
<g><path style="opacity:1" fill="#d8d8d8" d="M 391.5,63.5 C 394.427,64.7573 396.761,66.7573 398.5,69.5C 395.573,68.2427 393.239,66.2427 391.5,63.5 Z"/></g>
<g><path style="opacity:1" fill="#8d8d8d" d="M 84.5,61.5 C 81.4372,65.5658 77.7706,68.8991 73.5,71.5C 76.5628,67.4342 80.2294,64.1009 84.5,61.5 Z"/></g>
<g><path style="opacity:1" fill="#b4b4b4" d="M 398.5,69.5 C 402.234,72.2311 405.234,75.5644 407.5,79.5C 403.766,76.7689 400.766,73.4356 398.5,69.5 Z"/></g>
<g><path style="opacity:1" fill="#dbdbdb" d="M 407.5,79.5 C 408.833,79.5 409.5,80.1667 409.5,81.5C 408.5,81.1667 407.833,80.5 407.5,79.5 Z"/></g>
<g><path style="opacity:1" fill="#afafaf" d="M 71.5,73.5 C 68.8991,77.7706 65.5658,81.4372 61.5,84.5C 64.1009,80.2294 67.4342,76.5628 71.5,73.5 Z"/></g>
<g><path style="opacity:1" fill="#c4c4c4" d="M 413.5,85.5 C 414.906,85.9731 415.573,86.9731 415.5,88.5C 414.094,88.0269 413.427,87.0269 413.5,85.5 Z"/></g>
<g><path style="opacity:1" fill="#e7e7e7" d="M 123.5,85.5 C 120.905,89.1257 117.572,91.7924 113.5,93.5C 116.46,90.3552 119.793,87.6885 123.5,85.5 Z"/></g>
<g><path style="opacity:1" fill="#c6c6c6" d="M 60.5,85.5 C 59.5806,88.0892 57.914,90.0892 55.5,91.5C 56.4194,88.9108 58.086,86.9108 60.5,85.5 Z"/></g>
<g><path style="opacity:1" fill="#949494" d="M 416.5,89.5 C 418.262,90.2623 419.262,91.5956 419.5,93.5C 417.738,92.7377 416.738,91.4044 416.5,89.5 Z"/></g>
<g><path style="opacity:1" fill="#b7b7b7" d="M 55.5,91.5 C 55.2624,93.4044 54.2624,94.7377 52.5,95.5C 52.7376,93.5956 53.7376,92.2623 55.5,91.5 Z"/></g>
<g><path style="opacity:1" fill="#cdcdcd" d="M 52.5,95.5 C 51.5667,98.3702 49.9,100.704 47.5,102.5C 48.4333,99.6298 50.1,97.2964 52.5,95.5 Z"/></g>
<g><path style="opacity:1" fill="#dbdbdb" d="M 421.5,95.5 C 422.906,95.9731 423.573,96.9731 423.5,98.5C 422.094,98.0269 421.427,97.0269 421.5,95.5 Z"/></g>
<g><path style="opacity:1" fill="#aeaeae" d="M 423.5,98.5 C 424.906,98.9731 425.573,99.9731 425.5,101.5C 424.094,101.027 423.427,100.027 423.5,98.5 Z"/></g>
<g><path style="opacity:1" fill="#afafaf" d="M 425.5,101.5 C 427.262,102.262 428.262,103.596 428.5,105.5C 426.738,104.738 425.738,103.404 425.5,101.5 Z"/></g>
<g><path style="opacity:1" fill="#d8d8d8" d="M 47.5,102.5 C 47.573,104.027 46.9063,105.027 45.5,105.5C 45.427,103.973 46.0937,102.973 47.5,102.5 Z"/></g>
<g><path style="opacity:1" fill="#d5d5d5" d="M 45.5,105.5 C 43.9125,109.683 41.5792,113.35 38.5,116.5C 40.0875,112.317 42.4208,108.65 45.5,105.5 Z"/></g>
<g><path style="opacity:1" fill="#cacaca" d="M 428.5,105.5 C 429.906,105.973 430.573,106.973 430.5,108.5C 429.094,108.027 428.427,107.027 428.5,105.5 Z"/></g>
<g><path style="opacity:1" fill="#dddddd" d="M 113.5,93.5 C 104.105,102.892 95.1048,112.558 86.5,122.5C 93.7484,111.25 102.748,101.583 113.5,93.5 Z"/></g>
<g><path style="opacity:1" fill="#d9d9d9" d="M 430.5,108.5 C 431.906,108.973 432.573,109.973 432.5,111.5C 431.094,111.027 430.427,110.027 430.5,108.5 Z"/></g>
<g><path style="opacity:1" fill="#bebebe" d="M 433.5,113.5 C 434.906,113.973 435.573,114.973 435.5,116.5C 434.094,116.027 433.427,115.027 433.5,113.5 Z"/></g>
<g><path style="opacity:1" fill="#d7d7d7" d="M 38.5,116.5 C 38.2503,118.674 37.2503,120.341 35.5,121.5C 35.7497,119.326 36.7497,117.659 38.5,116.5 Z"/></g>
<g><path style="opacity:1" fill="#dedede" d="M 435.5,116.5 C 436.906,116.973 437.573,117.973 437.5,119.5C 436.094,119.027 435.427,118.027 435.5,116.5 Z"/></g>
<g><path style="opacity:1" fill="#dadada" d="M 439.5,123.5 C 440.906,123.973 441.573,124.973 441.5,126.5C 440.833,126.167 440.167,125.833 439.5,125.5C 439.5,124.833 439.5,124.167 439.5,123.5 Z"/></g>
<g><path style="opacity:1" fill="#8b8b8b" d="M 35.5,121.5 C 34.892,124.406 33.5587,126.74 31.5,128.5C 32.0787,125.669 33.412,123.336 35.5,121.5 Z"/></g>
<g><path style="opacity:1" fill="#5d5d5d" d="M 439.5,125.5 C 440.167,125.833 440.833,126.167 441.5,126.5C 443.341,128.849 444.674,131.515 445.5,134.5C 442.349,132.5 440.015,129.666 438.5,126C 438.728,125.601 439.062,125.435 439.5,125.5 Z"/></g>
<g><path style="opacity:1" fill="#c5c5c5" d="M 31.5,128.5 C 29.4213,134.23 26.7546,139.563 23.5,144.5C 25.1263,138.581 27.7929,133.247 31.5,128.5 Z"/></g>
<g><path style="opacity:1" fill="#d6d6d6" d="M 445.5,134.5 C 447.625,137.088 448.958,140.088 449.5,143.5C 447.375,140.912 446.042,137.912 445.5,134.5 Z"/></g>
<g><path style="opacity:1" fill="#dadada" d="M 450.5,145.5 C 451.931,146.78 452.598,148.447 452.5,150.5C 451.069,149.22 450.402,147.553 450.5,145.5 Z"/></g>
<g><path style="opacity:1" fill="#bebebe" d="M 23.5,144.5 C 23.8176,147.481 22.8176,149.815 20.5,151.5C 20.7073,148.759 21.7073,146.426 23.5,144.5 Z"/></g>
<g><path style="opacity:1" fill="#bebebe" d="M 210.5,150.5 C 214.311,149.355 218.311,149.188 222.5,150C 224.32,150.2 225.653,151.034 226.5,152.5C 221.324,150.816 215.991,150.15 210.5,150.5 Z"/></g>
<g><path style="opacity:1" fill="#030303" d="M 210.5,150.5 C 215.991,150.15 221.324,150.816 226.5,152.5C 236.227,160.197 238.727,169.864 234,181.5C 230.535,185.967 226.702,190.133 222.5,194C 217.11,197.696 212.11,201.862 207.5,206.5C 203.358,208.302 200.692,211.302 199.5,215.5C 243.833,215.5 288.167,215.5 332.5,215.5C 348.748,218.653 354.915,228.319 351,244.5C 348.351,249.311 344.851,253.311 340.5,256.5C 337.834,256.933 335.168,257.433 332.5,258C 309.502,258.5 286.502,258.667 263.5,258.5C 242.431,257.169 221.264,257.169 200,258.5C 200.195,260.745 201.362,262.578 203.5,264C 212,271.167 220.5,278.333 229,285.5C 239.114,296.809 238.948,307.976 228.5,319C 220.342,324.501 212.008,324.834 203.5,320C 190.093,308.963 177.093,297.463 164.5,285.5C 159.398,279.059 153.398,273.726 146.5,269.5C 144.12,266.119 141.12,263.453 137.5,261.5C 133.537,257.036 129.37,252.702 125,248.5C 121.957,242.892 120.791,236.892 121.5,230.5C 123.394,227.061 125.56,223.728 128,220.5C 152.132,199.37 175.965,177.87 199.5,156C 202.642,153.096 206.309,151.262 210.5,150.5 Z"/></g>
<g><path style="opacity:1" fill="#dbdbdb" d="M 452.5,150.5 C 453.931,151.78 454.598,153.447 454.5,155.5C 453.069,154.22 452.402,152.553 452.5,150.5 Z"/></g>
<g><path style="opacity:1" fill="#e3e3e3" d="M 20.5,151.5 C 20.5979,153.553 19.9313,155.22 18.5,156.5C 18.4021,154.447 19.0687,152.78 20.5,151.5 Z"/></g>
<g><path style="opacity:1" fill="#dcdcdc" d="M 455.5,158.5 C 457.074,160.102 457.741,162.102 457.5,164.5C 456.262,162.786 455.595,160.786 455.5,158.5 Z"/></g>
<g><path style="opacity:1" fill="#a9a9a9" d="M 457.5,164.5 C 458.738,166.214 459.405,168.214 459.5,170.5C 457.72,169.01 457.054,167.01 457.5,164.5 Z"/></g>
<g><path style="opacity:1" fill="#bebebe" d="M 17.5,159.5 C 16.4398,165.089 14.7732,170.422 12.5,175.5C 13.2573,169.781 14.9239,164.448 17.5,159.5 Z"/></g>
<g><path style="opacity:1" fill="#d3d3d3" d="M 401.5,144.5 C 405.146,149.781 408.313,155.448 411,161.5C 414.913,169.496 417.747,177.829 419.5,186.5C 414.114,172.376 408.114,158.376 401.5,144.5 Z"/></g>
<g><path style="opacity:1" fill="#d6d6d6" d="M 85.5,123.5 C 78.8527,133.447 72.686,143.78 67,154.5C 51.2596,188.511 45.4263,224.178 49.5,261.5C 42.3967,213.518 52.5634,169.518 80,129.5C 81.617,127.237 83.4503,125.237 85.5,123.5 Z"/></g>
<g><path style="opacity:1" fill="#cfcfcf" d="M 459.5,170.5 C 462.757,179.106 464.757,188.106 465.5,197.5C 465.167,197.5 464.833,197.5 464.5,197.5C 462.706,188.531 461.04,179.531 459.5,170.5 Z"/></g>
<g><path style="opacity:1" fill="#dadada" d="M 419.5,187.5 C 422.397,196.149 424.23,205.149 425,214.5C 425.827,228.34 425.661,242.006 424.5,255.5C 425.635,232.606 423.969,209.939 419.5,187.5 Z"/></g>
<g><path style="opacity:1" fill="#3b3b3b" d="M 464.5,197.5 C 464.833,197.5 465.167,197.5 465.5,197.5C 465.586,201.857 465.92,206.19 466.5,210.5C 465.732,209.737 465.232,208.737 465,207.5C 464.502,204.183 464.335,200.85 464.5,197.5 Z"/></g>
<g><path style="opacity:1" fill="#e6e6e6" d="M 7.5,199.5 C 7.33152,205.034 6.66486,210.367 5.5,215.5C 5.25494,209.916 5.92161,204.583 7.5,199.5 Z"/></g>
<g><path style="opacity:1" fill="#bcbcbc" d="M 207.5,206.5 C 205.372,209.13 203.039,211.63 200.5,214C 244.669,214.167 288.669,214.667 332.5,215.5C 288.167,215.5 243.833,215.5 199.5,215.5C 200.692,211.302 203.358,208.302 207.5,206.5 Z"/></g>
<g><path style="opacity:1" fill="#d0d0d0" d="M 5.5,215.5 C 5.29143,235.201 5.9581,254.868 7.5,274.5C 5.33924,261.901 4.00591,249.068 3.5,236C 4.03324,229.003 4.69991,222.17 5.5,215.5 Z"/></g>
<g><path style="opacity:1" fill="#d6d6d6" d="M 121.5,230.5 C 120.791,236.892 121.957,242.892 125,248.5C 129.37,252.702 133.537,257.036 137.5,261.5C 127.837,256.006 121.837,247.84 119.5,237C 120.117,234.723 120.784,232.556 121.5,230.5 Z"/></g>
<g><path style="opacity:1" fill="#d9d9d9" d="M 465.5,197.5 C 469.629,218.742 470.296,240.076 467.5,261.5C 467.5,259.5 467.5,257.5 467.5,255.5C 467.785,240.464 467.451,225.464 466.5,210.5C 465.92,206.19 465.586,201.857 465.5,197.5 Z"/></g>
<g><path style="opacity:1" fill="#f7f7f7" d="M 340.5,256.5 C 338.852,257.927 336.852,258.76 334.5,259C 267.866,260.173 244.2,260.007 263.5,258.5C 286.502,258.667 309.502,258.5 332.5,258C 335.168,257.433 337.834,256.933 340.5,256.5 Z"/></g>
<g><path style="opacity:1" fill="#d0d0d0" d="M 146.5,269.5 C 153.398,273.726 159.398,279.059 164.5,285.5C 158.197,280.532 152.197,275.198 146.5,269.5 Z"/></g>
<g><path style="opacity:1" fill="#2c2c2c" d="M 49.5,267.5 C 51.1177,273.317 52.4511,279.317 53.5,285.5C 52.8485,284.909 52.1818,284.243 51.5,283.5C 50.3131,284.894 49.6465,284.727 49.5,283C 50.2436,278.116 50.2436,272.949 49.5,267.5 Z"/></g>
<g><path style="opacity:1" fill="#d9d9d9" d="M 7.5,274.5 C 8.90341,277.909 9.57007,281.575 9.5,285.5C 8.09659,282.091 7.42993,278.425 7.5,274.5 Z"/></g>
<g><path style="opacity:1" fill="#d5d5d5" d="M 9.5,285.5 C 11.4159,289.163 12.4159,293.163 12.5,297.5C 10.8984,293.761 9.89839,289.761 9.5,285.5 Z"/></g>
<g><path style="opacity:1" fill="#dfdfdf" d="M 418.5,290.5 C 417.204,294.739 415.538,298.739 413.5,302.5C 414.041,297.835 415.708,293.835 418.5,290.5 Z"/></g>
<g><path style="opacity:1" fill="#cacaca" d="M 12.5,297.5 C 15.4054,304.216 17.7387,311.216 19.5,318.5C 16.1937,311.915 13.8604,304.915 12.5,297.5 Z"/></g>
<g><path style="opacity:1" fill="#d7d7d7" d="M 19.5,318.5 C 21.9308,322.111 23.5975,326.111 24.5,330.5C 22.0692,326.889 20.4025,322.889 19.5,318.5 Z"/></g>
<g><path style="opacity:1" fill="#c1c1c1" d="M 24.5,330.5 C 27.1713,333.175 28.8379,336.508 29.5,340.5C 27.3412,337.516 25.6745,334.183 24.5,330.5 Z"/></g>
<g><path style="opacity:1" fill="#cbcbcb" d="M 29.5,340.5 C 31.539,341.911 32.539,343.911 32.5,346.5C 30.9925,344.819 29.9925,342.819 29.5,340.5 Z"/></g>
<g><path style="opacity:1" fill="#d3d3d3" d="M 467.5,255.5 C 467.5,257.5 467.5,259.5 467.5,261.5C 462.753,309.64 444.419,351.64 412.5,387.5C 421.389,376.077 429.555,364.077 437,351.5C 454.287,321.659 464.454,289.659 467.5,255.5 Z"/></g>
<g><path style="opacity:1" fill="#cbcbcb" d="M 32.5,346.5 C 36.9701,352.754 40.9701,359.421 44.5,366.5C 39.4972,360.505 35.4972,353.838 32.5,346.5 Z"/></g>
<g><path style="opacity:1" fill="#dcdcdc" d="M 44.5,366.5 C 45.9063,366.973 46.573,367.973 46.5,369.5C 45.0937,369.027 44.427,368.027 44.5,366.5 Z"/></g>
<g><path style="opacity:1" fill="#dadada" d="M 46.5,369.5 C 47.9063,369.973 48.573,370.973 48.5,372.5C 47.0937,372.027 46.427,371.027 46.5,369.5 Z"/></g>
<g><path style="opacity:1" fill="#d7d7d7" d="M 48.5,372.5 C 50.2624,373.262 51.2624,374.596 51.5,376.5C 49.7376,375.738 48.7376,374.404 48.5,372.5 Z"/></g>
<g><path style="opacity:1" fill="#c7c7c7" d="M 51.5,376.5 C 54.5443,378.909 56.8777,381.909 58.5,385.5C 55.4442,383.051 53.1108,380.051 51.5,376.5 Z"/></g>
<g><path style="opacity:1" fill="#cdcdcd" d="M 59.5,386.5 C 61.5869,387.585 62.9202,389.251 63.5,391.5C 61.4131,390.415 60.0798,388.749 59.5,386.5 Z"/></g>
<g><path style="opacity:1" fill="#dbdbdb" d="M 66.5,394.5 C 67.8333,395.167 68.8333,396.167 69.5,397.5C 67.5,397.5 66.5,396.5 66.5,394.5 Z"/></g>
<g><path style="opacity:1" fill="#cbcbcb" d="M 69.5,397.5 C 73.1667,400.5 76.5,403.833 79.5,407.5C 75.1667,405.167 71.8333,401.833 69.5,397.5 Z"/></g>
<g><path style="opacity:1" fill="#d9d9d9" d="M 412.5,387.5 C 411.588,389.595 410.421,391.595 409,393.5C 402.91,400.096 396.41,406.096 389.5,411.5C 397.194,403.474 404.861,395.474 412.5,387.5 Z"/></g>
<g><path style="opacity:1" fill="#585858" d="M 79.5,407.5 C 82.179,407.525 83.5123,408.858 83.5,411.5C 81.8333,410.5 80.5,409.167 79.5,407.5 Z"/></g>
<g><path style="opacity:1" fill="#a5a5a5" d="M 83.5,411.5 C 85.4044,411.738 86.7377,412.738 87.5,414.5C 85.5956,414.262 84.2623,413.262 83.5,411.5 Z"/></g>
<g><path style="opacity:1" fill="#d1d1d1" d="M 389.5,411.5 C 386.71,415.628 383.043,418.628 378.5,420.5C 381.133,417.84 383.8,415.173 386.5,412.5C 387.325,411.614 388.325,411.281 389.5,411.5 Z"/></g>
<g><path style="opacity:1" fill="#b3b3b3" d="M 89.5,416.5 C 91.4044,416.738 92.7377,417.738 93.5,419.5C 91.5956,419.262 90.2623,418.262 89.5,416.5 Z"/></g>
<g><path style="opacity:1" fill="#d6d6d6" d="M 170.5,413.5 C 196.638,421.9 223.305,425.9 250.5,425.5C 227.064,426.914 204.064,424.414 181.5,418C 177.532,416.962 173.865,415.462 170.5,413.5 Z"/></g>
<g><path style="opacity:1" fill="#c8c8c8" d="M 93.5,419.5 C 95.7488,420.08 97.4154,421.413 98.5,423.5C 96.2512,422.92 94.5846,421.587 93.5,419.5 Z"/></g>
<g><path style="opacity:1" fill="#d5d5d5" d="M 378.5,420.5 C 373.871,425.151 368.537,428.818 362.5,431.5C 367.34,427.11 372.673,423.443 378.5,420.5 Z"/></g>
<g><path style="opacity:1" fill="#cacaca" d="M 98.5,423.5 C 100.027,423.427 101.027,424.094 101.5,425.5C 99.9731,425.573 98.9731,424.906 98.5,423.5 Z"/></g>
<g><path style="opacity:1" fill="#c5c5c5" d="M 101.5,425.5 C 103.027,425.427 104.027,426.094 104.5,427.5C 102.973,427.573 101.973,426.906 101.5,425.5 Z"/></g>
<g><path style="opacity:1" fill="#c6c6c6" d="M 104.5,427.5 C 106.027,427.427 107.027,428.094 107.5,429.5C 105.973,429.573 104.973,428.906 104.5,427.5 Z"/></g>
<g><path style="opacity:1" fill="#c2c2c2" d="M 107.5,429.5 C 109.027,429.427 110.027,430.094 110.5,431.5C 108.973,431.573 107.973,430.906 107.5,429.5 Z"/></g>
<g><path style="opacity:1" fill="#c9c9c9" d="M 110.5,431.5 C 112.027,431.427 113.027,432.094 113.5,433.5C 111.973,433.573 110.973,432.906 110.5,431.5 Z"/></g>
<g><path style="opacity:1" fill="#e8e8e8" d="M 362.5,431.5 C 362.027,432.906 361.027,433.573 359.5,433.5C 359.973,432.094 360.973,431.427 362.5,431.5 Z"/></g>
<g><path style="opacity:1" fill="#dadada" d="M 113.5,433.5 C 115.027,433.427 116.027,434.094 116.5,435.5C 114.973,435.573 113.973,434.906 113.5,433.5 Z"/></g>
<g><path style="opacity:1" fill="#848484" d="M 118.5,436.5 C 122.52,436.562 125.52,438.229 127.5,441.5C 124.008,440.59 121.008,438.924 118.5,436.5 Z"/></g>
<g><path style="opacity:1" fill="#d9d9d9" d="M 359.5,433.5 C 350.418,440.377 340.418,445.71 329.5,449.5C 339.492,444.17 349.492,438.837 359.5,433.5 Z"/></g>
<g><path style="opacity:1" fill="#dddddd" d="M 127.5,441.5 C 132.484,443.326 137.151,445.659 141.5,448.5C 136.247,447.207 131.581,444.874 127.5,441.5 Z"/></g>
<g><path style="opacity:1" fill="#b8b8b8" d="M 141.5,448.5 C 144.438,448.273 146.771,449.273 148.5,451.5C 145.759,451.293 143.426,450.293 141.5,448.5 Z"/></g>
<g><path style="opacity:1" fill="#dadada" d="M 148.5,451.5 C 152.137,452.263 155.47,453.597 158.5,455.5C 154.703,455.128 151.37,453.794 148.5,451.5 Z"/></g>
<g><path style="opacity:1" fill="#929292" d="M 158.5,455.5 C 161.01,455.054 163.01,455.72 164.5,457.5C 162.214,457.405 160.214,456.738 158.5,455.5 Z"/></g>
<g><path style="opacity:1" fill="#d3d3d3" d="M 329.5,449.5 C 288.973,467.359 246.639,473.193 202.5,467C 192.851,465.641 183.518,463.474 174.5,460.5C 227.388,472.917 279.055,469.25 329.5,449.5 Z"/></g>
<g><path style="opacity:1" fill="#acacac" d="M 164.5,457.5 C 168.286,457.32 171.619,458.32 174.5,460.5C 170.884,460.101 167.55,459.101 164.5,457.5 Z"/></g>
</svg>
