<?xml version="1.0" encoding="UTF-8"?>
<!DOCTYPE svg PUBLIC "-//W3C//DTD SVG 1.1//EN" "http://www.w3.org/Graphics/SVG/1.1/DTD/svg11.dtd">
<svg xmlns="http://www.w3.org/2000/svg" version="1.1" width="70px" height="70px" style="shape-rendering:geometricPrecision; text-rendering:geometricPrecision; image-rendering:optimizeQuality; fill-rule:evenodd; clip-rule:evenodd" xmlns:xlink="http://www.w3.org/1999/xlink">
<g><path style="opacity:0.998" fill="#141516" d="M 24.5,-0.5 C 31.1667,-0.5 37.8333,-0.5 44.5,-0.5C 56.5,4.16667 64.8333,12.5 69.5,24.5C 69.5,31.1667 69.5,37.8333 69.5,44.5C 64.8333,56.5 56.5,64.8333 44.5,69.5C 37.8333,69.5 31.1667,69.5 24.5,69.5C 12.5,64.8333 4.16667,56.5 -0.5,44.5C -0.5,37.8333 -0.5,31.1667 -0.5,24.5C 4.16667,12.5 12.5,4.16667 24.5,-0.5 Z"/></g>
<g><path style="opacity:1" fill="#f6f6f6" d="M 26.5,2.5 C 45.7604,0.704698 58.9271,8.7047 66,26.5C 67.8729,37.3679 65.3729,47.0346 58.5,55.5C 56.0568,46.7242 50.7235,40.3909 42.5,36.5C 50.4094,28.5565 50.4094,20.7231 42.5,13C 33.1534,8.0607 25.9867,10.2274 21,19.5C 19.3959,26.289 21.2292,31.9557 26.5,36.5C 18.2765,40.3909 12.9432,46.7242 10.5,55.5C -1.30002,38.8664 0.033312,23.3664 14.5,9C 18.4339,6.53607 22.4339,4.36941 26.5,2.5 Z"/></g>
<g><path style="opacity:1" fill="#8cbee7" d="M 30.5,13.5 C 41.3181,12.8169 46.1514,17.8169 45,28.5C 41.6772,34.9081 36.5105,37.0748 29.5,35C 21.2734,27.3448 21.6067,20.1782 30.5,13.5 Z"/></g>
<g><path style="opacity:1" fill="#8bbde5" d="M 29.5,38.5 C 43.3321,37.5704 51.9987,43.7371 55.5,57C 53.7221,60.2412 51.0554,62.5746 47.5,64C 35.6138,68.3745 24.6138,66.8745 14.5,59.5C 13.4907,54.6783 14.6574,50.3449 18,46.5C 21.4821,43.1608 25.3155,40.4942 29.5,38.5 Z"/></g>
</svg>
