<?xml version="1.0" encoding="UTF-8"?>
<!DOCTYPE svg PUBLIC "-//W3C//DTD SVG 1.1//EN" "http://www.w3.org/Graphics/SVG/1.1/DTD/svg11.dtd">
<svg xmlns="http://www.w3.org/2000/svg" version="1.1" width="429px" height="429px" style="shape-rendering:geometricPrecision; text-rendering:geometricPrecision; image-rendering:optimizeQuality; fill-rule:evenodd; clip-rule:evenodd" xmlns:xlink="http://www.w3.org/1999/xlink">
<g><path style="opacity:1" fill="#090909" d="M 244.5,3.5 C 247.946,4.6874 251.613,5.35407 255.5,5.5C 260.573,7.43496 265.906,8.7683 271.5,9.5C 273.515,10.9238 275.848,11.5905 278.5,11.5C 279.78,12.9313 281.447,13.5979 283.5,13.5C 288.375,14.6054 293.042,16.272 297.5,18.5C 297.973,19.9063 298.973,20.573 300.5,20.5C 305.217,21.6922 309.55,23.6922 313.5,26.5C 313.973,27.9063 314.973,28.573 316.5,28.5C 325.321,32.6641 333.321,37.9974 340.5,44.5C 340.973,45.9063 341.973,46.573 343.5,46.5C 344.167,46.5 344.5,46.8333 344.5,47.5C 344.973,48.9063 345.973,49.573 347.5,49.5C 348.833,50.1667 349.833,51.1667 350.5,52.5C 350.973,53.9063 351.973,54.573 353.5,54.5C 353.5,56.5 354.5,57.5 356.5,57.5C 358.833,59.1667 360.833,61.1667 362.5,63.5C 362.833,64.5 363.5,65.1667 364.5,65.5C 366.167,66.5 367.5,67.8333 368.5,69.5C 370.094,72.7642 372.427,75.4309 375.5,77.5C 376.08,79.7488 377.413,81.4154 379.5,82.5C 380.5,82.8333 381.167,83.5 381.5,84.5C 381.427,86.0269 382.094,87.0269 383.5,87.5C 383.738,89.4044 384.738,90.7377 386.5,91.5C 387.401,92.2905 388.068,93.2905 388.5,94.5C 388.427,96.0269 389.094,97.0269 390.5,97.5C 390.427,99.0269 391.094,100.027 392.5,100.5C 392.427,102.027 393.094,103.027 394.5,103.5C 394.427,105.027 395.094,106.027 396.5,106.5C 398.008,108.181 399.008,110.181 399.5,112.5C 399.75,114.674 400.75,116.341 402.5,117.5C 403.338,117.842 403.672,118.508 403.5,119.5C 403.66,121.153 404.326,122.486 405.5,123.5C 407.951,126.74 409.618,130.407 410.5,134.5C 410.402,136.553 411.069,138.22 412.5,139.5C 413.738,141.214 414.405,143.214 414.5,145.5C 414.259,147.898 414.926,149.898 416.5,151.5C 416.259,153.898 416.926,155.898 418.5,157.5C 419.434,158.568 419.768,159.901 419.5,161.5C 419.42,164.781 420.087,167.781 421.5,170.5C 423.375,175.89 424.375,181.556 424.5,187.5C 424.183,191.702 424.517,195.702 425.5,199.5C 427.028,214.912 426.361,230.246 423.5,245.5C 421.214,253.985 419.214,262.651 417.5,271.5C 417.31,274.855 416.31,277.855 414.5,280.5C 413.262,282.214 412.595,284.214 412.5,286.5C 411.069,287.78 410.402,289.447 410.5,291.5C 409.069,292.78 408.402,294.447 408.5,296.5C 405.69,303.453 402.357,310.12 398.5,316.5C 397.094,316.973 396.427,317.973 396.5,319.5C 396.672,320.492 396.338,321.158 395.5,321.5C 394.094,321.973 393.427,322.973 393.5,324.5C 392.094,324.973 391.427,325.973 391.5,327.5C 390.094,327.973 389.427,328.973 389.5,330.5C 388.094,330.973 387.427,331.973 387.5,333.5C 386.974,335.23 385.974,336.564 384.5,337.5C 383.094,337.973 382.427,338.973 382.5,340.5C 382.167,341.5 381.5,342.167 380.5,342.5C 377.504,343.474 375.837,345.474 375.5,348.5C 374.92,350.749 373.587,352.415 371.5,353.5C 369.833,354.5 368.5,355.833 367.5,357.5C 367.5,358.167 367.167,358.5 366.5,358.5C 365.5,358.833 364.833,359.5 364.5,360.5C 362.738,361.262 361.738,362.596 361.5,364.5C 359.596,364.738 358.262,365.738 357.5,367.5C 355.833,369.833 353.833,371.833 351.5,373.5C 349.973,373.427 348.973,374.094 348.5,375.5C 348.5,376.167 348.167,376.5 347.5,376.5C 346.127,376.343 344.793,376.51 343.5,377C 344.598,377.77 344.598,378.603 343.5,379.5C 341.082,382.547 338.082,384.88 334.5,386.5C 333.167,386.5 331.833,386.5 330.5,386.5C 330.5,387.5 330.5,388.5 330.5,389.5C 327.434,391.89 324.1,393.89 320.5,395.5C 318.326,395.75 316.659,396.75 315.5,398.5C 313.819,400.008 311.819,401.008 309.5,401.5C 307.847,401.66 306.514,402.326 305.5,403.5C 301.584,406.29 297.251,408.29 292.5,409.5C 290.447,409.402 288.78,410.069 287.5,411.5C 286.791,412.404 285.791,412.737 284.5,412.5C 282.447,412.402 280.78,413.069 279.5,414.5C 273.698,416.785 267.698,418.451 261.5,419.5C 253.966,420.42 246.633,421.754 239.5,423.5C 231.046,424.959 222.379,425.625 213.5,425.5C 204.95,425.646 196.616,424.98 188.5,423.5C 184.705,422.383 180.705,421.717 176.5,421.5C 172.922,421.451 169.589,420.785 166.5,419.5C 164.485,418.076 162.152,417.41 159.5,417.5C 157.901,417.768 156.568,417.434 155.5,416.5C 153.898,414.926 151.898,414.259 149.5,414.5C 148.041,414.567 146.708,414.234 145.5,413.5C 144.22,412.069 142.553,411.402 140.5,411.5C 139.365,409.787 137.698,409.12 135.5,409.5C 134.508,409.672 133.842,409.338 133.5,408.5C 132.486,407.326 131.153,406.66 129.5,406.5C 124.081,404.956 119.081,402.622 114.5,399.5C 114.027,398.094 113.027,397.427 111.5,397.5C 110.508,397.672 109.842,397.338 109.5,396.5C 109.027,395.094 108.027,394.427 106.5,394.5C 106.167,394.5 105.833,394.5 105.5,394.5C 105.167,393.5 104.5,392.833 103.5,392.5C 102.508,392.672 101.842,392.338 101.5,391.5C 101.027,390.094 100.027,389.427 98.5,389.5C 98.0269,388.094 97.0269,387.427 95.5,387.5C 95.0269,386.094 94.0269,385.427 92.5,385.5C 91.7377,383.738 90.4044,382.738 88.5,382.5C 87.4154,380.413 85.7488,379.08 83.5,378.5C 82.7377,376.738 81.4044,375.738 79.5,375.5C 78.5,375.167 77.8333,374.5 77.5,373.5C 76.4154,371.413 74.7488,370.08 72.5,369.5C 66.8333,364.5 61.5,359.167 56.5,353.5C 56.573,351.973 55.9063,350.973 54.5,350.5C 50.7006,346.909 47.3673,342.909 44.5,338.5C 44.573,336.973 43.9063,335.973 42.5,335.5C 40.4525,333.45 38.7859,331.117 37.5,328.5C 37.573,326.973 36.9063,325.973 35.5,325.5C 35.573,323.973 34.9063,322.973 33.5,322.5C 31.9925,320.819 30.9925,318.819 30.5,316.5C 30.1667,315.5 29.5,314.833 28.5,314.5C 28.5,314.167 28.5,313.833 28.5,313.5C 28.573,311.973 27.9063,310.973 26.5,310.5C 19.7424,298.897 14.7424,286.564 11.5,273.5C 10.2793,266.946 8.61268,260.612 6.5,254.5C 6.46134,250.267 5.79468,246.267 4.5,242.5C 0.5,222.5 0.5,202.5 4.5,182.5C 6.11791,177.744 7.11791,172.744 7.5,167.5C 7.69973,164.37 8.36639,161.37 9.5,158.5C 11.4725,155.916 12.4725,152.916 12.5,149.5C 12.5,149.167 12.5,148.833 12.5,148.5C 14.2132,147.365 14.8799,145.698 14.5,143.5C 14.2627,142.209 14.596,141.209 15.5,140.5C 16.9313,139.22 17.5979,137.553 17.5,135.5C 19.2132,134.365 19.8799,132.698 19.5,130.5C 21.9922,124.182 24.9922,118.182 28.5,112.5C 29.9063,112.027 30.573,111.027 30.5,109.5C 30.6596,107.847 31.3263,106.514 32.5,105.5C 33.9063,105.027 34.573,104.027 34.5,102.5C 35.9063,102.027 36.573,101.027 36.5,99.5C 37.9063,99.0269 38.573,98.0269 38.5,96.5C 39.0256,94.7697 40.0256,93.4363 41.5,92.5C 42.9063,92.0269 43.573,91.0269 43.5,89.5C 45.2624,88.7377 46.2624,87.4044 46.5,85.5C 47.9063,85.0269 48.573,84.0269 48.5,82.5C 48.8333,81.5 49.5,80.8333 50.5,80.5C 52.914,79.0892 54.5806,77.0892 55.5,74.5C 62.5,68.1667 69.1667,61.5 75.5,54.5C 78.0892,53.5806 80.0892,51.914 81.5,49.5C 81.5,48.8333 81.8333,48.5 82.5,48.5C 84.4044,48.2624 85.7377,47.2624 86.5,45.5C 88.4044,45.2624 89.7377,44.2624 90.5,42.5C 91.4363,41.0256 92.7697,40.0256 94.5,39.5C 96.0269,39.573 97.0269,38.9063 97.5,37.5C 99.0269,37.573 100.027,36.9063 100.5,35.5C 102.027,35.573 103.027,34.9063 103.5,33.5C 105.027,33.573 106.027,32.9063 106.5,31.5C 107.514,30.3263 108.847,29.6596 110.5,29.5C 112.027,29.573 113.027,28.9063 113.5,27.5C 115.849,25.659 118.515,24.3257 121.5,23.5C 123.027,23.573 124.027,22.9063 124.5,21.5C 126.713,20.2271 129.046,19.2271 131.5,18.5C 133.698,18.8799 135.365,18.2132 136.5,16.5C 138.936,15.129 141.603,14.129 144.5,13.5C 148.787,12.7681 152.787,11.4348 156.5,9.5C 159.152,9.59047 161.485,8.92381 163.5,7.5C 168.477,7.41883 173.143,6.41883 177.5,4.5C 199.784,-0.0867475 222.117,-0.420081 244.5,3.5 Z"/></g>
<g><path style="opacity:1" fill="#d3d3d3" d="M 244.5,3.5 C 248.458,3.25108 252.124,3.91774 255.5,5.5C 251.613,5.35407 247.946,4.6874 244.5,3.5 Z"/></g>
<g><path style="opacity:1" fill="#9b9b9b" d="M 177.5,4.5 C 173.143,6.41883 168.477,7.41883 163.5,7.5C 167.921,5.89848 172.588,4.89848 177.5,4.5 Z"/></g>
<g><path style="opacity:1" fill="#c4c4c4" d="M 255.5,5.5 C 261.17,5.91737 266.503,7.25071 271.5,9.5C 265.906,8.7683 260.573,7.43496 255.5,5.5 Z"/></g>
<g><path style="opacity:1" fill="#d4d4d4" d="M 163.5,7.5 C 161.485,8.92381 159.152,9.59047 156.5,9.5C 158.515,8.07619 160.848,7.40953 163.5,7.5 Z"/></g>
<g><path style="opacity:1" fill="#d5d5d5" d="M 271.5,9.5 C 274.152,9.40953 276.485,10.0762 278.5,11.5C 275.848,11.5905 273.515,10.9238 271.5,9.5 Z"/></g>
<g><path style="opacity:1" fill="#9f9f9f" d="M 156.5,9.5 C 152.787,11.4348 148.787,12.7681 144.5,13.5C 148.098,11.2597 152.098,9.92638 156.5,9.5 Z"/></g>
<g><path style="opacity:1" fill="#b0b0b0" d="M 278.5,11.5 C 280.553,11.4021 282.22,12.0687 283.5,13.5C 281.447,13.5979 279.78,12.9313 278.5,11.5 Z"/></g>
<g><path style="opacity:1" fill="#777777" d="M 136.5,16.5 C 135.365,18.2132 133.698,18.8799 131.5,18.5C 132.93,17.4625 134.597,16.7959 136.5,16.5 Z"/></g>
<g><path style="opacity:1" fill="#dadada" d="M 297.5,18.5 C 299.027,18.427 300.027,19.0937 300.5,20.5C 298.973,20.573 297.973,19.9063 297.5,18.5 Z"/></g>
<g><path style="opacity:1" fill="#afafaf" d="M 124.5,21.5 C 124.027,22.9063 123.027,23.573 121.5,23.5C 121.973,22.0937 122.973,21.427 124.5,21.5 Z"/></g>
<g><path style="opacity:1" fill="#9ad8e9" d="M 210.5,27.5 C 290.501,28.3936 348.334,64.3936 384,135.5C 406.677,189.919 405.677,243.919 381,297.5C 349.969,355.294 301.802,388.794 236.5,398C 160.345,404.498 100.512,376.664 57,314.5C 30.9822,270.725 22.6488,223.725 32,173.5C 48.5832,105.584 89.7499,59.7503 155.5,36C 163.752,33.6862 172.086,31.8528 180.5,30.5C 190.637,29.4135 200.637,28.4135 210.5,27.5 Z"/></g>
<g><path style="opacity:1" fill="#d2d2d2" d="M 313.5,26.5 C 315.027,26.427 316.027,27.0937 316.5,28.5C 314.973,28.573 313.973,27.9063 313.5,26.5 Z"/></g>
<g><path style="opacity:1" fill="#8f8f8f" d="M 113.5,27.5 C 113.027,28.9063 112.027,29.573 110.5,29.5C 110.973,28.0937 111.973,27.427 113.5,27.5 Z"/></g>
<g><path style="opacity:1" fill="#c7c7c7" d="M 210.5,27.5 C 200.637,28.4135 190.637,29.4135 180.5,30.5C 190.207,28.0211 200.207,27.0211 210.5,27.5 Z"/></g>
<g><path style="opacity:1" fill="#afafaf" d="M 106.5,31.5 C 106.027,32.9063 105.027,33.573 103.5,33.5C 103.973,32.0937 104.973,31.427 106.5,31.5 Z"/></g>
<g><path style="opacity:1" fill="#919191" d="M 103.5,33.5 C 103.027,34.9063 102.027,35.573 100.5,35.5C 100.973,34.0937 101.973,33.427 103.5,33.5 Z"/></g>
<g><path style="opacity:1" fill="#9a9a9a" d="M 100.5,35.5 C 100.027,36.9063 99.0269,37.573 97.5,37.5C 97.9731,36.0937 98.9731,35.427 100.5,35.5 Z"/></g>
<g><path style="opacity:1" fill="#969696" d="M 97.5,37.5 C 97.0269,38.9063 96.0269,39.573 94.5,39.5C 94.9731,38.0937 95.9731,37.427 97.5,37.5 Z"/></g>
<g><path style="opacity:1" fill="#7e7e7e" d="M 90.5,42.5 C 89.7377,44.2624 88.4044,45.2624 86.5,45.5C 87.2623,43.7376 88.5956,42.7376 90.5,42.5 Z"/></g>
<g><path style="opacity:1" fill="#c7c7c7" d="M 340.5,44.5 C 342.027,44.427 343.027,45.0937 343.5,46.5C 341.973,46.573 340.973,45.9063 340.5,44.5 Z"/></g>
<g><path style="opacity:1" fill="#a1a1a1" d="M 86.5,45.5 C 85.7377,47.2624 84.4044,48.2624 82.5,48.5C 83.2623,46.7376 84.5956,45.7376 86.5,45.5 Z"/></g>
<g><path style="opacity:1" fill="#dbdbdb" d="M 344.5,47.5 C 346.027,47.427 347.027,48.0937 347.5,49.5C 345.973,49.573 344.973,48.9063 344.5,47.5 Z"/></g>
<g><path style="opacity:1" fill="#838383" d="M 81.5,49.5 C 80.0892,51.914 78.0892,53.5806 75.5,54.5C 76.9108,52.086 78.9108,50.4194 81.5,49.5 Z"/></g>
<g><path style="opacity:1" fill="#dbdbdb" d="M 350.5,52.5 C 352.027,52.427 353.027,53.0937 353.5,54.5C 351.973,54.573 350.973,53.9063 350.5,52.5 Z"/></g>
<g><path style="opacity:1" fill="#b0b0b0" d="M 353.5,54.5 C 354.833,55.1667 355.833,56.1667 356.5,57.5C 354.5,57.5 353.5,56.5 353.5,54.5 Z"/></g>
<g><path style="opacity:1" fill="#dddddd" d="M 362.5,63.5 C 363.833,63.5 364.5,64.1667 364.5,65.5C 363.5,65.1667 362.833,64.5 362.5,63.5 Z"/></g>
<g><path style="opacity:1" fill="#a2a2a2" d="M 75.5,54.5 C 69.1667,61.5 62.5,68.1667 55.5,74.5C 55.369,73.7611 55.5357,73.0944 56,72.5C 62.0899,65.9043 68.5899,59.9043 75.5,54.5 Z"/></g>
<g><path style="opacity:1" fill="#a1a1a1" d="M 368.5,69.5 C 371.573,71.5691 373.906,74.2358 375.5,77.5C 372.427,75.4309 370.094,72.7642 368.5,69.5 Z"/></g>
<g><path style="opacity:1" fill="#898989" d="M 55.5,74.5 C 54.5806,77.0892 52.914,79.0892 50.5,80.5C 51.4194,77.9108 53.086,75.9108 55.5,74.5 Z"/></g>
<g><path style="opacity:1" fill="#adadad" d="M 375.5,77.5 C 377.587,78.5846 378.92,80.2512 379.5,82.5C 377.413,81.4154 376.08,79.7488 375.5,77.5 Z"/></g>
<g><path style="opacity:1" fill="#c5c5c5" d="M 48.5,82.5 C 48.573,84.0269 47.9063,85.0269 46.5,85.5C 46.427,83.9731 47.0937,82.9731 48.5,82.5 Z"/></g>
<g><path style="opacity:1" fill="#b6b6b6" d="M 381.5,84.5 C 382.906,84.9731 383.573,85.9731 383.5,87.5C 382.094,87.0269 381.427,86.0269 381.5,84.5 Z"/></g>
<g><path style="opacity:1" fill="#929292" d="M 46.5,85.5 C 46.2624,87.4044 45.2624,88.7377 43.5,89.5C 43.7376,87.5956 44.7376,86.2623 46.5,85.5 Z"/></g>
<g><path style="opacity:1" fill="#a8a8a8" d="M 383.5,87.5 C 385.262,88.2623 386.262,89.5956 386.5,91.5C 384.738,90.7377 383.738,89.4044 383.5,87.5 Z"/></g>
<g><path style="opacity:1" fill="#919191" d="M 43.5,89.5 C 43.573,91.0269 42.9063,92.0269 41.5,92.5C 41.427,90.9731 42.0937,89.9731 43.5,89.5 Z"/></g>
<g><path style="opacity:1" fill="#040404" d="M 159.5,98.5 C 159.914,100.808 160.247,103.142 160.5,105.5C 158.971,116.123 157.971,126.789 157.5,137.5C 156.407,142.306 155.741,147.306 155.5,152.5C 162.573,148.123 169.906,143.956 177.5,140C 192.856,133.629 208.856,130.796 225.5,131.5C 233.38,133.144 241.38,134.81 249.5,136.5C 291.15,151.849 312.817,181.849 314.5,226.5C 312.652,279.415 285.985,311.582 234.5,323C 215.589,326.178 197.255,324.178 179.5,317C 169.423,313.093 166.59,306.26 171,296.5C 175.14,291.789 180.306,290.289 186.5,292C 221.341,307.117 251.175,300.283 276,271.5C 291.801,249.53 294.801,225.863 285,200.5C 265.56,162.861 235.393,149.361 194.5,160C 185.135,164.011 176.801,169.511 169.5,176.5C 187.5,178.636 205.5,180.803 223.5,183C 234.237,187.352 236.403,194.519 230,204.5C 228.581,205.46 227.081,206.293 225.5,207C 195.424,205.511 165.424,202.844 135.5,199C 128.927,196.193 125.927,191.193 126.5,184C 129.239,156.11 132.406,128.277 136,100.5C 139.084,93.0451 144.584,90.5451 152.5,93C 155.621,93.9668 157.954,95.8001 159.5,98.5 Z"/></g>
<g><path style="opacity:1" fill="#a3a3a3" d="M 388.5,94.5 C 389.906,94.9731 390.573,95.9731 390.5,97.5C 389.094,97.0269 388.427,96.0269 388.5,94.5 Z"/></g>
<g><path style="opacity:1" fill="#a5a5a5" d="M 38.5,96.5 C 38.573,98.0269 37.9063,99.0269 36.5,99.5C 36.427,97.9731 37.0937,96.9731 38.5,96.5 Z"/></g>
<g><path style="opacity:1" fill="#a7a7a7" d="M 390.5,97.5 C 391.906,97.9731 392.573,98.9731 392.5,100.5C 391.094,100.027 390.427,99.0269 390.5,97.5 Z"/></g>
<g><path style="opacity:1" fill="#c0c0c0" d="M 36.5,99.5 C 36.573,101.027 35.9063,102.027 34.5,102.5C 34.427,100.973 35.0937,99.9731 36.5,99.5 Z"/></g>
<g><path style="opacity:1" fill="#b5b5b5" d="M 392.5,100.5 C 393.906,100.973 394.573,101.973 394.5,103.5C 393.094,103.027 392.427,102.027 392.5,100.5 Z"/></g>
<g><path style="opacity:1" fill="#c8c8c8" d="M 34.5,102.5 C 34.573,104.027 33.9063,105.027 32.5,105.5C 32.427,103.973 33.0937,102.973 34.5,102.5 Z"/></g>
<g><path style="opacity:1" fill="#d0d0d0" d="M 394.5,103.5 C 395.906,103.973 396.573,104.973 396.5,106.5C 395.094,106.027 394.427,105.027 394.5,103.5 Z"/></g>
<g><path style="opacity:1" fill="#bcbcbc" d="M 30.5,109.5 C 30.573,111.027 29.9063,112.027 28.5,112.5C 28.427,110.973 29.0937,109.973 30.5,109.5 Z"/></g>
<g><path style="opacity:1" fill="#a0a0a0" d="M 399.5,112.5 C 401.25,113.659 402.25,115.326 402.5,117.5C 400.75,116.341 399.75,114.674 399.5,112.5 Z"/></g>
<g><path style="opacity:1" fill="#cdcdcd" d="M 159.5,98.5 C 161.033,100.634 161.7,103.134 161.5,106C 160.482,116.686 159.148,127.186 157.5,137.5C 157.971,126.789 158.971,116.123 160.5,105.5C 160.247,103.142 159.914,100.808 159.5,98.5 Z"/></g>
<g><path style="opacity:1" fill="#d8d8d8" d="M 403.5,119.5 C 405.104,120.287 405.771,121.62 405.5,123.5C 404.326,122.486 403.66,121.153 403.5,119.5 Z"/></g>
<g><path style="opacity:1" fill="#cbcbcb" d="M 225.5,131.5 C 233.985,131.465 241.985,133.131 249.5,136.5C 241.38,134.81 233.38,133.144 225.5,131.5 Z"/></g>
<g><path style="opacity:1" fill="#858585" d="M 19.5,130.5 C 19.8799,132.698 19.2132,134.365 17.5,135.5C 17.7959,133.597 18.4625,131.93 19.5,130.5 Z"/></g>
<g><path style="opacity:1" fill="#dedede" d="M 410.5,134.5 C 411.931,135.78 412.598,137.447 412.5,139.5C 411.069,138.22 410.402,136.553 410.5,134.5 Z"/></g>
<g><path style="opacity:1" fill="#dedede" d="M 17.5,135.5 C 17.5979,137.553 16.9313,139.22 15.5,140.5C 15.4021,138.447 16.0687,136.78 17.5,135.5 Z"/></g>
<g><path style="opacity:1" fill="#8b8b8b" d="M 14.5,143.5 C 14.8799,145.698 14.2132,147.365 12.5,148.5C 12.7959,146.597 13.4625,144.93 14.5,143.5 Z"/></g>
<g><path style="opacity:1" fill="#7c7c7c" d="M 414.5,145.5 C 415.738,147.214 416.405,149.214 416.5,151.5C 414.926,149.898 414.259,147.898 414.5,145.5 Z"/></g>
<g><path style="opacity:1" fill="#9c9c9c" d="M 12.5,149.5 C 12.4725,152.916 11.4725,155.916 9.5,158.5C 9.92809,155.215 10.9281,152.215 12.5,149.5 Z"/></g>
<g><path style="opacity:1" fill="#939393" d="M 416.5,151.5 C 417.738,153.214 418.405,155.214 418.5,157.5C 416.926,155.898 416.259,153.898 416.5,151.5 Z"/></g>
<g><path style="opacity:1" fill="#a9a9a9" d="M 419.5,161.5 C 420.913,164.219 421.58,167.219 421.5,170.5C 420.087,167.781 419.42,164.781 419.5,161.5 Z"/></g>
<g><path style="opacity:1" fill="#cdcdcd" d="M 7.5,167.5 C 7.11791,172.744 6.11791,177.744 4.5,182.5C 4.54863,177.184 5.54863,172.184 7.5,167.5 Z"/></g>
<g><path style="opacity:1" fill="#a1a1a1" d="M 424.5,187.5 C 425.198,190.897 425.865,194.397 426.5,198C 425.944,198.383 425.611,198.883 425.5,199.5C 424.517,195.702 424.183,191.702 424.5,187.5 Z"/></g>
<g><path style="opacity:1" fill="#c2c2c2" d="M 4.5,242.5 C 5.79468,246.267 6.46134,250.267 6.5,254.5C 5.01086,250.764 4.3442,246.764 4.5,242.5 Z"/></g>
<g><path style="opacity:1" fill="#bbbbbb" d="M 423.5,245.5 C 422.733,254.561 420.733,263.227 417.5,271.5C 419.214,262.651 421.214,253.985 423.5,245.5 Z"/></g>
<g><path style="opacity:1" fill="#c3c3c3" d="M 6.5,254.5 C 8.61268,260.612 10.2793,266.946 11.5,273.5C 8.45392,267.633 6.78725,261.3 6.5,254.5 Z"/></g>
<g><path style="opacity:1" fill="#c7c7c7" d="M 414.5,280.5 C 414.741,282.898 414.074,284.898 412.5,286.5C 412.595,284.214 413.262,282.214 414.5,280.5 Z"/></g>
<g><path style="opacity:1" fill="#c1c1c1" d="M 412.5,286.5 C 412.598,288.553 411.931,290.22 410.5,291.5C 410.402,289.447 411.069,287.78 412.5,286.5 Z"/></g>
<g><path style="opacity:1" fill="#c1c1c1" d="M 410.5,291.5 C 410.598,293.553 409.931,295.22 408.5,296.5C 408.402,294.447 409.069,292.78 410.5,291.5 Z"/></g>
<g><path style="opacity:1" fill="#c9c9c9" d="M 26.5,310.5 C 27.9063,310.973 28.573,311.973 28.5,313.5C 27.0937,313.027 26.427,312.027 26.5,310.5 Z"/></g>
<g><path style="opacity:1" fill="#ebebeb" d="M 28.5,314.5 C 29.5,314.833 30.1667,315.5 30.5,316.5C 29.1667,316.5 28.5,315.833 28.5,314.5 Z"/></g>
<g><path style="opacity:1" fill="#d9d9d9" d="M 398.5,316.5 C 398.573,318.027 397.906,319.027 396.5,319.5C 396.427,317.973 397.094,316.973 398.5,316.5 Z"/></g>
<g><path style="opacity:1" fill="#d4d4d4" d="M 395.5,321.5 C 395.573,323.027 394.906,324.027 393.5,324.5C 393.427,322.973 394.094,321.973 395.5,321.5 Z"/></g>
<g><path style="opacity:1" fill="#d7d7d7" d="M 33.5,322.5 C 34.9063,322.973 35.573,323.973 35.5,325.5C 34.0937,325.027 33.427,324.027 33.5,322.5 Z"/></g>
<g><path style="opacity:1" fill="#d0d0d0" d="M 393.5,324.5 C 393.573,326.027 392.906,327.027 391.5,327.5C 391.427,325.973 392.094,324.973 393.5,324.5 Z"/></g>
<g><path style="opacity:1" fill="#cacaca" d="M 35.5,325.5 C 36.9063,325.973 37.573,326.973 37.5,328.5C 36.0937,328.027 35.427,327.027 35.5,325.5 Z"/></g>
<g><path style="opacity:1" fill="#cdcdcd" d="M 391.5,327.5 C 391.573,329.027 390.906,330.027 389.5,330.5C 389.427,328.973 390.094,327.973 391.5,327.5 Z"/></g>
<g><path style="opacity:1" fill="#cecece" d="M 389.5,330.5 C 389.573,332.027 388.906,333.027 387.5,333.5C 387.427,331.973 388.094,330.973 389.5,330.5 Z"/></g>
<g><path style="opacity:1" fill="#c2c2c2" d="M 42.5,335.5 C 43.9063,335.973 44.573,336.973 44.5,338.5C 43.0937,338.027 42.427,337.027 42.5,335.5 Z"/></g>
<g><path style="opacity:1" fill="#cacaca" d="M 384.5,337.5 C 384.573,339.027 383.906,340.027 382.5,340.5C 382.427,338.973 383.094,337.973 384.5,337.5 Z"/></g>
<g><path style="opacity:1" fill="#6c6c6c" d="M 380.5,342.5 C 379.527,345.135 377.86,347.135 375.5,348.5C 375.837,345.474 377.504,343.474 380.5,342.5 Z"/></g>
<g><path style="opacity:1" fill="#c8c8c8" d="M 54.5,350.5 C 55.9063,350.973 56.573,351.973 56.5,353.5C 55.0937,353.027 54.427,352.027 54.5,350.5 Z"/></g>
<g><path style="opacity:1" fill="#e5e5e5" d="M 371.5,353.5 C 371.167,355.833 369.833,357.167 367.5,357.5C 368.5,355.833 369.833,354.5 371.5,353.5 Z"/></g>
<g><path style="opacity:1" fill="#c6c6c6" d="M 366.5,358.5 C 366.5,359.833 365.833,360.5 364.5,360.5C 364.833,359.5 365.5,358.833 366.5,358.5 Z"/></g>
<g><path style="opacity:1" fill="#cccccc" d="M 364.5,360.5 C 364.262,362.404 363.262,363.738 361.5,364.5C 361.738,362.596 362.738,361.262 364.5,360.5 Z"/></g>
<g><path style="opacity:1" fill="#d9d9d9" d="M 361.5,364.5 C 360.738,366.262 359.404,367.262 357.5,367.5C 358.262,365.738 359.596,364.738 361.5,364.5 Z"/></g>
<g><path style="opacity:1" fill="#adadad" d="M 72.5,369.5 C 74.7488,370.08 76.4154,371.413 77.5,373.5C 75.2512,372.92 73.5846,371.587 72.5,369.5 Z"/></g>
<g><path style="opacity:1" fill="#dddddd" d="M 351.5,373.5 C 351.027,374.906 350.027,375.573 348.5,375.5C 348.973,374.094 349.973,373.427 351.5,373.5 Z"/></g>
<g><path style="opacity:1" fill="#adadad" d="M 79.5,375.5 C 81.4044,375.738 82.7377,376.738 83.5,378.5C 81.5956,378.262 80.2623,377.262 79.5,375.5 Z"/></g>
<g><path style="opacity:1" fill="#6b6b6b" d="M 347.5,376.5 C 346.738,378.262 345.404,379.262 343.5,379.5C 344.598,378.603 344.598,377.77 343.5,377C 344.793,376.51 346.127,376.343 347.5,376.5 Z"/></g>
<g><path style="opacity:1" fill="#a6a6a6" d="M 83.5,378.5 C 85.7488,379.08 87.4154,380.413 88.5,382.5C 86.2512,381.92 84.5846,380.587 83.5,378.5 Z"/></g>
<g><path style="opacity:1" fill="#afafaf" d="M 88.5,382.5 C 90.4044,382.738 91.7377,383.738 92.5,385.5C 90.5956,385.262 89.2623,384.262 88.5,382.5 Z"/></g>
<g><path style="opacity:1" fill="#b1b1b1" d="M 92.5,385.5 C 94.0269,385.427 95.0269,386.094 95.5,387.5C 93.9731,387.573 92.9731,386.906 92.5,385.5 Z"/></g>
<g><path style="opacity:1" fill="#686868" d="M 334.5,386.5 C 333.564,387.974 332.23,388.974 330.5,389.5C 330.5,388.5 330.5,387.5 330.5,386.5C 331.833,386.5 333.167,386.5 334.5,386.5 Z"/></g>
<g><path style="opacity:1" fill="#9e9e9e" d="M 95.5,387.5 C 97.0269,387.427 98.0269,388.094 98.5,389.5C 96.9731,389.573 95.9731,388.906 95.5,387.5 Z"/></g>
<g><path style="opacity:1" fill="#9e9e9e" d="M 98.5,389.5 C 100.027,389.427 101.027,390.094 101.5,391.5C 99.9731,391.573 98.9731,390.906 98.5,389.5 Z"/></g>
<g><path style="opacity:1" fill="#ededed" d="M 103.5,392.5 C 104.5,392.833 105.167,393.5 105.5,394.5C 104.167,394.5 103.5,393.833 103.5,392.5 Z"/></g>
<g><path style="opacity:1" fill="#aeaeae" d="M 106.5,394.5 C 108.027,394.427 109.027,395.094 109.5,396.5C 107.973,396.573 106.973,395.906 106.5,394.5 Z"/></g>
<g><path style="opacity:1" fill="#c5c5c5" d="M 320.5,395.5 C 319.341,397.25 317.674,398.25 315.5,398.5C 316.659,396.75 318.326,395.75 320.5,395.5 Z"/></g>
<g><path style="opacity:1" fill="#c0c0c0" d="M 111.5,397.5 C 113.027,397.427 114.027,398.094 114.5,399.5C 112.973,399.573 111.973,398.906 111.5,397.5 Z"/></g>
<g><path style="opacity:1" fill="#bababa" d="M 309.5,401.5 C 308.713,403.104 307.38,403.771 305.5,403.5C 306.514,402.326 307.847,401.66 309.5,401.5 Z"/></g>
<g><path style="opacity:1" fill="#bcbcbc" d="M 129.5,406.5 C 131.153,406.66 132.486,407.326 133.5,408.5C 131.62,408.771 130.287,408.104 129.5,406.5 Z"/></g>
<g><path style="opacity:1" fill="#838383" d="M 135.5,409.5 C 137.698,409.12 139.365,409.787 140.5,411.5C 138.597,411.204 136.93,410.537 135.5,409.5 Z"/></g>
<g><path style="opacity:1" fill="#c6c6c6" d="M 292.5,409.5 C 291.22,410.931 289.553,411.598 287.5,411.5C 288.78,410.069 290.447,409.402 292.5,409.5 Z"/></g>
<g><path style="opacity:1" fill="#e8e8e8" d="M 140.5,411.5 C 142.553,411.402 144.22,412.069 145.5,413.5C 143.447,413.598 141.78,412.931 140.5,411.5 Z"/></g>
<g><path style="opacity:1" fill="#cecece" d="M 284.5,412.5 C 283.22,413.931 281.553,414.598 279.5,414.5C 280.78,413.069 282.447,412.402 284.5,412.5 Z"/></g>
<g><path style="opacity:1" fill="#818181" d="M 149.5,414.5 C 151.898,414.259 153.898,414.926 155.5,416.5C 153.214,416.405 151.214,415.738 149.5,414.5 Z"/></g>
<g><path style="opacity:1" fill="#9d9d9d" d="M 159.5,417.5 C 162.152,417.41 164.485,418.076 166.5,419.5C 163.848,419.59 161.515,418.924 159.5,417.5 Z"/></g>
<g><path style="opacity:1" fill="#bebebe" d="M 261.5,419.5 C 254.482,421.894 247.149,423.227 239.5,423.5C 246.633,421.754 253.966,420.42 261.5,419.5 Z"/></g>
<g><path style="opacity:1" fill="#c6c6c6" d="M 176.5,421.5 C 180.705,421.717 184.705,422.383 188.5,423.5C 184.21,423.802 180.21,423.136 176.5,421.5 Z"/></g>
</svg>
