<?xml version="1.0" encoding="UTF-8"?>
<!DOCTYPE svg PUBLIC "-//W3C//DTD SVG 1.1//EN" "http://www.w3.org/Graphics/SVG/1.1/DTD/svg11.dtd">
<svg xmlns="http://www.w3.org/2000/svg" version="1.1" width="981px" height="980px" style="shape-rendering:geometricPrecision; text-rendering:geometricPrecision; image-rendering:optimizeQuality; fill-rule:evenodd; clip-rule:evenodd" xmlns:xlink="http://www.w3.org/1999/xlink">
<g><path style="opacity:1" fill="#040404" d="M 459.5,-0.5 C 476.167,-0.5 492.833,-0.5 509.5,-0.5C 595.286,3.42866 674.619,28.0953 747.5,73.5C 747.821,75.0481 748.821,75.7148 750.5,75.5C 779.8,93.7861 806.8,115.119 831.5,139.5C 833.766,143.436 836.766,146.769 840.5,149.5C 844.5,152.833 848.167,156.5 851.5,160.5C 851.738,162.404 852.738,163.738 854.5,164.5C 856.167,165.5 857.5,166.833 858.5,168.5C 858.738,170.404 859.738,171.738 861.5,172.5C 865.513,176.515 869.179,180.848 872.5,185.5C 872.738,187.404 873.738,188.738 875.5,189.5C 877.543,190.579 878.876,192.246 879.5,194.5C 879.738,196.404 880.738,197.738 882.5,198.5C 882.738,200.404 883.738,201.738 885.5,202.5C 885.427,204.027 886.094,205.027 887.5,205.5C 889.262,206.262 890.262,207.596 890.5,209.5C 890.427,211.027 891.094,212.027 892.5,212.5C 894.522,214.531 896.189,216.865 897.5,219.5C 897.427,221.027 898.094,222.027 899.5,222.5C 901.664,224.822 903.331,227.489 904.5,230.5C 904.427,232.027 905.094,233.027 906.5,233.5C 907.89,234.899 908.89,236.566 909.5,238.5C 909.427,240.027 910.094,241.027 911.5,241.5C 913.56,244.24 915.226,247.24 916.5,250.5C 916.427,252.027 917.094,253.027 918.5,253.5C 937.3,285.879 951.633,320.213 961.5,356.5C 961.41,359.152 962.076,361.485 963.5,363.5C 972.407,394.942 978.073,426.942 980.5,459.5C 980.5,479.833 980.5,500.167 980.5,520.5C 964.122,688.171 885.455,817.337 744.5,908C 676.401,949.2 602.735,973.033 523.5,979.5C 505.167,979.5 486.833,979.5 468.5,979.5C 434.204,978.267 400.537,972.934 367.5,963.5C 365.485,962.076 363.152,961.41 360.5,961.5C 319.032,950.245 280.032,933.579 243.5,911.5C 243.027,910.094 242.027,909.427 240.5,909.5C 234.822,906.664 229.489,903.331 224.5,899.5C 224.027,898.094 223.027,897.427 221.5,897.5C 221.027,896.094 220.027,895.427 218.5,895.5C 218.027,894.094 217.027,893.427 215.5,893.5C 213.77,892.974 212.436,891.974 211.5,890.5C 211.027,889.094 210.027,888.427 208.5,888.5C 206.596,888.262 205.262,887.262 204.5,885.5C 204.027,884.094 203.027,883.427 201.5,883.5C 200.738,881.738 199.404,880.738 197.5,880.5C 196.738,878.738 195.404,877.738 193.5,877.5C 191.246,876.876 189.579,875.543 188.5,873.5C 187.738,871.738 186.404,870.738 184.5,870.5C 183.833,870.5 183.5,870.167 183.5,869.5C 183.027,868.094 182.027,867.427 180.5,867.5C 179.167,866.833 178.167,865.833 177.5,864.5C 176.738,862.738 175.404,861.738 173.5,861.5C 171.833,860.5 170.5,859.167 169.5,857.5C 168.415,855.413 166.749,854.08 164.5,853.5C 127.201,819.561 95.5347,781.228 69.5,738.5C 69.7148,736.821 69.0481,735.821 67.5,735.5C 23.492,660.468 0.825343,579.468 -0.5,492.5C -0.5,492.167 -0.5,491.833 -0.5,491.5C -0.188184,452.008 4.81182,413.008 14.5,374.5C 15.9238,372.485 16.5905,370.152 16.5,367.5C 16.2322,365.901 16.5655,364.568 17.5,363.5C 18.9238,361.485 19.5905,359.152 19.5,356.5C 20.9238,354.485 21.5905,352.152 21.5,349.5C 31.3603,315.79 45.027,283.79 62.5,253.5C 63.9063,253.027 64.573,252.027 64.5,250.5C 65.7738,247.24 67.4405,244.24 69.5,241.5C 70.9063,241.027 71.573,240.027 71.5,238.5C 72.1103,236.566 73.1103,234.899 74.5,233.5C 75.9063,233.027 76.573,232.027 76.5,230.5C 78.4462,226.561 80.7795,222.894 83.5,219.5C 85.2624,218.738 86.2624,217.404 86.5,215.5C 86.427,213.973 87.0937,212.973 88.5,212.5C 89.9063,212.027 90.573,211.027 90.5,209.5C 90.7376,207.596 91.7376,206.262 93.5,205.5C 94.9063,205.027 95.573,204.027 95.5,202.5C 96.0256,200.77 97.0256,199.436 98.5,198.5C 100.262,197.738 101.262,196.404 101.5,194.5C 101.5,193.833 101.833,193.5 102.5,193.5C 103.906,193.027 104.573,192.027 104.5,190.5C 104.5,189.833 104.833,189.5 105.5,189.5C 107.262,188.738 108.262,187.404 108.5,185.5C 108.5,184.833 108.833,184.5 109.5,184.5C 111.262,183.738 112.262,182.404 112.5,180.5C 112.833,179.5 113.5,178.833 114.5,178.5C 115.906,178.027 116.573,177.027 116.5,175.5C 117.167,174.167 118.167,173.167 119.5,172.5C 121.262,171.738 122.262,170.404 122.5,168.5C 123.5,166.833 124.833,165.5 126.5,164.5C 128.262,163.738 129.262,162.404 129.5,160.5C 132.5,156.833 135.833,153.5 139.5,150.5C 143.833,146.833 147.833,142.833 151.5,138.5C 153.5,135.833 155.833,133.5 158.5,131.5C 161.764,129.906 164.431,127.573 166.5,124.5C 166.833,123.5 167.5,122.833 168.5,122.5C 171.089,121.581 173.089,119.914 174.5,117.5C 174.5,116.833 174.833,116.5 175.5,116.5C 177.749,115.92 179.415,114.587 180.5,112.5C 183.851,109.152 187.518,106.152 191.5,103.5C 193.404,103.262 194.738,102.262 195.5,100.5C 196.262,98.7376 197.596,97.7376 199.5,97.5C 201.404,97.2624 202.738,96.2624 203.5,94.5C 207.777,90.6882 212.443,87.3548 217.5,84.5C 219.027,84.573 220.027,83.9063 220.5,82.5C 222.027,82.573 223.027,81.9063 223.5,80.5C 228.489,76.6692 233.822,73.3359 239.5,70.5C 241.027,70.573 242.027,69.9063 242.5,68.5C 249.505,63.9955 256.839,59.9955 264.5,56.5C 266.027,56.573 267.027,55.9063 267.5,54.5C 293.857,40.1607 321.524,28.8274 350.5,20.5C 353.152,20.5905 355.485,19.9238 357.5,18.5C 360.854,16.7424 364.521,15.7424 368.5,15.5C 371.152,15.5905 373.485,14.9238 375.5,13.5C 403.095,6.32004 431.095,1.65338 459.5,-0.5 Z"/></g>
<g><path style="opacity:1" fill="#616161" d="M 375.5,13.5 C 373.485,14.9238 371.152,15.5905 368.5,15.5C 370.515,14.0762 372.848,13.4095 375.5,13.5 Z"/></g>
<g><path style="opacity:1" fill="#656565" d="M 357.5,18.5 C 355.485,19.9238 353.152,20.5905 350.5,20.5C 352.515,19.0762 354.848,18.4095 357.5,18.5 Z"/></g>
<g><path style="opacity:1" fill="#9ad9ea" d="M 458.5,48.5 C 582.961,41.8188 692.294,78.6521 786.5,159C 872.368,238.577 920.535,337.077 931,454.5C 940.024,599.51 891.858,721.343 786.5,820C 696.043,898.048 590.71,935.048 470.5,931C 352.864,924.248 252.697,879.415 170,796.5C 89.8396,709.591 49.3396,606.591 48.5,487.5C 51.9292,344.818 108.596,228.651 218.5,139C 289.698,85.8731 369.698,55.7065 458.5,48.5 Z"/></g>
<g><path style="opacity:1" fill="#777777" d="M 267.5,54.5 C 267.027,55.9063 266.027,56.573 264.5,56.5C 264.973,55.0937 265.973,54.427 267.5,54.5 Z"/></g>
<g><path style="opacity:1" fill="#828282" d="M 242.5,68.5 C 242.027,69.9063 241.027,70.573 239.5,70.5C 239.973,69.0937 240.973,68.427 242.5,68.5 Z"/></g>
<g><path style="opacity:1" fill="#7d7d7d" d="M 747.5,73.5 C 748.71,73.9321 749.71,74.5987 750.5,75.5C 748.821,75.7148 747.821,75.0481 747.5,73.5 Z"/></g>
<g><path style="opacity:1" fill="#878787" d="M 223.5,80.5 C 223.027,81.9063 222.027,82.573 220.5,82.5C 220.973,81.0937 221.973,80.427 223.5,80.5 Z"/></g>
<g><path style="opacity:1" fill="#848484" d="M 220.5,82.5 C 220.027,83.9063 219.027,84.573 217.5,84.5C 217.973,83.0937 218.973,82.427 220.5,82.5 Z"/></g>
<g><path style="opacity:1" fill="#767676" d="M 203.5,94.5 C 202.738,96.2624 201.404,97.2624 199.5,97.5C 200.262,95.7376 201.596,94.7376 203.5,94.5 Z"/></g>
<g><path style="opacity:1" fill="#7c7c7c" d="M 195.5,100.5 C 194.738,102.262 193.404,103.262 191.5,103.5C 192.262,101.738 193.596,100.738 195.5,100.5 Z"/></g>
<g><path style="opacity:1" fill="#5e5e5e" d="M 180.5,112.5 C 179.415,114.587 177.749,115.92 175.5,116.5C 176.585,114.413 178.251,113.08 180.5,112.5 Z"/></g>
<g><path style="opacity:1" fill="#676767" d="M 174.5,117.5 C 173.089,119.914 171.089,121.581 168.5,122.5C 169.911,120.086 171.911,118.419 174.5,117.5 Z"/></g>
<g><path style="opacity:1" fill="#6e6e6e" d="M 166.5,124.5 C 164.431,127.573 161.764,129.906 158.5,131.5C 160.569,128.427 163.236,126.094 166.5,124.5 Z"/></g>
<g><path style="opacity:1" fill="#acacac" d="M 831.5,139.5 C 835.234,142.231 838.234,145.564 840.5,149.5C 836.766,146.769 833.766,143.436 831.5,139.5 Z"/></g>
<g><path style="opacity:1" fill="#9a9a9a" d="M 151.5,138.5 C 147.833,142.833 143.833,146.833 139.5,150.5C 142.5,145.5 146.5,141.5 151.5,138.5 Z"/></g>
<g><path style="opacity:1" fill="#888888" d="M 129.5,160.5 C 129.262,162.404 128.262,163.738 126.5,164.5C 126.738,162.596 127.738,161.262 129.5,160.5 Z"/></g>
<g><path style="opacity:1" fill="#979797" d="M 851.5,160.5 C 853.262,161.262 854.262,162.596 854.5,164.5C 852.738,163.738 851.738,162.404 851.5,160.5 Z"/></g>
<g><path style="opacity:1" fill="#818181" d="M 122.5,168.5 C 122.262,170.404 121.262,171.738 119.5,172.5C 119.738,170.596 120.738,169.262 122.5,168.5 Z"/></g>
<g><path style="opacity:1" fill="#8b8b8b" d="M 858.5,168.5 C 860.262,169.262 861.262,170.596 861.5,172.5C 859.738,171.738 858.738,170.404 858.5,168.5 Z"/></g>
<g><path style="opacity:1" fill="#8a8a8a" d="M 116.5,175.5 C 116.573,177.027 115.906,178.027 114.5,178.5C 114.427,176.973 115.094,175.973 116.5,175.5 Z"/></g>
<g><path style="opacity:1" fill="#7c7c7c" d="M 112.5,180.5 C 112.262,182.404 111.262,183.738 109.5,184.5C 109.738,182.596 110.738,181.262 112.5,180.5 Z"/></g>
<g><path style="opacity:1" fill="#787878" d="M 108.5,185.5 C 108.262,187.404 107.262,188.738 105.5,189.5C 105.738,187.596 106.738,186.262 108.5,185.5 Z"/></g>
<g><path style="opacity:1" fill="#777777" d="M 872.5,185.5 C 874.262,186.262 875.262,187.596 875.5,189.5C 873.738,188.738 872.738,187.404 872.5,185.5 Z"/></g>
<g><path style="opacity:1" fill="#7f7f7f" d="M 104.5,190.5 C 104.573,192.027 103.906,193.027 102.5,193.5C 102.427,191.973 103.094,190.973 104.5,190.5 Z"/></g>
<g><path style="opacity:1" fill="#818181" d="M 101.5,194.5 C 101.262,196.404 100.262,197.738 98.5,198.5C 98.7376,196.596 99.7376,195.262 101.5,194.5 Z"/></g>
<g><path style="opacity:1" fill="#7a7a7a" d="M 879.5,194.5 C 881.262,195.262 882.262,196.596 882.5,198.5C 880.738,197.738 879.738,196.404 879.5,194.5 Z"/></g>
<g><path style="opacity:1" fill="#7a7a7a" d="M 882.5,198.5 C 884.262,199.262 885.262,200.596 885.5,202.5C 883.738,201.738 882.738,200.404 882.5,198.5 Z"/></g>
<g><path style="opacity:1" fill="#848484" d="M 95.5,202.5 C 95.573,204.027 94.9063,205.027 93.5,205.5C 93.427,203.973 94.0937,202.973 95.5,202.5 Z"/></g>
<g><path style="opacity:1" fill="#7f7f7f" d="M 885.5,202.5 C 886.906,202.973 887.573,203.973 887.5,205.5C 886.094,205.027 885.427,204.027 885.5,202.5 Z"/></g>
<g><path style="opacity:1" fill="#858585" d="M 90.5,209.5 C 90.573,211.027 89.9063,212.027 88.5,212.5C 88.427,210.973 89.0937,209.973 90.5,209.5 Z"/></g>
<g><path style="opacity:1" fill="#7d7d7d" d="M 890.5,209.5 C 891.906,209.973 892.573,210.973 892.5,212.5C 891.094,212.027 890.427,211.027 890.5,209.5 Z"/></g>
<g><path style="opacity:1" fill="#777777" d="M 86.5,215.5 C 86.2624,217.404 85.2624,218.738 83.5,219.5C 83.7376,217.596 84.7376,216.262 86.5,215.5 Z"/></g>
<g><path style="opacity:1" fill="#a3a3a3" d="M 897.5,219.5 C 898.906,219.973 899.573,220.973 899.5,222.5C 898.094,222.027 897.427,221.027 897.5,219.5 Z"/></g>
<g><path style="opacity:1" fill="#919191" d="M 76.5,230.5 C 76.573,232.027 75.9063,233.027 74.5,233.5C 74.427,231.973 75.0937,230.973 76.5,230.5 Z"/></g>
<g><path style="opacity:1" fill="#919191" d="M 904.5,230.5 C 905.906,230.973 906.573,231.973 906.5,233.5C 905.094,233.027 904.427,232.027 904.5,230.5 Z"/></g>
<g><path style="opacity:1" fill="#a0a0a0" d="M 71.5,238.5 C 71.573,240.027 70.9063,241.027 69.5,241.5C 69.427,239.973 70.0937,238.973 71.5,238.5 Z"/></g>
<g><path style="opacity:1" fill="#9f9f9f" d="M 909.5,238.5 C 910.906,238.973 911.573,239.973 911.5,241.5C 910.094,241.027 909.427,240.027 909.5,238.5 Z"/></g>
<g><path style="opacity:1" fill="#000000" d="M 350.5,543.5 C 350.167,457.332 350.501,371.332 351.5,285.5C 389.09,319.491 431.757,327.325 479.5,309C 508.859,296.488 537.859,283.155 566.5,269C 586.175,259.581 606.842,253.581 628.5,251C 662.194,250.56 691.028,262.06 715,285.5C 715.167,327.167 715.333,368.833 715.5,410.5C 715.651,454.198 715.151,497.865 714,541.5C 701.388,531.106 687.554,522.606 672.5,516C 646.172,507.355 619.839,507.355 593.5,516C 559.93,530.451 526.596,545.451 493.5,561C 467.503,573.399 440.17,578.066 411.5,575C 400.665,572.749 390.332,569.083 380.5,564C 370.298,557.404 360.298,550.571 350.5,543.5 Z"/></g>
<g><path style="opacity:1" fill="#a0a0a1" d="M 64.5,250.5 C 64.573,252.027 63.9063,253.027 62.5,253.5C 62.427,251.973 63.0937,250.973 64.5,250.5 Z"/></g>
<g><path style="opacity:1" fill="#a3a4a4" d="M 916.5,250.5 C 917.906,250.973 918.573,251.973 918.5,253.5C 917.094,253.027 916.427,252.027 916.5,250.5 Z"/></g>
<g><path style="opacity:1" fill="#020202" d="M 296.5,276.5 C 308.744,275.578 315.244,281.244 316,293.5C 316.333,300.5 316.667,307.5 317,314.5C 317.778,450.836 317.445,587.169 316,723.5C 317.751,740.088 310.585,746.921 294.5,744C 291.898,743.117 289.731,741.617 288,739.5C 286.765,731.577 286.098,723.577 286,715.5C 284.822,583.835 284.488,452.168 285,320.5C 285.174,309.13 285.841,297.797 287,286.5C 289.022,281.98 292.189,278.647 296.5,276.5 Z"/></g>
<g><path style="opacity:1" fill="#bbbbbb" d="M 351.5,285.5 C 350.501,371.332 350.167,457.332 350.5,543.5C 349.168,457.332 349.168,370.999 350.5,284.5C 351.107,284.624 351.44,284.957 351.5,285.5 Z"/></g>
<g><path style="opacity:1" fill="#6f6f6f" d="M 21.5,349.5 C 21.5905,352.152 20.9238,354.485 19.5,356.5C 19.4095,353.848 20.0762,351.515 21.5,349.5 Z"/></g>
<g><path style="opacity:1" fill="#676767" d="M 19.5,356.5 C 19.5905,359.152 18.9238,361.485 17.5,363.5C 17.4095,360.848 18.0762,358.515 19.5,356.5 Z"/></g>
<g><path style="opacity:1" fill="#767676" d="M 961.5,356.5 C 962.924,358.515 963.59,360.848 963.5,363.5C 962.076,361.485 961.41,359.152 961.5,356.5 Z"/></g>
<g><path style="opacity:1" fill="#797979" d="M 16.5,367.5 C 16.5905,370.152 15.9238,372.485 14.5,374.5C 14.4095,371.848 15.0762,369.515 16.5,367.5 Z"/></g>
<g><path style="opacity:1" fill="#7e7e7e" d="M 67.5,735.5 C 69.0481,735.821 69.7148,736.821 69.5,738.5C 68.5987,737.71 67.9321,736.71 67.5,735.5 Z"/></g>
<g><path style="opacity:1" fill="#999999" d="M 164.5,853.5 C 166.749,854.08 168.415,855.413 169.5,857.5C 167.251,856.92 165.585,855.587 164.5,853.5 Z"/></g>
<g><path style="opacity:1" fill="#959595" d="M 173.5,861.5 C 175.404,861.738 176.738,862.738 177.5,864.5C 175.596,864.262 174.262,863.262 173.5,861.5 Z"/></g>
<g><path style="opacity:1" fill="#969696" d="M 180.5,867.5 C 182.027,867.427 183.027,868.094 183.5,869.5C 181.973,869.573 180.973,868.906 180.5,867.5 Z"/></g>
<g><path style="opacity:1" fill="#7b7b7b" d="M 184.5,870.5 C 186.404,870.738 187.738,871.738 188.5,873.5C 186.596,873.262 185.262,872.262 184.5,870.5 Z"/></g>
<g><path style="opacity:1" fill="#787878" d="M 193.5,877.5 C 195.404,877.738 196.738,878.738 197.5,880.5C 195.596,880.262 194.262,879.262 193.5,877.5 Z"/></g>
<g><path style="opacity:1" fill="#767676" d="M 197.5,880.5 C 199.404,880.738 200.738,881.738 201.5,883.5C 199.596,883.262 198.262,882.262 197.5,880.5 Z"/></g>
<g><path style="opacity:1" fill="#797979" d="M 201.5,883.5 C 203.027,883.427 204.027,884.094 204.5,885.5C 202.973,885.573 201.973,884.906 201.5,883.5 Z"/></g>
<g><path style="opacity:1" fill="#797979" d="M 208.5,888.5 C 210.027,888.427 211.027,889.094 211.5,890.5C 209.973,890.573 208.973,889.906 208.5,888.5 Z"/></g>
<g><path style="opacity:1" fill="#a1a1a1" d="M 215.5,893.5 C 217.027,893.427 218.027,894.094 218.5,895.5C 216.973,895.573 215.973,894.906 215.5,893.5 Z"/></g>
<g><path style="opacity:1" fill="#9e9e9e" d="M 218.5,895.5 C 220.027,895.427 221.027,896.094 221.5,897.5C 219.973,897.573 218.973,896.906 218.5,895.5 Z"/></g>
<g><path style="opacity:1" fill="#a0a0a0" d="M 221.5,897.5 C 223.027,897.427 224.027,898.094 224.5,899.5C 222.973,899.573 221.973,898.906 221.5,897.5 Z"/></g>
<g><path style="opacity:1" fill="#9e9e9e" d="M 240.5,909.5 C 242.027,909.427 243.027,910.094 243.5,911.5C 241.973,911.573 240.973,910.906 240.5,909.5 Z"/></g>
<g><path style="opacity:1" fill="#656565" d="M 360.5,961.5 C 363.152,961.41 365.485,962.076 367.5,963.5C 364.848,963.59 362.515,962.924 360.5,961.5 Z"/></g>
</svg>
