<?xml version="1.0" encoding="UTF-8"?>
<!DOCTYPE svg PUBLIC "-//W3C//DTD SVG 1.1//EN" "http://www.w3.org/Graphics/SVG/1.1/DTD/svg11.dtd">
<svg xmlns="http://www.w3.org/2000/svg" version="1.1" width="459px" height="459px" style="shape-rendering:geometricPrecision; text-rendering:geometricPrecision; image-rendering:optimizeQuality; fill-rule:evenodd; clip-rule:evenodd" xmlns:xlink="http://www.w3.org/1999/xlink">
<g><path style="opacity:1" fill="#c2c2c3" d="M 204.5,4.5 C 207.287,3.52333 210.287,3.19 213.5,3.5C 218.456,4.82824 223.789,5.49491 229.5,5.5C 234.833,5.33333 240.167,5.16667 245.5,5C 244.944,4.61742 244.611,4.11742 244.5,3.5C 252.757,3.53204 260.757,4.53204 268.5,6.5C 264.475,6.18385 260.475,6.01719 256.5,6C 262.327,7.86003 268.327,8.86003 274.5,9C 273.944,8.61742 273.611,8.11742 273.5,7.5C 275.415,7.21552 277.081,7.54885 278.5,8.5C 277.325,8.28099 276.325,8.61432 275.5,9.5C 278.088,10.7183 280.755,11.2183 283.5,11C 282.619,10.2917 281.953,9.45837 281.5,8.5C 283.403,8.79586 285.07,9.46253 286.5,10.5C 288.099,10.2322 289.432,10.5655 290.5,11.5C 287.917,12.0915 287.917,12.7582 290.5,13.5C 297.312,15.4372 303.978,17.7705 310.5,20.5C 311.298,20.0431 311.631,19.3764 311.5,18.5C 312.791,18.2627 313.791,18.596 314.5,19.5C 312.295,19.8459 312.128,20.5126 314,21.5C 315.726,23.0978 316.559,22.7645 316.5,20.5C 317.492,20.3284 318.158,20.6618 318.5,21.5C 317.957,21.56 317.624,21.8933 317.5,22.5C 319.262,24.8075 320.595,24.8075 321.5,22.5C 322.492,22.3284 323.158,22.6618 323.5,23.5C 322.227,24.0768 322.227,24.7435 323.5,25.5C 331.102,28.8805 338.269,32.8805 345,37.5C 345.483,36.552 345.649,35.552 345.5,34.5C 346.5,34.8333 347.167,35.5 347.5,36.5C 346.227,37.0768 346.227,37.7435 347.5,38.5C 353.106,41.5525 358.273,45.2192 363,49.5C 363.483,48.552 363.649,47.552 363.5,46.5C 364.5,46.8333 365.167,47.5 365.5,48.5C 364.226,49.1894 364.226,50.0228 365.5,51C 370.356,53.2601 374.689,56.2601 378.5,60C 381.865,63.8456 385.365,67.6789 389,71.5C 389.464,70.9056 389.631,70.2389 389.5,69.5C 390.5,69.8333 391.167,70.5 391.5,71.5C 391.062,71.4346 390.728,71.6012 390.5,72C 392.67,75.5089 395.17,78.0089 398,79.5C 399.944,83.1099 402.277,86.4432 405,89.5C 405.977,90.7736 406.811,90.7736 407.5,89.5C 409.262,90.2623 410.262,91.5956 410.5,93.5C 409.542,93.0472 408.708,92.3805 408,91.5C 407.333,92.1667 407.333,92.8333 408,93.5C 411.287,97.0109 413.787,100.511 415.5,104C 416.328,104.915 417.328,105.581 418.5,106C 417.396,107.131 417.729,107.965 419.5,108.5C 420.107,108.376 420.44,108.043 420.5,107.5C 423,110.494 425,113.827 426.5,117.5C 425.761,117.369 425.094,117.536 424.5,118C 426.457,122.083 428.79,125.917 431.5,129.5C 432.107,129.376 432.44,129.043 432.5,128.5C 433.338,128.842 433.672,129.508 433.5,130.5C 432.624,130.369 431.957,130.702 431.5,131.5C 433.021,134.718 434.688,137.218 436.5,139C 436.167,139.333 435.833,139.667 435.5,140C 436.437,140.692 437.103,140.525 437.5,139.5C 438.338,139.842 438.672,140.508 438.5,141.5C 437.761,141.369 437.094,141.536 436.5,142C 437.873,145.95 439.54,149.783 441.5,153.5C 442.298,153.043 442.631,152.376 442.5,151.5C 443.404,152.209 443.737,153.209 443.5,154.5C 442.761,154.369 442.094,154.536 441.5,155C 442.095,158.084 443.428,160.751 445.5,163C 444.289,163.893 444.289,164.726 445.5,165.5C 446.298,165.043 446.631,164.376 446.5,163.5C 447.434,164.568 447.768,165.901 447.5,167.5C 446.35,166.15 445.683,166.316 445.5,168C 445.905,168.945 446.572,169.612 447.5,170C 447.167,170.333 446.833,170.667 446.5,171C 447.103,172.825 447.77,174.659 448.5,176.5C 449.298,176.043 449.631,175.376 449.5,174.5C 450.404,175.209 450.737,176.209 450.5,177.5C 449.503,177.47 448.836,177.97 448.5,179C 449.638,183.136 450.638,187.302 451.5,191.5C 452.386,190.675 452.719,189.675 452.5,188.5C 453.434,189.568 453.768,190.901 453.5,192.5C 451.024,194.609 451.024,196.943 453.5,199.5C 452.861,200.097 452.528,200.93 452.5,202C 453.049,207.51 453.715,213.01 454.5,218.5C 455.484,215.572 455.817,212.572 455.5,209.5C 456.833,223.167 456.833,236.833 455.5,250.5C 455.813,247.753 455.48,245.086 454.5,242.5C 453.341,246.122 453.175,249.789 454,253.5C 454.278,252.584 454.778,251.918 455.5,251.5C 455.698,256.75 455.031,261.75 453.5,266.5C 453.909,262.736 453.909,259.07 453.5,255.5C 452.424,262.545 451.091,269.545 449.5,276.5C 449.747,277.713 450.414,278.38 451.5,278.5C 451.737,279.791 451.404,280.791 450.5,281.5C 450.607,279.621 450.107,279.288 449,280.5C 448.654,282.218 448.154,283.885 447.5,285.5C 447.97,286.463 448.637,286.463 449.5,285.5C 449.768,287.099 449.434,288.432 448.5,289.5C 448.607,287.621 448.107,287.288 447,288.5C 445.682,291.43 445.015,294.43 445,297.5C 445.383,296.944 445.883,296.611 446.5,296.5C 446.737,297.791 446.404,298.791 445.5,299.5C 445.44,298.957 445.107,298.624 444.5,298.5C 443.651,300.894 442.651,303.227 441.5,305.5C 441.97,306.463 442.637,306.463 443.5,305.5C 443.737,306.791 443.404,307.791 442.5,308.5C 441.698,307.115 441.031,307.282 440.5,309C 435.732,322.895 429.066,336.229 420.5,349C 421.094,349.464 421.761,349.631 422.5,349.5C 422.672,350.492 422.338,351.158 421.5,351.5C 420.811,350.226 419.977,350.226 419,351.5C 405.566,373.553 389.066,392.053 369.5,407C 370.094,407.464 370.761,407.631 371.5,407.5C 370.833,408.833 369.833,409.833 368.5,410.5C 368.631,409.624 368.298,408.957 367.5,408.5C 366.5,409.5 365.5,410.5 364.5,411.5C 364.624,412.107 364.957,412.44 365.5,412.5C 365.158,413.338 364.492,413.672 363.5,413.5C 363.631,412.761 363.464,412.094 363,411.5C 357.3,415.607 351.467,419.607 345.5,423.5C 344.227,424.257 344.227,424.923 345.5,425.5C 345.158,426.338 344.492,426.672 343.5,426.5C 343.279,423.903 342.779,423.903 342,426.5C 341.667,426.167 341.333,425.833 341,425.5C 339.926,426.618 338.76,427.618 337.5,428.5C 337.624,429.107 337.957,429.44 338.5,429.5C 336.819,431.008 334.819,432.008 332.5,432.5C 332.631,431.761 332.464,431.094 332,430.5C 330.566,432.136 328.733,433.136 326.5,433.5C 325.227,434.257 325.227,434.923 326.5,435.5C 326.158,436.338 325.492,436.672 324.5,436.5C 324.631,435.761 324.464,435.094 324,434.5C 319.757,436.372 315.59,438.372 311.5,440.5C 311.957,441.298 312.624,441.631 313.5,441.5C 312.791,442.404 311.791,442.737 310.5,442.5C 310.631,441.761 310.464,441.094 310,440.5C 299.332,444.273 288.832,447.607 278.5,450.5C 278.957,451.298 279.624,451.631 280.5,451.5C 279.432,452.434 278.099,452.768 276.5,452.5C 278.054,451.105 277.721,450.439 275.5,450.5C 272.641,450.899 269.974,451.733 267.5,453C 268.793,453.49 270.127,453.657 271.5,453.5C 268.054,454.687 264.387,455.354 260.5,455.5C 262.389,454.678 264.389,453.845 266.5,453C 261.648,452.689 256.981,453.356 252.5,455C 254.473,455.495 256.473,455.662 258.5,455.5C 255.713,456.477 252.713,456.81 249.5,456.5C 236.5,457.833 223.5,457.833 210.5,456.5C 219.839,456.666 229.173,456.5 238.5,456C 227.837,455.148 217.17,454.815 206.5,455C 207.416,455.278 208.082,455.778 208.5,456.5C 205.615,456.806 202.948,456.473 200.5,455.5C 202.199,455.66 203.866,455.494 205.5,455C 196.773,453.054 187.939,451.221 179,449.5C 178.228,449.645 177.561,449.978 177,450.5C 173.242,448.498 168.909,446.831 164,445.5C 162.97,445.836 162.47,446.503 162.5,447.5C 161.508,447.672 160.842,447.338 160.5,446.5C 161.885,445.698 161.718,445.031 160,444.5C 153.639,442.658 147.472,440.324 141.5,437.5C 140.702,437.957 140.369,438.624 140.5,439.5C 139.508,439.672 138.842,439.338 138.5,438.5C 139.773,437.923 139.773,437.257 138.5,436.5C 134.162,434.424 130.329,432.424 127,430.5C 126.536,431.094 126.369,431.761 126.5,432.5C 125.508,432.672 124.842,432.338 124.5,431.5C 125.773,430.923 125.773,430.257 124.5,429.5C 122.082,428.543 119.916,427.209 118,425.5C 109.976,421.709 101.976,416.376 94,409.5C 93.6667,409.833 93.3333,410.167 93,410.5C 86.5048,405.004 80.3381,399.171 74.5,393C 71.6884,391.023 69.0217,388.856 66.5,386.5C 65.8933,386.624 65.56,386.957 65.5,387.5C 64.5,387.167 63.8333,386.5 63.5,385.5C 64.2389,385.631 64.9056,385.464 65.5,385C 59.8157,378.497 54.1491,371.997 48.5,365.5C 47.8933,365.624 47.56,365.957 47.5,366.5C 46.5116,365.205 45.5116,363.872 44.5,362.5C 45.552,362.649 46.552,362.483 47.5,362C 41.8815,355.04 37.0481,347.54 33,339.5C 32.0228,338.226 31.1894,338.226 30.5,339.5C 29.3263,338.486 28.6596,337.153 28.5,335.5C 31.0972,335.279 31.0972,334.779 28.5,334C 28.5,333 28.5,332 28.5,331C 27.5632,330.308 26.8966,330.475 26.5,331.5C 25.6618,331.158 25.3284,330.492 25.5,329.5C 26.2389,329.631 26.9056,329.464 27.5,329C 25.3682,325.236 23.3682,321.403 21.5,317.5C 20.8933,317.624 20.56,317.957 20.5,318.5C 19.6618,318.158 19.3284,317.492 19.5,316.5C 20.3764,316.631 21.0431,316.298 21.5,315.5C 13.3117,295.932 7.97833,275.598 5.5,254.5C 4.54811,256.045 4.21478,257.712 4.5,259.5C 2.95841,250.051 2.29174,240.384 2.5,230.5C 2.50035,223.325 2.83368,216.325 3.5,209.5C 3.16315,213.308 3.66315,216.974 5,220.5C 5.30127,214.48 5.80127,208.48 6.5,202.5C 6.59723,200.717 6.2639,200.05 5.5,200.5C 4.92037,203.311 4.25371,205.977 3.5,208.5C 3.44435,203.269 4.11101,198.269 5.5,193.5C 5.34332,194.873 5.50999,196.207 6,197.5C 7.93954,194.15 8.43954,190.65 7.5,187C 9.23293,184.699 10.2329,182.032 10.5,179C 10.4301,178.235 10.0967,177.735 9.5,177.5C 10.579,175.585 11.579,173.585 12.5,171.5C 12.1373,170.817 11.8039,170.15 11.5,169.5C 12.4972,169.53 13.1639,169.03 13.5,168C 15.9098,159.103 18.9098,150.436 22.5,142C 21.9056,141.536 21.2389,141.369 20.5,141.5C 20.3284,140.508 20.6618,139.842 21.5,139.5C 22.3023,140.885 22.9689,140.718 23.5,139C 25.9792,133.892 28.6458,128.892 31.5,124C 33.6571,118.681 36.6571,113.347 40.5,108C 39.9056,107.536 39.2389,107.369 38.5,107.5C 38.427,105.973 39.0937,104.973 40.5,104.5C 40.7748,106.842 41.6081,106.842 43,104.5C 44.0314,101.461 45.8647,98.9605 48.5,97C 48.1667,96.6667 47.8333,96.3333 47.5,96C 50.2807,94.0968 52.614,91.7634 54.5,89C 54.1667,88.6667 53.8333,88.3333 53.5,88C 55.4552,87.0467 57.1218,85.7134 58.5,84C 57.9056,83.5357 57.2389,83.369 56.5,83.5C 57.4431,80.8908 59.1097,78.8908 61.5,77.5C 61.369,78.2389 61.5357,78.9056 62,79.5C 64.973,76.527 67.973,73.527 71,70.5C 71.6917,69.5632 71.525,68.8966 70.5,68.5C 70.5,66.5 71.5,65.5 73.5,65.5C 72.0313,67.1053 72.3646,67.6053 74.5,67C 78.0152,63.3176 81.6819,59.8176 85.5,56.5C 85.3764,55.8933 85.0431,55.56 84.5,55.5C 85.2623,53.7376 86.5956,52.7376 88.5,52.5C 88.0472,53.4584 87.3805,54.2917 86.5,55C 87.1667,55.6667 87.8333,55.6667 88.5,55C 94.7605,49.5281 101.427,44.5281 108.5,40C 107.906,39.5357 107.239,39.369 106.5,39.5C 106.973,38.0937 107.973,37.427 109.5,37.5C 109.369,38.2389 109.536,38.9056 110,39.5C 111.419,38.5399 112.919,37.7065 114.5,37C 115.774,36.0228 115.774,35.1894 114.5,34.5C 114.973,33.0937 115.973,32.427 117.5,32.5C 116.386,34.3531 117.052,34.8531 119.5,34C 123.865,31.4862 128.199,28.9862 132.5,26.5C 132.376,25.8933 132.043,25.56 131.5,25.5C 131.842,24.6618 132.508,24.3284 133.5,24.5C 133.369,25.2389 133.536,25.9056 134,26.5C 136.51,25.8913 138.51,24.558 140,22.5C 140.333,22.8333 140.667,23.1667 141,23.5C 142.78,22.4063 144.614,21.4063 146.5,20.5C 146.043,19.7025 145.376,19.3691 144.5,19.5C 145.209,18.596 146.209,18.2627 147.5,18.5C 148.095,21.1125 148.929,21.1125 150,18.5C 150.333,18.8333 150.667,19.1667 151,19.5C 153.698,18.7202 156.031,17.3869 158,15.5C 159.587,16.727 160.921,16.3937 162,14.5C 162.333,14.8333 162.667,15.1667 163,15.5C 174.071,12.5296 184.905,9.52955 195.5,6.5C 195.833,6.5 196.167,6.5 196.5,6.5C 197.097,7.13863 197.93,7.47196 199,7.5C 202.812,6.85413 206.646,6.35413 210.5,6C 210.833,5.66667 211.167,5.33333 211.5,5C 209.19,4.50335 206.857,4.33669 204.5,4.5 Z"/></g>
<g><path style="opacity:1" fill="#96bfd8" d="M 244.5,3.5 C 244.611,4.11742 244.944,4.61742 245.5,5C 240.167,5.16667 234.833,5.33333 229.5,5.5C 223.789,5.49491 218.456,4.82824 213.5,3.5C 223.833,2.16667 234.167,2.16667 244.5,3.5 Z"/></g>
<g><path style="opacity:1" fill="#a5bcc9" d="M 204.5,4.5 C 201.997,5.37051 199.33,6.03718 196.5,6.5C 196.167,6.5 195.833,6.5 195.5,6.5C 192.236,7.32423 188.902,7.65757 185.5,7.5C 191.556,5.54729 197.889,4.54729 204.5,4.5 Z"/></g>
<g><path style="opacity:1" fill="#79b3d4" d="M 204.5,4.5 C 206.857,4.33669 209.19,4.50335 211.5,5C 211.167,5.33333 210.833,5.66667 210.5,6C 206.646,6.35413 202.812,6.85413 199,7.5C 197.93,7.47196 197.097,7.13863 196.5,6.5C 199.33,6.03718 201.997,5.37051 204.5,4.5 Z"/></g>
<g><path style="opacity:1" fill="#79b4d4" d="M 246.5,5.5 C 249.44,4.17008 252.44,4.33675 255.5,6C 252.445,6.63419 249.445,6.46752 246.5,5.5 Z"/></g>
<g><path style="opacity:1" fill="#82b5d2" d="M 268.5,6.5 C 270.415,6.21552 272.081,6.54885 273.5,7.5C 273.611,8.11742 273.944,8.61742 274.5,9C 268.327,8.86003 262.327,7.86003 256.5,6C 260.475,6.01719 264.475,6.18385 268.5,6.5 Z"/></g>
<g><path style="opacity:1" fill="#81b3d0" d="M 278.5,8.5 C 279.5,8.5 280.5,8.5 281.5,8.5C 281.953,9.45837 282.619,10.2917 283.5,11C 280.755,11.2183 278.088,10.7183 275.5,9.5C 276.325,8.61432 277.325,8.28099 278.5,8.5 Z"/></g>
<g><path style="opacity:1" fill="#8cb7cf" d="M 195.5,6.5 C 184.905,9.52955 174.071,12.5296 163,15.5C 162.667,15.1667 162.333,14.8333 162,14.5C 160.921,16.3937 159.587,16.727 158,15.5C 156.031,17.3869 153.698,18.7202 151,19.5C 150.667,19.1667 150.333,18.8333 150,18.5C 148.929,21.1125 148.095,21.1125 147.5,18.5C 159.535,12.9877 172.202,9.32101 185.5,7.5C 188.902,7.65757 192.236,7.32423 195.5,6.5 Z"/></g>
<g><path style="opacity:1" fill="#79b3d4" d="M 286.5,10.5 C 287.475,12.5401 286.808,12.8734 284.5,11.5C 284.957,10.7025 285.624,10.3691 286.5,10.5 Z"/></g>
<g><path style="opacity:1" fill="#91b8d0" d="M 290.5,11.5 C 297.915,12.8604 304.915,15.1937 311.5,18.5C 311.631,19.3764 311.298,20.0431 310.5,20.5C 303.978,17.7705 297.312,15.4372 290.5,13.5C 287.917,12.7582 287.917,12.0915 290.5,11.5 Z"/></g>
<g><path style="opacity:1" fill="#8ab7d0" d="M 314.5,19.5 C 315.492,19.3284 316.158,19.6618 316.5,20.5C 316.559,22.7645 315.726,23.0978 314,21.5C 312.128,20.5126 312.295,19.8459 314.5,19.5 Z"/></g>
<g><path style="opacity:1" fill="#8eb7d0" d="M 144.5,19.5 C 145.376,19.3691 146.043,19.7025 146.5,20.5C 144.614,21.4063 142.78,22.4063 141,23.5C 140.667,23.1667 140.333,22.8333 140,22.5C 138.51,24.558 136.51,25.8913 134,26.5C 133.536,25.9056 133.369,25.2389 133.5,24.5C 136.74,22.049 140.407,20.3824 144.5,19.5 Z"/></g>
<g><path style="opacity:1" fill="#85b6d2" d="M 318.5,21.5 C 319.791,21.2627 320.791,21.596 321.5,22.5C 320.595,24.8075 319.262,24.8075 317.5,22.5C 317.624,21.8933 317.957,21.56 318.5,21.5 Z"/></g>
<g><path style="opacity:1" fill="#c4cacf" d="M 328.5,25.5 C 330.027,25.427 331.027,26.0937 331.5,27.5C 329.973,27.573 328.973,26.9063 328.5,25.5 Z"/></g>
<g><path style="opacity:1" fill="#8fb8cf" d="M 323.5,23.5 C 325.284,23.8925 326.95,24.5592 328.5,25.5C 328.973,26.9063 329.973,27.573 331.5,27.5C 336.45,29.3084 341.117,31.6417 345.5,34.5C 345.649,35.552 345.483,36.552 345,37.5C 338.269,32.8805 331.102,28.8805 323.5,25.5C 322.227,24.7435 322.227,24.0768 323.5,23.5 Z"/></g>
<g><path style="opacity:1" fill="#87b5d0" d="M 131.5,25.5 C 132.043,25.56 132.376,25.8933 132.5,26.5C 128.199,28.9862 123.865,31.4862 119.5,34C 117.052,34.8531 116.386,34.3531 117.5,32.5C 121.88,29.6433 126.547,27.3099 131.5,25.5 Z"/></g>
<g><path style="opacity:1" fill="#89b6d0" d="M 114.5,34.5 C 115.774,35.1894 115.774,36.0228 114.5,37C 112.919,37.7065 111.419,38.5399 110,39.5C 109.536,38.9056 109.369,38.2389 109.5,37.5C 110.659,35.7497 112.326,34.7497 114.5,34.5 Z"/></g>
<g><path style="opacity:1" fill="#92b8cf" d="M 347.5,36.5 C 353.142,39.3218 358.475,42.6552 363.5,46.5C 363.649,47.552 363.483,48.552 363,49.5C 358.273,45.2192 353.106,41.5525 347.5,38.5C 346.227,37.7435 346.227,37.0768 347.5,36.5 Z"/></g>
<g><path style="opacity:1" fill="#8db6ce" d="M 106.5,39.5 C 107.239,39.369 107.906,39.5357 108.5,40C 101.427,44.5281 94.7605,49.5281 88.5,55C 87.8333,55.6667 87.1667,55.6667 86.5,55C 87.3805,54.2917 88.0472,53.4584 88.5,52.5C 93.7846,47.1896 99.7846,42.8563 106.5,39.5 Z"/></g>
<g><path style="opacity:1" fill="#94b8ce" d="M 84.5,55.5 C 85.0431,55.56 85.3764,55.8933 85.5,56.5C 81.6819,59.8176 78.0152,63.3176 74.5,67C 72.3646,67.6053 72.0313,67.1053 73.5,65.5C 76.5425,61.4564 80.2092,58.1231 84.5,55.5 Z"/></g>
<g><path style="opacity:1" fill="#94b8cd" d="M 365.5,48.5 C 374.633,54.0878 382.633,61.0878 389.5,69.5C 389.631,70.2389 389.464,70.9056 389,71.5C 385.365,67.6789 381.865,63.8456 378.5,60C 374.689,56.2601 370.356,53.2601 365.5,51C 364.226,50.0228 364.226,49.1894 365.5,48.5 Z"/></g>
<g><path style="opacity:1" fill="#92b9cf" d="M 70.5,68.5 C 71.525,68.8966 71.6917,69.5632 71,70.5C 67.973,73.527 64.973,76.527 62,79.5C 61.5357,78.9056 61.369,78.2389 61.5,77.5C 63.8422,73.7902 66.8422,70.7902 70.5,68.5 Z"/></g>
<g><path style="opacity:1" fill="#91b8cf" d="M 391.5,71.5 C 397.941,76.6023 403.274,82.6023 407.5,89.5C 406.811,90.7736 405.977,90.7736 405,89.5C 402.277,86.4432 399.944,83.1099 398,79.5C 395.17,78.0089 392.67,75.5089 390.5,72C 390.728,71.6012 391.062,71.4346 391.5,71.5 Z"/></g>
<g><path style="opacity:1" fill="#98b9cd" d="M 56.5,83.5 C 57.2389,83.369 57.9056,83.5357 58.5,84C 57.1218,85.7134 55.4552,87.0467 53.5,88C 53.8333,88.3333 54.1667,88.6667 54.5,89C 52.614,91.7634 50.2807,94.0968 47.5,96C 47.8333,96.3333 48.1667,96.6667 48.5,97C 45.8647,98.9605 44.0314,101.461 43,104.5C 41.6081,106.842 40.7748,106.842 40.5,104.5C 43.8181,98.5451 47.6514,92.8784 52,87.5C 53.3712,85.9586 54.8712,84.6253 56.5,83.5 Z"/></g>
<g><path style="opacity:1" fill="#7eabc9" d="M 276.5,93.5 C 276.5,93.8333 276.5,94.1667 276.5,94.5C 274.435,94.5172 272.435,94.8505 270.5,95.5C 271.903,93.0324 273.903,92.3657 276.5,93.5 Z"/></g>
<g><path style="opacity:1" fill="#c65c5c" d="M 276.5,94.5 C 282.275,93.7745 287.608,94.9412 292.5,98C 312.093,114.381 331.593,130.881 351,147.5C 357,156.5 357,165.5 351,174.5C 348.015,177.162 345.515,180.162 343.5,183.5C 342.833,183.5 342.5,183.833 342.5,184.5C 337.735,190.354 332.735,196.021 327.5,201.5C 320.167,195.5 312.833,189.5 305.5,183.5C 291.54,171.51 277.54,159.51 263.5,147.5C 256.023,141.261 248.357,135.261 240.5,129.5C 250.186,117.819 260.186,106.486 270.5,95.5C 272.435,94.8505 274.435,94.5172 276.5,94.5 Z"/></g>
<g><path style="opacity:1" fill="#93b7cc" d="M 410.5,93.5 C 414.321,97.806 417.655,102.473 420.5,107.5C 420.44,108.043 420.107,108.376 419.5,108.5C 417.729,107.965 417.396,107.131 418.5,106C 417.328,105.581 416.328,104.915 415.5,104C 413.787,100.511 411.287,97.0109 408,93.5C 407.333,92.8333 407.333,92.1667 408,91.5C 408.708,92.3805 409.542,93.0472 410.5,93.5 Z"/></g>
<g><path style="opacity:1" fill="#90b7ce" d="M 426.5,117.5 C 429.258,120.678 431.258,124.345 432.5,128.5C 432.44,129.043 432.107,129.376 431.5,129.5C 428.79,125.917 426.457,122.083 424.5,118C 425.094,117.536 425.761,117.369 426.5,117.5 Z"/></g>
<g><path style="opacity:1" fill="#91b8d0" d="M 38.5,107.5 C 39.2389,107.369 39.9056,107.536 40.5,108C 36.6571,113.347 33.6571,118.681 31.5,124C 28.6458,128.892 25.9792,133.892 23.5,139C 22.9689,140.718 22.3023,140.885 21.5,139.5C 25.6226,127.917 31.2892,117.25 38.5,107.5 Z"/></g>
<g><path style="opacity:1" fill="#df995e" d="M 240.5,129.5 C 248.357,135.261 256.023,141.261 263.5,147.5C 228.796,186.211 195.129,225.877 162.5,266.5C 155.48,266.502 148.48,266.835 141.5,267.5C 138.455,264.453 135.122,261.787 131.5,259.5C 131.5,259.167 131.5,258.833 131.5,258.5C 142.071,246.352 152.405,234.018 162.5,221.5C 163.167,221.5 163.5,221.167 163.5,220.5C 189.414,190.312 215.081,159.979 240.5,129.5 Z"/></g>
<g><path style="opacity:1" fill="#83a8c5" d="M 343.5,183.5 C 345.515,180.162 348.015,177.162 351,174.5C 357,165.5 357,156.5 351,147.5C 331.593,130.881 312.093,114.381 292.5,98C 287.608,94.9412 282.275,93.7745 276.5,94.5C 276.5,94.1667 276.5,93.8333 276.5,93.5C 277.312,92.0069 278.645,91.3402 280.5,91.5C 285.205,91.9262 289.538,93.4262 293.5,96C 312.353,112.354 331.353,128.521 350.5,144.5C 356.547,150.867 358.714,158.201 357,166.5C 354.384,173.768 349.884,179.435 343.5,183.5 Z"/></g>
<g><path style="opacity:1" fill="#95b9cf" d="M 433.5,130.5 C 435.625,133.088 436.958,136.088 437.5,139.5C 437.103,140.525 436.437,140.692 435.5,140C 435.833,139.667 436.167,139.333 436.5,139C 434.688,137.218 433.021,134.718 431.5,131.5C 431.957,130.702 432.624,130.369 433.5,130.5 Z"/></g>
<g><path style="opacity:1" fill="#8bb7d1" d="M 20.5,141.5 C 21.2389,141.369 21.9056,141.536 22.5,142C 18.9098,150.436 15.9098,159.103 13.5,168C 13.1639,169.03 12.4972,169.53 11.5,169.5C 12.9099,165.603 13.9099,161.603 14.5,157.5C 15.5361,151.715 17.5361,146.382 20.5,141.5 Z"/></g>
<g><path style="opacity:1" fill="#8ab6cf" d="M 438.5,141.5 C 440.4,144.518 441.733,147.851 442.5,151.5C 442.631,152.376 442.298,153.043 441.5,153.5C 439.54,149.783 437.873,145.95 436.5,142C 437.094,141.536 437.761,141.369 438.5,141.5 Z"/></g>
<g><path style="opacity:1" fill="#f4ce87" d="M 263.5,147.5 C 277.54,159.51 291.54,171.51 305.5,183.5C 271.79,223.208 238.457,263.208 205.5,303.5C 193.833,304.167 182.167,304.833 170.5,305.5C 168.833,305.5 167.167,305.5 165.5,305.5C 165.813,301.958 165.479,298.625 164.5,295.5C 163.635,287.184 162.968,278.851 162.5,270.5C 162.5,269.167 162.5,267.833 162.5,266.5C 195.129,225.877 228.796,186.211 263.5,147.5 Z"/></g>
<g><path style="opacity:1" fill="#8bb5ce" d="M 443.5,154.5 C 445.072,157.215 446.072,160.215 446.5,163.5C 446.631,164.376 446.298,165.043 445.5,165.5C 444.289,164.726 444.289,163.893 445.5,163C 443.428,160.751 442.095,158.084 441.5,155C 442.094,154.536 442.761,154.369 443.5,154.5 Z"/></g>
<g><path style="opacity:1" fill="#a2bccb" d="M 14.5,157.5 C 13.9099,161.603 12.9099,165.603 11.5,169.5C 11.8039,170.15 12.1373,170.817 12.5,171.5C 11.579,173.585 10.579,175.585 9.5,177.5C 9.5,178.167 9.16667,178.5 8.5,178.5C 9.4316,171.094 11.4316,164.094 14.5,157.5 Z"/></g>
<g><path style="opacity:1" fill="#81afc9" d="M 270.5,95.5 C 260.186,106.486 250.186,117.819 240.5,129.5C 215.081,159.979 189.414,190.312 163.5,220.5C 162.761,220.631 162.094,220.464 161.5,220C 196.042,179.793 230.209,139.293 264,98.5C 265.955,97.5467 267.622,96.2134 269,94.5C 269.383,95.056 269.883,95.3893 270.5,95.5 Z"/></g>
<g><path style="opacity:1" fill="#90b6cb" d="M 447.5,167.5 C 448.924,169.515 449.59,171.848 449.5,174.5C 449.631,175.376 449.298,176.043 448.5,176.5C 447.77,174.659 447.103,172.825 446.5,171C 446.833,170.667 447.167,170.333 447.5,170C 446.572,169.612 445.905,168.945 445.5,168C 445.683,166.316 446.35,166.15 447.5,167.5 Z"/></g>
<g><path style="opacity:1" fill="#8db5cd" d="M 450.5,177.5 C 451.675,181.042 452.341,184.709 452.5,188.5C 452.719,189.675 452.386,190.675 451.5,191.5C 450.638,187.302 449.638,183.136 448.5,179C 448.836,177.97 449.503,177.47 450.5,177.5 Z"/></g>
<g><path style="opacity:1" fill="#df995e" d="M 305.5,183.5 C 312.833,189.5 320.167,195.5 327.5,201.5C 302.5,231.5 277.5,261.5 252.5,291.5C 251.5,291.833 250.833,292.5 250.5,293.5C 240.864,304.643 231.364,315.976 222,327.5C 220.549,329.464 218.716,330.797 216.5,331.5C 213.761,328.616 210.761,325.949 207.5,323.5C 206.759,316.812 206.093,310.146 205.5,303.5C 238.457,263.208 271.79,223.208 305.5,183.5 Z"/></g>
<g><path style="opacity:1" fill="#83b5d2" d="M 9.5,177.5 C 10.0967,177.735 10.4301,178.235 10.5,179C 10.2329,182.032 9.23293,184.699 7.5,187C 8.43954,190.65 7.93954,194.15 6,197.5C 5.50999,196.207 5.34332,194.873 5.5,193.5C 5.6253,188.206 6.6253,183.206 8.5,178.5C 9.16667,178.5 9.5,178.167 9.5,177.5 Z"/></g>
<g><path style="opacity:1" fill="#99b7c8" d="M 453.5,192.5 C 454.817,197.737 455.483,203.07 455.5,208.5C 454.525,205.689 453.858,202.689 453.5,199.5C 451.024,196.943 451.024,194.609 453.5,192.5 Z"/></g>
<g><path style="opacity:1" fill="#79b3d4" d="M 3.5,209.5 C 3.5,209.167 3.5,208.833 3.5,208.5C 4.25371,205.977 4.92037,203.311 5.5,200.5C 6.2639,200.05 6.59723,200.717 6.5,202.5C 5.80127,208.48 5.30127,214.48 5,220.5C 3.66315,216.974 3.16315,213.308 3.5,209.5 Z"/></g>
<g><path style="opacity:1" fill="#78b3d4" d="M 453.5,199.5 C 453.858,202.689 454.525,205.689 455.5,208.5C 455.5,208.833 455.5,209.167 455.5,209.5C 455.817,212.572 455.484,215.572 454.5,218.5C 453.715,213.01 453.049,207.51 452.5,202C 452.528,200.93 452.861,200.097 453.5,199.5 Z"/></g>
<g><path style="opacity:1" fill="#7ab3d3" d="M 455.5,250.5 C 455.5,250.833 455.5,251.167 455.5,251.5C 454.778,251.918 454.278,252.584 454,253.5C 453.175,249.789 453.341,246.122 454.5,242.5C 455.48,245.086 455.813,247.753 455.5,250.5 Z"/></g>
<g><path style="opacity:1" fill="#79b3d4" d="M 3.5,240.5 C 4.28913,240.783 4.9558,241.283 5.5,242C 5.51706,245.633 5.3504,249.467 5,253.5C 3.71011,249.27 3.21011,244.936 3.5,240.5 Z"/></g>
<g><path style="opacity:1" fill="#82b0c9" d="M 342.5,184.5 C 343.239,184.369 343.906,184.536 344.5,185C 314,220.833 283.5,256.667 253,292.5C 252.601,292.272 252.435,291.938 252.5,291.5C 277.5,261.5 302.5,231.5 327.5,201.5C 332.735,196.021 337.735,190.354 342.5,184.5 Z"/></g>
<g><path style="opacity:1" fill="#80b0cb" d="M 162.5,221.5 C 152.405,234.018 142.071,246.352 131.5,258.5C 130.662,258.842 130.328,259.508 130.5,260.5C 130.167,260.5 129.833,260.5 129.5,260.5C 129.351,259.448 129.517,258.448 130,257.5C 138.71,247.792 147.043,237.792 155,227.5C 157.106,224.882 159.606,222.882 162.5,221.5 Z"/></g>
<g><path style="opacity:1" fill="#fdfdfd" d="M 131.5,259.5 C 135.122,261.787 138.455,264.453 141.5,267.5C 147.987,268.078 154.653,268.078 161.5,267.5C 161.263,268.791 161.596,269.791 162.5,270.5C 162.968,278.851 163.635,287.184 164.5,295.5C 164.5,299.167 164.5,302.833 164.5,306.5C 166.735,306.795 168.735,306.461 170.5,305.5C 182.167,304.833 193.833,304.167 205.5,303.5C 206.093,310.146 206.759,316.812 207.5,323.5C 210.761,325.949 213.761,328.616 216.5,331.5C 215.833,332.167 215.167,332.833 214.5,333.5C 202.913,336.227 191.579,339.56 180.5,343.5C 170.859,345.961 161.192,348.295 151.5,350.5C 142.726,342.606 133.726,334.94 124.5,327.5C 123.957,326.258 123.623,324.925 123.5,323.5C 124.607,316.538 125.274,309.538 125.5,302.5C 126.778,294.007 127.778,285.34 128.5,276.5C 128.5,276.167 128.5,275.833 128.5,275.5C 128.328,274.508 128.662,273.842 129.5,273.5C 130.801,269.057 131.468,264.391 131.5,259.5 Z"/></g>
<g><path style="opacity:1" fill="#90b9d0" d="M 19.5,316.5 C 11.5514,298.377 6.55137,279.377 4.5,259.5C 4.21478,257.712 4.54811,256.045 5.5,254.5C 7.97833,275.598 13.3117,295.932 21.5,315.5C 21.0431,316.298 20.3764,316.631 19.5,316.5 Z"/></g>
<g><path style="opacity:1" fill="#7e7f7e" d="M 129.5,267.5 C 129.5,267.833 129.5,268.167 129.5,268.5C 128.007,269.312 127.34,270.645 127.5,272.5C 127.52,273.726 127.853,274.726 128.5,275.5C 128.5,275.833 128.5,276.167 128.5,276.5C 127.252,277.334 126.585,278.667 126.5,280.5C 124.989,287.868 124.655,295.202 125.5,302.5C 124.883,302.611 124.383,302.944 124,303.5C 123.057,310.153 122.224,316.819 121.5,323.5C 121.511,325.045 121.844,326.378 122.5,327.5C 122.5,327.833 122.5,328.167 122.5,328.5C 121.733,329.172 121.066,330.005 120.5,331C 120.411,332.716 120.744,334.549 121.5,336.5C 120.757,338.638 120.09,340.804 119.5,343C 119.354,348.992 119.354,354.992 119.5,361C 120.935,360.689 122.268,360.855 123.5,361.5C 132.575,358.014 141.242,355.347 149.5,353.5C 155.318,353.18 160.151,351.514 164,348.5C 164.561,349.022 165.228,349.355 166,349.5C 168.774,348.464 171.607,347.631 174.5,347C 177.152,346.647 179.152,345.48 180.5,343.5C 181.265,343.923 182.098,344.257 183,344.5C 193.367,341.702 203.033,338.369 212,334.5C 212.29,337.919 210.957,340.586 208,342.5C 207.667,342.167 207.333,341.833 207,341.5C 197.178,344.478 187.178,347.812 177,351.5C 176.667,351.167 176.333,350.833 176,350.5C 171.164,353.252 166.497,354.585 162,354.5C 159.171,356.13 156.171,357.464 153,358.5C 152.667,358.167 152.333,357.833 152,357.5C 149.832,359.455 147.498,360.121 145,359.5C 144.5,360 144,360.5 143.5,361C 132.507,364.078 121.841,366.911 111.5,369.5C 113.854,353.587 115.688,337.587 117,321.5C 118.54,319.357 118.706,317.19 117.5,315C 118.488,309.984 119.488,304.984 120.5,300C 119.978,299.439 119.645,298.772 119.5,298C 120.297,292.456 121.297,286.956 122.5,281.5C 121.894,279.36 122.227,277.193 123.5,275C 122.941,274.275 122.608,273.442 122.5,272.5C 123.339,269.326 125.005,266.659 127.5,264.5C 128.176,265.602 128.842,266.602 129.5,267.5 Z"/></g>
<g><path style="opacity:1" fill="#89b5cf" d="M 453.5,266.5 C 453.471,270.64 452.804,274.64 451.5,278.5C 450.414,278.38 449.747,277.713 449.5,276.5C 451.091,269.545 452.424,262.545 453.5,255.5C 453.909,259.07 453.909,262.736 453.5,266.5 Z"/></g>
<g><path style="opacity:1" fill="#6997b1" d="M 129.5,268.5 C 129.5,270.167 129.5,271.833 129.5,273.5C 128.662,273.842 128.328,274.508 128.5,275.5C 127.853,274.726 127.52,273.726 127.5,272.5C 127.34,270.645 128.007,269.312 129.5,268.5 Z"/></g>
<g><path style="opacity:1" fill="#f8e6d3" d="M 162.5,266.5 C 162.5,267.833 162.5,269.167 162.5,270.5C 161.596,269.791 161.263,268.791 161.5,267.5C 154.653,268.078 147.987,268.078 141.5,267.5C 148.48,266.835 155.48,266.502 162.5,266.5 Z"/></g>
<g><path style="opacity:1" fill="#c6d7e1" d="M 131.5,258.5 C 131.5,258.833 131.5,259.167 131.5,259.5C 131.468,264.391 130.801,269.057 129.5,273.5C 129.5,271.833 129.5,270.167 129.5,268.5C 129.5,268.167 129.5,267.833 129.5,267.5C 130.219,265.236 130.552,262.903 130.5,260.5C 130.328,259.508 130.662,258.842 131.5,258.5 Z"/></g>
<g><path style="opacity:1" fill="#6c99b3" d="M 128.5,276.5 C 127.778,285.34 126.778,294.007 125.5,302.5C 124.655,295.202 124.989,287.868 126.5,280.5C 126.585,278.667 127.252,277.334 128.5,276.5 Z"/></g>
<g><path style="opacity:1" fill="#88b6d1" d="M 450.5,281.5 C 450.768,283.099 450.434,284.432 449.5,285.5C 448.637,286.463 447.97,286.463 447.5,285.5C 448.154,283.885 448.654,282.218 449,280.5C 450.107,279.288 450.607,279.621 450.5,281.5 Z"/></g>
<g><path style="opacity:1" fill="#86b6d2" d="M 448.5,289.5 C 448.59,292.152 447.924,294.485 446.5,296.5C 445.883,296.611 445.383,296.944 445,297.5C 445.015,294.43 445.682,291.43 447,288.5C 448.107,287.288 448.607,287.621 448.5,289.5 Z"/></g>
<g><path style="opacity:1" fill="#fae7c5" d="M 164.5,295.5 C 165.479,298.625 165.813,301.958 165.5,305.5C 167.167,305.5 168.833,305.5 170.5,305.5C 168.735,306.461 166.735,306.795 164.5,306.5C 164.5,302.833 164.5,299.167 164.5,295.5 Z"/></g>
<g><path style="opacity:1" fill="#9bbacc" d="M 445.5,299.5 C 445.741,301.898 445.074,303.898 443.5,305.5C 442.637,306.463 441.97,306.463 441.5,305.5C 442.651,303.227 443.651,300.894 444.5,298.5C 445.107,298.624 445.44,298.957 445.5,299.5 Z"/></g>
<g><path style="opacity:1" fill="#709bb3" d="M 125.5,302.5 C 125.274,309.538 124.607,316.538 123.5,323.5C 123.623,324.925 123.957,326.258 124.5,327.5C 123.833,327.5 123.167,327.5 122.5,327.5C 121.844,326.378 121.511,325.045 121.5,323.5C 122.224,316.819 123.057,310.153 124,303.5C 124.383,302.944 124.883,302.611 125.5,302.5 Z"/></g>
<g><path style="opacity:1" fill="#83b0c9" d="M 250.5,293.5 C 251.239,293.369 251.906,293.536 252.5,294C 240.977,308.017 228.977,321.517 216.5,334.5C 216.158,333.662 215.492,333.328 214.5,333.5C 215.167,332.833 215.833,332.167 216.5,331.5C 218.716,330.797 220.549,329.464 222,327.5C 231.364,315.976 240.864,304.643 250.5,293.5 Z"/></g>
<g><path style="opacity:1" fill="#93b9d0" d="M 442.5,308.5 C 437.676,323.146 431.01,336.812 422.5,349.5C 421.761,349.631 421.094,349.464 420.5,349C 429.066,336.229 435.732,322.895 440.5,309C 441.031,307.282 441.698,307.115 442.5,308.5 Z"/></g>
<g><path style="opacity:1" fill="#91b9d1" d="M 25.5,329.5 C 23.0431,326.249 21.3764,322.582 20.5,318.5C 20.56,317.957 20.8933,317.624 21.5,317.5C 23.3682,321.403 25.3682,325.236 27.5,329C 26.9056,329.464 26.2389,329.631 25.5,329.5 Z"/></g>
<g><path style="opacity:1" fill="#505e74" d="M 122.5,327.5 C 123.167,327.5 123.833,327.5 124.5,327.5C 133.726,334.94 142.726,342.606 151.5,350.5C 151.5,350.833 151.5,351.167 151.5,351.5C 141.167,354.167 130.833,356.833 120.5,359.5C 121.084,349.161 121.751,338.827 122.5,328.5C 122.5,328.167 122.5,327.833 122.5,327.5 Z"/></g>
<g><path style="opacity:1" fill="#8bb5cd" d="M 28.5,335.5 C 27.3263,334.486 26.6596,333.153 26.5,331.5C 26.8966,330.475 27.5632,330.308 28.5,331C 28.5,332 28.5,333 28.5,334C 31.0972,334.779 31.0972,335.279 28.5,335.5 Z"/></g>
<g><path style="opacity:1" fill="#6fa3c1" d="M 129.5,260.5 C 129.833,260.5 130.167,260.5 130.5,260.5C 130.552,262.903 130.219,265.236 129.5,267.5C 128.842,266.602 128.176,265.602 127.5,264.5C 125.005,266.659 123.339,269.326 122.5,272.5C 122.608,273.442 122.941,274.275 123.5,275C 122.227,277.193 121.894,279.36 122.5,281.5C 121.297,286.956 120.297,292.456 119.5,298C 119.645,298.772 119.978,299.439 120.5,300C 119.488,304.984 118.488,309.984 117.5,315C 118.706,317.19 118.54,319.357 117,321.5C 115.688,337.587 113.854,353.587 111.5,369.5C 121.841,366.911 132.507,364.078 143.5,361C 144,360.5 144.5,360 145,359.5C 147.498,360.121 149.832,359.455 152,357.5C 152.333,357.833 152.667,358.167 153,358.5C 156.171,357.464 159.171,356.13 162,354.5C 166.497,354.585 171.164,353.252 176,350.5C 176.333,350.833 176.667,351.167 177,351.5C 187.178,347.812 197.178,344.478 207,341.5C 207.333,341.833 207.667,342.167 208,342.5C 210.957,340.586 212.29,337.919 212,334.5C 203.033,338.369 193.367,341.702 183,344.5C 182.098,344.257 181.265,343.923 180.5,343.5C 191.579,339.56 202.913,336.227 214.5,333.5C 215.492,333.328 216.158,333.662 216.5,334.5C 214.722,336.805 213.056,339.305 211.5,342C 207.45,344.567 203.283,346.067 199,346.5C 169.659,355.839 140.159,364.339 110.5,372C 109.852,368.642 109.519,365.309 109.5,362C 113.751,331.2 117.584,300.034 121,268.5C 123.677,265.657 126.51,262.99 129.5,260.5 Z"/></g>
<g><path style="opacity:1" fill="#90b8d0" d="M 44.5,362.5 C 39.0688,355.305 34.4021,347.639 30.5,339.5C 31.1894,338.226 32.0228,338.226 33,339.5C 37.0481,347.54 41.8815,355.04 47.5,362C 46.552,362.483 45.552,362.649 44.5,362.5 Z"/></g>
<g><path style="opacity:1" fill="#709bb4" d="M 180.5,343.5 C 179.152,345.48 177.152,346.647 174.5,347C 171.607,347.631 168.774,348.464 166,349.5C 165.228,349.355 164.561,349.022 164,348.5C 160.151,351.514 155.318,353.18 149.5,353.5C 150.167,352.833 150.833,352.167 151.5,351.5C 151.5,351.167 151.5,350.833 151.5,350.5C 161.192,348.295 170.859,345.961 180.5,343.5 Z"/></g>
<g><path style="opacity:1" fill="#6189a3" d="M 122.5,328.5 C 121.751,338.827 121.084,349.161 120.5,359.5C 130.833,356.833 141.167,354.167 151.5,351.5C 150.833,352.167 150.167,352.833 149.5,353.5C 141.242,355.347 132.575,358.014 123.5,361.5C 122.268,360.855 120.935,360.689 119.5,361C 119.354,354.992 119.354,348.992 119.5,343C 120.09,340.804 120.757,338.638 121.5,336.5C 120.744,334.549 120.411,332.716 120.5,331C 121.066,330.005 121.733,329.172 122.5,328.5 Z"/></g>
<g><path style="opacity:1" fill="#93b9cf" d="M 63.5,385.5 C 57.4638,379.763 52.1305,373.429 47.5,366.5C 47.56,365.957 47.8933,365.624 48.5,365.5C 54.1491,371.997 59.8157,378.497 65.5,385C 64.9056,385.464 64.2389,385.631 63.5,385.5 Z"/></g>
<g><path style="opacity:1" fill="#98bacf" d="M 421.5,351.5 C 411.003,369.185 398.003,385.018 382.5,399C 378.957,402.049 375.291,404.882 371.5,407.5C 370.761,407.631 370.094,407.464 369.5,407C 389.066,392.053 405.566,373.553 419,351.5C 419.977,350.226 420.811,350.226 421.5,351.5 Z"/></g>
<g><path style="opacity:1" fill="#95b9ce" d="M 124.5,431.5 C 102.005,420.678 82.338,406.011 65.5,387.5C 65.56,386.957 65.8933,386.624 66.5,386.5C 69.0217,388.856 71.6884,391.023 74.5,393C 80.3381,399.171 86.5048,405.004 93,410.5C 93.3333,410.167 93.6667,409.833 94,409.5C 101.976,416.376 109.976,421.709 118,425.5C 119.916,427.209 122.082,428.543 124.5,429.5C 125.773,430.257 125.773,430.923 124.5,431.5 Z"/></g>
<g><path style="opacity:1" fill="#94b7cc" d="M 368.5,410.5 C 367.5,411.167 366.5,411.833 365.5,412.5C 364.957,412.44 364.624,412.107 364.5,411.5C 365.5,410.5 366.5,409.5 367.5,408.5C 368.298,408.957 368.631,409.624 368.5,410.5 Z"/></g>
<g><path style="opacity:1" fill="#94bad0" d="M 363.5,413.5 C 358.197,418.489 352.197,422.489 345.5,425.5C 344.227,424.923 344.227,424.257 345.5,423.5C 351.467,419.607 357.3,415.607 363,411.5C 363.464,412.094 363.631,412.761 363.5,413.5 Z"/></g>
<g><path style="opacity:1" fill="#95bbd1" d="M 343.5,426.5 C 342.341,428.25 340.674,429.25 338.5,429.5C 337.957,429.44 337.624,429.107 337.5,428.5C 338.76,427.618 339.926,426.618 341,425.5C 341.333,425.833 341.667,426.167 342,426.5C 342.779,423.903 343.279,423.903 343.5,426.5 Z"/></g>
<g><path style="opacity:1" fill="#8bb4cc" d="M 332.5,432.5 C 330.819,434.008 328.819,435.008 326.5,435.5C 325.227,434.923 325.227,434.257 326.5,433.5C 328.733,433.136 330.566,432.136 332,430.5C 332.464,431.094 332.631,431.761 332.5,432.5 Z"/></g>
<g><path style="opacity:1" fill="#8cb6ce" d="M 138.5,438.5 C 133.911,437.431 129.911,435.431 126.5,432.5C 126.369,431.761 126.536,431.094 127,430.5C 130.329,432.424 134.162,434.424 138.5,436.5C 139.773,437.257 139.773,437.923 138.5,438.5 Z"/></g>
<g><path style="opacity:1" fill="#92b9d1" d="M 324.5,436.5 C 321.164,438.731 317.497,440.397 313.5,441.5C 312.624,441.631 311.957,441.298 311.5,440.5C 315.59,438.372 319.757,436.372 324,434.5C 324.464,435.094 324.631,435.761 324.5,436.5 Z"/></g>
<g><path style="opacity:1" fill="#8ab6cf" d="M 160.5,446.5 C 153.486,444.941 146.82,442.608 140.5,439.5C 140.369,438.624 140.702,437.957 141.5,437.5C 147.472,440.324 153.639,442.658 160,444.5C 161.718,445.031 161.885,445.698 160.5,446.5 Z"/></g>
<g><path style="opacity:1" fill="#93b9d0" d="M 310.5,442.5 C 300.971,446.72 290.971,449.72 280.5,451.5C 279.624,451.631 278.957,451.298 278.5,450.5C 288.832,447.607 299.332,444.273 310,440.5C 310.464,441.094 310.631,441.761 310.5,442.5 Z"/></g>
<g><path style="opacity:1" fill="#87b7d3" d="M 276.5,452.5 C 275.081,453.451 273.415,453.784 271.5,453.5C 270.127,453.657 268.793,453.49 267.5,453C 269.974,451.733 272.641,450.899 275.5,450.5C 277.721,450.439 278.054,451.105 276.5,452.5 Z"/></g>
<g><path style="opacity:1" fill="#8ab6d0" d="M 200.5,455.5 C 187.372,454.476 174.705,451.809 162.5,447.5C 162.47,446.503 162.97,445.836 164,445.5C 168.909,446.831 173.242,448.498 177,450.5C 177.561,449.978 178.228,449.645 179,449.5C 187.939,451.221 196.773,453.054 205.5,455C 203.866,455.494 202.199,455.66 200.5,455.5 Z"/></g>
<g><path style="opacity:1" fill="#7bb3d3" d="M 260.5,455.5 C 259.833,455.5 259.167,455.5 258.5,455.5C 256.473,455.662 254.473,455.495 252.5,455C 256.981,453.356 261.648,452.689 266.5,453C 264.389,453.845 262.389,454.678 260.5,455.5 Z"/></g>
<g><path style="opacity:1" fill="#78b3d3" d="M 249.5,456.5 C 246.15,456.665 242.817,456.498 239.5,456C 243.309,454.412 247.309,454.078 251.5,455C 250.584,455.278 249.918,455.778 249.5,456.5 Z"/></g>
<g><path style="opacity:1" fill="#78b2d3" d="M 210.5,456.5 C 209.833,456.5 209.167,456.5 208.5,456.5C 208.082,455.778 207.416,455.278 206.5,455C 217.17,454.815 227.837,455.148 238.5,456C 229.173,456.5 219.839,456.666 210.5,456.5 Z"/></g>
</svg>
