<?xml version="1.0" encoding="UTF-8"?>
<!DOCTYPE svg PUBLIC "-//W3C//DTD SVG 1.1//EN" "http://www.w3.org/Graphics/SVG/1.1/DTD/svg11.dtd">
<svg xmlns="http://www.w3.org/2000/svg" version="1.1" width="474px" height="474px" style="shape-rendering:geometricPrecision; text-rendering:geometricPrecision; image-rendering:optimizeQuality; fill-rule:evenodd; clip-rule:evenodd" xmlns:xlink="http://www.w3.org/1999/xlink">
<g><path style="opacity:1" fill="#060606" d="M 214.5,-0.5 C 227.5,-0.5 240.5,-0.5 253.5,-0.5C 268.082,1.93226 282.749,4.59893 297.5,7.5C 303.593,9.94588 309.926,11.9459 316.5,13.5C 320.534,15.7372 324.868,17.4039 329.5,18.5C 330.492,18.3284 331.158,18.6618 331.5,19.5C 332.78,20.9313 334.447,21.5979 336.5,21.5C 338.579,23.873 341.246,25.2064 344.5,25.5C 346.153,25.6596 347.486,26.3263 348.5,27.5C 349.659,29.2503 351.326,30.2503 353.5,30.5C 354.492,30.3284 355.158,30.6618 355.5,31.5C 357.822,33.664 360.489,35.3307 363.5,36.5C 364.492,36.3284 365.158,36.6618 365.5,37.5C 366.035,39.4456 367.368,40.4456 369.5,40.5C 369.973,41.9063 370.973,42.573 372.5,42.5C 372.973,43.9063 373.973,44.573 375.5,44.5C 376.262,46.2624 377.596,47.2624 379.5,47.5C 380.167,47.5 380.5,47.8333 380.5,48.5C 380.908,49.6431 381.575,50.6431 382.5,51.5C 385.536,53.5517 388.536,55.5517 391.5,57.5C 392.129,59.9971 393.796,61.3304 396.5,61.5C 397.167,64.1667 398.833,65.8333 401.5,66.5C 402.5,66.8333 403.167,67.5 403.5,68.5C 404.167,71.1667 405.833,72.8333 408.5,73.5C 409.5,73.8333 410.167,74.5 410.5,75.5C 411.419,78.0892 413.086,80.0892 415.5,81.5C 416.5,81.8333 417.167,82.5 417.5,83.5C 418.08,85.7488 419.413,87.4154 421.5,88.5C 422.08,90.7488 423.413,92.4154 425.5,93.5C 425.427,95.0269 426.094,96.0269 427.5,96.5C 427.427,98.0269 428.094,99.0269 429.5,99.5C 429.738,101.404 430.738,102.738 432.5,103.5C 432.427,105.027 433.094,106.027 434.5,106.5C 434.427,108.027 435.094,109.027 436.5,109.5C 436.75,111.674 437.75,113.341 439.5,114.5C 439.427,116.027 440.094,117.027 441.5,117.5C 442.674,118.514 443.34,119.847 443.5,121.5C 444.998,126.642 447.332,131.309 450.5,135.5C 450.68,139.918 452.346,143.585 455.5,146.5C 455.34,148.199 455.506,149.866 456,151.5C 457.232,154.412 458.732,157.078 460.5,159.5C 460.476,165.43 462.142,170.763 465.5,175.5C 465.336,178.187 465.503,180.854 466,183.5C 466.383,184.056 466.883,184.389 467.5,184.5C 467.43,188.425 468.097,192.091 469.5,195.5C 469.487,201.938 470.321,208.271 472,214.5C 472.383,215.056 472.883,215.389 473.5,215.5C 473.5,227.833 473.5,240.167 473.5,252.5C 469.205,275.625 463.871,298.625 457.5,321.5C 455.206,324.37 453.872,327.703 453.5,331.5C 450.326,336.516 447.659,341.849 445.5,347.5C 445.34,349.153 444.674,350.486 443.5,351.5C 440.907,353.008 439.574,355.341 439.5,358.5C 437.952,358.821 437.285,359.821 437.5,361.5C 437.672,362.492 437.338,363.158 436.5,363.5C 435.094,363.973 434.427,364.973 434.5,366.5C 433.094,366.973 432.427,367.973 432.5,369.5C 431.094,369.973 430.427,370.973 430.5,372.5C 430.5,373.167 430.167,373.5 429.5,373.5C 426.529,375.443 424.529,378.109 423.5,381.5C 421.413,382.585 420.08,384.251 419.5,386.5C 416.757,388.239 414.757,390.573 413.5,393.5C 410.5,395.833 407.833,398.5 405.5,401.5C 403.61,401.297 402.11,401.963 401,403.5C 400.667,403.167 400.333,402.833 400,402.5C 400.019,404.107 400.185,405.774 400.5,407.5C 400.5,408.167 400.167,408.5 399.5,408.5C 398.178,408.67 397.011,408.337 396,407.5C 395.51,408.793 395.343,410.127 395.5,411.5C 393.833,412.5 392.5,413.833 391.5,415.5C 391.5,416.167 391.167,416.5 390.5,416.5C 388.381,416.468 387.048,417.468 386.5,419.5C 385.833,420.833 384.833,421.833 383.5,422.5C 381.973,422.427 380.973,423.094 380.5,424.5C 379.127,424.343 377.793,424.51 376.5,425C 377.598,425.77 377.598,426.603 376.5,427.5C 374.821,427.285 373.821,427.952 373.5,429.5C 373.5,430.167 373.167,430.5 372.5,430.5C 370.973,430.427 369.973,431.094 369.5,432.5C 367.973,432.427 366.973,433.094 366.5,434.5C 364.973,434.427 363.973,435.094 363.5,436.5C 359.551,437.474 356.218,439.474 353.5,442.5C 353.158,443.338 352.492,443.672 351.5,443.5C 347.61,442.777 344.944,444.11 343.5,447.5C 339.182,448.992 335.182,450.992 331.5,453.5C 331.158,454.338 330.492,454.672 329.5,454.5C 327.447,454.402 325.78,455.069 324.5,456.5C 318.716,457.986 313.049,459.653 307.5,461.5C 305.302,461.12 303.635,461.787 302.5,463.5C 292.63,465.469 282.963,467.803 273.5,470.5C 271.052,471.473 268.385,471.806 265.5,471.5C 262.813,471.336 260.146,471.503 257.5,472C 256.584,472.278 255.918,472.778 255.5,473.5C 242.167,473.5 228.833,473.5 215.5,473.5C 215.389,472.883 215.056,472.383 214.5,472C 212.19,471.503 209.857,471.337 207.5,471.5C 202.586,471.638 197.919,470.972 193.5,469.5C 190.781,468.087 187.781,467.42 184.5,467.5C 184.167,467.5 183.833,467.5 183.5,467.5C 181.22,465.777 178.553,465.111 175.5,465.5C 172.592,463.395 169.258,462.395 165.5,462.5C 163.214,462.405 161.214,461.738 159.5,460.5C 156.491,457.682 152.825,456.349 148.5,456.5C 147.22,455.069 145.553,454.402 143.5,454.5C 142.508,454.672 141.842,454.338 141.5,453.5C 138.912,451.375 135.912,450.042 132.5,449.5C 131.508,449.672 130.842,449.338 130.5,448.5C 129.713,446.896 128.38,446.229 126.5,446.5C 125.341,444.75 123.674,443.75 121.5,443.5C 119.847,443.34 118.514,442.674 117.5,441.5C 117.027,440.094 116.027,439.427 114.5,439.5C 114.027,438.094 113.027,437.427 111.5,437.5C 109.566,436.89 107.899,435.89 106.5,434.5C 106.027,433.094 105.027,432.427 103.5,432.5C 103.027,431.094 102.027,430.427 100.5,430.5C 99.8333,430.5 99.5,430.167 99.5,429.5C 99.0269,428.094 98.0269,427.427 96.5,427.5C 95.7377,425.738 94.4044,424.738 92.5,424.5C 91.4154,422.413 89.7488,421.08 87.5,420.5C 86.2905,420.068 85.2905,419.401 84.5,418.5C 85.6602,416.797 84.9935,416.131 82.5,416.5C 80.4544,413.353 77.7878,411.02 74.5,409.5C 74.6107,408.883 74.944,408.383 75.5,408C 72.8982,405.869 70.2316,404.035 67.5,402.5C 66.1667,399.167 63.8333,396.833 60.5,395.5C 59.5,394.167 58.5,392.833 57.5,391.5C 55.9998,387.252 53.3331,383.918 49.5,381.5C 49.226,379.019 47.8927,377.353 45.5,376.5C 44.0256,375.564 43.0256,374.23 42.5,372.5C 42.1525,369.142 40.4858,366.808 37.5,365.5C 36.3263,364.486 35.6596,363.153 35.5,361.5C 35.7148,359.821 35.0481,358.821 33.5,358.5C 33.573,356.973 32.9063,355.973 31.5,355.5C 30.3263,354.486 29.6596,353.153 29.5,351.5C 29.2503,349.326 28.2503,347.659 26.5,346.5C 25.6618,346.158 25.3284,345.492 25.5,344.5C 25.539,341.911 24.539,339.911 22.5,338.5C 21.596,337.791 21.2627,336.791 21.5,335.5C 21.3404,333.847 20.6737,332.514 19.5,331.5C 19.5979,329.447 18.9313,327.78 17.5,326.5C 16.6618,326.158 16.3284,325.492 16.5,324.5C 16.5212,320.22 15.1878,316.554 12.5,313.5C 12.4725,310.084 11.4725,307.084 9.5,304.5C 7.74241,301.146 6.74241,297.479 6.5,293.5C 6.78472,290.171 6.11805,287.171 4.5,284.5C 4.26068,278.577 3.26068,272.91 1.5,267.5C 1.5,267.167 1.5,266.833 1.5,266.5C 1.68702,260.788 1.35369,255.121 0.5,249.5C 0.403687,235.487 0.73702,221.487 1.5,207.5C 1.36182,202.586 2.02849,197.919 3.5,193.5C 5.01136,190.456 5.67802,187.122 5.5,183.5C 5.89839,179.239 6.89839,175.239 8.5,171.5C 10.1628,169.562 10.8294,167.228 10.5,164.5C 12.5848,162.316 13.5848,159.649 13.5,156.5C 14.5375,155.07 15.2041,153.403 15.5,151.5C 15.2627,150.209 15.596,149.209 16.5,148.5C 17.9313,147.22 18.5979,145.553 18.5,143.5C 20.6246,140.912 21.9579,137.912 22.5,134.5C 22.3284,133.508 22.6618,132.842 23.5,132.5C 25.539,131.089 26.539,129.089 26.5,126.5C 28.588,124.664 29.9213,122.331 30.5,119.5C 32.2503,118.341 33.2503,116.674 33.5,114.5C 34.9063,114.027 35.573,113.027 35.5,111.5C 38.806,110.913 39.806,109.247 38.5,106.5C 40.2624,105.738 41.2624,104.404 41.5,102.5C 42.9063,102.027 43.573,101.027 43.5,99.5C 44.9063,99.0269 45.573,98.0269 45.5,96.5C 47.2624,95.7377 48.2624,94.4044 48.5,92.5C 50.5869,91.4154 51.9202,89.7488 52.5,87.5C 54.2624,86.7377 55.2624,85.4044 55.5,83.5C 55.8333,82.5 56.5,81.8333 57.5,81.5C 59.5869,80.4154 60.9202,78.7488 61.5,76.5C 64.1667,75.8333 65.8333,74.1667 66.5,71.5C 67.1667,70.1667 68.1667,69.1667 69.5,68.5C 72.1667,67.8333 73.8333,66.1667 74.5,63.5C 77.4274,62.2427 79.7607,60.2427 81.5,57.5C 84.0892,56.5806 86.0892,54.914 87.5,52.5C 89.4044,52.2624 90.7377,51.2624 91.5,49.5C 94.9735,47.6816 98.3069,45.6816 101.5,43.5C 103.36,42.0613 105.027,40.3947 106.5,38.5C 107.899,37.1103 109.566,36.1103 111.5,35.5C 113.027,35.573 114.027,34.9063 114.5,33.5C 116.027,33.573 117.027,32.9063 117.5,31.5C 119.181,29.9925 121.181,28.9925 123.5,28.5C 126.992,27.5903 129.992,25.9236 132.5,23.5C 132.842,22.6618 133.508,22.3284 134.5,22.5C 137.241,22.2927 139.574,21.2927 141.5,19.5C 141.842,18.6618 142.508,18.3284 143.5,18.5C 145.553,18.5979 147.22,17.9313 148.5,16.5C 150.216,16.3713 151.883,16.038 153.5,15.5C 156.578,15.3803 159.245,14.3803 161.5,12.5C 166.351,11.1281 171.018,9.46141 175.5,7.5C 179.239,5.89839 183.239,4.89839 187.5,4.5C 193.116,4.3444 198.449,3.3444 203.5,1.5C 203.833,1.5 204.167,1.5 204.5,1.5C 207.518,1.66463 210.518,1.49796 213.5,1C 214.056,0.617425 214.389,0.117425 214.5,-0.5 Z"/></g>
<g><path style="opacity:1" fill="#e0e0e0" d="M 208.5,-0.5 C 210.5,-0.5 212.5,-0.5 214.5,-0.5C 214.389,0.117425 214.056,0.617425 213.5,1C 210.518,1.49796 207.518,1.66463 204.5,1.5C 205.833,0.833333 207.167,0.166667 208.5,-0.5 Z"/></g>
<g><path style="opacity:1" fill="#d6d6d6" d="M 203.5,1.5 C 198.449,3.3444 193.116,4.3444 187.5,4.5C 192.572,2.75363 197.905,1.75363 203.5,1.5 Z"/></g>
<g><path style="opacity:1" fill="#d4d4d4" d="M 253.5,-0.5 C 257.167,-0.5 260.833,-0.5 264.5,-0.5C 275.663,1.42954 286.663,4.0962 297.5,7.5C 282.749,4.59893 268.082,1.93226 253.5,-0.5 Z"/></g>
<g><path style="opacity:1" fill="#e1e1e1" d="M 297.5,7.5 C 304.267,8.43595 310.6,10.436 316.5,13.5C 309.926,11.9459 303.593,9.94588 297.5,7.5 Z"/></g>
<g><path style="opacity:1" fill="#dddddd" d="M 175.5,7.5 C 171.018,9.46141 166.351,11.1281 161.5,12.5C 160.833,12.5 160.167,12.5 159.5,12.5C 164.448,9.92392 169.781,8.25726 175.5,7.5 Z"/></g>
<g><path style="opacity:1" fill="#515151" d="M 159.5,12.5 C 160.167,12.5 160.833,12.5 161.5,12.5C 159.245,14.3803 156.578,15.3803 153.5,15.5C 153.5,15.1667 153.5,14.8333 153.5,14.5C 155.214,13.2616 157.214,12.595 159.5,12.5 Z"/></g>
<g><path style="opacity:1" fill="#dcdcdc" d="M 153.5,14.5 C 153.5,14.8333 153.5,15.1667 153.5,15.5C 151.883,16.038 150.216,16.3713 148.5,16.5C 149.78,15.0687 151.447,14.4021 153.5,14.5 Z"/></g>
<g><path style="opacity:1" fill="#dcdcdc" d="M 148.5,16.5 C 147.22,17.9313 145.553,18.5979 143.5,18.5C 144.78,17.0687 146.447,16.4021 148.5,16.5 Z"/></g>
<g><path style="opacity:1" fill="#dadada" d="M 316.5,13.5 C 321.29,14.2038 325.623,15.8705 329.5,18.5C 324.868,17.4039 320.534,15.7372 316.5,13.5 Z"/></g>
<g><path style="opacity:1" fill="#d5d5d5" d="M 141.5,19.5 C 139.574,21.2927 137.241,22.2927 134.5,22.5C 136.426,20.7073 138.759,19.7073 141.5,19.5 Z"/></g>
<g><path style="opacity:1" fill="#d7d7d7" d="M 331.5,19.5 C 333.553,19.4021 335.22,20.0687 336.5,21.5C 334.447,21.5979 332.78,20.9313 331.5,19.5 Z"/></g>
<g><path style="opacity:1" fill="#c4c4c4" d="M 336.5,21.5 C 339.485,22.3257 342.151,23.659 344.5,25.5C 341.246,25.2064 338.579,23.873 336.5,21.5 Z"/></g>
<g><path style="opacity:1" fill="#bebebe" d="M 132.5,23.5 C 129.992,25.9236 126.992,27.5903 123.5,28.5C 126.008,26.0764 129.008,24.4097 132.5,23.5 Z"/></g>
<g><path style="opacity:1" fill="#d8d8d8" d="M 348.5,27.5 C 350.674,27.7497 352.341,28.7497 353.5,30.5C 351.326,30.2503 349.659,29.2503 348.5,27.5 Z"/></g>
<g><path style="opacity:1" fill="#fefefe" d="M 442.5,255.5 C 441.356,259.964 440.69,264.63 440.5,269.5C 439.374,276.211 438.04,282.878 436.5,289.5C 435.129,291.936 434.129,294.603 433.5,297.5C 410.593,364.741 365.593,410.074 298.5,433.5C 294.02,434.698 289.687,436.031 285.5,437.5C 282.402,437.756 279.402,438.422 276.5,439.5C 261.593,441.764 246.593,442.764 231.5,442.5C 202.576,443.268 175.243,437.102 149.5,424C 65.8974,379.999 26.3974,310.499 31,215.5C 40.3656,146.225 74.5323,93.3912 133.5,57C 182.799,30.1871 234.799,23.5205 289.5,37C 363.037,59.5359 411.87,107.369 436,180.5C 441.877,205.154 444.044,230.154 442.5,255.5 Z"/></g>
<g><path style="opacity:1" fill="#c0c0c0" d="M 117.5,31.5 C 117.027,32.9063 116.027,33.573 114.5,33.5C 114.973,32.0937 115.973,31.427 117.5,31.5 Z"/></g>
<g><path style="opacity:1" fill="#e2e2e2" d="M 355.5,31.5 C 358.849,32.1695 361.516,33.8361 363.5,36.5C 360.489,35.3307 357.822,33.664 355.5,31.5 Z"/></g>
<g><path style="opacity:1" fill="#acacac" d="M 114.5,33.5 C 114.027,34.9063 113.027,35.573 111.5,35.5C 111.973,34.0937 112.973,33.427 114.5,33.5 Z"/></g>
<g><path style="opacity:1" fill="#a3a3a3" d="M 365.5,37.5 C 367.23,38.0256 368.564,39.0256 369.5,40.5C 367.368,40.4456 366.035,39.4456 365.5,37.5 Z"/></g>
<g><path style="opacity:1" fill="#afafaf" d="M 106.5,38.5 C 105.027,40.3947 103.36,42.0613 101.5,43.5C 100.833,43.5 100.167,43.5 99.5,43.5C 101.296,41.1 103.63,39.4333 106.5,38.5 Z"/></g>
<g><path style="opacity:1" fill="#d6d6d6" d="M 369.5,40.5 C 371.027,40.427 372.027,41.0937 372.5,42.5C 370.973,42.573 369.973,41.9063 369.5,40.5 Z"/></g>
<g><path style="opacity:1" fill="#e1e1e1" d="M 372.5,42.5 C 374.027,42.427 375.027,43.0937 375.5,44.5C 373.973,44.573 372.973,43.9063 372.5,42.5 Z"/></g>
<g><path style="opacity:1" fill="#e6e6e6" d="M 375.5,44.5 C 377.404,44.7376 378.738,45.7376 379.5,47.5C 377.596,47.2624 376.262,46.2624 375.5,44.5 Z"/></g>
<g><path style="opacity:1" fill="#7b7b7b" d="M 99.5,43.5 C 100.167,43.5 100.833,43.5 101.5,43.5C 98.3069,45.6816 94.9735,47.6816 91.5,49.5C 93.4426,46.5293 96.1092,44.5293 99.5,43.5 Z"/></g>
<g><path style="opacity:1" fill="#9d9d9d" d="M 91.5,49.5 C 90.7377,51.2624 89.4044,52.2624 87.5,52.5C 88.2623,50.7376 89.5956,49.7376 91.5,49.5 Z"/></g>
<g><path style="opacity:1" fill="#bbbbbb" d="M 380.5,48.5 C 385.043,50.3717 388.71,53.3717 391.5,57.5C 388.536,55.5517 385.536,53.5517 382.5,51.5C 381.575,50.6431 380.908,49.6431 380.5,48.5 Z"/></g>
<g><path style="opacity:1" fill="#9c9c9c" d="M 87.5,52.5 C 86.0892,54.914 84.0892,56.5806 81.5,57.5C 82.9108,55.086 84.9108,53.4194 87.5,52.5 Z"/></g>
<g><path style="opacity:1" fill="#7f7f7f" d="M 391.5,57.5 C 393.389,58.604 395.055,59.9373 396.5,61.5C 393.796,61.3304 392.129,59.9971 391.5,57.5 Z"/></g>
<g><path style="opacity:1" fill="#ababab" d="M 81.5,57.5 C 79.7607,60.2427 77.4274,62.2427 74.5,63.5C 76.2393,60.7573 78.5726,58.7573 81.5,57.5 Z"/></g>
<g><path style="opacity:1" fill="#aeaeae" d="M 396.5,61.5 C 398.5,62.8333 400.167,64.5 401.5,66.5C 398.833,65.8333 397.167,64.1667 396.5,61.5 Z"/></g>
<g><path style="opacity:1" fill="#747474" d="M 74.5,63.5 C 73.8333,66.1667 72.1667,67.8333 69.5,68.5C 70.8333,66.5 72.5,64.8333 74.5,63.5 Z"/></g>
<g><path style="opacity:1" fill="#a1a1a1" d="M 403.5,68.5 C 405.5,69.8333 407.167,71.5 408.5,73.5C 405.833,72.8333 404.167,71.1667 403.5,68.5 Z"/></g>
<g><path style="opacity:1" fill="#919191" d="M 66.5,71.5 C 65.8333,74.1667 64.1667,75.8333 61.5,76.5C 62.8333,74.5 64.5,72.8333 66.5,71.5 Z"/></g>
<g><path style="opacity:1" fill="#c2c2c2" d="M 61.5,76.5 C 60.9202,78.7488 59.5869,80.4154 57.5,81.5C 58.0798,79.2512 59.4131,77.5846 61.5,76.5 Z"/></g>
<g><path style="opacity:1" fill="#c0c0c0" d="M 410.5,75.5 C 412.914,76.9108 414.581,78.9108 415.5,81.5C 413.086,80.0892 411.419,78.0892 410.5,75.5 Z"/></g>
<g><path style="opacity:1" fill="#c0c0c0" d="M 55.5,83.5 C 55.2624,85.4044 54.2624,86.7377 52.5,87.5C 52.7376,85.5956 53.7376,84.2623 55.5,83.5 Z"/></g>
<g><path style="opacity:1" fill="#cacaca" d="M 417.5,83.5 C 419.587,84.5846 420.92,86.2512 421.5,88.5C 419.413,87.4154 418.08,85.7488 417.5,83.5 Z"/></g>
<g><path style="opacity:1" fill="#c4c4c4" d="M 52.5,87.5 C 51.9202,89.7488 50.5869,91.4154 48.5,92.5C 49.0798,90.2512 50.4131,88.5846 52.5,87.5 Z"/></g>
<g><path style="opacity:1" fill="#d2d2d2" d="M 421.5,88.5 C 423.587,89.5846 424.92,91.2512 425.5,93.5C 423.413,92.4154 422.08,90.7488 421.5,88.5 Z"/></g>
<g><path style="opacity:1" fill="#b7b7b7" d="M 48.5,92.5 C 48.2624,94.4044 47.2624,95.7377 45.5,96.5C 45.7376,94.5956 46.7376,93.2623 48.5,92.5 Z"/></g>
<g><path style="opacity:1" fill="#c4c4c4" d="M 425.5,93.5 C 426.906,93.9731 427.573,94.9731 427.5,96.5C 426.094,96.0269 425.427,95.0269 425.5,93.5 Z"/></g>
<g><path style="opacity:1" fill="#b2b2b2" d="M 45.5,96.5 C 45.573,98.0269 44.9063,99.0269 43.5,99.5C 43.427,97.9731 44.0937,96.9731 45.5,96.5 Z"/></g>
<g><path style="opacity:1" fill="#999999" d="M 427.5,96.5 C 428.906,96.9731 429.573,97.9731 429.5,99.5C 428.094,99.0269 427.427,98.0269 427.5,96.5 Z"/></g>
<g><path style="opacity:1" fill="#959595" d="M 43.5,99.5 C 43.573,101.027 42.9063,102.027 41.5,102.5C 41.427,100.973 42.0937,99.9731 43.5,99.5 Z"/></g>
<g><path style="opacity:1" fill="#a4a4a4" d="M 429.5,99.5 C 431.262,100.262 432.262,101.596 432.5,103.5C 430.738,102.738 429.738,101.404 429.5,99.5 Z"/></g>
<g><path style="opacity:1" fill="#bbbbbb" d="M 41.5,102.5 C 41.2624,104.404 40.2624,105.738 38.5,106.5C 38.7376,104.596 39.7376,103.262 41.5,102.5 Z"/></g>
<g><path style="opacity:1" fill="#d1d1d1" d="M 432.5,103.5 C 433.906,103.973 434.573,104.973 434.5,106.5C 433.094,106.027 432.427,105.027 432.5,103.5 Z"/></g>
<g><path style="opacity:1" fill="#5b5b5b" d="M 38.5,106.5 C 39.806,109.247 38.806,110.913 35.5,111.5C 36.1103,109.566 37.1103,107.899 38.5,106.5 Z"/></g>
<g><path style="opacity:1" fill="#d6d6d6" d="M 434.5,106.5 C 435.906,106.973 436.573,107.973 436.5,109.5C 435.094,109.027 434.427,108.027 434.5,106.5 Z"/></g>
<g><path style="opacity:1" fill="#050505" d="M 309.5,169.5 C 310.248,176.809 310.582,184.142 310.5,191.5C 305.567,226.343 286.067,248.343 252,257.5C 251.667,271.833 251.333,286.167 251,300.5C 246.641,312.067 238.808,315.234 227.5,310C 225.031,307.559 223.198,304.726 222,301.5C 221.333,280.833 221.333,260.167 222,239.5C 224.167,234.667 227.667,231.167 232.5,229C 262.1,227.732 278.434,212.398 281.5,183C 277.13,150.972 258.797,136.306 226.5,139C 203.648,146.516 191.815,162.349 191,186.5C 186.706,197.483 179.206,200.649 168.5,196C 163.157,191.981 160.824,186.648 161.5,180C 164.309,149.203 179.643,127.203 207.5,114C 240.655,102.998 269.489,109.831 294,134.5C 302.433,144.701 307.599,156.367 309.5,169.5 Z"/></g>
<g><path style="opacity:1" fill="#d5d5d5" d="M 436.5,109.5 C 438.25,110.659 439.25,112.326 439.5,114.5C 437.75,113.341 436.75,111.674 436.5,109.5 Z"/></g>
<g><path style="opacity:1" fill="#c8c8c8" d="M 35.5,111.5 C 35.573,113.027 34.9063,114.027 33.5,114.5C 33.427,112.973 34.0937,111.973 35.5,111.5 Z"/></g>
<g><path style="opacity:1" fill="#d5d5d5" d="M 33.5,114.5 C 33.2503,116.674 32.2503,118.341 30.5,119.5C 30.7497,117.326 31.7497,115.659 33.5,114.5 Z"/></g>
<g><path style="opacity:1" fill="#dddddd" d="M 439.5,114.5 C 440.906,114.973 441.573,115.973 441.5,117.5C 440.094,117.027 439.427,116.027 439.5,114.5 Z"/></g>
<g><path style="opacity:1" fill="#d4d4d4" d="M 30.5,119.5 C 29.9213,122.331 28.588,124.664 26.5,126.5C 27.0787,123.669 28.412,121.336 30.5,119.5 Z"/></g>
<g><path style="opacity:1" fill="#cfcfcf" d="M 26.5,126.5 C 26.539,129.089 25.539,131.089 23.5,132.5C 23.9925,130.181 24.9925,128.181 26.5,126.5 Z"/></g>
<g><path style="opacity:1" fill="#d0d0d0" d="M 443.5,121.5 C 446.874,125.581 449.207,130.247 450.5,135.5C 447.332,131.309 444.998,126.642 443.5,121.5 Z"/></g>
<g><path style="opacity:1" fill="#7f7f7f" d="M 450.5,135.5 C 452.957,138.751 454.624,142.418 455.5,146.5C 452.346,143.585 450.68,139.918 450.5,135.5 Z"/></g>
<g><path style="opacity:1" fill="#e0e0e0" d="M 22.5,134.5 C 21.9579,137.912 20.6246,140.912 18.5,143.5C 19.0421,140.088 20.3754,137.088 22.5,134.5 Z"/></g>
<g><path style="opacity:1" fill="#dfdfdf" d="M 18.5,143.5 C 18.5979,145.553 17.9313,147.22 16.5,148.5C 16.4021,146.447 17.0687,144.78 18.5,143.5 Z"/></g>
<g><path style="opacity:1" fill="#9e9e9e" d="M 455.5,146.5 C 457.964,150.444 459.63,154.777 460.5,159.5C 458.732,157.078 457.232,154.412 456,151.5C 455.506,149.866 455.34,148.199 455.5,146.5 Z"/></g>
<g><path style="opacity:1" fill="#dcdcdc" d="M 15.5,151.5 C 15.2041,153.403 14.5375,155.07 13.5,156.5C 13.1201,154.302 13.7868,152.635 15.5,151.5 Z"/></g>
<g><path style="opacity:1" fill="#a6a6a6" d="M 13.5,156.5 C 13.5848,159.649 12.5848,162.316 10.5,164.5C 10.7329,161.458 11.7329,158.792 13.5,156.5 Z"/></g>
<g><path style="opacity:1" fill="#9c9c9c" d="M 460.5,159.5 C 462.943,164.5 464.61,169.834 465.5,175.5C 462.142,170.763 460.476,165.43 460.5,159.5 Z"/></g>
<g><path style="opacity:1" fill="#acacac" d="M 10.5,164.5 C 10.8294,167.228 10.1628,169.562 8.5,171.5C 8.72148,168.933 9.38815,166.599 10.5,164.5 Z"/></g>
<g><path style="opacity:1" fill="#3c3c3c" d="M 309.5,169.5 C 311.017,173.56 311.684,177.893 311.5,182.5C 311.498,185.686 311.165,188.686 310.5,191.5C 310.582,184.142 310.248,176.809 309.5,169.5 Z"/></g>
<g><path style="opacity:1" fill="#aeaeae" d="M 465.5,175.5 C 466.657,178.273 467.324,181.273 467.5,184.5C 466.883,184.389 466.383,184.056 466,183.5C 465.503,180.854 465.336,178.187 465.5,175.5 Z"/></g>
<g><path style="opacity:1" fill="#e3e3e3" d="M 5.5,183.5 C 5.67802,187.122 5.01136,190.456 3.5,193.5C 3.54877,189.922 4.21543,186.589 5.5,183.5 Z"/></g>
<g><path style="opacity:1" fill="#e8e8e8" d="M 467.5,184.5 C 468.903,187.909 469.57,191.575 469.5,195.5C 468.097,192.091 467.43,188.425 467.5,184.5 Z"/></g>
<g><path style="opacity:1" fill="#b3b3b3" d="M 469.5,195.5 C 470.752,201.187 472.086,206.853 473.5,212.5C 473.5,213.5 473.5,214.5 473.5,215.5C 472.883,215.389 472.383,215.056 472,214.5C 470.321,208.271 469.487,201.938 469.5,195.5 Z"/></g>
<g><path style="opacity:1" fill="#a6a6a6" d="M 1.5,207.5 C 0.73702,221.487 0.403687,235.487 0.5,249.5C 0.166667,249.5 -0.166667,249.5 -0.5,249.5C -0.5,237.833 -0.5,226.167 -0.5,214.5C 0.166667,212.167 0.833333,209.833 1.5,207.5 Z"/></g>
<g><path style="opacity:1" fill="#cdcdcd" d="M -0.5,249.5 C -0.166667,249.5 0.166667,249.5 0.5,249.5C 1.35369,255.121 1.68702,260.788 1.5,266.5C 0.833333,264.167 0.166667,261.833 -0.5,259.5C -0.5,256.167 -0.5,252.833 -0.5,249.5 Z"/></g>
<g><path style="opacity:1" fill="#494949" d="M 442.5,255.5 C 442.877,260.453 442.211,265.119 440.5,269.5C 440.69,264.63 441.356,259.964 442.5,255.5 Z"/></g>
<g><path style="opacity:1" fill="#dbdbdb" d="M 1.5,267.5 C 3.26068,272.91 4.26068,278.577 4.5,284.5C 2.62472,279.11 1.62472,273.444 1.5,267.5 Z"/></g>
<g><path style="opacity:1" fill="#d2d2d2" d="M 4.5,284.5 C 6.11805,287.171 6.78472,290.171 6.5,293.5C 5.08699,290.781 4.42032,287.781 4.5,284.5 Z"/></g>
<g><path style="opacity:1" fill="#5d5d5d" d="M 436.5,289.5 C 436.655,292.716 435.655,295.383 433.5,297.5C 434.129,294.603 435.129,291.936 436.5,289.5 Z"/></g>
<g><path style="opacity:1" fill="#d4d4d4" d="M 473.5,252.5 C 473.5,254.833 473.5,257.167 473.5,259.5C 471.012,273.101 468.179,286.768 465,300.5C 463.159,307.864 460.659,314.864 457.5,321.5C 463.871,298.625 469.205,275.625 473.5,252.5 Z"/></g>
<g><path style="opacity:1" fill="#bcbcbc" d="M 9.5,304.5 C 11.4725,307.084 12.4725,310.084 12.5,313.5C 10.9281,310.785 9.92809,307.785 9.5,304.5 Z"/></g>
<g><path style="opacity:1" fill="#919191" d="M 12.5,313.5 C 15.1878,316.554 16.5212,320.22 16.5,324.5C 14.3987,321.203 13.0653,317.537 12.5,313.5 Z"/></g>
<g><path style="opacity:1" fill="#cccccc" d="M 457.5,321.5 C 456.737,325.137 455.403,328.47 453.5,331.5C 453.872,327.703 455.206,324.37 457.5,321.5 Z"/></g>
<g><path style="opacity:1" fill="#090909" d="M 231.5,324.5 C 246.978,323.814 254.811,331.148 255,346.5C 250.392,360.555 241.225,365.055 227.5,360C 218.504,354.012 215.67,345.846 219,335.5C 222.148,330.509 226.314,326.843 231.5,324.5 Z"/></g>
<g><path style="opacity:1" fill="#cdcdcd" d="M 17.5,326.5 C 18.9313,327.78 19.5979,329.447 19.5,331.5C 18.0687,330.22 17.4021,328.553 17.5,326.5 Z"/></g>
<g><path style="opacity:1" fill="#dadada" d="M 19.5,331.5 C 20.6737,332.514 21.3404,333.847 21.5,335.5C 19.8958,334.713 19.2291,333.38 19.5,331.5 Z"/></g>
<g><path style="opacity:1" fill="#dadada" d="M 453.5,331.5 C 451.874,337.419 449.207,342.753 445.5,347.5C 447.659,341.849 450.326,336.516 453.5,331.5 Z"/></g>
<g><path style="opacity:1" fill="#cfcfcf" d="M 22.5,338.5 C 24.539,339.911 25.539,341.911 25.5,344.5C 23.9925,342.819 22.9925,340.819 22.5,338.5 Z"/></g>
<g><path style="opacity:1" fill="#d3d3d3" d="M 26.5,346.5 C 28.2503,347.659 29.2503,349.326 29.5,351.5C 27.7497,350.341 26.7497,348.674 26.5,346.5 Z"/></g>
<g><path style="opacity:1" fill="#9a9a9a" d="M 443.5,351.5 C 442.921,354.331 441.588,356.664 439.5,358.5C 439.574,355.341 440.907,353.008 443.5,351.5 Z"/></g>
<g><path style="opacity:1" fill="#d8d8d8" d="M 31.5,355.5 C 32.9063,355.973 33.573,356.973 33.5,358.5C 32.0937,358.027 31.427,357.027 31.5,355.5 Z"/></g>
<g><path style="opacity:1" fill="#858585" d="M 33.5,358.5 C 35.0481,358.821 35.7148,359.821 35.5,361.5C 34.0937,361.027 33.427,360.027 33.5,358.5 Z"/></g>
<g><path style="opacity:1" fill="#cccccc" d="M 439.5,358.5 C 439.573,360.027 438.906,361.027 437.5,361.5C 437.285,359.821 437.952,358.821 439.5,358.5 Z"/></g>
<g><path style="opacity:1" fill="#e8e8e8" d="M 436.5,363.5 C 436.573,365.027 435.906,366.027 434.5,366.5C 434.427,364.973 435.094,363.973 436.5,363.5 Z"/></g>
<g><path style="opacity:1" fill="#979797" d="M 37.5,365.5 C 40.4858,366.808 42.1525,369.142 42.5,372.5C 40.4776,370.469 38.8109,368.135 37.5,365.5 Z"/></g>
<g><path style="opacity:1" fill="#e3e3e3" d="M 434.5,366.5 C 434.573,368.027 433.906,369.027 432.5,369.5C 432.427,367.973 433.094,366.973 434.5,366.5 Z"/></g>
<g><path style="opacity:1" fill="#e7e7e7" d="M 432.5,369.5 C 432.573,371.027 431.906,372.027 430.5,372.5C 430.427,370.973 431.094,369.973 432.5,369.5 Z"/></g>
<g><path style="opacity:1" fill="#9e9e9e" d="M 45.5,376.5 C 47.8927,377.353 49.226,379.019 49.5,381.5C 47.4131,380.415 46.0798,378.749 45.5,376.5 Z"/></g>
<g><path style="opacity:1" fill="#c9c9c9" d="M 429.5,373.5 C 427.984,376.533 425.984,379.2 423.5,381.5C 424.529,378.109 426.529,375.443 429.5,373.5 Z"/></g>
<g><path style="opacity:1" fill="#d0d0d0" d="M 423.5,381.5 C 422.92,383.749 421.587,385.415 419.5,386.5C 420.08,384.251 421.413,382.585 423.5,381.5 Z"/></g>
<g><path style="opacity:1" fill="#bbbbbb" d="M 49.5,381.5 C 53.3331,383.918 55.9998,387.252 57.5,391.5C 54.3552,388.54 51.6885,385.207 49.5,381.5 Z"/></g>
<g><path style="opacity:1" fill="#d0d0d0" d="M 419.5,386.5 C 418.243,389.427 416.243,391.761 413.5,393.5C 414.757,390.573 416.757,388.239 419.5,386.5 Z"/></g>
<g><path style="opacity:1" fill="#b4b4b4" d="M 60.5,395.5 C 63.8333,396.833 66.1667,399.167 67.5,402.5C 64.8333,400.5 62.5,398.167 60.5,395.5 Z"/></g>
<g><path style="opacity:1" fill="#d3d3d3" d="M 413.5,393.5 C 411.57,397.1 408.903,400.1 405.5,402.5C 405.5,402.167 405.5,401.833 405.5,401.5C 407.833,398.5 410.5,395.833 413.5,393.5 Z"/></g>
<g><path style="opacity:1" fill="#838383" d="M 67.5,402.5 C 70.2316,404.035 72.8982,405.869 75.5,408C 74.944,408.383 74.6107,408.883 74.5,409.5C 71.8333,407.5 69.5,405.167 67.5,402.5 Z"/></g>
<g><path style="opacity:1" fill="#4d4d4d" d="M 405.5,401.5 C 405.5,401.833 405.5,402.167 405.5,402.5C 404.167,404.5 402.5,406.167 400.5,407.5C 400.185,405.774 400.019,404.107 400,402.5C 400.333,402.833 400.667,403.167 401,403.5C 402.11,401.963 403.61,401.297 405.5,401.5 Z"/></g>
<g><path style="opacity:1" fill="#646464" d="M 399.5,408.5 C 398.833,409.833 397.833,410.833 396.5,411.5C 396.167,411.5 395.833,411.5 395.5,411.5C 395.343,410.127 395.51,408.793 396,407.5C 397.011,408.337 398.178,408.67 399.5,408.5 Z"/></g>
<g><path style="opacity:1" fill="#b1b1b1" d="M 74.5,409.5 C 77.7878,411.02 80.4544,413.353 82.5,416.5C 79.2358,414.906 76.5691,412.573 74.5,409.5 Z"/></g>
<g><path style="opacity:1" fill="#e7e7e7" d="M 395.5,411.5 C 395.833,411.5 396.167,411.5 396.5,411.5C 395.415,413.587 393.749,414.92 391.5,415.5C 392.5,413.833 393.833,412.5 395.5,411.5 Z"/></g>
<g><path style="opacity:1" fill="#777777" d="M 82.5,416.5 C 84.9935,416.131 85.6602,416.797 84.5,418.5C 83.5,418.167 82.8333,417.5 82.5,416.5 Z"/></g>
<g><path style="opacity:1" fill="#8b8b8b" d="M 390.5,416.5 C 389.738,418.262 388.404,419.262 386.5,419.5C 387.048,417.468 388.381,416.468 390.5,416.5 Z"/></g>
<g><path style="opacity:1" fill="#b8b8b8" d="M 87.5,420.5 C 89.7488,421.08 91.4154,422.413 92.5,424.5C 90.2512,423.92 88.5846,422.587 87.5,420.5 Z"/></g>
<g><path style="opacity:1" fill="#e7e7e7" d="M 383.5,422.5 C 383.027,423.906 382.027,424.573 380.5,424.5C 380.973,423.094 381.973,422.427 383.5,422.5 Z"/></g>
<g><path style="opacity:1" fill="#797979" d="M 380.5,424.5 C 379.738,426.262 378.404,427.262 376.5,427.5C 377.598,426.603 377.598,425.77 376.5,425C 377.793,424.51 379.127,424.343 380.5,424.5 Z"/></g>
<g><path style="opacity:1" fill="#989898" d="M 92.5,424.5 C 94.4044,424.738 95.7377,425.738 96.5,427.5C 94.5956,427.262 93.2623,426.262 92.5,424.5 Z"/></g>
<g><path style="opacity:1" fill="#858585" d="M 376.5,427.5 C 376.027,428.906 375.027,429.573 373.5,429.5C 373.821,427.952 374.821,427.285 376.5,427.5 Z"/></g>
<g><path style="opacity:1" fill="#969696" d="M 96.5,427.5 C 98.0269,427.427 99.0269,428.094 99.5,429.5C 97.9731,429.573 96.9731,428.906 96.5,427.5 Z"/></g>
<g><path style="opacity:1" fill="#cecece" d="M 100.5,430.5 C 102.027,430.427 103.027,431.094 103.5,432.5C 101.973,432.573 100.973,431.906 100.5,430.5 Z"/></g>
<g><path style="opacity:1" fill="#e6e6e6" d="M 372.5,430.5 C 372.027,431.906 371.027,432.573 369.5,432.5C 369.973,431.094 370.973,430.427 372.5,430.5 Z"/></g>
<g><path style="opacity:1" fill="#cecece" d="M 103.5,432.5 C 105.027,432.427 106.027,433.094 106.5,434.5C 104.973,434.573 103.973,433.906 103.5,432.5 Z"/></g>
<g><path style="opacity:1" fill="#e7e7e7" d="M 369.5,432.5 C 369.027,433.906 368.027,434.573 366.5,434.5C 366.973,433.094 367.973,432.427 369.5,432.5 Z"/></g>
<g><path style="opacity:1" fill="#3f3f3f" d="M 298.5,433.5 C 294.728,436.2 290.395,437.534 285.5,437.5C 289.687,436.031 294.02,434.698 298.5,433.5 Z"/></g>
<g><path style="opacity:1" fill="#ececec" d="M 366.5,434.5 C 366.027,435.906 365.027,436.573 363.5,436.5C 363.973,435.094 364.973,434.427 366.5,434.5 Z"/></g>
<g><path style="opacity:1" fill="#c8c8c8" d="M 111.5,437.5 C 113.027,437.427 114.027,438.094 114.5,439.5C 112.973,439.573 111.973,438.906 111.5,437.5 Z"/></g>
<g><path style="opacity:1" fill="#c6c6c6" d="M 363.5,436.5 C 360.506,439 357.173,441 353.5,442.5C 356.218,439.474 359.551,437.474 363.5,436.5 Z"/></g>
<g><path style="opacity:1" fill="#d9d9d9" d="M 114.5,439.5 C 116.027,439.427 117.027,440.094 117.5,441.5C 115.973,441.573 114.973,440.906 114.5,439.5 Z"/></g>
<g><path style="opacity:1" fill="#454545" d="M 276.5,439.5 C 270.47,441.534 264.137,442.701 257.5,443C 248.657,443.824 239.99,443.657 231.5,442.5C 246.593,442.764 261.593,441.764 276.5,439.5 Z"/></g>
<g><path style="opacity:1" fill="#d2d2d2" d="M 121.5,443.5 C 123.674,443.75 125.341,444.75 126.5,446.5C 124.326,446.25 122.659,445.25 121.5,443.5 Z"/></g>
<g><path style="opacity:1" fill="#666666" d="M 351.5,443.5 C 349.421,445.873 346.754,447.206 343.5,447.5C 344.944,444.11 347.61,442.777 351.5,443.5 Z"/></g>
<g><path style="opacity:1" fill="#dbdbdb" d="M 126.5,446.5 C 128.38,446.229 129.713,446.896 130.5,448.5C 128.847,448.34 127.514,447.674 126.5,446.5 Z"/></g>
<g><path style="opacity:1" fill="#dcdcdc" d="M 343.5,447.5 C 340.086,450.54 336.086,452.54 331.5,453.5C 335.182,450.992 339.182,448.992 343.5,447.5 Z"/></g>
<g><path style="opacity:1" fill="#d7d7d7" d="M 132.5,449.5 C 135.912,450.042 138.912,451.375 141.5,453.5C 138.088,452.958 135.088,451.625 132.5,449.5 Z"/></g>
<g><path style="opacity:1" fill="#e0e0e0" d="M 143.5,454.5 C 145.553,454.402 147.22,455.069 148.5,456.5C 146.447,456.598 144.78,455.931 143.5,454.5 Z"/></g>
<g><path style="opacity:1" fill="#e0e0e0" d="M 329.5,454.5 C 328.22,455.931 326.553,456.598 324.5,456.5C 325.78,455.069 327.447,454.402 329.5,454.5 Z"/></g>
<g><path style="opacity:1" fill="#888888" d="M 148.5,456.5 C 152.825,456.349 156.491,457.682 159.5,460.5C 155.463,459.935 151.797,458.601 148.5,456.5 Z"/></g>
<g><path style="opacity:1" fill="#bdbdbd" d="M 324.5,456.5 C 319.199,459.269 313.532,461.269 307.5,462.5C 307.5,462.167 307.5,461.833 307.5,461.5C 313.049,459.653 318.716,457.986 324.5,456.5 Z"/></g>
<g><path style="opacity:1" fill="#656565" d="M 307.5,461.5 C 307.5,461.833 307.5,462.167 307.5,462.5C 306.791,463.404 305.791,463.737 304.5,463.5C 303.833,463.5 303.167,463.5 302.5,463.5C 303.635,461.787 305.302,461.12 307.5,461.5 Z"/></g>
<g><path style="opacity:1" fill="#c9c9c9" d="M 165.5,462.5 C 169.258,462.395 172.592,463.395 175.5,465.5C 171.838,465.277 168.505,464.277 165.5,462.5 Z"/></g>
<g><path style="opacity:1" fill="#e4e4e4" d="M 175.5,465.5 C 178.553,465.111 181.22,465.777 183.5,467.5C 180.572,467.435 177.905,466.768 175.5,465.5 Z"/></g>
<g><path style="opacity:1" fill="#d2d2d2" d="M 184.5,467.5 C 187.781,467.42 190.781,468.087 193.5,469.5C 190.219,469.58 187.219,468.913 184.5,467.5 Z"/></g>
<g><path style="opacity:1" fill="#d3d3d3" d="M 302.5,463.5 C 303.167,463.5 303.833,463.5 304.5,463.5C 294.522,466.909 284.188,469.242 273.5,470.5C 282.963,467.803 292.63,465.469 302.5,463.5 Z"/></g>
<g><path style="opacity:1" fill="#cfcfcf" d="M 207.5,471.5 C 209.857,471.337 212.19,471.503 214.5,472C 215.056,472.383 215.389,472.883 215.5,473.5C 213.5,473.5 211.5,473.5 209.5,473.5C 208.833,472.833 208.167,472.167 207.5,471.5 Z"/></g>
<g><path style="opacity:1" fill="#dbdbdb" d="M 265.5,471.5 C 263.833,472.167 262.167,472.833 260.5,473.5C 258.833,473.5 257.167,473.5 255.5,473.5C 255.918,472.778 256.584,472.278 257.5,472C 260.146,471.503 262.813,471.336 265.5,471.5 Z"/></g>
</svg>
